<?xml version="1.0" encoding="utf-8" standalone="no"?>
<!DOCTYPE svg PUBLIC "-//W3C//DTD SVG 1.1//EN"
  "http://www.w3.org/Graphics/SVG/1.1/DTD/svg11.dtd">
<svg xmlns:xlink="http://www.w3.org/1999/xlink" width="570.24pt" height="158.4pt" viewBox="0 0 570.24 158.4" xmlns="http://www.w3.org/2000/svg" version="1.1">
 <metadata>
  <rdf:RDF xmlns:dc="http://purl.org/dc/elements/1.1/" xmlns:cc="http://creativecommons.org/ns#" xmlns:rdf="http://www.w3.org/1999/02/22-rdf-syntax-ns#">
   <cc:Work>
    <dc:type rdf:resource="http://purl.org/dc/dcmitype/StillImage"/>
    <dc:date>2025-04-14T12:57:01.117676</dc:date>
    <dc:format>image/svg+xml</dc:format>
    <dc:creator>
     <cc:Agent>
      <dc:title>Matplotlib v3.9.3, https://matplotlib.org/</dc:title>
     </cc:Agent>
    </dc:creator>
   </cc:Work>
  </rdf:RDF>
 </metadata>
 <defs>
  <style type="text/css">*{stroke-linejoin: round; stroke-linecap: butt}</style>
 </defs>
 <g id="figure_1">
  <g id="patch_1">
   <path d="M 0 158.4 
L 570.24 158.4 
L 570.24 0 
L 0 0 
z
" style="fill: #ffffff"/>
  </g>
  <g id="axes_1">
   <g id="patch_2">
    <path d="M 43.04 116.44 
L 121.952952 116.44 
L 121.952952 24.72 
L 43.04 24.72 
z
" style="fill: #ffffff"/>
   </g>
   <g id="matplotlib.axis_1">
    <g id="xtick_1">
     <g id="line2d_1">
      <defs>
       <path id="m96cc9f2ca8" d="M 0 0 
L 0 3.5 
" style="stroke: #000000; stroke-width: 0.8"/>
      </defs>
      <g>
       <use xlink:href="#m96cc9f2ca8" x="52.904119" y="116.44" style="stroke: #000000; stroke-width: 0.8"/>
      </g>
     </g>
     <g id="text_1">
      <text style="font: 7px 'Arial', sans-serif; text-anchor: middle" x="52.904119" y="128.450469" transform="rotate(-0 52.904119 128.450469)">1xHS</text>
     </g>
    </g>
    <g id="xtick_2">
     <g id="line2d_2">
      <g>
       <use xlink:href="#m96cc9f2ca8" x="72.632357" y="116.44" style="stroke: #000000; stroke-width: 0.8"/>
      </g>
     </g>
     <g id="text_2">
      <text style="font: 7px 'Arial', sans-serif; text-anchor: middle" x="72.632357" y="128.450469" transform="rotate(-0 72.632357 128.450469)">2xHS</text>
     </g>
    </g>
    <g id="xtick_3">
     <g id="line2d_3">
      <g>
       <use xlink:href="#m96cc9f2ca8" x="92.360595" y="116.44" style="stroke: #000000; stroke-width: 0.8"/>
      </g>
     </g>
     <g id="text_3">
      <text style="font: 7px 'Arial', sans-serif; text-anchor: middle" x="92.360595" y="128.450469" transform="rotate(-0 92.360595 128.450469)">3xHS</text>
     </g>
    </g>
    <g id="xtick_4">
     <g id="line2d_4">
      <g>
       <use xlink:href="#m96cc9f2ca8" x="112.088833" y="116.44" style="stroke: #000000; stroke-width: 0.8"/>
      </g>
     </g>
     <g id="text_4">
      <text style="font: 7px 'Arial', sans-serif; text-anchor: middle" x="112.088833" y="128.450469" transform="rotate(-0 112.088833 128.450469)">4xHS</text>
     </g>
    </g>
   </g>
   <g id="matplotlib.axis_2">
    <g id="ytick_1">
     <g id="line2d_5">
      <defs>
       <path id="mc139e3630f" d="M 0 0 
L -3.5 0 
" style="stroke: #000000; stroke-width: 0.8"/>
      </defs>
      <g>
       <use xlink:href="#mc139e3630f" x="43.04" y="103.368875" style="stroke: #000000; stroke-width: 0.8"/>
      </g>
     </g>
     <g id="text_5">
      <text style="font: 6px 'Arial', sans-serif; text-anchor: end" x="36.04" y="105.516219" transform="rotate(-0 36.04 105.516219)">2.5</text>
     </g>
    </g>
    <g id="ytick_2">
     <g id="line2d_6">
      <g>
       <use xlink:href="#mc139e3630f" x="43.04" y="88.337987" style="stroke: #000000; stroke-width: 0.8"/>
      </g>
     </g>
     <g id="text_6">
      <text style="font: 6px 'Arial', sans-serif; text-anchor: end" x="36.04" y="90.485331" transform="rotate(-0 36.04 90.485331)">5.0</text>
     </g>
    </g>
    <g id="ytick_3">
     <g id="line2d_7">
      <g>
       <use xlink:href="#mc139e3630f" x="43.04" y="73.3071" style="stroke: #000000; stroke-width: 0.8"/>
      </g>
     </g>
     <g id="text_7">
      <text style="font: 6px 'Arial', sans-serif; text-anchor: end" x="36.04" y="75.454443" transform="rotate(-0 36.04 75.454443)">7.5</text>
     </g>
    </g>
    <g id="ytick_4">
     <g id="line2d_8">
      <g>
       <use xlink:href="#mc139e3630f" x="43.04" y="58.276212" style="stroke: #000000; stroke-width: 0.8"/>
      </g>
     </g>
     <g id="text_8">
      <text style="font: 6px 'Arial', sans-serif; text-anchor: end" x="36.04" y="60.423556" transform="rotate(-0 36.04 60.423556)">10.0</text>
     </g>
    </g>
    <g id="ytick_5">
     <g id="line2d_9">
      <g>
       <use xlink:href="#mc139e3630f" x="43.04" y="43.245324" style="stroke: #000000; stroke-width: 0.8"/>
      </g>
     </g>
     <g id="text_9">
      <text style="font: 6px 'Arial', sans-serif; text-anchor: end" x="36.04" y="45.392668" transform="rotate(-0 36.04 45.392668)">12.5</text>
     </g>
    </g>
    <g id="ytick_6">
     <g id="line2d_10">
      <g>
       <use xlink:href="#mc139e3630f" x="43.04" y="28.214437" style="stroke: #000000; stroke-width: 0.8"/>
      </g>
     </g>
     <g id="text_10">
      <text style="font: 6px 'Arial', sans-serif; text-anchor: end" x="36.04" y="30.361781" transform="rotate(-0 36.04 30.361781)">15.0</text>
     </g>
    </g>
    <g id="text_11">
     <text style="font: 8px 'Arial', sans-serif; text-anchor: middle" x="18.679688" y="70.58" transform="rotate(-90 18.679688 70.58)">Enhancer activity</text>
    </g>
   </g>
   <g id="line2d_11">
    <path d="M 43.04 112.387407 
L 121.952952 112.387407 
" clip-path="url(#p6376f083ef)" style="fill: none; stroke-dasharray: 3.7,1.6; stroke-dashoffset: 0; stroke: #808080"/>
   </g>
   <g id="patch_3">
    <path d="M 43.04 116.44 
L 43.04 24.72 
" style="fill: none; stroke: #000000; stroke-width: 0.8; stroke-linejoin: miter; stroke-linecap: square"/>
   </g>
   <g id="patch_4">
    <path d="M 43.04 116.44 
L 121.952952 116.44 
" style="fill: none; stroke: #000000; stroke-width: 0.8; stroke-linejoin: miter; stroke-linecap: square"/>
   </g>
   <g id="PathCollection_1">
    <defs>
     <path id="C0_0_78b2079eab" d="M 0 1.581139 
C 0.419323 1.581139 0.821528 1.41454 1.118034 1.118034 
C 1.41454 0.821528 1.581139 0.419323 1.581139 -0 
C 1.581139 -0.419323 1.41454 -0.821528 1.118034 -1.118034 
C 0.821528 -1.41454 0.419323 -1.581139 0 -1.581139 
C -0.419323 -1.581139 -0.821528 -1.41454 -1.118034 -1.118034 
C -1.41454 -0.821528 -1.581139 -0.419323 -1.581139 0 
C -1.581139 0.419323 -1.41454 0.821528 -1.118034 1.118034 
C -0.821528 1.41454 -0.419323 1.581139 0 1.581139 
z
"/>
    </defs>
    <g clip-path="url(#p6376f083ef)">
     <use xlink:href="#C0_0_78b2079eab" x="52.87318" y="101.442465" style="fill: #fdd49e"/>
    </g>
    <g clip-path="url(#p6376f083ef)">
     <use xlink:href="#C0_0_78b2079eab" x="52.978632" y="90.713793" style="fill: #fdd49e"/>
    </g>
    <g clip-path="url(#p6376f083ef)">
     <use xlink:href="#C0_0_78b2079eab" x="51.512556" y="106.834154" style="fill: #fdd49e"/>
    </g>
    <g clip-path="url(#p6376f083ef)">
     <use xlink:href="#C0_0_78b2079eab" x="53.960694" y="99.945705" style="fill: #fdd49e"/>
    </g>
   </g>
   <g id="PathCollection_2">
    <defs>
     <path id="C1_0_70546493d8" d="M 0 1.581139 
C 0.419323 1.581139 0.821528 1.41454 1.118034 1.118034 
C 1.41454 0.821528 1.581139 0.419323 1.581139 -0 
C 1.581139 -0.419323 1.41454 -0.821528 1.118034 -1.118034 
C 0.821528 -1.41454 0.419323 -1.581139 0 -1.581139 
C -0.419323 -1.581139 -0.821528 -1.41454 -1.118034 -1.118034 
C -1.41454 -0.821528 -1.581139 -0.419323 -1.581139 0 
C -1.581139 0.419323 -1.41454 0.821528 -1.118034 1.118034 
C -0.821528 1.41454 -0.419323 1.581139 0 1.581139 
z
"/>
    </defs>
    <g clip-path="url(#p6376f083ef)">
     <use xlink:href="#C1_0_70546493d8" x="74.508543" y="76.12098" style="fill: #fdbb84"/>
    </g>
    <g clip-path="url(#p6376f083ef)">
     <use xlink:href="#C1_0_70546493d8" x="71.497726" y="83.373054" style="fill: #fdbb84"/>
    </g>
    <g clip-path="url(#p6376f083ef)">
     <use xlink:href="#C1_0_70546493d8" x="72.119471" y="92.617318" style="fill: #fdbb84"/>
    </g>
    <g clip-path="url(#p6376f083ef)">
     <use xlink:href="#C1_0_70546493d8" x="72.464942" y="57.639858" style="fill: #fdbb84"/>
    </g>
    <g clip-path="url(#p6376f083ef)">
     <use xlink:href="#C1_0_70546493d8" x="72.882072" y="67.790872" style="fill: #fdbb84"/>
    </g>
    <g clip-path="url(#p6376f083ef)">
     <use xlink:href="#C1_0_70546493d8" x="73.252758" y="78.477813" style="fill: #fdbb84"/>
    </g>
   </g>
   <g id="PathCollection_3">
    <defs>
     <path id="C2_0_dc06080904" d="M 0 1.581139 
C 0.419323 1.581139 0.821528 1.41454 1.118034 1.118034 
C 1.41454 0.821528 1.581139 0.419323 1.581139 -0 
C 1.581139 -0.419323 1.41454 -0.821528 1.118034 -1.118034 
C 0.821528 -1.41454 0.419323 -1.581139 0 -1.581139 
C -0.419323 -1.581139 -0.821528 -1.41454 -1.118034 -1.118034 
C -1.41454 -0.821528 -1.581139 -0.419323 -1.581139 0 
C -1.581139 0.419323 -1.41454 0.821528 -1.118034 1.118034 
C -0.821528 1.41454 -0.419323 1.581139 0 1.581139 
z
"/>
    </defs>
    <g clip-path="url(#p6376f083ef)">
     <use xlink:href="#C2_0_dc06080904" x="92.238505" y="43.500231" style="fill: #fc8d59"/>
    </g>
    <g clip-path="url(#p6376f083ef)">
     <use xlink:href="#C2_0_dc06080904" x="91.886728" y="53.699586" style="fill: #fc8d59"/>
    </g>
    <g clip-path="url(#p6376f083ef)">
     <use xlink:href="#C2_0_dc06080904" x="90.982485" y="58.733739" style="fill: #fc8d59"/>
    </g>
    <g clip-path="url(#p6376f083ef)">
     <use xlink:href="#C2_0_dc06080904" x="94.312327" y="37.749821" style="fill: #fc8d59"/>
    </g>
   </g>
   <g id="PathCollection_4">
    <defs>
     <path id="m171c0400df" d="M 0 1.581139 
C 0.419323 1.581139 0.821528 1.41454 1.118034 1.118034 
C 1.41454 0.821528 1.581139 0.419323 1.581139 0 
C 1.581139 -0.419323 1.41454 -0.821528 1.118034 -1.118034 
C 0.821528 -1.41454 0.419323 -1.581139 0 -1.581139 
C -0.419323 -1.581139 -0.821528 -1.41454 -1.118034 -1.118034 
C -1.41454 -0.821528 -1.581139 -0.419323 -1.581139 0 
C -1.581139 0.419323 -1.41454 0.821528 -1.118034 1.118034 
C -0.821528 1.41454 -0.419323 1.581139 0 1.581139 
z
"/>
    </defs>
    <g clip-path="url(#p6376f083ef)">
     <use xlink:href="#m171c0400df" x="112.088833" y="34.275287" style="fill: #d7301f"/>
    </g>
   </g>
   <g id="text_12">
    <text style="font: 8px 'Arial', sans-serif; text-anchor: middle" x="82.496476" y="18.72" transform="rotate(-0 82.496476 18.72)">Distance=0kb</text>
   </g>
  </g>
  <g id="axes_2">
   <g id="patch_5">
    <path d="M 129.844248 116.44 
L 208.7572 116.44 
L 208.7572 24.72 
L 129.844248 24.72 
z
" style="fill: #ffffff"/>
   </g>
   <g id="matplotlib.axis_3">
    <g id="xtick_5">
     <g id="line2d_12">
      <g>
       <use xlink:href="#m96cc9f2ca8" x="139.708367" y="116.44" style="stroke: #000000; stroke-width: 0.8"/>
      </g>
     </g>
     <g id="text_13">
      <text style="font: 7px 'Arial', sans-serif; text-anchor: middle" x="139.708367" y="128.450469" transform="rotate(-0 139.708367 128.450469)">1xHS</text>
     </g>
    </g>
    <g id="xtick_6">
     <g id="line2d_13">
      <g>
       <use xlink:href="#m96cc9f2ca8" x="159.436605" y="116.44" style="stroke: #000000; stroke-width: 0.8"/>
      </g>
     </g>
     <g id="text_14">
      <text style="font: 7px 'Arial', sans-serif; text-anchor: middle" x="159.436605" y="128.450469" transform="rotate(-0 159.436605 128.450469)">2xHS</text>
     </g>
    </g>
    <g id="xtick_7">
     <g id="line2d_14">
      <g>
       <use xlink:href="#m96cc9f2ca8" x="179.164843" y="116.44" style="stroke: #000000; stroke-width: 0.8"/>
      </g>
     </g>
     <g id="text_15">
      <text style="font: 7px 'Arial', sans-serif; text-anchor: middle" x="179.164843" y="128.450469" transform="rotate(-0 179.164843 128.450469)">3xHS</text>
     </g>
    </g>
    <g id="xtick_8">
     <g id="line2d_15">
      <g>
       <use xlink:href="#m96cc9f2ca8" x="198.893081" y="116.44" style="stroke: #000000; stroke-width: 0.8"/>
      </g>
     </g>
     <g id="text_16">
      <text style="font: 7px 'Arial', sans-serif; text-anchor: middle" x="198.893081" y="128.450469" transform="rotate(-0 198.893081 128.450469)">4xHS</text>
     </g>
    </g>
   </g>
   <g id="matplotlib.axis_4">
    <g id="ytick_7">
     <g id="line2d_16">
      <g>
       <use xlink:href="#mc139e3630f" x="129.844248" y="103.368875" style="stroke: #000000; stroke-width: 0.8"/>
      </g>
     </g>
    </g>
    <g id="ytick_8">
     <g id="line2d_17">
      <g>
       <use xlink:href="#mc139e3630f" x="129.844248" y="88.337987" style="stroke: #000000; stroke-width: 0.8"/>
      </g>
     </g>
    </g>
    <g id="ytick_9">
     <g id="line2d_18">
      <g>
       <use xlink:href="#mc139e3630f" x="129.844248" y="73.3071" style="stroke: #000000; stroke-width: 0.8"/>
      </g>
     </g>
    </g>
    <g id="ytick_10">
     <g id="line2d_19">
      <g>
       <use xlink:href="#mc139e3630f" x="129.844248" y="58.276212" style="stroke: #000000; stroke-width: 0.8"/>
      </g>
     </g>
    </g>
    <g id="ytick_11">
     <g id="line2d_20">
      <g>
       <use xlink:href="#mc139e3630f" x="129.844248" y="43.245324" style="stroke: #000000; stroke-width: 0.8"/>
      </g>
     </g>
    </g>
    <g id="ytick_12">
     <g id="line2d_21">
      <g>
       <use xlink:href="#mc139e3630f" x="129.844248" y="28.214437" style="stroke: #000000; stroke-width: 0.8"/>
      </g>
     </g>
    </g>
   </g>
   <g id="line2d_22">
    <path d="M 129.844248 112.387407 
L 208.7572 112.387407 
" clip-path="url(#p2648ce2ac2)" style="fill: none; stroke-dasharray: 3.7,1.6; stroke-dashoffset: 0; stroke: #808080"/>
   </g>
   <g id="patch_6">
    <path d="M 129.844248 116.44 
L 129.844248 24.72 
" style="fill: none; stroke: #000000; stroke-width: 0.8; stroke-linejoin: miter; stroke-linecap: square"/>
   </g>
   <g id="patch_7">
    <path d="M 129.844248 116.44 
L 208.7572 116.44 
" style="fill: none; stroke: #000000; stroke-width: 0.8; stroke-linejoin: miter; stroke-linecap: square"/>
   </g>
   <g id="PathCollection_5">
    <defs>
     <path id="C3_0_deffbaeda9" d="M 0 1.581139 
C 0.419323 1.581139 0.821528 1.41454 1.118034 1.118034 
C 1.41454 0.821528 1.581139 0.419323 1.581139 -0 
C 1.581139 -0.419323 1.41454 -0.821528 1.118034 -1.118034 
C 0.821528 -1.41454 0.419323 -1.581139 0 -1.581139 
C -0.419323 -1.581139 -0.821528 -1.41454 -1.118034 -1.118034 
C -1.41454 -0.821528 -1.581139 -0.419323 -1.581139 0 
C -1.581139 0.419323 -1.41454 0.821528 -1.118034 1.118034 
C -0.821528 1.41454 -0.419323 1.581139 0 1.581139 
z
"/>
    </defs>
    <g clip-path="url(#p2648ce2ac2)">
     <use xlink:href="#C3_0_deffbaeda9" x="140.115721" y="106.128618" style="fill: #fdd49e"/>
    </g>
    <g clip-path="url(#p2648ce2ac2)">
     <use xlink:href="#C3_0_deffbaeda9" x="141.198886" y="92.433274" style="fill: #fdd49e"/>
    </g>
    <g clip-path="url(#p2648ce2ac2)">
     <use xlink:href="#C3_0_deffbaeda9" x="139.215194" y="101.900537" style="fill: #fdd49e"/>
    </g>
    <g clip-path="url(#p2648ce2ac2)">
     <use xlink:href="#C3_0_deffbaeda9" x="140.580577" y="104.79847" style="fill: #fdd49e"/>
    </g>
   </g>
   <g id="PathCollection_6">
    <defs>
     <path id="C4_0_b128a37c2c" d="M 0 1.581139 
C 0.419323 1.581139 0.821528 1.41454 1.118034 1.118034 
C 1.41454 0.821528 1.581139 0.419323 1.581139 -0 
C 1.581139 -0.419323 1.41454 -0.821528 1.118034 -1.118034 
C 0.821528 -1.41454 0.419323 -1.581139 0 -1.581139 
C -0.419323 -1.581139 -0.821528 -1.41454 -1.118034 -1.118034 
C -1.41454 -0.821528 -1.581139 -0.419323 -1.581139 0 
C -1.581139 0.419323 -1.41454 0.821528 -1.118034 1.118034 
C -0.821528 1.41454 -0.419323 1.581139 0 1.581139 
z
"/>
    </defs>
    <g clip-path="url(#p2648ce2ac2)">
     <use xlink:href="#C4_0_b128a37c2c" x="157.531696" y="74.208654" style="fill: #fdbb84"/>
    </g>
    <g clip-path="url(#p2648ce2ac2)">
     <use xlink:href="#C4_0_b128a37c2c" x="157.640991" y="79.238209" style="fill: #fdbb84"/>
    </g>
    <g clip-path="url(#p2648ce2ac2)">
     <use xlink:href="#C4_0_b128a37c2c" x="159.723845" y="92.174182" style="fill: #fdbb84"/>
    </g>
    <g clip-path="url(#p2648ce2ac2)">
     <use xlink:href="#C4_0_b128a37c2c" x="158.448876" y="52.4806" style="fill: #fdbb84"/>
    </g>
    <g clip-path="url(#p2648ce2ac2)">
     <use xlink:href="#C4_0_b128a37c2c" x="158.028744" y="69.452058" style="fill: #fdbb84"/>
    </g>
    <g clip-path="url(#p2648ce2ac2)">
     <use xlink:href="#C4_0_b128a37c2c" x="157.813522" y="76.717785" style="fill: #fdbb84"/>
    </g>
   </g>
   <g id="PathCollection_7">
    <defs>
     <path id="C5_0_1bf447355a" d="M 0 1.581139 
C 0.419323 1.581139 0.821528 1.41454 1.118034 1.118034 
C 1.41454 0.821528 1.581139 0.419323 1.581139 -0 
C 1.581139 -0.419323 1.41454 -0.821528 1.118034 -1.118034 
C 0.821528 -1.41454 0.419323 -1.581139 0 -1.581139 
C -0.419323 -1.581139 -0.821528 -1.41454 -1.118034 -1.118034 
C -1.41454 -0.821528 -1.581139 -0.419323 -1.581139 0 
C -1.581139 0.419323 -1.41454 0.821528 -1.118034 1.118034 
C -0.821528 1.41454 -0.419323 1.581139 0 1.581139 
z
"/>
    </defs>
    <g clip-path="url(#p2648ce2ac2)">
     <use xlink:href="#C5_0_1bf447355a" x="177.928493" y="41.109025" style="fill: #fc8d59"/>
    </g>
    <g clip-path="url(#p2648ce2ac2)">
     <use xlink:href="#C5_0_1bf447355a" x="180.574039" y="50.104851" style="fill: #fc8d59"/>
    </g>
    <g clip-path="url(#p2648ce2ac2)">
     <use xlink:href="#C5_0_1bf447355a" x="180.600462" y="58.375591" style="fill: #fc8d59"/>
    </g>
    <g clip-path="url(#p2648ce2ac2)">
     <use xlink:href="#C5_0_1bf447355a" x="178.48951" y="31.832107" style="fill: #fc8d59"/>
    </g>
   </g>
   <g id="PathCollection_8">
    <g clip-path="url(#p2648ce2ac2)">
     <use xlink:href="#m171c0400df" x="198.893081" y="28.889091" style="fill: #d7301f"/>
    </g>
   </g>
   <g id="text_17">
    <text style="font: 8px 'Arial', sans-serif; text-anchor: middle" x="169.300724" y="18.72" transform="rotate(-0 169.300724 18.72)">Distance=3kb</text>
   </g>
  </g>
  <g id="axes_3">
   <g id="patch_8">
    <path d="M 216.648495 116.44 
L 295.561448 116.44 
L 295.561448 24.72 
L 216.648495 24.72 
z
" style="fill: #ffffff"/>
   </g>
   <g id="matplotlib.axis_5">
    <g id="xtick_9">
     <g id="line2d_23">
      <g>
       <use xlink:href="#m96cc9f2ca8" x="226.512614" y="116.44" style="stroke: #000000; stroke-width: 0.8"/>
      </g>
     </g>
     <g id="text_18">
      <text style="font: 7px 'Arial', sans-serif; text-anchor: middle" x="226.512614" y="128.450469" transform="rotate(-0 226.512614 128.450469)">1xHS</text>
     </g>
    </g>
    <g id="xtick_10">
     <g id="line2d_24">
      <g>
       <use xlink:href="#m96cc9f2ca8" x="246.240852" y="116.44" style="stroke: #000000; stroke-width: 0.8"/>
      </g>
     </g>
     <g id="text_19">
      <text style="font: 7px 'Arial', sans-serif; text-anchor: middle" x="246.240852" y="128.450469" transform="rotate(-0 246.240852 128.450469)">2xHS</text>
     </g>
    </g>
    <g id="xtick_11">
     <g id="line2d_25">
      <g>
       <use xlink:href="#m96cc9f2ca8" x="265.969091" y="116.44" style="stroke: #000000; stroke-width: 0.8"/>
      </g>
     </g>
     <g id="text_20">
      <text style="font: 7px 'Arial', sans-serif; text-anchor: middle" x="265.969091" y="128.450469" transform="rotate(-0 265.969091 128.450469)">3xHS</text>
     </g>
    </g>
    <g id="xtick_12">
     <g id="line2d_26">
      <g>
       <use xlink:href="#m96cc9f2ca8" x="285.697329" y="116.44" style="stroke: #000000; stroke-width: 0.8"/>
      </g>
     </g>
     <g id="text_21">
      <text style="font: 7px 'Arial', sans-serif; text-anchor: middle" x="285.697329" y="128.450469" transform="rotate(-0 285.697329 128.450469)">4xHS</text>
     </g>
    </g>
   </g>
   <g id="matplotlib.axis_6">
    <g id="ytick_13">
     <g id="line2d_27">
      <g>
       <use xlink:href="#mc139e3630f" x="216.648495" y="103.368875" style="stroke: #000000; stroke-width: 0.8"/>
      </g>
     </g>
    </g>
    <g id="ytick_14">
     <g id="line2d_28">
      <g>
       <use xlink:href="#mc139e3630f" x="216.648495" y="88.337987" style="stroke: #000000; stroke-width: 0.8"/>
      </g>
     </g>
    </g>
    <g id="ytick_15">
     <g id="line2d_29">
      <g>
       <use xlink:href="#mc139e3630f" x="216.648495" y="73.3071" style="stroke: #000000; stroke-width: 0.8"/>
      </g>
     </g>
    </g>
    <g id="ytick_16">
     <g id="line2d_30">
      <g>
       <use xlink:href="#mc139e3630f" x="216.648495" y="58.276212" style="stroke: #000000; stroke-width: 0.8"/>
      </g>
     </g>
    </g>
    <g id="ytick_17">
     <g id="line2d_31">
      <g>
       <use xlink:href="#mc139e3630f" x="216.648495" y="43.245324" style="stroke: #000000; stroke-width: 0.8"/>
      </g>
     </g>
    </g>
    <g id="ytick_18">
     <g id="line2d_32">
      <g>
       <use xlink:href="#mc139e3630f" x="216.648495" y="28.214437" style="stroke: #000000; stroke-width: 0.8"/>
      </g>
     </g>
    </g>
   </g>
   <g id="line2d_33">
    <path d="M 216.648495 112.387407 
L 295.561448 112.387407 
" clip-path="url(#p301d49dcce)" style="fill: none; stroke-dasharray: 3.7,1.6; stroke-dashoffset: 0; stroke: #808080"/>
   </g>
   <g id="patch_9">
    <path d="M 216.648495 116.44 
L 216.648495 24.72 
" style="fill: none; stroke: #000000; stroke-width: 0.8; stroke-linejoin: miter; stroke-linecap: square"/>
   </g>
   <g id="patch_10">
    <path d="M 216.648495 116.44 
L 295.561448 116.44 
" style="fill: none; stroke: #000000; stroke-width: 0.8; stroke-linejoin: miter; stroke-linecap: square"/>
   </g>
   <g id="PathCollection_9">
    <defs>
     <path id="C6_0_7593387b90" d="M 0 1.581139 
C 0.419323 1.581139 0.821528 1.41454 1.118034 1.118034 
C 1.41454 0.821528 1.581139 0.419323 1.581139 -0 
C 1.581139 -0.419323 1.41454 -0.821528 1.118034 -1.118034 
C 0.821528 -1.41454 0.419323 -1.581139 0 -1.581139 
C -0.419323 -1.581139 -0.821528 -1.41454 -1.118034 -1.118034 
C -1.41454 -0.821528 -1.581139 -0.419323 -1.581139 0 
C -1.581139 0.419323 -1.41454 0.821528 -1.118034 1.118034 
C -0.821528 1.41454 -0.419323 1.581139 0 1.581139 
z
"/>
    </defs>
    <g clip-path="url(#p301d49dcce)">
     <use xlink:href="#C6_0_7593387b90" x="228.011813" y="107.289253" style="fill: #fdd49e"/>
    </g>
    <g clip-path="url(#p301d49dcce)">
     <use xlink:href="#C6_0_7593387b90" x="224.545904" y="97.195893" style="fill: #fdd49e"/>
    </g>
    <g clip-path="url(#p301d49dcce)">
     <use xlink:href="#C6_0_7593387b90" x="227.275342" y="104.698254" style="fill: #fdd49e"/>
    </g>
    <g clip-path="url(#p301d49dcce)">
     <use xlink:href="#C6_0_7593387b90" x="225.986104" y="106.79888" style="fill: #fdd49e"/>
    </g>
   </g>
   <g id="PathCollection_10">
    <defs>
     <path id="C7_0_59715da46e" d="M 0 1.581139 
C 0.419323 1.581139 0.821528 1.41454 1.118034 1.118034 
C 1.41454 0.821528 1.581139 0.419323 1.581139 -0 
C 1.581139 -0.419323 1.41454 -0.821528 1.118034 -1.118034 
C 0.821528 -1.41454 0.419323 -1.581139 0 -1.581139 
C -0.419323 -1.581139 -0.821528 -1.41454 -1.118034 -1.118034 
C -1.41454 -0.821528 -1.581139 -0.419323 -1.581139 0 
C -1.581139 0.419323 -1.41454 0.821528 -1.118034 1.118034 
C -0.821528 1.41454 -0.419323 1.581139 0 1.581139 
z
"/>
    </defs>
    <g clip-path="url(#p301d49dcce)">
     <use xlink:href="#C7_0_59715da46e" x="246.210239" y="81.639574" style="fill: #fdbb84"/>
    </g>
    <g clip-path="url(#p301d49dcce)">
     <use xlink:href="#C7_0_59715da46e" x="244.561285" y="87.01007" style="fill: #fdbb84"/>
    </g>
    <g clip-path="url(#p301d49dcce)">
     <use xlink:href="#C7_0_59715da46e" x="244.654402" y="96.471029" style="fill: #fdbb84"/>
    </g>
    <g clip-path="url(#p301d49dcce)">
     <use xlink:href="#C7_0_59715da46e" x="245.697518" y="67.957195" style="fill: #fdbb84"/>
    </g>
    <g clip-path="url(#p301d49dcce)">
     <use xlink:href="#C7_0_59715da46e" x="246.308966" y="77.536578" style="fill: #fdbb84"/>
    </g>
    <g clip-path="url(#p301d49dcce)">
     <use xlink:href="#C7_0_59715da46e" x="245.6248" y="85.338683" style="fill: #fdbb84"/>
    </g>
   </g>
   <g id="PathCollection_11">
    <defs>
     <path id="C8_0_00f6dc3c9d" d="M 0 1.581139 
C 0.419323 1.581139 0.821528 1.41454 1.118034 1.118034 
C 1.41454 0.821528 1.581139 0.419323 1.581139 -0 
C 1.581139 -0.419323 1.41454 -0.821528 1.118034 -1.118034 
C 0.821528 -1.41454 0.419323 -1.581139 0 -1.581139 
C -0.419323 -1.581139 -0.821528 -1.41454 -1.118034 -1.118034 
C -1.41454 -0.821528 -1.581139 -0.419323 -1.581139 0 
C -1.581139 0.419323 -1.41454 0.821528 -1.118034 1.118034 
C -0.821528 1.41454 -0.419323 1.581139 0 1.581139 
z
"/>
    </defs>
    <g clip-path="url(#p301d49dcce)">
     <use xlink:href="#C8_0_00f6dc3c9d" x="264.896854" y="66.75017" style="fill: #fc8d59"/>
    </g>
    <g clip-path="url(#p301d49dcce)">
     <use xlink:href="#C8_0_00f6dc3c9d" x="265.116805" y="63.449702" style="fill: #fc8d59"/>
    </g>
    <g clip-path="url(#p301d49dcce)">
     <use xlink:href="#C8_0_00f6dc3c9d" x="265.74326" y="71.845633" style="fill: #fc8d59"/>
    </g>
    <g clip-path="url(#p301d49dcce)">
     <use xlink:href="#C8_0_00f6dc3c9d" x="267.538075" y="55.31215" style="fill: #fc8d59"/>
    </g>
   </g>
   <g id="PathCollection_12">
    <g clip-path="url(#p301d49dcce)">
     <use xlink:href="#m171c0400df" x="285.697329" y="52.988807" style="fill: #d7301f"/>
    </g>
   </g>
   <g id="text_22">
    <text style="font: 8px 'Arial', sans-serif; text-anchor: middle" x="256.104971" y="18.72" transform="rotate(-0 256.104971 18.72)">Distance=10kb</text>
   </g>
  </g>
  <g id="axes_4">
   <g id="patch_11">
    <path d="M 303.452743 116.44 
L 382.365695 116.44 
L 382.365695 24.72 
L 303.452743 24.72 
z
" style="fill: #ffffff"/>
   </g>
   <g id="matplotlib.axis_7">
    <g id="xtick_13">
     <g id="line2d_34">
      <g>
       <use xlink:href="#m96cc9f2ca8" x="313.316862" y="116.44" style="stroke: #000000; stroke-width: 0.8"/>
      </g>
     </g>
     <g id="text_23">
      <text style="font: 7px 'Arial', sans-serif; text-anchor: middle" x="313.316862" y="128.450469" transform="rotate(-0 313.316862 128.450469)">1xHS</text>
     </g>
    </g>
    <g id="xtick_14">
     <g id="line2d_35">
      <g>
       <use xlink:href="#m96cc9f2ca8" x="333.0451" y="116.44" style="stroke: #000000; stroke-width: 0.8"/>
      </g>
     </g>
     <g id="text_24">
      <text style="font: 7px 'Arial', sans-serif; text-anchor: middle" x="333.0451" y="128.450469" transform="rotate(-0 333.0451 128.450469)">2xHS</text>
     </g>
    </g>
    <g id="xtick_15">
     <g id="line2d_36">
      <g>
       <use xlink:href="#m96cc9f2ca8" x="352.773338" y="116.44" style="stroke: #000000; stroke-width: 0.8"/>
      </g>
     </g>
     <g id="text_25">
      <text style="font: 7px 'Arial', sans-serif; text-anchor: middle" x="352.773338" y="128.450469" transform="rotate(-0 352.773338 128.450469)">3xHS</text>
     </g>
    </g>
    <g id="xtick_16">
     <g id="line2d_37">
      <g>
       <use xlink:href="#m96cc9f2ca8" x="372.501576" y="116.44" style="stroke: #000000; stroke-width: 0.8"/>
      </g>
     </g>
     <g id="text_26">
      <text style="font: 7px 'Arial', sans-serif; text-anchor: middle" x="372.501576" y="128.450469" transform="rotate(-0 372.501576 128.450469)">4xHS</text>
     </g>
    </g>
   </g>
   <g id="matplotlib.axis_8">
    <g id="ytick_19">
     <g id="line2d_38">
      <g>
       <use xlink:href="#mc139e3630f" x="303.452743" y="103.368875" style="stroke: #000000; stroke-width: 0.8"/>
      </g>
     </g>
    </g>
    <g id="ytick_20">
     <g id="line2d_39">
      <g>
       <use xlink:href="#mc139e3630f" x="303.452743" y="88.337987" style="stroke: #000000; stroke-width: 0.8"/>
      </g>
     </g>
    </g>
    <g id="ytick_21">
     <g id="line2d_40">
      <g>
       <use xlink:href="#mc139e3630f" x="303.452743" y="73.3071" style="stroke: #000000; stroke-width: 0.8"/>
      </g>
     </g>
    </g>
    <g id="ytick_22">
     <g id="line2d_41">
      <g>
       <use xlink:href="#mc139e3630f" x="303.452743" y="58.276212" style="stroke: #000000; stroke-width: 0.8"/>
      </g>
     </g>
    </g>
    <g id="ytick_23">
     <g id="line2d_42">
      <g>
       <use xlink:href="#mc139e3630f" x="303.452743" y="43.245324" style="stroke: #000000; stroke-width: 0.8"/>
      </g>
     </g>
    </g>
    <g id="ytick_24">
     <g id="line2d_43">
      <g>
       <use xlink:href="#mc139e3630f" x="303.452743" y="28.214437" style="stroke: #000000; stroke-width: 0.8"/>
      </g>
     </g>
    </g>
   </g>
   <g id="line2d_44">
    <path d="M 303.452743 112.387407 
L 382.365695 112.387407 
" clip-path="url(#pd8131a240c)" style="fill: none; stroke-dasharray: 3.7,1.6; stroke-dashoffset: 0; stroke: #808080"/>
   </g>
   <g id="patch_12">
    <path d="M 303.452743 116.44 
L 303.452743 24.72 
" style="fill: none; stroke: #000000; stroke-width: 0.8; stroke-linejoin: miter; stroke-linecap: square"/>
   </g>
   <g id="patch_13">
    <path d="M 303.452743 116.44 
L 382.365695 116.44 
" style="fill: none; stroke: #000000; stroke-width: 0.8; stroke-linejoin: miter; stroke-linecap: square"/>
   </g>
   <g id="PathCollection_13">
    <defs>
     <path id="C9_0_ec03a5b3ad" d="M 0 1.581139 
C 0.419323 1.581139 0.821528 1.41454 1.118034 1.118034 
C 1.41454 0.821528 1.581139 0.419323 1.581139 -0 
C 1.581139 -0.419323 1.41454 -0.821528 1.118034 -1.118034 
C 0.821528 -1.41454 0.419323 -1.581139 0 -1.581139 
C -0.419323 -1.581139 -0.821528 -1.41454 -1.118034 -1.118034 
C -1.41454 -0.821528 -1.581139 -0.419323 -1.581139 0 
C -1.581139 0.419323 -1.41454 0.821528 -1.118034 1.118034 
C -0.821528 1.41454 -0.419323 1.581139 0 1.581139 
z
"/>
    </defs>
    <g clip-path="url(#pd8131a240c)">
     <use xlink:href="#C9_0_ec03a5b3ad" x="315.035962" y="109.396879" style="fill: #fdd49e"/>
    </g>
    <g clip-path="url(#pd8131a240c)">
     <use xlink:href="#C9_0_ec03a5b3ad" x="311.446735" y="96.249092" style="fill: #fdd49e"/>
    </g>
    <g clip-path="url(#pd8131a240c)">
     <use xlink:href="#C9_0_ec03a5b3ad" x="312.470512" y="104.648725" style="fill: #fdd49e"/>
    </g>
    <g clip-path="url(#pd8131a240c)">
     <use xlink:href="#C9_0_ec03a5b3ad" x="311.524037" y="108.983235" style="fill: #fdd49e"/>
    </g>
   </g>
   <g id="PathCollection_14">
    <defs>
     <path id="Ca_0_25f77649af" d="M 0 1.581139 
C 0.419323 1.581139 0.821528 1.41454 1.118034 1.118034 
C 1.41454 0.821528 1.581139 0.419323 1.581139 -0 
C 1.581139 -0.419323 1.41454 -0.821528 1.118034 -1.118034 
C 0.821528 -1.41454 0.419323 -1.581139 0 -1.581139 
C -0.419323 -1.581139 -0.821528 -1.41454 -1.118034 -1.118034 
C -1.41454 -0.821528 -1.581139 -0.419323 -1.581139 0 
C -1.581139 0.419323 -1.41454 0.821528 -1.118034 1.118034 
C -0.821528 1.41454 -0.419323 1.581139 0 1.581139 
z
"/>
    </defs>
    <g clip-path="url(#pd8131a240c)">
     <use xlink:href="#Ca_0_25f77649af" x="332.829727" y="79.465696" style="fill: #fdbb84"/>
    </g>
    <g clip-path="url(#pd8131a240c)">
     <use xlink:href="#Ca_0_25f77649af" x="333.336093" y="85.905112" style="fill: #fdbb84"/>
    </g>
    <g clip-path="url(#pd8131a240c)">
     <use xlink:href="#Ca_0_25f77649af" x="332.089073" y="96.728001" style="fill: #fdbb84"/>
    </g>
    <g clip-path="url(#pd8131a240c)">
     <use xlink:href="#Ca_0_25f77649af" x="334.073396" y="72.142849" style="fill: #fdbb84"/>
    </g>
    <g clip-path="url(#pd8131a240c)">
     <use xlink:href="#Ca_0_25f77649af" x="333.031408" y="77.726997" style="fill: #fdbb84"/>
    </g>
    <g clip-path="url(#pd8131a240c)">
     <use xlink:href="#Ca_0_25f77649af" x="331.455356" y="85.037271" style="fill: #fdbb84"/>
    </g>
   </g>
   <g id="PathCollection_15">
    <defs>
     <path id="Cb_0_77de906aee" d="M 0 1.581139 
C 0.419323 1.581139 0.821528 1.41454 1.118034 1.118034 
C 1.41454 0.821528 1.581139 0.419323 1.581139 -0 
C 1.581139 -0.419323 1.41454 -0.821528 1.118034 -1.118034 
C 0.821528 -1.41454 0.419323 -1.581139 0 -1.581139 
C -0.419323 -1.581139 -0.821528 -1.41454 -1.118034 -1.118034 
C -1.41454 -0.821528 -1.581139 -0.419323 -1.581139 0 
C -1.581139 0.419323 -1.41454 0.821528 -1.118034 1.118034 
C -0.821528 1.41454 -0.419323 1.581139 0 1.581139 
z
"/>
    </defs>
    <g clip-path="url(#pd8131a240c)">
     <use xlink:href="#Cb_0_77de906aee" x="351.506182" y="68.441492" style="fill: #fc8d59"/>
    </g>
    <g clip-path="url(#pd8131a240c)">
     <use xlink:href="#Cb_0_77de906aee" x="351.247009" y="71.033887" style="fill: #fc8d59"/>
    </g>
    <g clip-path="url(#pd8131a240c)">
     <use xlink:href="#Cb_0_77de906aee" x="354.612022" y="73.912173" style="fill: #fc8d59"/>
    </g>
    <g clip-path="url(#pd8131a240c)">
     <use xlink:href="#Cb_0_77de906aee" x="354.24604" y="66.671656" style="fill: #fc8d59"/>
    </g>
   </g>
   <g id="PathCollection_16">
    <g clip-path="url(#pd8131a240c)">
     <use xlink:href="#m171c0400df" x="372.501576" y="66.326792" style="fill: #d7301f"/>
    </g>
   </g>
   <g id="text_27">
    <text style="font: 8px 'Arial', sans-serif; text-anchor: middle" x="342.909219" y="18.72" transform="rotate(-0 342.909219 18.72)">Distance=20kb</text>
   </g>
  </g>
  <g id="axes_5">
   <g id="patch_14">
    <path d="M 390.256991 116.44 
L 469.169943 116.44 
L 469.169943 24.72 
L 390.256991 24.72 
z
" style="fill: #ffffff"/>
   </g>
   <g id="matplotlib.axis_9">
    <g id="xtick_17">
     <g id="line2d_45">
      <g>
       <use xlink:href="#m96cc9f2ca8" x="400.12111" y="116.44" style="stroke: #000000; stroke-width: 0.8"/>
      </g>
     </g>
     <g id="text_28">
      <text style="font: 7px 'Arial', sans-serif; text-anchor: middle" x="400.12111" y="128.450469" transform="rotate(-0 400.12111 128.450469)">1xHS</text>
     </g>
    </g>
    <g id="xtick_18">
     <g id="line2d_46">
      <g>
       <use xlink:href="#m96cc9f2ca8" x="419.849348" y="116.44" style="stroke: #000000; stroke-width: 0.8"/>
      </g>
     </g>
     <g id="text_29">
      <text style="font: 7px 'Arial', sans-serif; text-anchor: middle" x="419.849348" y="128.450469" transform="rotate(-0 419.849348 128.450469)">2xHS</text>
     </g>
    </g>
    <g id="xtick_19">
     <g id="line2d_47">
      <g>
       <use xlink:href="#m96cc9f2ca8" x="439.577586" y="116.44" style="stroke: #000000; stroke-width: 0.8"/>
      </g>
     </g>
     <g id="text_30">
      <text style="font: 7px 'Arial', sans-serif; text-anchor: middle" x="439.577586" y="128.450469" transform="rotate(-0 439.577586 128.450469)">3xHS</text>
     </g>
    </g>
    <g id="xtick_20">
     <g id="line2d_48">
      <g>
       <use xlink:href="#m96cc9f2ca8" x="459.305824" y="116.44" style="stroke: #000000; stroke-width: 0.8"/>
      </g>
     </g>
     <g id="text_31">
      <text style="font: 7px 'Arial', sans-serif; text-anchor: middle" x="459.305824" y="128.450469" transform="rotate(-0 459.305824 128.450469)">4xHS</text>
     </g>
    </g>
   </g>
   <g id="matplotlib.axis_10">
    <g id="ytick_25">
     <g id="line2d_49">
      <g>
       <use xlink:href="#mc139e3630f" x="390.256991" y="103.368875" style="stroke: #000000; stroke-width: 0.8"/>
      </g>
     </g>
    </g>
    <g id="ytick_26">
     <g id="line2d_50">
      <g>
       <use xlink:href="#mc139e3630f" x="390.256991" y="88.337987" style="stroke: #000000; stroke-width: 0.8"/>
      </g>
     </g>
    </g>
    <g id="ytick_27">
     <g id="line2d_51">
      <g>
       <use xlink:href="#mc139e3630f" x="390.256991" y="73.3071" style="stroke: #000000; stroke-width: 0.8"/>
      </g>
     </g>
    </g>
    <g id="ytick_28">
     <g id="line2d_52">
      <g>
       <use xlink:href="#mc139e3630f" x="390.256991" y="58.276212" style="stroke: #000000; stroke-width: 0.8"/>
      </g>
     </g>
    </g>
    <g id="ytick_29">
     <g id="line2d_53">
      <g>
       <use xlink:href="#mc139e3630f" x="390.256991" y="43.245324" style="stroke: #000000; stroke-width: 0.8"/>
      </g>
     </g>
    </g>
    <g id="ytick_30">
     <g id="line2d_54">
      <g>
       <use xlink:href="#mc139e3630f" x="390.256991" y="28.214437" style="stroke: #000000; stroke-width: 0.8"/>
      </g>
     </g>
    </g>
   </g>
   <g id="line2d_55">
    <path d="M 390.256991 112.387407 
L 469.169943 112.387407 
" clip-path="url(#p10770f6cc6)" style="fill: none; stroke-dasharray: 3.7,1.6; stroke-dashoffset: 0; stroke: #808080"/>
   </g>
   <g id="patch_15">
    <path d="M 390.256991 116.44 
L 390.256991 24.72 
" style="fill: none; stroke: #000000; stroke-width: 0.8; stroke-linejoin: miter; stroke-linecap: square"/>
   </g>
   <g id="patch_16">
    <path d="M 390.256991 116.44 
L 469.169943 116.44 
" style="fill: none; stroke: #000000; stroke-width: 0.8; stroke-linejoin: miter; stroke-linecap: square"/>
   </g>
   <g id="PathCollection_17">
    <defs>
     <path id="Cc_0_d55ba8c3b1" d="M 0 1.581139 
C 0.419323 1.581139 0.821528 1.41454 1.118034 1.118034 
C 1.41454 0.821528 1.581139 0.419323 1.581139 -0 
C 1.581139 -0.419323 1.41454 -0.821528 1.118034 -1.118034 
C 0.821528 -1.41454 0.419323 -1.581139 0 -1.581139 
C -0.419323 -1.581139 -0.821528 -1.41454 -1.118034 -1.118034 
C -1.41454 -0.821528 -1.581139 -0.419323 -1.581139 0 
C -1.581139 0.419323 -1.41454 0.821528 -1.118034 1.118034 
C -0.821528 1.41454 -0.419323 1.581139 0 1.581139 
z
"/>
    </defs>
    <g clip-path="url(#p10770f6cc6)">
     <use xlink:href="#Cc_0_d55ba8c3b1" x="401.295185" y="109.281554" style="fill: #fdd49e"/>
    </g>
    <g clip-path="url(#p10770f6cc6)">
     <use xlink:href="#Cc_0_d55ba8c3b1" x="400.491274" y="94.876959" style="fill: #fdd49e"/>
    </g>
    <g clip-path="url(#p10770f6cc6)">
     <use xlink:href="#Cc_0_d55ba8c3b1" x="400.235456" y="105.658627" style="fill: #fdd49e"/>
    </g>
    <g clip-path="url(#p10770f6cc6)">
     <use xlink:href="#Cc_0_d55ba8c3b1" x="400.501615" y="109.669645" style="fill: #fdd49e"/>
    </g>
   </g>
   <g id="PathCollection_18">
    <defs>
     <path id="Cd_0_340c9ef2d5" d="M 0 1.581139 
C 0.419323 1.581139 0.821528 1.41454 1.118034 1.118034 
C 1.41454 0.821528 1.581139 0.419323 1.581139 -0 
C 1.581139 -0.419323 1.41454 -0.821528 1.118034 -1.118034 
C 0.821528 -1.41454 0.419323 -1.581139 0 -1.581139 
C -0.419323 -1.581139 -0.821528 -1.41454 -1.118034 -1.118034 
C -1.41454 -0.821528 -1.581139 -0.419323 -1.581139 0 
C -1.581139 0.419323 -1.41454 0.821528 -1.118034 1.118034 
C -0.821528 1.41454 -0.419323 1.581139 0 1.581139 
z
"/>
    </defs>
    <g clip-path="url(#p10770f6cc6)">
     <use xlink:href="#Cd_0_340c9ef2d5" x="419.337254" y="80.863028" style="fill: #fdbb84"/>
    </g>
    <g clip-path="url(#p10770f6cc6)">
     <use xlink:href="#Cd_0_340c9ef2d5" x="418.391062" y="90.764195" style="fill: #fdbb84"/>
    </g>
    <g clip-path="url(#p10770f6cc6)">
     <use xlink:href="#Cd_0_340c9ef2d5" x="418.686597" y="101.744489" style="fill: #fdbb84"/>
    </g>
    <g clip-path="url(#p10770f6cc6)">
     <use xlink:href="#Cd_0_340c9ef2d5" x="420.907665" y="74.472158" style="fill: #fdbb84"/>
    </g>
    <g clip-path="url(#p10770f6cc6)">
     <use xlink:href="#Cd_0_340c9ef2d5" x="419.352721" y="79.212795" style="fill: #fdbb84"/>
    </g>
    <g clip-path="url(#p10770f6cc6)">
     <use xlink:href="#Cd_0_340c9ef2d5" x="419.977028" y="89.714166" style="fill: #fdbb84"/>
    </g>
   </g>
   <g id="PathCollection_19">
    <defs>
     <path id="Ce_0_330241b5c0" d="M 0 1.581139 
C 0.419323 1.581139 0.821528 1.41454 1.118034 1.118034 
C 1.41454 0.821528 1.581139 0.419323 1.581139 -0 
C 1.581139 -0.419323 1.41454 -0.821528 1.118034 -1.118034 
C 0.821528 -1.41454 0.419323 -1.581139 0 -1.581139 
C -0.419323 -1.581139 -0.821528 -1.41454 -1.118034 -1.118034 
C -1.41454 -0.821528 -1.581139 -0.419323 -1.581139 0 
C -1.581139 0.419323 -1.41454 0.821528 -1.118034 1.118034 
C -0.821528 1.41454 -0.419323 1.581139 0 1.581139 
z
"/>
    </defs>
    <g clip-path="url(#p10770f6cc6)">
     <use xlink:href="#Ce_0_330241b5c0" x="440.951349" y="71.92741" style="fill: #fc8d59"/>
    </g>
    <g clip-path="url(#p10770f6cc6)">
     <use xlink:href="#Ce_0_330241b5c0" x="439.27684" y="72.816143" style="fill: #fc8d59"/>
    </g>
    <g clip-path="url(#p10770f6cc6)">
     <use xlink:href="#Ce_0_330241b5c0" x="439.441754" y="79.842367" style="fill: #fc8d59"/>
    </g>
    <g clip-path="url(#p10770f6cc6)">
     <use xlink:href="#Ce_0_330241b5c0" x="438.122509" y="70.918507" style="fill: #fc8d59"/>
    </g>
   </g>
   <g id="PathCollection_20">
    <g clip-path="url(#p10770f6cc6)">
     <use xlink:href="#m171c0400df" x="459.305824" y="69.979757" style="fill: #d7301f"/>
    </g>
   </g>
   <g id="text_32">
    <text style="font: 8px 'Arial', sans-serif; text-anchor: middle" x="429.713467" y="18.72" transform="rotate(-0 429.713467 18.72)">Distance=50kb</text>
   </g>
  </g>
  <g id="axes_6">
   <g id="patch_17">
    <path d="M 477.061238 116.44 
L 555.974191 116.44 
L 555.974191 24.72 
L 477.061238 24.72 
z
" style="fill: #ffffff"/>
   </g>
   <g id="matplotlib.axis_11">
    <g id="xtick_21">
     <g id="line2d_56">
      <g>
       <use xlink:href="#m96cc9f2ca8" x="486.925357" y="116.44" style="stroke: #000000; stroke-width: 0.8"/>
      </g>
     </g>
     <g id="text_33">
      <text style="font: 7px 'Arial', sans-serif; text-anchor: middle" x="486.925357" y="128.450469" transform="rotate(-0 486.925357 128.450469)">1xHS</text>
     </g>
    </g>
    <g id="xtick_22">
     <g id="line2d_57">
      <g>
       <use xlink:href="#m96cc9f2ca8" x="506.653595" y="116.44" style="stroke: #000000; stroke-width: 0.8"/>
      </g>
     </g>
     <g id="text_34">
      <text style="font: 7px 'Arial', sans-serif; text-anchor: middle" x="506.653595" y="128.450469" transform="rotate(-0 506.653595 128.450469)">2xHS</text>
     </g>
    </g>
    <g id="xtick_23">
     <g id="line2d_58">
      <g>
       <use xlink:href="#m96cc9f2ca8" x="526.381833" y="116.44" style="stroke: #000000; stroke-width: 0.8"/>
      </g>
     </g>
     <g id="text_35">
      <text style="font: 7px 'Arial', sans-serif; text-anchor: middle" x="526.381833" y="128.450469" transform="rotate(-0 526.381833 128.450469)">3xHS</text>
     </g>
    </g>
    <g id="xtick_24">
     <g id="line2d_59">
      <g>
       <use xlink:href="#m96cc9f2ca8" x="546.110071" y="116.44" style="stroke: #000000; stroke-width: 0.8"/>
      </g>
     </g>
     <g id="text_36">
      <text style="font: 7px 'Arial', sans-serif; text-anchor: middle" x="546.110071" y="128.450469" transform="rotate(-0 546.110071 128.450469)">4xHS</text>
     </g>
    </g>
   </g>
   <g id="matplotlib.axis_12">
    <g id="ytick_31">
     <g id="line2d_60">
      <g>
       <use xlink:href="#mc139e3630f" x="477.061238" y="103.368875" style="stroke: #000000; stroke-width: 0.8"/>
      </g>
     </g>
    </g>
    <g id="ytick_32">
     <g id="line2d_61">
      <g>
       <use xlink:href="#mc139e3630f" x="477.061238" y="88.337987" style="stroke: #000000; stroke-width: 0.8"/>
      </g>
     </g>
    </g>
    <g id="ytick_33">
     <g id="line2d_62">
      <g>
       <use xlink:href="#mc139e3630f" x="477.061238" y="73.3071" style="stroke: #000000; stroke-width: 0.8"/>
      </g>
     </g>
    </g>
    <g id="ytick_34">
     <g id="line2d_63">
      <g>
       <use xlink:href="#mc139e3630f" x="477.061238" y="58.276212" style="stroke: #000000; stroke-width: 0.8"/>
      </g>
     </g>
    </g>
    <g id="ytick_35">
     <g id="line2d_64">
      <g>
       <use xlink:href="#mc139e3630f" x="477.061238" y="43.245324" style="stroke: #000000; stroke-width: 0.8"/>
      </g>
     </g>
    </g>
    <g id="ytick_36">
     <g id="line2d_65">
      <g>
       <use xlink:href="#mc139e3630f" x="477.061238" y="28.214437" style="stroke: #000000; stroke-width: 0.8"/>
      </g>
     </g>
    </g>
   </g>
   <g id="line2d_66">
    <path d="M 477.061238 112.387407 
L 555.974191 112.387407 
" clip-path="url(#p91fe632d91)" style="fill: none; stroke-dasharray: 3.7,1.6; stroke-dashoffset: 0; stroke: #808080"/>
   </g>
   <g id="patch_18">
    <path d="M 477.061238 116.44 
L 477.061238 24.72 
" style="fill: none; stroke: #000000; stroke-width: 0.8; stroke-linejoin: miter; stroke-linecap: square"/>
   </g>
   <g id="patch_19">
    <path d="M 477.061238 116.44 
L 555.974191 116.44 
" style="fill: none; stroke: #000000; stroke-width: 0.8; stroke-linejoin: miter; stroke-linecap: square"/>
   </g>
   <g id="PathCollection_21">
    <defs>
     <path id="Cf_0_e4cb85d687" d="M 0 1.581139 
C 0.419323 1.581139 0.821528 1.41454 1.118034 1.118034 
C 1.41454 0.821528 1.581139 0.419323 1.581139 -0 
C 1.581139 -0.419323 1.41454 -0.821528 1.118034 -1.118034 
C 0.821528 -1.41454 0.419323 -1.581139 0 -1.581139 
C -0.419323 -1.581139 -0.821528 -1.41454 -1.118034 -1.118034 
C -1.41454 -0.821528 -1.581139 -0.419323 -1.581139 0 
C -1.581139 0.419323 -1.41454 0.821528 -1.118034 1.118034 
C -0.821528 1.41454 -0.419323 1.581139 0 1.581139 
z
"/>
    </defs>
    <g clip-path="url(#p91fe632d91)">
     <use xlink:href="#Cf_0_e4cb85d687" x="485.086234" y="111.936147" style="fill: #fdd49e"/>
    </g>
    <g clip-path="url(#p91fe632d91)">
     <use xlink:href="#Cf_0_e4cb85d687" x="486.620318" y="110.663945" style="fill: #fdd49e"/>
    </g>
    <g clip-path="url(#p91fe632d91)">
     <use xlink:href="#Cf_0_e4cb85d687" x="488.501488" y="111.929164" style="fill: #fdd49e"/>
    </g>
    <g clip-path="url(#p91fe632d91)">
     <use xlink:href="#Cf_0_e4cb85d687" x="487.566667" y="112.270909" style="fill: #fdd49e"/>
    </g>
   </g>
   <g id="PathCollection_22">
    <defs>
     <path id="C10_0_0b602a9fbe" d="M 0 1.581139 
C 0.419323 1.581139 0.821528 1.41454 1.118034 1.118034 
C 1.41454 0.821528 1.581139 0.419323 1.581139 -0 
C 1.581139 -0.419323 1.41454 -0.821528 1.118034 -1.118034 
C 0.821528 -1.41454 0.419323 -1.581139 0 -1.581139 
C -0.419323 -1.581139 -0.821528 -1.41454 -1.118034 -1.118034 
C -1.41454 -0.821528 -1.581139 -0.419323 -1.581139 0 
C -1.581139 0.419323 -1.41454 0.821528 -1.118034 1.118034 
C -0.821528 1.41454 -0.419323 1.581139 0 1.581139 
z
"/>
    </defs>
    <g clip-path="url(#p91fe632d91)">
     <use xlink:href="#C10_0_0b602a9fbe" x="507.606184" y="105.158423" style="fill: #fdbb84"/>
    </g>
    <g clip-path="url(#p91fe632d91)">
     <use xlink:href="#C10_0_0b602a9fbe" x="505.885826" y="104.587379" style="fill: #fdbb84"/>
    </g>
    <g clip-path="url(#p91fe632d91)">
     <use xlink:href="#C10_0_0b602a9fbe" x="506.608849" y="109.818266" style="fill: #fdbb84"/>
    </g>
    <g clip-path="url(#p91fe632d91)">
     <use xlink:href="#C10_0_0b602a9fbe" x="504.786083" y="95.052535" style="fill: #fdbb84"/>
    </g>
    <g clip-path="url(#p91fe632d91)">
     <use xlink:href="#C10_0_0b602a9fbe" x="506.465295" y="104.706663" style="fill: #fdbb84"/>
    </g>
    <g clip-path="url(#p91fe632d91)">
     <use xlink:href="#C10_0_0b602a9fbe" x="505.926254" y="103.607465" style="fill: #fdbb84"/>
    </g>
   </g>
   <g id="PathCollection_23">
    <defs>
     <path id="C11_0_012168f91f" d="M 0 1.581139 
C 0.419323 1.581139 0.821528 1.41454 1.118034 1.118034 
C 1.41454 0.821528 1.581139 0.419323 1.581139 -0 
C 1.581139 -0.419323 1.41454 -0.821528 1.118034 -1.118034 
C 0.821528 -1.41454 0.419323 -1.581139 0 -1.581139 
C -0.419323 -1.581139 -0.821528 -1.41454 -1.118034 -1.118034 
C -1.41454 -0.821528 -1.581139 -0.419323 -1.581139 0 
C -1.581139 0.419323 -1.41454 0.821528 -1.118034 1.118034 
C -0.821528 1.41454 -0.419323 1.581139 0 1.581139 
z
"/>
    </defs>
    <g clip-path="url(#p91fe632d91)">
     <use xlink:href="#C11_0_012168f91f" x="525.250934" y="88.417224" style="fill: #fc8d59"/>
    </g>
    <g clip-path="url(#p91fe632d91)">
     <use xlink:href="#C11_0_012168f91f" x="525.433862" y="96.225055" style="fill: #fc8d59"/>
    </g>
    <g clip-path="url(#p91fe632d91)">
     <use xlink:href="#C11_0_012168f91f" x="527.965123" y="93.541429" style="fill: #fc8d59"/>
    </g>
    <g clip-path="url(#p91fe632d91)">
     <use xlink:href="#C11_0_012168f91f" x="527.815011" y="85.581695" style="fill: #fc8d59"/>
    </g>
   </g>
   <g id="PathCollection_24">
    <g clip-path="url(#p91fe632d91)">
     <use xlink:href="#m171c0400df" x="546.110071" y="82.347457" style="fill: #d7301f"/>
    </g>
   </g>
   <g id="text_37">
    <text style="font: 8px 'Arial', sans-serif; text-anchor: middle" x="516.517714" y="18.72" transform="rotate(-0 516.517714 18.72)">Distance=100kb</text>
   </g>
  </g>
 </g>
 <defs>
  <clipPath id="p6376f083ef">
   <rect x="43.04" y="24.72" width="78.912952" height="91.72"/>
  </clipPath>
  <clipPath id="p2648ce2ac2">
   <rect x="129.844248" y="24.72" width="78.912952" height="91.72"/>
  </clipPath>
  <clipPath id="p301d49dcce">
   <rect x="216.648495" y="24.72" width="78.912952" height="91.72"/>
  </clipPath>
  <clipPath id="pd8131a240c">
   <rect x="303.452743" y="24.72" width="78.912952" height="91.72"/>
  </clipPath>
  <clipPath id="p10770f6cc6">
   <rect x="390.256991" y="24.72" width="78.912952" height="91.72"/>
  </clipPath>
  <clipPath id="p91fe632d91">
   <rect x="477.061238" y="24.72" width="78.912952" height="91.72"/>
  </clipPath>
 </defs>
</svg>
