<?xml version="1.0" encoding="utf-8" standalone="no"?>
<!DOCTYPE svg PUBLIC "-//W3C//DTD SVG 1.1//EN"
  "http://www.w3.org/Graphics/SVG/1.1/DTD/svg11.dtd">
<svg xmlns:xlink="http://www.w3.org/1999/xlink" width="108pt" height="158.4pt" viewBox="0 0 108 158.4" xmlns="http://www.w3.org/2000/svg" version="1.1">
 <metadata>
  <rdf:RDF xmlns:dc="http://purl.org/dc/elements/1.1/" xmlns:cc="http://creativecommons.org/ns#" xmlns:rdf="http://www.w3.org/1999/02/22-rdf-syntax-ns#">
   <cc:Work>
    <dc:type rdf:resource="http://purl.org/dc/dcmitype/StillImage"/>
    <dc:date>2025-03-11T16:12:49.553896</dc:date>
    <dc:format>image/svg+xml</dc:format>
    <dc:creator>
     <cc:Agent>
      <dc:title>Matplotlib v3.9.3, https://matplotlib.org/</dc:title>
     </cc:Agent>
    </dc:creator>
   </cc:Work>
  </rdf:RDF>
 </metadata>
 <defs>
  <style type="text/css">*{stroke-linejoin: round; stroke-linecap: butt}</style>
 </defs>
 <g id="figure_1">
  <g id="patch_1">
   <path d="M 0 158.4 
L 108 158.4 
L 108 0 
L 0 0 
z
" style="fill: #ffffff"/>
  </g>
  <g id="axes_1">
   <g id="patch_2">
    <path d="M 13.5 140.976 
L 97.2 140.976 
L 97.2 19.008 
L 13.5 19.008 
z
" style="fill: #ffffff"/>
   </g>
   <g id="PolyCollection_1">
    <defs>
     <path id="m5f81a8ff8d" d="M 34.459226 -47.313485 
L 34.390774 -47.313485 
L 34.371213 -48.124084 
L 34.34522 -48.934682 
L 34.313317 -49.74528 
L 34.277442 -50.555879 
L 34.240998 -51.366477 
L 34.208446 -52.177075 
L 34.184453 -52.987674 
L 34.172804 -53.798272 
L 34.175415 -54.608871 
L 34.191792 -55.419469 
L 34.219131 -56.230067 
L 34.253004 -57.040666 
L 34.288368 -57.851264 
L 34.320528 -58.661862 
L 34.345779 -59.472461 
L 34.361614 -60.283059 
L 34.366615 -61.093657 
L 34.360208 -61.904256 
L 34.342481 -62.714854 
L 34.314107 -63.525453 
L 34.276267 -64.336051 
L 34.230363 -65.146649 
L 34.177336 -65.957248 
L 34.116603 -66.767846 
L 34.044892 -67.578444 
L 33.955468 -68.389043 
L 33.838275 -69.199641 
L 33.681292 -70.010239 
L 33.472931 -70.820838 
L 33.204873 -71.631436 
L 32.874445 -72.442035 
L 32.485752 -73.252633 
L 32.04916 -74.063231 
L 31.579235 -74.87383 
L 31.091712 -75.684428 
L 30.60028 -76.495026 
L 30.114014 -77.305625 
L 29.636119 -78.116223 
L 29.164448 -78.926821 
L 28.693762 -79.73742 
L 28.219201 -80.548018 
L 27.739777 -81.358617 
L 27.260406 -82.169215 
L 26.791238 -82.979813 
L 26.343991 -83.790412 
L 25.926272 -84.60101 
L 25.536009 -85.411608 
L 25.158463 -86.222207 
L 24.767526 -87.032805 
L 24.331476 -87.843403 
L 23.821612 -88.654002 
L 23.220997 -89.4646 
L 22.530488 -90.275199 
L 21.770162 -91.085797 
L 20.975886 -91.896395 
L 20.192334 -92.706994 
L 19.464757 -93.517592 
L 18.831988 -94.32819 
L 18.322564 -95.138789 
L 17.954682 -95.949387 
L 17.739357 -96.759985 
L 17.685 -97.570584 
L 17.800999 -98.381182 
L 18.098275 -99.191781 
L 18.586028 -100.002379 
L 19.265767 -100.812977 
L 20.125316 -101.623576 
L 21.135924 -102.434174 
L 22.25448 -103.244772 
L 23.430587 -104.055371 
L 24.615937 -104.865969 
L 25.772359 -105.676567 
L 26.875594 -106.487166 
L 27.913923 -107.297764 
L 28.883096 -108.108363 
L 29.780405 -108.918961 
L 30.600624 -109.729559 
L 31.335196 -110.540158 
L 31.974357 -111.350756 
L 32.510669 -112.161354 
L 32.942138 -112.971953 
L 33.273669 -113.782551 
L 33.516541 -114.593149 
L 33.686373 -115.403748 
L 33.800516 -116.214346 
L 33.875693 -117.024945 
L 33.926429 -117.835543 
L 33.96432 -118.646141 
L 33.997913 -119.45674 
L 34.032884 -120.267338 
L 34.072276 -121.077936 
L 34.116774 -121.888535 
L 34.165108 -122.699133 
L 34.214667 -123.509731 
L 34.262287 -124.32033 
L 34.305064 -125.130928 
L 34.340971 -125.941527 
L 34.369145 -126.752125 
L 34.389824 -127.562723 
L 34.460176 -127.562723 
L 34.460176 -127.562723 
L 34.480855 -126.752125 
L 34.509029 -125.941527 
L 34.544936 -125.130928 
L 34.587713 -124.32033 
L 34.635333 -123.509731 
L 34.684892 -122.699133 
L 34.733226 -121.888535 
L 34.777724 -121.077936 
L 34.817116 -120.267338 
L 34.852087 -119.45674 
L 34.88568 -118.646141 
L 34.923571 -117.835543 
L 34.974307 -117.024945 
L 35.049484 -116.214346 
L 35.163627 -115.403748 
L 35.333459 -114.593149 
L 35.576331 -113.782551 
L 35.907862 -112.971953 
L 36.339331 -112.161354 
L 36.875643 -111.350756 
L 37.514804 -110.540158 
L 38.249376 -109.729559 
L 39.069595 -108.918961 
L 39.966904 -108.108363 
L 40.936077 -107.297764 
L 41.974406 -106.487166 
L 43.077641 -105.676567 
L 44.234063 -104.865969 
L 45.419413 -104.055371 
L 46.59552 -103.244772 
L 47.714076 -102.434174 
L 48.724684 -101.623576 
L 49.584233 -100.812977 
L 50.263972 -100.002379 
L 50.751725 -99.191781 
L 51.049001 -98.381182 
L 51.165 -97.570584 
L 51.110643 -96.759985 
L 50.895318 -95.949387 
L 50.527436 -95.138789 
L 50.018012 -94.32819 
L 49.385243 -93.517592 
L 48.657666 -92.706994 
L 47.874114 -91.896395 
L 47.079838 -91.085797 
L 46.319512 -90.275199 
L 45.629003 -89.4646 
L 45.028388 -88.654002 
L 44.518524 -87.843403 
L 44.082474 -87.032805 
L 43.691537 -86.222207 
L 43.313991 -85.411608 
L 42.923728 -84.60101 
L 42.506009 -83.790412 
L 42.058762 -82.979813 
L 41.589594 -82.169215 
L 41.110223 -81.358617 
L 40.630799 -80.548018 
L 40.156238 -79.73742 
L 39.685552 -78.926821 
L 39.213881 -78.116223 
L 38.735986 -77.305625 
L 38.24972 -76.495026 
L 37.758288 -75.684428 
L 37.270765 -74.87383 
L 36.80084 -74.063231 
L 36.364248 -73.252633 
L 35.975555 -72.442035 
L 35.645127 -71.631436 
L 35.377069 -70.820838 
L 35.168708 -70.010239 
L 35.011725 -69.199641 
L 34.894532 -68.389043 
L 34.805108 -67.578444 
L 34.733397 -66.767846 
L 34.672664 -65.957248 
L 34.619637 -65.146649 
L 34.573733 -64.336051 
L 34.535893 -63.525453 
L 34.507519 -62.714854 
L 34.489792 -61.904256 
L 34.483385 -61.093657 
L 34.488386 -60.283059 
L 34.504221 -59.472461 
L 34.529472 -58.661862 
L 34.561632 -57.851264 
L 34.596996 -57.040666 
L 34.630869 -56.230067 
L 34.658208 -55.419469 
L 34.674585 -54.608871 
L 34.677196 -53.798272 
L 34.665547 -52.987674 
L 34.641554 -52.177075 
L 34.609002 -51.366477 
L 34.572558 -50.555879 
L 34.536683 -49.74528 
L 34.50478 -48.934682 
L 34.478787 -48.124084 
L 34.459226 -47.313485 
z
" style="stroke: #3f3f3f; stroke-width: 0.75"/>
    </defs>
    <g clip-path="url(#p7b785d79be)">
     <use xlink:href="#m5f81a8ff8d" x="0" y="158.4" style="fill: #e1812c; stroke: #3f3f3f; stroke-width: 0.75"/>
    </g>
   </g>
   <g id="PolyCollection_2">
    <defs>
     <path id="m3b3e76f6c3" d="M 76.322655 -22.968 
L 76.227345 -22.968 
L 76.205602 -24.088 
L 76.176347 -25.208 
L 76.137992 -26.328 
L 76.088952 -27.448 
L 76.02774 -28.568 
L 75.953069 -29.688 
L 75.863938 -30.808 
L 75.7597 -31.928 
L 75.640108 -33.048 
L 75.505334 -34.168 
L 75.355986 -35.288 
L 75.193128 -36.408 
L 75.018326 -37.528 
L 74.833733 -38.648 
L 74.642215 -39.768 
L 74.447503 -40.888 
L 74.254326 -42.008 
L 74.068485 -43.128 
L 73.896789 -44.248 
L 73.746812 -45.368 
L 73.626434 -46.488 
L 73.543182 -47.608 
L 73.503433 -48.728 
L 73.51159 -49.848 
L 73.569368 -50.968 
L 73.675309 -52.088 
L 73.824645 -53.208 
L 74.009523 -54.328 
L 74.219558 -55.448 
L 74.442623 -56.568 
L 74.665718 -57.688 
L 74.875789 -58.808 
L 75.060372 -59.928 
L 75.208018 -61.048 
L 75.308495 -62.168 
L 75.352822 -63.288 
L 75.333218 -64.408 
L 75.243042 -65.528 
L 75.076776 -66.648 
L 74.830075 -67.768 
L 74.49987 -68.888 
L 74.084472 -70.008 
L 73.583671 -71.128 
L 72.998781 -72.248 
L 72.332661 -73.368 
L 71.589715 -74.488 
L 70.775936 -75.608 
L 69.899 -76.728 
L 68.968427 -77.848 
L 67.995782 -78.968 
L 66.99485 -80.088 
L 65.981712 -81.208 
L 64.974649 -82.328 
L 63.993813 -83.448 
L 63.060661 -84.568 
L 62.19716 -85.688 
L 61.424853 -86.808 
L 60.76385 -87.928 
L 60.231871 -89.048 
L 59.843402 -90.168 
L 59.609034 -91.288 
L 59.535 -92.408 
L 59.622921 -93.528 
L 59.869722 -94.648 
L 60.267732 -95.768 
L 60.804955 -96.888 
L 61.465533 -98.008 
L 62.230438 -99.128 
L 63.078363 -100.248 
L 63.986796 -101.368 
L 64.933172 -102.488 
L 65.89597 -103.608 
L 66.855627 -104.728 
L 67.79516 -105.848 
L 68.700447 -106.968 
L 69.560214 -108.088 
L 70.365813 -109.208 
L 71.110933 -110.328 
L 71.791342 -111.448 
L 72.404743 -112.568 
L 72.950721 -113.688 
L 73.430739 -114.808 
L 73.848084 -115.928 
L 74.207669 -117.048 
L 74.515676 -118.168 
L 74.779031 -119.288 
L 75.004797 -120.408 
L 75.199573 -121.528 
L 75.369026 -122.648 
L 75.517605 -123.768 
L 75.648484 -124.888 
L 75.76371 -126.008 
L 75.864492 -127.128 
L 75.951542 -128.248 
L 76.025413 -129.368 
L 76.086741 -130.488 
L 76.136396 -131.608 
L 76.175514 -132.728 
L 76.20545 -133.848 
L 76.34455 -133.848 
L 76.34455 -133.848 
L 76.374486 -132.728 
L 76.413604 -131.608 
L 76.463259 -130.488 
L 76.524587 -129.368 
L 76.598458 -128.248 
L 76.685508 -127.128 
L 76.78629 -126.008 
L 76.901516 -124.888 
L 77.032395 -123.768 
L 77.180974 -122.648 
L 77.350427 -121.528 
L 77.545203 -120.408 
L 77.770969 -119.288 
L 78.034324 -118.168 
L 78.342331 -117.048 
L 78.701916 -115.928 
L 79.119261 -114.808 
L 79.599279 -113.688 
L 80.145257 -112.568 
L 80.758658 -111.448 
L 81.439067 -110.328 
L 82.184187 -109.208 
L 82.989786 -108.088 
L 83.849553 -106.968 
L 84.75484 -105.848 
L 85.694373 -104.728 
L 86.65403 -103.608 
L 87.616828 -102.488 
L 88.563204 -101.368 
L 89.471637 -100.248 
L 90.319562 -99.128 
L 91.084467 -98.008 
L 91.745045 -96.888 
L 92.282268 -95.768 
L 92.680278 -94.648 
L 92.927079 -93.528 
L 93.015 -92.408 
L 92.940966 -91.288 
L 92.706598 -90.168 
L 92.318129 -89.048 
L 91.78615 -87.928 
L 91.125147 -86.808 
L 90.35284 -85.688 
L 89.489339 -84.568 
L 88.556187 -83.448 
L 87.575351 -82.328 
L 86.568288 -81.208 
L 85.55515 -80.088 
L 84.554218 -78.968 
L 83.581573 -77.848 
L 82.651 -76.728 
L 81.774064 -75.608 
L 80.960285 -74.488 
L 80.217339 -73.368 
L 79.551219 -72.248 
L 78.966329 -71.128 
L 78.465528 -70.008 
L 78.05013 -68.888 
L 77.719925 -67.768 
L 77.473224 -66.648 
L 77.306958 -65.528 
L 77.216782 -64.408 
L 77.197178 -63.288 
L 77.241505 -62.168 
L 77.341982 -61.048 
L 77.489628 -59.928 
L 77.674211 -58.808 
L 77.884282 -57.688 
L 78.107377 -56.568 
L 78.330442 -55.448 
L 78.540477 -54.328 
L 78.725355 -53.208 
L 78.874691 -52.088 
L 78.980632 -50.968 
L 79.03841 -49.848 
L 79.046567 -48.728 
L 79.006818 -47.608 
L 78.923566 -46.488 
L 78.803188 -45.368 
L 78.653211 -44.248 
L 78.481515 -43.128 
L 78.295674 -42.008 
L 78.102497 -40.888 
L 77.907785 -39.768 
L 77.716267 -38.648 
L 77.531674 -37.528 
L 77.356872 -36.408 
L 77.194014 -35.288 
L 77.044666 -34.168 
L 76.909892 -33.048 
L 76.7903 -31.928 
L 76.686062 -30.808 
L 76.596931 -29.688 
L 76.52226 -28.568 
L 76.461048 -27.448 
L 76.412008 -26.328 
L 76.373653 -25.208 
L 76.344398 -24.088 
L 76.322655 -22.968 
z
" style="stroke: #3f3f3f; stroke-width: 0.75"/>
    </defs>
    <g clip-path="url(#p7b785d79be)">
     <use xlink:href="#m3b3e76f6c3" x="0" y="158.4" style="fill: #3274a1; stroke: #3f3f3f; stroke-width: 0.75"/>
    </g>
   </g>
   <g id="matplotlib.axis_1">
    <g id="xtick_1">
     <g id="line2d_1">
      <defs>
       <path id="m10f0362ec7" d="M 0 0 
L 0 3.5 
" style="stroke: #000000; stroke-width: 0.8"/>
      </defs>
      <g>
       <use xlink:href="#m10f0362ec7" x="34.425" y="140.976" style="stroke: #000000; stroke-width: 0.8"/>
      </g>
     </g>
     <g id="text_1">
      <text style="font: 8px 'Arial', sans-serif; text-anchor: middle" x="34.425" y="153.70225" transform="rotate(-0 34.425 153.70225)">GATA1</text>
     </g>
    </g>
    <g id="xtick_2">
     <g id="line2d_2">
      <g>
       <use xlink:href="#m10f0362ec7" x="76.275" y="140.976" style="stroke: #000000; stroke-width: 0.8"/>
      </g>
     </g>
     <g id="text_2">
      <text style="font: 8px 'Arial', sans-serif; text-anchor: middle" x="76.275" y="153.79975" transform="rotate(-0 76.275 153.79975)">non_GATA1</text>
     </g>
    </g>
   </g>
   <g id="matplotlib.axis_2">
    <g id="ytick_1">
     <g id="line2d_3">
      <defs>
       <path id="mcd91e29c57" d="M 0 0 
L -3.5 0 
" style="stroke: #000000; stroke-width: 0.8"/>
      </defs>
      <g>
       <use xlink:href="#mcd91e29c57" x="13.5" y="122.559272" style="stroke: #000000; stroke-width: 0.8"/>
      </g>
     </g>
     <g id="text_3">
      <!-- $\mathdefault{10^{1}}$ -->
      <g transform="translate(-6.06 126.684272)">
       <text>
        <tspan style="font: 8px 'Arial'" x="0 4.449219" y="-0.39949999999999974">10</tspan>
        <tspan style="font: 5.6px 'Arial'" x="9.037825" y="-5.975">1</tspan>
       </text>
      </g>
     </g>
    </g>
    <g id="ytick_2">
     <g id="line2d_4">
      <g>
       <use xlink:href="#mcd91e29c57" x="13.5" y="90.422897" style="stroke: #000000; stroke-width: 0.8"/>
      </g>
     </g>
     <g id="text_4">
      <!-- $\mathdefault{10^{3}}$ -->
      <g transform="translate(-6.06 94.547897)">
       <text>
        <tspan style="font: 8px 'Arial'" x="0 4.449219" y="-0.39949999999999974">10</tspan>
        <tspan style="font: 5.6px 'Arial'" x="9.037825" y="-5.975">3</tspan>
       </text>
      </g>
     </g>
    </g>
    <g id="ytick_3">
     <g id="line2d_5">
      <g>
       <use xlink:href="#mcd91e29c57" x="13.5" y="58.286522" style="stroke: #000000; stroke-width: 0.8"/>
      </g>
     </g>
     <g id="text_5">
      <!-- $\mathdefault{10^{5}}$ -->
      <g transform="translate(-6.06 62.371522)">
       <text>
        <tspan style="font: 8px 'Arial'" x="0 4.449219" y="-0.46512500000000045">10</tspan>
        <tspan style="font: 5.6px 'Arial'" x="9.037825" y="-6.040625">5</tspan>
       </text>
      </g>
     </g>
    </g>
    <g id="ytick_4">
     <g id="line2d_6">
      <g>
       <use xlink:href="#mcd91e29c57" x="13.5" y="26.150147" style="stroke: #000000; stroke-width: 0.8"/>
      </g>
     </g>
     <g id="text_6">
      <!-- $\mathdefault{10^{7}}$ -->
      <g transform="translate(-6.06 30.235147)">
       <text>
        <tspan style="font: 8px 'Arial'" x="0 4.449219" y="-0.46512500000000045">10</tspan>
        <tspan style="font: 5.6px 'Arial'" x="9.037825" y="-6.040625">7</tspan>
       </text>
      </g>
     </g>
    </g>
   </g>
   <g id="line2d_7">
    <path d="M 34.425 84.275894 
L 34.425 42.106906 
" clip-path="url(#p7b785d79be)" style="fill: none; stroke: #3f3f3f; stroke-width: 1.125; stroke-linecap: square"/>
   </g>
   <g id="line2d_8">
    <path d="M 34.425 70.330274 
L 34.425 57.700811 
" clip-path="url(#p7b785d79be)" style="fill: none; stroke: #3f3f3f; stroke-width: 3.375; stroke-linecap: square"/>
   </g>
   <g id="line2d_9">
    <path d="M 34.425 63.080944 
" clip-path="url(#p7b785d79be)" style="fill: none; stroke: #3f3f3f; stroke-width: 1.5; stroke-linecap: square"/>
    <defs>
     <path id="m055ac18b1d" d="M 1.40625 0 
L -1.40625 -0 
" style="stroke: #ffffff; stroke-width: 0.675"/>
    </defs>
    <g clip-path="url(#p7b785d79be)">
     <use xlink:href="#m055ac18b1d" x="34.425" y="63.080944" style="fill: #ffffff; stroke: #ffffff; stroke-width: 0.675"/>
    </g>
   </g>
   <g id="line2d_10">
    <path d="M 76.275 84.065104 
L 76.275 43.428386 
" clip-path="url(#p7b785d79be)" style="fill: none; stroke: #3f3f3f; stroke-width: 1.125; stroke-linecap: square"/>
   </g>
   <g id="line2d_11">
    <path d="M 76.275 74.613097 
L 76.275 60.059635 
" clip-path="url(#p7b785d79be)" style="fill: none; stroke: #3f3f3f; stroke-width: 3.375; stroke-linecap: square"/>
   </g>
   <g id="line2d_12">
    <path d="M 76.275 67.345088 
" clip-path="url(#p7b785d79be)" style="fill: none; stroke: #3f3f3f; stroke-width: 1.5; stroke-linecap: square"/>
    <g clip-path="url(#p7b785d79be)">
     <use xlink:href="#m055ac18b1d" x="76.275" y="67.345088" style="fill: #ffffff; stroke: #ffffff; stroke-width: 0.675"/>
    </g>
   </g>
   <g id="patch_3">
    <path d="M 13.5 140.976 
L 13.5 19.008 
" style="fill: none; stroke: #000000; stroke-width: 0.8; stroke-linejoin: miter; stroke-linecap: square"/>
   </g>
   <g id="patch_4">
    <path d="M 97.2 140.976 
L 97.2 19.008 
" style="fill: none; stroke: #000000; stroke-width: 0.8; stroke-linejoin: miter; stroke-linecap: square"/>
   </g>
   <g id="patch_5">
    <path d="M 13.5 140.976 
L 97.2 140.976 
" style="fill: none; stroke: #000000; stroke-width: 0.8; stroke-linejoin: miter; stroke-linecap: square"/>
   </g>
   <g id="patch_6">
    <path d="M 13.5 19.008 
L 97.2 19.008 
" style="fill: none; stroke: #000000; stroke-width: 0.8; stroke-linejoin: miter; stroke-linecap: square"/>
   </g>
   <g id="text_7">
    <text style="font: 8px 'Arial', sans-serif; text-anchor: middle" x="55.35" y="13.008" transform="rotate(-0 55.35 13.008)">E-P distance(bp)</text>
   </g>
  </g>
 </g>
 <defs>
  <clipPath id="p7b785d79be">
   <rect x="13.5" y="19.008" width="83.7" height="121.968"/>
  </clipPath>
 </defs>
</svg>
