<?xml version="1.0" encoding="utf-8" standalone="no"?>
<!DOCTYPE svg PUBLIC "-//W3C//DTD SVG 1.1//EN"
  "http://www.w3.org/Graphics/SVG/1.1/DTD/svg11.dtd">
<svg xmlns:xlink="http://www.w3.org/1999/xlink" width="187.2pt" height="158.4pt" viewBox="0 0 187.2 158.4" xmlns="http://www.w3.org/2000/svg" version="1.1">
 <metadata>
  <rdf:RDF xmlns:dc="http://purl.org/dc/elements/1.1/" xmlns:cc="http://creativecommons.org/ns#" xmlns:rdf="http://www.w3.org/1999/02/22-rdf-syntax-ns#">
   <cc:Work>
    <dc:type rdf:resource="http://purl.org/dc/dcmitype/StillImage"/>
    <dc:date>2025-04-14T12:56:58.001438</dc:date>
    <dc:format>image/svg+xml</dc:format>
    <dc:creator>
     <cc:Agent>
      <dc:title>Matplotlib v3.9.3, https://matplotlib.org/</dc:title>
     </cc:Agent>
    </dc:creator>
   </cc:Work>
  </rdf:RDF>
 </metadata>
 <defs>
  <style type="text/css">*{stroke-linejoin: round; stroke-linecap: butt}</style>
 </defs>
 <g id="figure_1">
  <g id="patch_1">
   <path d="M 0 158.4 
L 187.2 158.4 
L 187.2 0 
L 0 0 
z
" style="fill: #ffffff"/>
  </g>
  <g id="axes_1">
   <g id="patch_2">
    <path d="M 23.4 140.976 
L 168.48 140.976 
L 168.48 19.008 
L 23.4 19.008 
z
" style="fill: #ffffff"/>
   </g>
   <g id="matplotlib.axis_1">
    <g id="xtick_1">
     <g id="line2d_1">
      <defs>
       <path id="m229ff489cb" d="M 0 0 
L 0 3.5 
" style="stroke: #000000; stroke-width: 0.8"/>
      </defs>
      <g>
       <use xlink:href="#m229ff489cb" x="29.994545" y="140.976" style="stroke: #000000; stroke-width: 0.8"/>
      </g>
     </g>
     <g id="text_1">
      <text style="font: 6px 'Arial', sans-serif; text-anchor: middle" x="29.994545" y="152.270688" transform="rotate(-0 29.994545 152.270688)">0</text>
     </g>
    </g>
    <g id="xtick_2">
     <g id="line2d_2">
      <g>
       <use xlink:href="#m229ff489cb" x="95.94" y="140.976" style="stroke: #000000; stroke-width: 0.8"/>
      </g>
     </g>
     <g id="text_2">
      <text style="font: 6px 'Arial', sans-serif; text-anchor: middle" x="95.94" y="152.270688" transform="rotate(-0 95.94 152.270688)">50</text>
     </g>
    </g>
    <g id="xtick_3">
     <g id="line2d_3">
      <g>
       <use xlink:href="#m229ff489cb" x="161.885455" y="140.976" style="stroke: #000000; stroke-width: 0.8"/>
      </g>
     </g>
     <g id="text_3">
      <text style="font: 6px 'Arial', sans-serif; text-anchor: middle" x="161.885455" y="152.270688" transform="rotate(-0 161.885455 152.270688)">100</text>
     </g>
    </g>
    <g id="text_4">
     <text style="font: 8px 'Arial', sans-serif; text-anchor: middle" x="95.94" y="163.286937" transform="rotate(-0 95.94 163.286937)">E-P distance(kb)</text>
    </g>
   </g>
   <g id="matplotlib.axis_2">
    <g id="ytick_1">
     <g id="line2d_4">
      <defs>
       <path id="m84ad3148bb" d="M 0 0 
L -3.5 0 
" style="stroke: #000000; stroke-width: 0.8"/>
      </defs>
      <g>
       <use xlink:href="#m84ad3148bb" x="23.4" y="105.15904" style="stroke: #000000; stroke-width: 0.8"/>
      </g>
     </g>
     <g id="text_5">
      <text style="font: 6px 'Arial', sans-serif; text-anchor: end" x="16.4" y="107.306383" transform="rotate(-0 16.4 107.306383)">5</text>
     </g>
    </g>
    <g id="ytick_2">
     <g id="line2d_5">
      <g>
       <use xlink:href="#m84ad3148bb" x="23.4" y="67.327481" style="stroke: #000000; stroke-width: 0.8"/>
      </g>
     </g>
     <g id="text_6">
      <text style="font: 6px 'Arial', sans-serif; text-anchor: end" x="16.4" y="69.474824" transform="rotate(-0 16.4 69.474824)">10</text>
     </g>
    </g>
    <g id="ytick_3">
     <g id="line2d_6">
      <g>
       <use xlink:href="#m84ad3148bb" x="23.4" y="29.495921" style="stroke: #000000; stroke-width: 0.8"/>
      </g>
     </g>
     <g id="text_7">
      <text style="font: 6px 'Arial', sans-serif; text-anchor: end" x="16.4" y="31.643265" transform="rotate(-0 16.4 31.643265)">15</text>
     </g>
    </g>
    <g id="text_8">
     <text style="font: 8px 'Arial', sans-serif; text-anchor: middle" x="4.043125" y="79.992" transform="rotate(-90 4.043125 79.992)">Enhancer activity</text>
    </g>
   </g>
   <g id="line2d_7">
    <path d="M 29.994545 135.424287 
L 33.951273 135.424287 
L 43.183636 135.424287 
L 56.372727 135.424287 
L 95.94 135.424287 
L 161.885455 135.424287 
" clip-path="url(#pde56e82844)" style="fill: none; stroke: #ffeedd; stroke-width: 0.75; stroke-linecap: square"/>
   </g>
   <g id="LineCollection_1">
    <path d="M 29.994545 135.424287 
L 29.994545 135.424287 
" clip-path="url(#pde56e82844)" style="fill: none; stroke: #ffeedd; stroke-width: 0.75; stroke-linecap: square"/>
    <path d="M 33.951273 135.424287 
L 33.951273 135.424287 
" clip-path="url(#pde56e82844)" style="fill: none; stroke: #ffeedd; stroke-width: 0.75; stroke-linecap: square"/>
    <path d="M 43.183636 135.424287 
L 43.183636 135.424287 
" clip-path="url(#pde56e82844)" style="fill: none; stroke: #ffeedd; stroke-width: 0.75; stroke-linecap: square"/>
    <path d="M 56.372727 135.424287 
L 56.372727 135.424287 
" clip-path="url(#pde56e82844)" style="fill: none; stroke: #ffeedd; stroke-width: 0.75; stroke-linecap: square"/>
    <path d="M 95.94 135.424287 
L 95.94 135.424287 
" clip-path="url(#pde56e82844)" style="fill: none; stroke: #ffeedd; stroke-width: 0.75; stroke-linecap: square"/>
    <path d="M 161.885455 135.424287 
L 161.885455 135.424287 
" clip-path="url(#pde56e82844)" style="fill: none; stroke: #ffeedd; stroke-width: 0.75; stroke-linecap: square"/>
   </g>
   <g id="line2d_8">
    <path d="M 29.994545 121.650509 
L 33.951273 127.547847 
L 43.183636 129.00846 
L 56.372727 131.660825 
L 95.94 131.515693 
L 161.885455 134.856394 
" clip-path="url(#pde56e82844)" style="fill: none; stroke: #fee7d0; stroke-width: 0.75; stroke-linecap: square"/>
   </g>
   <g id="LineCollection_2">
    <path d="M 29.994545 122.949716 
L 29.994545 119.382695 
" clip-path="url(#pde56e82844)" style="fill: none; stroke: #fee7d0; stroke-width: 0.75; stroke-linecap: square"/>
    <path d="M 33.951273 130.586852 
L 33.951273 123.771435 
" clip-path="url(#pde56e82844)" style="fill: none; stroke: #fee7d0; stroke-width: 0.75; stroke-linecap: square"/>
    <path d="M 43.183636 130.070387 
L 43.183636 127.303181 
" clip-path="url(#pde56e82844)" style="fill: none; stroke: #fee7d0; stroke-width: 0.75; stroke-linecap: square"/>
    <path d="M 56.372727 132.04556 
L 56.372727 131.435847 
" clip-path="url(#pde56e82844)" style="fill: none; stroke: #fee7d0; stroke-width: 0.75; stroke-linecap: square"/>
    <path d="M 95.94 132.266221 
L 95.94 131.120761 
" clip-path="url(#pde56e82844)" style="fill: none; stroke: #fee7d0; stroke-width: 0.75; stroke-linecap: square"/>
    <path d="M 161.885455 135.083275 
L 161.885455 134.524031 
" clip-path="url(#pde56e82844)" style="fill: none; stroke: #fee7d0; stroke-width: 0.75; stroke-linecap: square"/>
   </g>
   <g id="line2d_9">
    <path d="M 29.994545 108.148897 
L 33.951273 110.312796 
L 43.183636 116.306365 
L 56.372727 115.114853 
L 95.94 113.388078 
L 161.885455 133.255378 
" clip-path="url(#pde56e82844)" style="fill: none; stroke: #feddbc; stroke-width: 0.75; stroke-linecap: square"/>
   </g>
   <g id="LineCollection_3">
    <path d="M 29.994545 112.599507 
L 29.994545 104.976277 
" clip-path="url(#pde56e82844)" style="fill: none; stroke: #feddbc; stroke-width: 0.75; stroke-linecap: square"/>
    <path d="M 33.951273 112.478354 
L 33.951273 108.911694 
" clip-path="url(#pde56e82844)" style="fill: none; stroke: #feddbc; stroke-width: 0.75; stroke-linecap: square"/>
    <path d="M 43.183636 118.710903 
L 43.183636 113.229843 
" clip-path="url(#pde56e82844)" style="fill: none; stroke: #feddbc; stroke-width: 0.75; stroke-linecap: square"/>
    <path d="M 56.372727 117.752162 
L 56.372727 113.203965 
" clip-path="url(#pde56e82844)" style="fill: none; stroke: #feddbc; stroke-width: 0.75; stroke-linecap: square"/>
    <path d="M 95.94 113.798133 
L 95.94 112.613284 
" clip-path="url(#pde56e82844)" style="fill: none; stroke: #feddbc; stroke-width: 0.75; stroke-linecap: square"/>
    <path d="M 161.885455 133.679801 
L 161.885455 132.574297 
" clip-path="url(#pde56e82844)" style="fill: none; stroke: #feddbc; stroke-width: 0.75; stroke-linecap: square"/>
   </g>
   <g id="line2d_10">
    <path d="M 29.994545 128.435736 
L 33.951273 122.226974 
L 43.183636 125.747791 
L 56.372727 125.68546 
L 95.94 126.956382 
L 161.885455 134.847606 
" clip-path="url(#pde56e82844)" style="fill: none; stroke: #fdd3a7; stroke-width: 0.75; stroke-linecap: square"/>
   </g>
   <g id="LineCollection_4">
    <path d="M 29.994545 129.480863 
L 29.994545 127.855991 
" clip-path="url(#pde56e82844)" style="fill: none; stroke: #fdd3a7; stroke-width: 0.75; stroke-linecap: square"/>
    <path d="M 33.951273 124.443328 
L 33.951273 119.087625 
" clip-path="url(#pde56e82844)" style="fill: none; stroke: #fdd3a7; stroke-width: 0.75; stroke-linecap: square"/>
    <path d="M 43.183636 126.473626 
L 43.183636 124.573668 
" clip-path="url(#pde56e82844)" style="fill: none; stroke: #fdd3a7; stroke-width: 0.75; stroke-linecap: square"/>
    <path d="M 56.372727 126.592896 
L 56.372727 124.379236 
" clip-path="url(#pde56e82844)" style="fill: none; stroke: #fdd3a7; stroke-width: 0.75; stroke-linecap: square"/>
    <path d="M 95.94 128.730229 
L 95.94 125.078938 
" clip-path="url(#pde56e82844)" style="fill: none; stroke: #fdd3a7; stroke-width: 0.75; stroke-linecap: square"/>
    <path d="M 161.885455 135.151176 
L 161.885455 134.294133 
" clip-path="url(#pde56e82844)" style="fill: none; stroke: #fdd3a7; stroke-width: 0.75; stroke-linecap: square"/>
   </g>
   <g id="line2d_11">
    <path d="M 29.994545 119.766894 
L 33.951273 125.873908 
L 43.183636 128.391346 
L 56.372727 131.14027 
L 95.94 132.00409 
L 161.885455 135.277678 
" clip-path="url(#pde56e82844)" style="fill: none; stroke: #fdc48f; stroke-width: 0.75; stroke-linecap: square"/>
   </g>
   <g id="LineCollection_5">
    <path d="M 29.994545 121.229911 
L 29.994545 118.551293 
" clip-path="url(#pde56e82844)" style="fill: none; stroke: #fdc48f; stroke-width: 0.75; stroke-linecap: square"/>
    <path d="M 33.951273 129.044329 
L 33.951273 121.637546 
" clip-path="url(#pde56e82844)" style="fill: none; stroke: #fdc48f; stroke-width: 0.75; stroke-linecap: square"/>
    <path d="M 43.183636 129.238361 
L 43.183636 126.838329 
" clip-path="url(#pde56e82844)" style="fill: none; stroke: #fdc48f; stroke-width: 0.75; stroke-linecap: square"/>
    <path d="M 56.372727 131.722367 
L 56.372727 130.532047 
" clip-path="url(#pde56e82844)" style="fill: none; stroke: #fdc48f; stroke-width: 0.75; stroke-linecap: square"/>
    <path d="M 95.94 133.030941 
L 95.94 131.377654 
" clip-path="url(#pde56e82844)" style="fill: none; stroke: #fdc48f; stroke-width: 0.75; stroke-linecap: square"/>
    <path d="M 161.885455 135.432 
L 161.885455 135.026589 
" clip-path="url(#pde56e82844)" style="fill: none; stroke: #fdc48f; stroke-width: 0.75; stroke-linecap: square"/>
   </g>
   <g id="line2d_12">
    <path d="M 29.994545 89.784418 
L 33.951273 87.377831 
L 43.183636 96.72935 
L 56.372727 93.993611 
L 95.94 95.752098 
L 161.885455 126.326895 
" clip-path="url(#pde56e82844)" style="fill: none; stroke: #fdb475; stroke-width: 0.75; stroke-linecap: square"/>
   </g>
   <g id="LineCollection_6">
    <path d="M 29.994545 97.020711 
L 29.994545 84.902124 
" clip-path="url(#pde56e82844)" style="fill: none; stroke: #fdb475; stroke-width: 0.75; stroke-linecap: square"/>
    <path d="M 33.951273 91.877542 
L 33.951273 81.681872 
" clip-path="url(#pde56e82844)" style="fill: none; stroke: #fdb475; stroke-width: 0.75; stroke-linecap: square"/>
    <path d="M 43.183636 99.856558 
L 43.183636 95.001913 
" clip-path="url(#pde56e82844)" style="fill: none; stroke: #fdb475; stroke-width: 0.75; stroke-linecap: square"/>
    <path d="M 56.372727 98.069755 
L 56.372727 91.484881 
" clip-path="url(#pde56e82844)" style="fill: none; stroke: #fdb475; stroke-width: 0.75; stroke-linecap: square"/>
    <path d="M 95.94 98.29248 
L 95.94 93.028662 
" clip-path="url(#pde56e82844)" style="fill: none; stroke: #fdb475; stroke-width: 0.75; stroke-linecap: square"/>
    <path d="M 161.885455 127.034701 
L 161.885455 125.377302 
" clip-path="url(#pde56e82844)" style="fill: none; stroke: #fdb475; stroke-width: 0.75; stroke-linecap: square"/>
   </g>
   <g id="line2d_13">
    <path d="M 29.994545 98.910867 
L 33.951273 93.707327 
L 43.183636 103.487908 
L 56.372727 102.097362 
L 95.94 108.212327 
L 161.885455 125.608259 
" clip-path="url(#pde56e82844)" style="fill: none; stroke: #fda45d; stroke-width: 0.75; stroke-linecap: square"/>
   </g>
   <g id="LineCollection_7">
    <path d="M 29.994545 104.963835 
L 29.994545 95.150099 
" clip-path="url(#pde56e82844)" style="fill: none; stroke: #fda45d; stroke-width: 0.75; stroke-linecap: square"/>
    <path d="M 33.951273 97.956089 
L 33.951273 88.976482 
" clip-path="url(#pde56e82844)" style="fill: none; stroke: #fda45d; stroke-width: 0.75; stroke-linecap: square"/>
    <path d="M 43.183636 105.693395 
L 43.183636 101.052964 
" clip-path="url(#pde56e82844)" style="fill: none; stroke: #fda45d; stroke-width: 0.75; stroke-linecap: square"/>
    <path d="M 56.372727 107.019606 
L 56.372727 96.948125 
" clip-path="url(#pde56e82844)" style="fill: none; stroke: #fda45d; stroke-width: 0.75; stroke-linecap: square"/>
    <path d="M 95.94 110.961805 
L 95.94 105.632206 
" clip-path="url(#pde56e82844)" style="fill: none; stroke: #fda45d; stroke-width: 0.75; stroke-linecap: square"/>
    <path d="M 161.885455 126.568288 
L 161.885455 124.980571 
" clip-path="url(#pde56e82844)" style="fill: none; stroke: #fda45d; stroke-width: 0.75; stroke-linecap: square"/>
   </g>
   <g id="line2d_14">
    <path d="M 29.994545 110.544409 
L 33.951273 109.986739 
L 43.183636 115.394153 
L 56.372727 115.717541 
L 95.94 122.030594 
L 161.885455 132.191124 
" clip-path="url(#pde56e82844)" style="fill: none; stroke: #fd9547; stroke-width: 0.75; stroke-linecap: square"/>
   </g>
   <g id="LineCollection_8">
    <path d="M 29.994545 114.423977 
L 29.994545 108.521391 
" clip-path="url(#pde56e82844)" style="fill: none; stroke: #fd9547; stroke-width: 0.75; stroke-linecap: square"/>
    <path d="M 33.951273 112.550158 
L 33.951273 108.226415 
" clip-path="url(#pde56e82844)" style="fill: none; stroke: #fd9547; stroke-width: 0.75; stroke-linecap: square"/>
    <path d="M 43.183636 117.731679 
L 43.183636 113.394849 
" clip-path="url(#pde56e82844)" style="fill: none; stroke: #fd9547; stroke-width: 0.75; stroke-linecap: square"/>
    <path d="M 56.372727 118.650429 
L 56.372727 112.90381 
" clip-path="url(#pde56e82844)" style="fill: none; stroke: #fd9547; stroke-width: 0.75; stroke-linecap: square"/>
    <path d="M 95.94 123.235674 
L 95.94 120.508112 
" clip-path="url(#pde56e82844)" style="fill: none; stroke: #fd9547; stroke-width: 0.75; stroke-linecap: square"/>
    <path d="M 161.885455 133.057282 
L 161.885455 131.158227 
" clip-path="url(#pde56e82844)" style="fill: none; stroke: #fd9547; stroke-width: 0.75; stroke-linecap: square"/>
   </g>
   <g id="line2d_15">
    <path d="M 29.994545 66.526654 
L 33.951273 60.033931 
L 43.183636 79.510616 
L 56.372727 84.778097 
L 95.94 87.70944 
L 161.885455 113.609033 
" clip-path="url(#pde56e82844)" style="fill: none; stroke: #fa8532; stroke-width: 0.75; stroke-linecap: square"/>
   </g>
   <g id="LineCollection_9">
    <path d="M 29.994545 72.924831 
L 29.994545 61.540564 
" clip-path="url(#pde56e82844)" style="fill: none; stroke: #fa8532; stroke-width: 0.75; stroke-linecap: square"/>
    <path d="M 33.951273 62.96168 
L 33.951273 57.445992 
" clip-path="url(#pde56e82844)" style="fill: none; stroke: #fa8532; stroke-width: 0.75; stroke-linecap: square"/>
    <path d="M 43.183636 81.03663 
L 43.183636 77.091571 
" clip-path="url(#pde56e82844)" style="fill: none; stroke: #fa8532; stroke-width: 0.75; stroke-linecap: square"/>
    <path d="M 56.372727 91.193712 
L 56.372727 79.858694 
" clip-path="url(#pde56e82844)" style="fill: none; stroke: #fa8532; stroke-width: 0.75; stroke-linecap: square"/>
    <path d="M 95.94 90.257405 
L 95.94 85.491398 
" clip-path="url(#pde56e82844)" style="fill: none; stroke: #fa8532; stroke-width: 0.75; stroke-linecap: square"/>
    <path d="M 161.885455 114.718235 
L 161.885455 111.695643 
" clip-path="url(#pde56e82844)" style="fill: none; stroke: #fa8532; stroke-width: 0.75; stroke-linecap: square"/>
   </g>
   <g id="line2d_16">
    <path d="M 29.994545 79.301305 
L 33.951273 81.391842 
L 43.183636 91.565892 
L 56.372727 91.805526 
L 95.94 93.675345 
L 161.885455 125.758373 
" clip-path="url(#pde56e82844)" style="fill: none; stroke: #f5741f; stroke-width: 0.75; stroke-linecap: square"/>
   </g>
   <g id="LineCollection_10">
    <path d="M 29.994545 86.617516 
L 29.994545 73.634667 
" clip-path="url(#pde56e82844)" style="fill: none; stroke: #f5741f; stroke-width: 0.75; stroke-linecap: square"/>
    <path d="M 33.951273 86.101939 
L 33.951273 75.096392 
" clip-path="url(#pde56e82844)" style="fill: none; stroke: #f5741f; stroke-width: 0.75; stroke-linecap: square"/>
    <path d="M 43.183636 93.915248 
L 43.183636 89.130114 
" clip-path="url(#pde56e82844)" style="fill: none; stroke: #f5741f; stroke-width: 0.75; stroke-linecap: square"/>
    <path d="M 56.372727 97.423983 
L 56.372727 85.910726 
" clip-path="url(#pde56e82844)" style="fill: none; stroke: #f5741f; stroke-width: 0.75; stroke-linecap: square"/>
    <path d="M 95.94 95.515969 
L 95.94 90.736701 
" clip-path="url(#pde56e82844)" style="fill: none; stroke: #f5741f; stroke-width: 0.75; stroke-linecap: square"/>
    <path d="M 161.885455 126.713551 
L 161.885455 124.552256 
" clip-path="url(#pde56e82844)" style="fill: none; stroke: #f5741f; stroke-width: 0.75; stroke-linecap: square"/>
   </g>
   <g id="line2d_17">
    <path d="M 29.994545 92.750399 
L 33.951273 90.535473 
L 43.183636 101.384534 
L 56.372727 101.005218 
L 95.94 106.890906 
L 161.885455 124.375076 
" clip-path="url(#pde56e82844)" style="fill: none; stroke: #ed6310; stroke-width: 0.75; stroke-linecap: square"/>
   </g>
   <g id="LineCollection_11">
    <path d="M 29.994545 97.91696 
L 29.994545 89.760952 
" clip-path="url(#pde56e82844)" style="fill: none; stroke: #ed6310; stroke-width: 0.75; stroke-linecap: square"/>
    <path d="M 33.951273 94.024243 
L 33.951273 87.005284 
" clip-path="url(#pde56e82844)" style="fill: none; stroke: #ed6310; stroke-width: 0.75; stroke-linecap: square"/>
    <path d="M 43.183636 104.266734 
L 43.183636 98.615556 
" clip-path="url(#pde56e82844)" style="fill: none; stroke: #ed6310; stroke-width: 0.75; stroke-linecap: square"/>
    <path d="M 56.372727 104.947781 
L 56.372727 97.495827 
" clip-path="url(#pde56e82844)" style="fill: none; stroke: #ed6310; stroke-width: 0.75; stroke-linecap: square"/>
    <path d="M 95.94 109.658474 
L 95.94 102.732643 
" clip-path="url(#pde56e82844)" style="fill: none; stroke: #ed6310; stroke-width: 0.75; stroke-linecap: square"/>
    <path d="M 161.885455 125.787094 
L 161.885455 123.124574 
" clip-path="url(#pde56e82844)" style="fill: none; stroke: #ed6310; stroke-width: 0.75; stroke-linecap: square"/>
   </g>
   <g id="line2d_18">
    <path d="M 29.994545 48.73249 
L 33.951273 45.723252 
L 43.183636 77.991622 
L 56.372727 80.120085 
L 95.94 84.506975 
L 161.885455 105.258755 
" clip-path="url(#pde56e82844)" style="fill: none; stroke: #e15407; stroke-width: 0.75; stroke-linecap: square"/>
   </g>
   <g id="LineCollection_12">
    <path d="M 29.994545 54.871175 
L 29.994545 43.413535 
" clip-path="url(#pde56e82844)" style="fill: none; stroke: #e15407; stroke-width: 0.75; stroke-linecap: square"/>
    <path d="M 33.951273 49.58329 
L 33.951273 39.942725 
" clip-path="url(#pde56e82844)" style="fill: none; stroke: #e15407; stroke-width: 0.75; stroke-linecap: square"/>
    <path d="M 43.183636 81.661898 
L 43.183636 76.114871 
" clip-path="url(#pde56e82844)" style="fill: none; stroke: #e15407; stroke-width: 0.75; stroke-linecap: square"/>
    <path d="M 56.372727 87.963911 
L 56.372727 73.376034 
" clip-path="url(#pde56e82844)" style="fill: none; stroke: #e15407; stroke-width: 0.75; stroke-linecap: square"/>
    <path d="M 95.94 87.395234 
L 95.94 79.018003 
" clip-path="url(#pde56e82844)" style="fill: none; stroke: #e15407; stroke-width: 0.75; stroke-linecap: square"/>
    <path d="M 161.885455 107.835297 
L 161.885455 101.041928 
" clip-path="url(#pde56e82844)" style="fill: none; stroke: #e15407; stroke-width: 0.75; stroke-linecap: square"/>
   </g>
   <g id="line2d_19">
    <path d="M 29.994545 61.567977 
L 33.951273 57.044145 
L 43.183636 73.838114 
L 56.372727 83.382512 
L 95.94 85.62541 
L 161.885455 115.084604 
" clip-path="url(#pde56e82844)" style="fill: none; stroke: #d34601; stroke-width: 0.75; stroke-linecap: square"/>
   </g>
   <g id="LineCollection_13">
    <path d="M 29.994545 67.946884 
L 29.994545 54.623763 
" clip-path="url(#pde56e82844)" style="fill: none; stroke: #d34601; stroke-width: 0.75; stroke-linecap: square"/>
    <path d="M 33.951273 61.477903 
L 33.951273 49.334423 
" clip-path="url(#pde56e82844)" style="fill: none; stroke: #d34601; stroke-width: 0.75; stroke-linecap: square"/>
    <path d="M 43.183636 77.122821 
L 43.183636 71.472557 
" clip-path="url(#pde56e82844)" style="fill: none; stroke: #d34601; stroke-width: 0.75; stroke-linecap: square"/>
    <path d="M 56.372727 87.317346 
L 56.372727 79.917993 
" clip-path="url(#pde56e82844)" style="fill: none; stroke: #d34601; stroke-width: 0.75; stroke-linecap: square"/>
    <path d="M 95.94 88.652234 
L 95.94 81.056913 
" clip-path="url(#pde56e82844)" style="fill: none; stroke: #d34601; stroke-width: 0.75; stroke-linecap: square"/>
    <path d="M 161.885455 117.1421 
L 161.885455 111.954418 
" clip-path="url(#pde56e82844)" style="fill: none; stroke: #d34601; stroke-width: 0.75; stroke-linecap: square"/>
   </g>
   <g id="line2d_20">
    <path d="M 29.994545 67.90326 
L 33.951273 67.452545 
L 43.183636 84.404062 
L 56.372727 87.004721 
L 95.94 94.467637 
L 161.885455 111.707366 
" clip-path="url(#pde56e82844)" style="fill: none; stroke: #bb3d02; stroke-width: 0.75; stroke-linecap: square"/>
   </g>
   <g id="LineCollection_14">
    <path d="M 29.994545 75.016246 
L 29.994545 60.645099 
" clip-path="url(#pde56e82844)" style="fill: none; stroke: #bb3d02; stroke-width: 0.75; stroke-linecap: square"/>
    <path d="M 33.951273 71.788024 
L 33.951273 60.587597 
" clip-path="url(#pde56e82844)" style="fill: none; stroke: #bb3d02; stroke-width: 0.75; stroke-linecap: square"/>
    <path d="M 43.183636 84.733935 
L 43.183636 83.766231 
" clip-path="url(#pde56e82844)" style="fill: none; stroke: #bb3d02; stroke-width: 0.75; stroke-linecap: square"/>
    <path d="M 56.372727 91.053398 
L 56.372727 81.380568 
" clip-path="url(#pde56e82844)" style="fill: none; stroke: #bb3d02; stroke-width: 0.75; stroke-linecap: square"/>
    <path d="M 95.94 102.103686 
L 95.94 87.733959 
" clip-path="url(#pde56e82844)" style="fill: none; stroke: #bb3d02; stroke-width: 0.75; stroke-linecap: square"/>
    <path d="M 161.885455 112.990665 
L 161.885455 109.201773 
" clip-path="url(#pde56e82844)" style="fill: none; stroke: #bb3d02; stroke-width: 0.75; stroke-linecap: square"/>
   </g>
   <g id="line2d_21">
    <path d="M 29.994545 41.495826 
L 33.951273 34.048616 
L 43.183636 63.597325 
L 56.372727 77.892815 
L 95.94 83.237311 
L 161.885455 101.690355 
" clip-path="url(#pde56e82844)" style="fill: none; stroke: #a43503; stroke-width: 0.75; stroke-linecap: square"/>
   </g>
   <g id="LineCollection_15">
    <path d="M 29.994545 47.19761 
L 29.994545 35.978128 
" clip-path="url(#pde56e82844)" style="fill: none; stroke: #a43503; stroke-width: 0.75; stroke-linecap: square"/>
    <path d="M 33.951273 38.386011 
L 33.951273 26.350402 
" clip-path="url(#pde56e82844)" style="fill: none; stroke: #a43503; stroke-width: 0.75; stroke-linecap: square"/>
    <path d="M 43.183636 67.330705 
L 43.183636 59.068397 
" clip-path="url(#pde56e82844)" style="fill: none; stroke: #a43503; stroke-width: 0.75; stroke-linecap: square"/>
    <path d="M 56.372727 85.144248 
L 56.372727 70.894747 
" clip-path="url(#pde56e82844)" style="fill: none; stroke: #a43503; stroke-width: 0.75; stroke-linecap: square"/>
    <path d="M 95.94 86.720237 
L 95.94 77.217084 
" clip-path="url(#pde56e82844)" style="fill: none; stroke: #a43503; stroke-width: 0.75; stroke-linecap: square"/>
    <path d="M 161.885455 105.856369 
L 161.885455 98.164286 
" clip-path="url(#pde56e82844)" style="fill: none; stroke: #a43503; stroke-width: 0.75; stroke-linecap: square"/>
   </g>
   <g id="line2d_22">
    <path d="M 29.994545 37.123262 
L 33.951273 30.344947 
L 43.183636 60.67349 
L 56.372727 77.458819 
L 95.94 82.055931 
L 161.885455 97.620193 
" clip-path="url(#pde56e82844)" style="fill: none; stroke: #912e04; stroke-width: 0.75; stroke-linecap: square"/>
   </g>
   <g id="LineCollection_16">
    <path d="M 29.994545 42.979088 
L 29.994545 32.677038 
" clip-path="url(#pde56e82844)" style="fill: none; stroke: #912e04; stroke-width: 0.75; stroke-linecap: square"/>
    <path d="M 33.951273 34.156668 
L 33.951273 24.552 
" clip-path="url(#pde56e82844)" style="fill: none; stroke: #912e04; stroke-width: 0.75; stroke-linecap: square"/>
    <path d="M 43.183636 61.861724 
L 43.183636 59.136967 
" clip-path="url(#pde56e82844)" style="fill: none; stroke: #912e04; stroke-width: 0.75; stroke-linecap: square"/>
    <path d="M 56.372727 83.606829 
L 56.372727 71.748901 
" clip-path="url(#pde56e82844)" style="fill: none; stroke: #912e04; stroke-width: 0.75; stroke-linecap: square"/>
    <path d="M 95.94 85.728193 
L 95.94 74.754888 
" clip-path="url(#pde56e82844)" style="fill: none; stroke: #912e04; stroke-width: 0.75; stroke-linecap: square"/>
    <path d="M 161.885455 98.964712 
L 161.885455 95.04323 
" clip-path="url(#pde56e82844)" style="fill: none; stroke: #912e04; stroke-width: 0.75; stroke-linecap: square"/>
   </g>
   <g id="line2d_23"/>
   <g id="line2d_24"/>
   <g id="line2d_25"/>
   <g id="line2d_26"/>
   <g id="line2d_27"/>
   <g id="line2d_28"/>
   <g id="line2d_29"/>
   <g id="line2d_30"/>
   <g id="line2d_31"/>
   <g id="line2d_32"/>
   <g id="line2d_33"/>
   <g id="line2d_34"/>
   <g id="line2d_35"/>
   <g id="line2d_36"/>
   <g id="line2d_37"/>
   <g id="line2d_38"/>
   <g id="line2d_39"/>
   <g id="line2d_40"/>
   <g id="line2d_41"/>
   <g id="line2d_42"/>
   <g id="line2d_43"/>
   <g id="line2d_44"/>
   <g id="line2d_45"/>
   <g id="line2d_46"/>
   <g id="line2d_47"/>
   <g id="line2d_48"/>
   <g id="line2d_49"/>
   <g id="line2d_50"/>
   <g id="line2d_51"/>
   <g id="line2d_52"/>
   <g id="line2d_53"/>
   <g id="line2d_54"/>
   <g id="patch_3">
    <path d="M 23.4 140.976 
L 23.4 19.008 
" style="fill: none; stroke: #000000; stroke-width: 0.8; stroke-linejoin: miter; stroke-linecap: square"/>
   </g>
   <g id="patch_4">
    <path d="M 168.48 140.976 
L 168.48 19.008 
" style="fill: none; stroke: #000000; stroke-width: 0.8; stroke-linejoin: miter; stroke-linecap: square"/>
   </g>
   <g id="patch_5">
    <path d="M 23.4 140.976 
L 168.48 140.976 
" style="fill: none; stroke: #000000; stroke-width: 0.8; stroke-linejoin: miter; stroke-linecap: square"/>
   </g>
   <g id="patch_6">
    <path d="M 23.4 19.008 
L 168.48 19.008 
" style="fill: none; stroke: #000000; stroke-width: 0.8; stroke-linejoin: miter; stroke-linecap: square"/>
   </g>
   <g id="legend_1">
    <g id="patch_7">
     <path d="M 174.1308 156.014273 
L 211.6758 156.014273 
Q 212.8758 156.014273 212.8758 154.814273 
L 212.8758 19.54896 
Q 212.8758 18.34896 211.6758 18.34896 
L 174.1308 18.34896 
Q 172.9308 18.34896 172.9308 19.54896 
L 172.9308 154.814273 
Q 172.9308 156.014273 174.1308 156.014273 
z
" style="fill: #ffffff; opacity: 0.8; stroke: #cccccc; stroke-linejoin: miter"/>
    </g>
    <g id="line2d_55">
     <path d="M 175.3308 22.943648 
L 181.3308 22.943648 
L 187.3308 22.943648 
" style="fill: none; stroke: #ffeedd; stroke-width: 0.75; stroke-linecap: square"/>
    </g>
    <g id="text_9">
     <text style="font: 6px 'Arial', sans-serif; text-anchor: start" x="192.1308" y="25.043648" transform="rotate(-0 192.1308 25.043648)">empty</text>
    </g>
    <g id="line2d_56">
     <path d="M 175.3308 31.501148 
L 181.3308 31.501148 
L 187.3308 31.501148 
" style="fill: none; stroke: #fee7d0; stroke-width: 0.75; stroke-linecap: square"/>
    </g>
    <g id="text_10">
     <text style="font: 6px 'Arial', sans-serif; text-anchor: start" x="192.1308" y="33.601148" transform="rotate(-0 192.1308 33.601148)">HS1</text>
    </g>
    <g id="line2d_57">
     <path d="M 175.3308 39.988335 
L 181.3308 39.988335 
L 187.3308 39.988335 
" style="fill: none; stroke: #feddbc; stroke-width: 0.75; stroke-linecap: square"/>
    </g>
    <g id="text_11">
     <text style="font: 6px 'Arial', sans-serif; text-anchor: start" x="192.1308" y="42.088335" transform="rotate(-0 192.1308 42.088335)">HS2</text>
    </g>
    <g id="line2d_58">
     <path d="M 175.3308 48.475523 
L 181.3308 48.475523 
L 187.3308 48.475523 
" style="fill: none; stroke: #fdd3a7; stroke-width: 0.75; stroke-linecap: square"/>
    </g>
    <g id="text_12">
     <text style="font: 6px 'Arial', sans-serif; text-anchor: start" x="192.1308" y="50.575523" transform="rotate(-0 192.1308 50.575523)">HS3</text>
    </g>
    <g id="line2d_59">
     <path d="M 175.3308 56.96271 
L 181.3308 56.96271 
L 187.3308 56.96271 
" style="fill: none; stroke: #fdc48f; stroke-width: 0.75; stroke-linecap: square"/>
    </g>
    <g id="text_13">
     <text style="font: 6px 'Arial', sans-serif; text-anchor: start" x="192.1308" y="59.06271" transform="rotate(-0 192.1308 59.06271)">HS4</text>
    </g>
    <g id="line2d_60">
     <path d="M 175.3308 65.449898 
L 181.3308 65.449898 
L 187.3308 65.449898 
" style="fill: none; stroke: #fdb475; stroke-width: 0.75; stroke-linecap: square"/>
    </g>
    <g id="text_14">
     <text style="font: 6px 'Arial', sans-serif; text-anchor: start" x="192.1308" y="67.549898" transform="rotate(-0 192.1308 67.549898)">HS12</text>
    </g>
    <g id="line2d_61">
     <path d="M 175.3308 73.937085 
L 181.3308 73.937085 
L 187.3308 73.937085 
" style="fill: none; stroke: #fda45d; stroke-width: 0.75; stroke-linecap: square"/>
    </g>
    <g id="text_15">
     <text style="font: 6px 'Arial', sans-serif; text-anchor: start" x="192.1308" y="76.037085" transform="rotate(-0 192.1308 76.037085)">HS13</text>
    </g>
    <g id="line2d_62">
     <path d="M 175.3308 82.424273 
L 181.3308 82.424273 
L 187.3308 82.424273 
" style="fill: none; stroke: #fd9547; stroke-width: 0.75; stroke-linecap: square"/>
    </g>
    <g id="text_16">
     <text style="font: 6px 'Arial', sans-serif; text-anchor: start" x="192.1308" y="84.524273" transform="rotate(-0 192.1308 84.524273)">HS14</text>
    </g>
    <g id="line2d_63">
     <path d="M 175.3308 90.91146 
L 181.3308 90.91146 
L 187.3308 90.91146 
" style="fill: none; stroke: #fa8532; stroke-width: 0.75; stroke-linecap: square"/>
    </g>
    <g id="text_17">
     <text style="font: 6px 'Arial', sans-serif; text-anchor: start" x="192.1308" y="93.01146" transform="rotate(-0 192.1308 93.01146)">HS23</text>
    </g>
    <g id="line2d_64">
     <path d="M 175.3308 99.398648 
L 181.3308 99.398648 
L 187.3308 99.398648 
" style="fill: none; stroke: #f5741f; stroke-width: 0.75; stroke-linecap: square"/>
    </g>
    <g id="text_18">
     <text style="font: 6px 'Arial', sans-serif; text-anchor: start" x="192.1308" y="101.498648" transform="rotate(-0 192.1308 101.498648)">HS24</text>
    </g>
    <g id="line2d_65">
     <path d="M 175.3308 107.885835 
L 181.3308 107.885835 
L 187.3308 107.885835 
" style="fill: none; stroke: #ed6310; stroke-width: 0.75; stroke-linecap: square"/>
    </g>
    <g id="text_19">
     <text style="font: 6px 'Arial', sans-serif; text-anchor: start" x="192.1308" y="109.985835" transform="rotate(-0 192.1308 109.985835)">HS34</text>
    </g>
    <g id="line2d_66">
     <path d="M 175.3308 116.373023 
L 181.3308 116.373023 
L 187.3308 116.373023 
" style="fill: none; stroke: #e15407; stroke-width: 0.75; stroke-linecap: square"/>
    </g>
    <g id="text_20">
     <text style="font: 6px 'Arial', sans-serif; text-anchor: start" x="192.1308" y="118.473023" transform="rotate(-0 192.1308 118.473023)">HS123</text>
    </g>
    <g id="line2d_67">
     <path d="M 175.3308 124.86021 
L 181.3308 124.86021 
L 187.3308 124.86021 
" style="fill: none; stroke: #d34601; stroke-width: 0.75; stroke-linecap: square"/>
    </g>
    <g id="text_21">
     <text style="font: 6px 'Arial', sans-serif; text-anchor: start" x="192.1308" y="126.96021" transform="rotate(-0 192.1308 126.96021)">HS124</text>
    </g>
    <g id="line2d_68">
     <path d="M 175.3308 133.347398 
L 181.3308 133.347398 
L 187.3308 133.347398 
" style="fill: none; stroke: #bb3d02; stroke-width: 0.75; stroke-linecap: square"/>
    </g>
    <g id="text_22">
     <text style="font: 6px 'Arial', sans-serif; text-anchor: start" x="192.1308" y="135.447398" transform="rotate(-0 192.1308 135.447398)">HS134</text>
    </g>
    <g id="line2d_69">
     <path d="M 175.3308 141.834585 
L 181.3308 141.834585 
L 187.3308 141.834585 
" style="fill: none; stroke: #a43503; stroke-width: 0.75; stroke-linecap: square"/>
    </g>
    <g id="text_23">
     <text style="font: 6px 'Arial', sans-serif; text-anchor: start" x="192.1308" y="143.934585" transform="rotate(-0 192.1308 143.934585)">HS234</text>
    </g>
    <g id="line2d_70">
     <path d="M 175.3308 150.321773 
L 181.3308 150.321773 
L 187.3308 150.321773 
" style="fill: none; stroke: #912e04; stroke-width: 0.75; stroke-linecap: square"/>
    </g>
    <g id="text_24">
     <text style="font: 6px 'Arial', sans-serif; text-anchor: start" x="192.1308" y="152.421773" transform="rotate(-0 192.1308 152.421773)">LCR</text>
    </g>
   </g>
  </g>
 </g>
 <defs>
  <clipPath id="pde56e82844">
   <rect x="23.4" y="19.008" width="145.08" height="121.968"/>
  </clipPath>
 </defs>
</svg>
