<?xml version="1.0" encoding="utf-8" standalone="no"?>
<!DOCTYPE svg PUBLIC "-//W3C//DTD SVG 1.1//EN"
  "http://www.w3.org/Graphics/SVG/1.1/DTD/svg11.dtd">
<svg xmlns:xlink="http://www.w3.org/1999/xlink" width="187.2pt" height="158.4pt" viewBox="0 0 187.2 158.4" xmlns="http://www.w3.org/2000/svg" version="1.1">
 <metadata>
  <rdf:RDF xmlns:dc="http://purl.org/dc/elements/1.1/" xmlns:cc="http://creativecommons.org/ns#" xmlns:rdf="http://www.w3.org/1999/02/22-rdf-syntax-ns#">
   <cc:Work>
    <dc:type rdf:resource="http://purl.org/dc/dcmitype/StillImage"/>
    <dc:date>2025-03-11T13:57:56.318648</dc:date>
    <dc:format>image/svg+xml</dc:format>
    <dc:creator>
     <cc:Agent>
      <dc:title>Matplotlib v3.9.3, https://matplotlib.org/</dc:title>
     </cc:Agent>
    </dc:creator>
   </cc:Work>
  </rdf:RDF>
 </metadata>
 <defs>
  <style type="text/css">*{stroke-linejoin: round; stroke-linecap: butt}</style>
 </defs>
 <g id="figure_1">
  <g id="patch_1">
   <path d="M 0 158.4 
L 187.2 158.4 
L 187.2 0 
L 0 0 
z
" style="fill: #ffffff"/>
  </g>
  <g id="axes_1">
   <g id="patch_2">
    <path d="M 23.4 140.976 
L 168.48 140.976 
L 168.48 19.008 
L 23.4 19.008 
z
" style="fill: #ffffff"/>
   </g>
   <g id="matplotlib.axis_1">
    <g id="xtick_1">
     <g id="line2d_1">
      <defs>
       <path id="mff97a35c85" d="M 0 0 
L 0 3.5 
" style="stroke: #000000; stroke-width: 0.8"/>
      </defs>
      <g>
       <use xlink:href="#mff97a35c85" x="29.994545" y="140.976" style="stroke: #000000; stroke-width: 0.8"/>
      </g>
     </g>
     <g id="text_1">
      <text style="font: 6px 'Arial', sans-serif; text-anchor: middle" x="29.994545" y="152.270688" transform="rotate(-0 29.994545 152.270688)">0</text>
     </g>
    </g>
    <g id="xtick_2">
     <g id="line2d_2">
      <g>
       <use xlink:href="#mff97a35c85" x="95.94" y="140.976" style="stroke: #000000; stroke-width: 0.8"/>
      </g>
     </g>
     <g id="text_2">
      <text style="font: 6px 'Arial', sans-serif; text-anchor: middle" x="95.94" y="152.270688" transform="rotate(-0 95.94 152.270688)">50</text>
     </g>
    </g>
    <g id="xtick_3">
     <g id="line2d_3">
      <g>
       <use xlink:href="#mff97a35c85" x="161.885455" y="140.976" style="stroke: #000000; stroke-width: 0.8"/>
      </g>
     </g>
     <g id="text_3">
      <text style="font: 6px 'Arial', sans-serif; text-anchor: middle" x="161.885455" y="152.270688" transform="rotate(-0 161.885455 152.270688)">100</text>
     </g>
    </g>
    <g id="text_4">
     <text style="font: 8px 'Arial', sans-serif; text-anchor: middle" x="95.94" y="163.286937" transform="rotate(-0 95.94 163.286937)">E-P distance(kb)</text>
    </g>
   </g>
   <g id="matplotlib.axis_2">
    <g id="ytick_1">
     <g id="line2d_4">
      <defs>
       <path id="m2a5a785797" d="M 0 0 
L -3.5 0 
" style="stroke: #000000; stroke-width: 0.8"/>
      </defs>
      <g>
       <use xlink:href="#m2a5a785797" x="23.4" y="105.640415" style="stroke: #000000; stroke-width: 0.8"/>
      </g>
     </g>
     <g id="text_5">
      <text style="font: 6px 'Arial', sans-serif; text-anchor: end" x="16.4" y="107.787759" transform="rotate(-0 16.4 107.787759)">5</text>
     </g>
    </g>
    <g id="ytick_2">
     <g id="line2d_5">
      <g>
       <use xlink:href="#m2a5a785797" x="23.4" y="68.952591" style="stroke: #000000; stroke-width: 0.8"/>
      </g>
     </g>
     <g id="text_6">
      <text style="font: 6px 'Arial', sans-serif; text-anchor: end" x="16.4" y="71.099935" transform="rotate(-0 16.4 71.099935)">10</text>
     </g>
    </g>
    <g id="ytick_3">
     <g id="line2d_6">
      <g>
       <use xlink:href="#m2a5a785797" x="23.4" y="32.264768" style="stroke: #000000; stroke-width: 0.8"/>
      </g>
     </g>
     <g id="text_7">
      <text style="font: 6px 'Arial', sans-serif; text-anchor: end" x="16.4" y="34.412111" transform="rotate(-0 16.4 34.412111)">15</text>
     </g>
    </g>
    <g id="text_8">
     <text style="font: 8px 'Arial', sans-serif; text-anchor: middle" x="4.043125" y="79.992" transform="rotate(-90 4.043125 79.992)">Fold change</text>
    </g>
   </g>
   <g id="line2d_7">
    <path d="M 29.994545 134.990674 
L 33.951273 134.990674 
L 43.183636 134.990674 
L 56.372727 134.990674 
L 95.94 134.990674 
L 161.885455 134.990674 
" clip-path="url(#pc04af68e91)" style="fill: none; stroke: #ffeedd; stroke-width: 0.75; stroke-linecap: square"/>
   </g>
   <g id="LineCollection_1">
    <path d="M 29.994545 134.990674 
L 29.994545 134.990674 
" clip-path="url(#pc04af68e91)" style="fill: none; stroke: #ffeedd; stroke-width: 0.75; stroke-linecap: square"/>
    <path d="M 33.951273 134.990674 
L 33.951273 134.990674 
" clip-path="url(#pc04af68e91)" style="fill: none; stroke: #ffeedd; stroke-width: 0.75; stroke-linecap: square"/>
    <path d="M 43.183636 134.990674 
L 43.183636 134.990674 
" clip-path="url(#pc04af68e91)" style="fill: none; stroke: #ffeedd; stroke-width: 0.75; stroke-linecap: square"/>
    <path d="M 56.372727 134.990674 
L 56.372727 134.990674 
" clip-path="url(#pc04af68e91)" style="fill: none; stroke: #ffeedd; stroke-width: 0.75; stroke-linecap: square"/>
    <path d="M 95.94 134.990674 
L 95.94 134.990674 
" clip-path="url(#pc04af68e91)" style="fill: none; stroke: #ffeedd; stroke-width: 0.75; stroke-linecap: square"/>
    <path d="M 161.885455 134.990674 
L 161.885455 134.990674 
" clip-path="url(#pc04af68e91)" style="fill: none; stroke: #ffeedd; stroke-width: 0.75; stroke-linecap: square"/>
   </g>
   <g id="line2d_8">
    <path d="M 29.994545 121.233801 
L 33.951273 126.835657 
L 43.183636 129.044903 
L 56.372727 131.10242 
L 95.94 131.094901 
L 161.885455 134.496403 
" clip-path="url(#pc04af68e91)" style="fill: none; stroke: #fee7d0; stroke-width: 0.75; stroke-linecap: square"/>
   </g>
   <g id="LineCollection_2">
    <path d="M 29.994545 122.811343 
L 29.994545 119.080717 
" clip-path="url(#pc04af68e91)" style="fill: none; stroke: #fee7d0; stroke-width: 0.75; stroke-linecap: square"/>
    <path d="M 33.951273 129.655392 
L 33.951273 123.194931 
" clip-path="url(#pc04af68e91)" style="fill: none; stroke: #fee7d0; stroke-width: 0.75; stroke-linecap: square"/>
    <path d="M 43.183636 130.239082 
L 43.183636 126.812046 
" clip-path="url(#pc04af68e91)" style="fill: none; stroke: #fee7d0; stroke-width: 0.75; stroke-linecap: square"/>
    <path d="M 56.372727 131.382073 
L 56.372727 130.868877 
" clip-path="url(#pc04af68e91)" style="fill: none; stroke: #fee7d0; stroke-width: 0.75; stroke-linecap: square"/>
    <path d="M 95.94 132.263963 
L 95.94 129.639062 
" clip-path="url(#pc04af68e91)" style="fill: none; stroke: #fee7d0; stroke-width: 0.75; stroke-linecap: square"/>
    <path d="M 161.885455 135.068297 
L 161.885455 133.633608 
" clip-path="url(#pc04af68e91)" style="fill: none; stroke: #fee7d0; stroke-width: 0.75; stroke-linecap: square"/>
   </g>
   <g id="line2d_9">
    <path d="M 29.994545 108.033995 
L 33.951273 109.810032 
L 43.183636 117.104519 
L 56.372727 114.824288 
L 95.94 112.19234 
L 161.885455 132.847625 
" clip-path="url(#pc04af68e91)" style="fill: none; stroke: #feddbc; stroke-width: 0.75; stroke-linecap: square"/>
   </g>
   <g id="LineCollection_3">
    <path d="M 29.994545 112.837865 
L 29.994545 104.568131 
" clip-path="url(#pc04af68e91)" style="fill: none; stroke: #feddbc; stroke-width: 0.75; stroke-linecap: square"/>
    <path d="M 33.951273 111.743981 
L 33.951273 108.080187 
" clip-path="url(#pc04af68e91)" style="fill: none; stroke: #feddbc; stroke-width: 0.75; stroke-linecap: square"/>
    <path d="M 43.183636 120.135517 
L 43.183636 113.75493 
" clip-path="url(#pc04af68e91)" style="fill: none; stroke: #feddbc; stroke-width: 0.75; stroke-linecap: square"/>
    <path d="M 56.372727 117.704591 
L 56.372727 112.736713 
" clip-path="url(#pc04af68e91)" style="fill: none; stroke: #feddbc; stroke-width: 0.75; stroke-linecap: square"/>
    <path d="M 95.94 114.478676 
L 95.94 109.775673 
" clip-path="url(#pc04af68e91)" style="fill: none; stroke: #feddbc; stroke-width: 0.75; stroke-linecap: square"/>
    <path d="M 161.885455 133.908445 
L 161.885455 131.448239 
" clip-path="url(#pc04af68e91)" style="fill: none; stroke: #feddbc; stroke-width: 0.75; stroke-linecap: square"/>
   </g>
   <g id="line2d_10">
    <path d="M 29.994545 128.212032 
L 33.951273 121.929245 
L 43.183636 125.850396 
L 56.372727 125.109455 
L 95.94 126.295398 
L 161.885455 134.650502 
" clip-path="url(#pc04af68e91)" style="fill: none; stroke: #fdd3a7; stroke-width: 0.75; stroke-linecap: square"/>
   </g>
   <g id="LineCollection_4">
    <path d="M 29.994545 129.210267 
L 29.994545 127.498264 
" clip-path="url(#pc04af68e91)" style="fill: none; stroke: #fdd3a7; stroke-width: 0.75; stroke-linecap: square"/>
    <path d="M 33.951273 124.095495 
L 33.951273 118.38374 
" clip-path="url(#pc04af68e91)" style="fill: none; stroke: #fdd3a7; stroke-width: 0.75; stroke-linecap: square"/>
    <path d="M 43.183636 126.587902 
L 43.183636 124.479194 
" clip-path="url(#pc04af68e91)" style="fill: none; stroke: #fdd3a7; stroke-width: 0.75; stroke-linecap: square"/>
    <path d="M 56.372727 126.152487 
L 56.372727 123.478171 
" clip-path="url(#pc04af68e91)" style="fill: none; stroke: #fdd3a7; stroke-width: 0.75; stroke-linecap: square"/>
    <path d="M 95.94 129.302706 
L 95.94 124.436846 
" clip-path="url(#pc04af68e91)" style="fill: none; stroke: #fdd3a7; stroke-width: 0.75; stroke-linecap: square"/>
    <path d="M 161.885455 135.432 
L 161.885455 133.40344 
" clip-path="url(#pc04af68e91)" style="fill: none; stroke: #fdd3a7; stroke-width: 0.75; stroke-linecap: square"/>
   </g>
   <g id="line2d_11">
    <path d="M 29.994545 119.361098 
L 33.951273 125.53535 
L 43.183636 128.501324 
L 56.372727 130.741812 
L 95.94 131.585146 
L 161.885455 134.850347 
" clip-path="url(#pc04af68e91)" style="fill: none; stroke: #fdc48f; stroke-width: 0.75; stroke-linecap: square"/>
   </g>
   <g id="LineCollection_5">
    <path d="M 29.994545 121.246811 
L 29.994545 118.052498 
" clip-path="url(#pc04af68e91)" style="fill: none; stroke: #fdc48f; stroke-width: 0.75; stroke-linecap: square"/>
    <path d="M 33.951273 128.424304 
L 33.951273 121.509659 
" clip-path="url(#pc04af68e91)" style="fill: none; stroke: #fdc48f; stroke-width: 0.75; stroke-linecap: square"/>
    <path d="M 43.183636 129.688983 
L 43.183636 126.656069 
" clip-path="url(#pc04af68e91)" style="fill: none; stroke: #fdc48f; stroke-width: 0.75; stroke-linecap: square"/>
    <path d="M 56.372727 131.425364 
L 56.372727 130.031576 
" clip-path="url(#pc04af68e91)" style="fill: none; stroke: #fdc48f; stroke-width: 0.75; stroke-linecap: square"/>
    <path d="M 95.94 133.140749 
L 95.94 130.337855 
" clip-path="url(#pc04af68e91)" style="fill: none; stroke: #fdc48f; stroke-width: 0.75; stroke-linecap: square"/>
    <path d="M 161.885455 135.132719 
L 161.885455 134.368514 
" clip-path="url(#pc04af68e91)" style="fill: none; stroke: #fdc48f; stroke-width: 0.75; stroke-linecap: square"/>
   </g>
   <g id="line2d_12">
    <path d="M 29.994545 89.502994 
L 33.951273 87.51739 
L 43.183636 98.815025 
L 56.372727 93.402829 
L 95.94 94.28646 
L 161.885455 125.919741 
" clip-path="url(#pc04af68e91)" style="fill: none; stroke: #fdb475; stroke-width: 0.75; stroke-linecap: square"/>
   </g>
   <g id="LineCollection_6">
    <path d="M 29.994545 98.051629 
L 29.994545 84.17581 
" clip-path="url(#pc04af68e91)" style="fill: none; stroke: #fdb475; stroke-width: 0.75; stroke-linecap: square"/>
    <path d="M 33.951273 91.417712 
L 33.951273 83.151455 
" clip-path="url(#pc04af68e91)" style="fill: none; stroke: #fdb475; stroke-width: 0.75; stroke-linecap: square"/>
    <path d="M 43.183636 102.915422 
L 43.183636 96.704282 
" clip-path="url(#pc04af68e91)" style="fill: none; stroke: #fdb475; stroke-width: 0.75; stroke-linecap: square"/>
    <path d="M 56.372727 98.093156 
L 56.372727 90.904487 
" clip-path="url(#pc04af68e91)" style="fill: none; stroke: #fdb475; stroke-width: 0.75; stroke-linecap: square"/>
    <path d="M 95.94 100.126199 
L 95.94 88.655128 
" clip-path="url(#pc04af68e91)" style="fill: none; stroke: #fdb475; stroke-width: 0.75; stroke-linecap: square"/>
    <path d="M 161.885455 127.108742 
L 161.885455 124.199935 
" clip-path="url(#pc04af68e91)" style="fill: none; stroke: #fdb475; stroke-width: 0.75; stroke-linecap: square"/>
   </g>
   <g id="line2d_13">
    <path d="M 29.994545 98.485764 
L 33.951273 93.622356 
L 43.183636 105.038371 
L 56.372727 102.54956 
L 95.94 108.233507 
L 161.885455 125.80675 
" clip-path="url(#pc04af68e91)" style="fill: none; stroke: #fda45d; stroke-width: 0.75; stroke-linecap: square"/>
   </g>
   <g id="LineCollection_7">
    <path d="M 29.994545 105.554901 
L 29.994545 94.882667 
" clip-path="url(#pc04af68e91)" style="fill: none; stroke: #fda45d; stroke-width: 0.75; stroke-linecap: square"/>
    <path d="M 33.951273 97.062004 
L 33.951273 89.389679 
" clip-path="url(#pc04af68e91)" style="fill: none; stroke: #fda45d; stroke-width: 0.75; stroke-linecap: square"/>
    <path d="M 43.183636 107.879482 
L 43.183636 102.439348 
" clip-path="url(#pc04af68e91)" style="fill: none; stroke: #fda45d; stroke-width: 0.75; stroke-linecap: square"/>
    <path d="M 56.372727 107.362679 
L 56.372727 97.530459 
" clip-path="url(#pc04af68e91)" style="fill: none; stroke: #fda45d; stroke-width: 0.75; stroke-linecap: square"/>
    <path d="M 95.94 111.796493 
L 95.94 105.416247 
" clip-path="url(#pc04af68e91)" style="fill: none; stroke: #fda45d; stroke-width: 0.75; stroke-linecap: square"/>
    <path d="M 161.885455 127.451132 
L 161.885455 124.567957 
" clip-path="url(#pc04af68e91)" style="fill: none; stroke: #fda45d; stroke-width: 0.75; stroke-linecap: square"/>
   </g>
   <g id="line2d_14">
    <path d="M 29.994545 109.886596 
L 33.951273 110.110971 
L 43.183636 116.682455 
L 56.372727 115.571657 
L 95.94 121.814142 
L 161.885455 131.994807 
" clip-path="url(#pc04af68e91)" style="fill: none; stroke: #fd9547; stroke-width: 0.75; stroke-linecap: square"/>
   </g>
   <g id="LineCollection_8">
    <path d="M 29.994545 114.439229 
L 29.994545 107.309686 
" clip-path="url(#pc04af68e91)" style="fill: none; stroke: #fd9547; stroke-width: 0.75; stroke-linecap: square"/>
    <path d="M 33.951273 112.77539 
L 33.951273 108.37574 
" clip-path="url(#pc04af68e91)" style="fill: none; stroke: #fd9547; stroke-width: 0.75; stroke-linecap: square"/>
    <path d="M 43.183636 119.175187 
L 43.183636 115.091301 
" clip-path="url(#pc04af68e91)" style="fill: none; stroke: #fd9547; stroke-width: 0.75; stroke-linecap: square"/>
    <path d="M 56.372727 117.980145 
L 56.372727 114.091592 
" clip-path="url(#pc04af68e91)" style="fill: none; stroke: #fd9547; stroke-width: 0.75; stroke-linecap: square"/>
    <path d="M 95.94 124.423993 
L 95.94 117.3528 
" clip-path="url(#pc04af68e91)" style="fill: none; stroke: #fd9547; stroke-width: 0.75; stroke-linecap: square"/>
    <path d="M 161.885455 133.064385 
L 161.885455 131.125441 
" clip-path="url(#pc04af68e91)" style="fill: none; stroke: #fd9547; stroke-width: 0.75; stroke-linecap: square"/>
   </g>
   <g id="line2d_15">
    <path d="M 29.994545 67.764739 
L 33.951273 59.845359 
L 43.183636 82.883379 
L 56.372727 84.795794 
L 95.94 87.45086 
L 161.885455 113.798633 
" clip-path="url(#pc04af68e91)" style="fill: none; stroke: #fa8532; stroke-width: 0.75; stroke-linecap: square"/>
   </g>
   <g id="LineCollection_9">
    <path d="M 29.994545 75.561377 
L 29.994545 63.210207 
" clip-path="url(#pc04af68e91)" style="fill: none; stroke: #fa8532; stroke-width: 0.75; stroke-linecap: square"/>
    <path d="M 33.951273 61.927096 
L 33.951273 55.968917 
" clip-path="url(#pc04af68e91)" style="fill: none; stroke: #fa8532; stroke-width: 0.75; stroke-linecap: square"/>
    <path d="M 43.183636 84.912759 
L 43.183636 79.669398 
" clip-path="url(#pc04af68e91)" style="fill: none; stroke: #fa8532; stroke-width: 0.75; stroke-linecap: square"/>
    <path d="M 56.372727 91.320386 
L 56.372727 80.195686 
" clip-path="url(#pc04af68e91)" style="fill: none; stroke: #fa8532; stroke-width: 0.75; stroke-linecap: square"/>
    <path d="M 95.94 92.679878 
L 95.94 84.511739 
" clip-path="url(#pc04af68e91)" style="fill: none; stroke: #fa8532; stroke-width: 0.75; stroke-linecap: square"/>
    <path d="M 161.885455 115.526572 
L 161.885455 110.401875 
" clip-path="url(#pc04af68e91)" style="fill: none; stroke: #fa8532; stroke-width: 0.75; stroke-linecap: square"/>
   </g>
   <g id="line2d_16">
    <path d="M 29.994545 79.827078 
L 33.951273 81.245901 
L 43.183636 93.708346 
L 56.372727 92.381046 
L 95.94 93.51582 
L 161.885455 125.190642 
" clip-path="url(#pc04af68e91)" style="fill: none; stroke: #f5741f; stroke-width: 0.75; stroke-linecap: square"/>
   </g>
   <g id="LineCollection_10">
    <path d="M 29.994545 87.346224 
L 29.994545 75.072859 
" clip-path="url(#pc04af68e91)" style="fill: none; stroke: #f5741f; stroke-width: 0.75; stroke-linecap: square"/>
    <path d="M 33.951273 85.633627 
L 33.951273 76.220464 
" clip-path="url(#pc04af68e91)" style="fill: none; stroke: #f5741f; stroke-width: 0.75; stroke-linecap: square"/>
    <path d="M 43.183636 97.302296 
L 43.183636 90.840978 
" clip-path="url(#pc04af68e91)" style="fill: none; stroke: #f5741f; stroke-width: 0.75; stroke-linecap: square"/>
    <path d="M 56.372727 96.994802 
L 56.372727 87.245833 
" clip-path="url(#pc04af68e91)" style="fill: none; stroke: #f5741f; stroke-width: 0.75; stroke-linecap: square"/>
    <path d="M 95.94 97.905116 
L 95.94 91.050882 
" clip-path="url(#pc04af68e91)" style="fill: none; stroke: #f5741f; stroke-width: 0.75; stroke-linecap: square"/>
    <path d="M 161.885455 126.495334 
L 161.885455 123.191364 
" clip-path="url(#pc04af68e91)" style="fill: none; stroke: #f5741f; stroke-width: 0.75; stroke-linecap: square"/>
   </g>
   <g id="line2d_17">
    <path d="M 29.994545 93.356202 
L 33.951273 91.016031 
L 43.183636 102.704792 
L 56.372727 101.524312 
L 95.94 106.220528 
L 161.885455 123.739127 
" clip-path="url(#pc04af68e91)" style="fill: none; stroke: #ed6310; stroke-width: 0.75; stroke-linecap: square"/>
   </g>
   <g id="LineCollection_11">
    <path d="M 29.994545 99.304651 
L 29.994545 89.844554 
" clip-path="url(#pc04af68e91)" style="fill: none; stroke: #ed6310; stroke-width: 0.75; stroke-linecap: square"/>
    <path d="M 33.951273 94.021579 
L 33.951273 88.355974 
" clip-path="url(#pc04af68e91)" style="fill: none; stroke: #ed6310; stroke-width: 0.75; stroke-linecap: square"/>
    <path d="M 43.183636 105.909778 
L 43.183636 100.281271 
" clip-path="url(#pc04af68e91)" style="fill: none; stroke: #ed6310; stroke-width: 0.75; stroke-linecap: square"/>
    <path d="M 56.372727 103.97288 
L 56.372727 99.787292 
" clip-path="url(#pc04af68e91)" style="fill: none; stroke: #ed6310; stroke-width: 0.75; stroke-linecap: square"/>
    <path d="M 95.94 110.704179 
L 95.94 100.973244 
" clip-path="url(#pc04af68e91)" style="fill: none; stroke: #ed6310; stroke-width: 0.75; stroke-linecap: square"/>
    <path d="M 161.885455 125.897679 
L 161.885455 120.900129 
" clip-path="url(#pc04af68e91)" style="fill: none; stroke: #ed6310; stroke-width: 0.75; stroke-linecap: square"/>
   </g>
   <g id="line2d_18">
    <path d="M 29.994545 48.794731 
L 33.951273 45.523809 
L 43.183636 80.565802 
L 56.372727 79.937848 
L 95.94 83.792246 
L 161.885455 105.534843 
" clip-path="url(#pc04af68e91)" style="fill: none; stroke: #e15407; stroke-width: 0.75; stroke-linecap: square"/>
   </g>
   <g id="LineCollection_12">
    <path d="M 29.994545 58.252502 
L 29.994545 41.697194 
" clip-path="url(#pc04af68e91)" style="fill: none; stroke: #e15407; stroke-width: 0.75; stroke-linecap: square"/>
    <path d="M 33.951273 48.431422 
L 33.951273 41.663986 
" clip-path="url(#pc04af68e91)" style="fill: none; stroke: #e15407; stroke-width: 0.75; stroke-linecap: square"/>
    <path d="M 43.183636 85.432645 
L 43.183636 78.013783 
" clip-path="url(#pc04af68e91)" style="fill: none; stroke: #e15407; stroke-width: 0.75; stroke-linecap: square"/>
    <path d="M 56.372727 87.212943 
L 56.372727 73.841105 
" clip-path="url(#pc04af68e91)" style="fill: none; stroke: #e15407; stroke-width: 0.75; stroke-linecap: square"/>
    <path d="M 95.94 87.058092 
L 95.94 81.760618 
" clip-path="url(#pc04af68e91)" style="fill: none; stroke: #e15407; stroke-width: 0.75; stroke-linecap: square"/>
    <path d="M 161.885455 108.848086 
L 161.885455 99.080242 
" clip-path="url(#pc04af68e91)" style="fill: none; stroke: #e15407; stroke-width: 0.75; stroke-linecap: square"/>
   </g>
   <g id="line2d_19">
    <path d="M 29.994545 62.048513 
L 33.951273 56.417449 
L 43.183636 76.091406 
L 56.372727 82.700894 
L 95.94 83.833496 
L 161.885455 114.732304 
" clip-path="url(#pc04af68e91)" style="fill: none; stroke: #d34601; stroke-width: 0.75; stroke-linecap: square"/>
   </g>
   <g id="LineCollection_13">
    <path d="M 29.994545 70.867309 
L 29.994545 54.983658 
" clip-path="url(#pc04af68e91)" style="fill: none; stroke: #d34601; stroke-width: 0.75; stroke-linecap: square"/>
    <path d="M 33.951273 60.118122 
L 33.951273 50.16548 
" clip-path="url(#pc04af68e91)" style="fill: none; stroke: #d34601; stroke-width: 0.75; stroke-linecap: square"/>
    <path d="M 43.183636 80.43752 
L 43.183636 73.879882 
" clip-path="url(#pc04af68e91)" style="fill: none; stroke: #d34601; stroke-width: 0.75; stroke-linecap: square"/>
    <path d="M 56.372727 86.928632 
L 56.372727 80.022718 
" clip-path="url(#pc04af68e91)" style="fill: none; stroke: #d34601; stroke-width: 0.75; stroke-linecap: square"/>
    <path d="M 95.94 92.447479 
L 95.94 78.458172 
" clip-path="url(#pc04af68e91)" style="fill: none; stroke: #d34601; stroke-width: 0.75; stroke-linecap: square"/>
    <path d="M 161.885455 117.501324 
L 161.885455 109.831707 
" clip-path="url(#pc04af68e91)" style="fill: none; stroke: #d34601; stroke-width: 0.75; stroke-linecap: square"/>
   </g>
   <g id="line2d_20">
    <path d="M 29.994545 69.535889 
L 33.951273 67.386298 
L 43.183636 88.025602 
L 56.372727 87.186747 
L 95.94 94.084086 
L 161.885455 111.700121 
" clip-path="url(#pc04af68e91)" style="fill: none; stroke: #bb3d02; stroke-width: 0.75; stroke-linecap: square"/>
   </g>
   <g id="LineCollection_14">
    <path d="M 29.994545 78.582321 
L 29.994545 63.968497 
" clip-path="url(#pc04af68e91)" style="fill: none; stroke: #bb3d02; stroke-width: 0.75; stroke-linecap: square"/>
    <path d="M 33.951273 71.650453 
L 33.951273 62.25302 
" clip-path="url(#pc04af68e91)" style="fill: none; stroke: #bb3d02; stroke-width: 0.75; stroke-linecap: square"/>
    <path d="M 43.183636 89.312944 
L 43.183636 87.210212 
" clip-path="url(#pc04af68e91)" style="fill: none; stroke: #bb3d02; stroke-width: 0.75; stroke-linecap: square"/>
    <path d="M 56.372727 91.075718 
L 56.372727 82.396343 
" clip-path="url(#pc04af68e91)" style="fill: none; stroke: #bb3d02; stroke-width: 0.75; stroke-linecap: square"/>
    <path d="M 95.94 103.530573 
L 95.94 88.518468 
" clip-path="url(#pc04af68e91)" style="fill: none; stroke: #bb3d02; stroke-width: 0.75; stroke-linecap: square"/>
    <path d="M 161.885455 115.173297 
L 161.885455 106.100416 
" clip-path="url(#pc04af68e91)" style="fill: none; stroke: #bb3d02; stroke-width: 0.75; stroke-linecap: square"/>
   </g>
   <g id="line2d_21">
    <path d="M 29.994545 41.026926 
L 33.951273 33.634482 
L 43.183636 66.471511 
L 56.372727 78.187761 
L 95.94 82.321209 
L 161.885455 102.736933 
" clip-path="url(#pc04af68e91)" style="fill: none; stroke: #a43503; stroke-width: 0.75; stroke-linecap: square"/>
   </g>
   <g id="LineCollection_15">
    <path d="M 29.994545 47.810307 
L 29.994545 35.472604 
" clip-path="url(#pc04af68e91)" style="fill: none; stroke: #a43503; stroke-width: 0.75; stroke-linecap: square"/>
    <path d="M 33.951273 37.996936 
L 33.951273 27.572102 
" clip-path="url(#pc04af68e91)" style="fill: none; stroke: #a43503; stroke-width: 0.75; stroke-linecap: square"/>
    <path d="M 43.183636 70.74353 
L 43.183636 62.616758 
" clip-path="url(#pc04af68e91)" style="fill: none; stroke: #a43503; stroke-width: 0.75; stroke-linecap: square"/>
    <path d="M 56.372727 85.386703 
L 56.372727 71.956395 
" clip-path="url(#pc04af68e91)" style="fill: none; stroke: #a43503; stroke-width: 0.75; stroke-linecap: square"/>
    <path d="M 95.94 88.966465 
L 95.94 78.366254 
" clip-path="url(#pc04af68e91)" style="fill: none; stroke: #a43503; stroke-width: 0.75; stroke-linecap: square"/>
    <path d="M 161.885455 108.892621 
L 161.885455 95.324718 
" clip-path="url(#pc04af68e91)" style="fill: none; stroke: #a43503; stroke-width: 0.75; stroke-linecap: square"/>
   </g>
   <g id="line2d_22">
    <path d="M 29.994545 37.542717 
L 33.951273 28.381661 
L 43.183636 64.64132 
L 56.372727 76.196975 
L 95.94 79.261753 
L 161.885455 98.460572 
" clip-path="url(#pc04af68e91)" style="fill: none; stroke: #912e04; stroke-width: 0.75; stroke-linecap: square"/>
   </g>
   <g id="LineCollection_16">
    <path d="M 29.994545 44.593937 
L 29.994545 33.931195 
" clip-path="url(#pc04af68e91)" style="fill: none; stroke: #912e04; stroke-width: 0.75; stroke-linecap: square"/>
    <path d="M 33.951273 32.172954 
L 33.951273 24.552 
" clip-path="url(#pc04af68e91)" style="fill: none; stroke: #912e04; stroke-width: 0.75; stroke-linecap: square"/>
    <path d="M 43.183636 67.781795 
L 43.183636 62.280887 
" clip-path="url(#pc04af68e91)" style="fill: none; stroke: #912e04; stroke-width: 0.75; stroke-linecap: square"/>
    <path d="M 56.372727 84.290253 
L 56.372727 66.692141 
" clip-path="url(#pc04af68e91)" style="fill: none; stroke: #912e04; stroke-width: 0.75; stroke-linecap: square"/>
    <path d="M 95.94 84.888533 
L 95.94 72.701579 
" clip-path="url(#pc04af68e91)" style="fill: none; stroke: #912e04; stroke-width: 0.75; stroke-linecap: square"/>
    <path d="M 161.885455 102.168319 
L 161.885455 91.995381 
" clip-path="url(#pc04af68e91)" style="fill: none; stroke: #912e04; stroke-width: 0.75; stroke-linecap: square"/>
   </g>
   <g id="line2d_23"/>
   <g id="line2d_24"/>
   <g id="line2d_25"/>
   <g id="line2d_26"/>
   <g id="line2d_27"/>
   <g id="line2d_28"/>
   <g id="line2d_29"/>
   <g id="line2d_30"/>
   <g id="line2d_31"/>
   <g id="line2d_32"/>
   <g id="line2d_33"/>
   <g id="line2d_34"/>
   <g id="line2d_35"/>
   <g id="line2d_36"/>
   <g id="line2d_37"/>
   <g id="line2d_38"/>
   <g id="line2d_39"/>
   <g id="line2d_40"/>
   <g id="line2d_41"/>
   <g id="line2d_42"/>
   <g id="line2d_43"/>
   <g id="line2d_44"/>
   <g id="line2d_45"/>
   <g id="line2d_46"/>
   <g id="line2d_47"/>
   <g id="line2d_48"/>
   <g id="line2d_49"/>
   <g id="line2d_50"/>
   <g id="line2d_51"/>
   <g id="line2d_52"/>
   <g id="line2d_53"/>
   <g id="line2d_54"/>
   <g id="patch_3">
    <path d="M 23.4 140.976 
L 23.4 19.008 
" style="fill: none; stroke: #000000; stroke-width: 0.8; stroke-linejoin: miter; stroke-linecap: square"/>
   </g>
   <g id="patch_4">
    <path d="M 168.48 140.976 
L 168.48 19.008 
" style="fill: none; stroke: #000000; stroke-width: 0.8; stroke-linejoin: miter; stroke-linecap: square"/>
   </g>
   <g id="patch_5">
    <path d="M 23.4 140.976 
L 168.48 140.976 
" style="fill: none; stroke: #000000; stroke-width: 0.8; stroke-linejoin: miter; stroke-linecap: square"/>
   </g>
   <g id="patch_6">
    <path d="M 23.4 19.008 
L 168.48 19.008 
" style="fill: none; stroke: #000000; stroke-width: 0.8; stroke-linejoin: miter; stroke-linecap: square"/>
   </g>
   <g id="legend_1">
    <g id="patch_7">
     <path d="M 174.1308 156.014273 
L 211.6758 156.014273 
Q 212.8758 156.014273 212.8758 154.814273 
L 212.8758 19.54896 
Q 212.8758 18.34896 211.6758 18.34896 
L 174.1308 18.34896 
Q 172.9308 18.34896 172.9308 19.54896 
L 172.9308 154.814273 
Q 172.9308 156.014273 174.1308 156.014273 
z
" style="fill: #ffffff; opacity: 0.8; stroke: #cccccc; stroke-linejoin: miter"/>
    </g>
    <g id="line2d_55">
     <path d="M 175.3308 22.943648 
L 181.3308 22.943648 
L 187.3308 22.943648 
" style="fill: none; stroke: #ffeedd; stroke-width: 0.75; stroke-linecap: square"/>
    </g>
    <g id="text_9">
     <text style="font: 6px 'Arial', sans-serif; text-anchor: start" x="192.1308" y="25.043648" transform="rotate(-0 192.1308 25.043648)">empty</text>
    </g>
    <g id="line2d_56">
     <path d="M 175.3308 31.501148 
L 181.3308 31.501148 
L 187.3308 31.501148 
" style="fill: none; stroke: #fee7d0; stroke-width: 0.75; stroke-linecap: square"/>
    </g>
    <g id="text_10">
     <text style="font: 6px 'Arial', sans-serif; text-anchor: start" x="192.1308" y="33.601148" transform="rotate(-0 192.1308 33.601148)">HS1</text>
    </g>
    <g id="line2d_57">
     <path d="M 175.3308 39.988335 
L 181.3308 39.988335 
L 187.3308 39.988335 
" style="fill: none; stroke: #feddbc; stroke-width: 0.75; stroke-linecap: square"/>
    </g>
    <g id="text_11">
     <text style="font: 6px 'Arial', sans-serif; text-anchor: start" x="192.1308" y="42.088335" transform="rotate(-0 192.1308 42.088335)">HS2</text>
    </g>
    <g id="line2d_58">
     <path d="M 175.3308 48.475523 
L 181.3308 48.475523 
L 187.3308 48.475523 
" style="fill: none; stroke: #fdd3a7; stroke-width: 0.75; stroke-linecap: square"/>
    </g>
    <g id="text_12">
     <text style="font: 6px 'Arial', sans-serif; text-anchor: start" x="192.1308" y="50.575523" transform="rotate(-0 192.1308 50.575523)">HS3</text>
    </g>
    <g id="line2d_59">
     <path d="M 175.3308 56.96271 
L 181.3308 56.96271 
L 187.3308 56.96271 
" style="fill: none; stroke: #fdc48f; stroke-width: 0.75; stroke-linecap: square"/>
    </g>
    <g id="text_13">
     <text style="font: 6px 'Arial', sans-serif; text-anchor: start" x="192.1308" y="59.06271" transform="rotate(-0 192.1308 59.06271)">HS4</text>
    </g>
    <g id="line2d_60">
     <path d="M 175.3308 65.449898 
L 181.3308 65.449898 
L 187.3308 65.449898 
" style="fill: none; stroke: #fdb475; stroke-width: 0.75; stroke-linecap: square"/>
    </g>
    <g id="text_14">
     <text style="font: 6px 'Arial', sans-serif; text-anchor: start" x="192.1308" y="67.549898" transform="rotate(-0 192.1308 67.549898)">HS12</text>
    </g>
    <g id="line2d_61">
     <path d="M 175.3308 73.937085 
L 181.3308 73.937085 
L 187.3308 73.937085 
" style="fill: none; stroke: #fda45d; stroke-width: 0.75; stroke-linecap: square"/>
    </g>
    <g id="text_15">
     <text style="font: 6px 'Arial', sans-serif; text-anchor: start" x="192.1308" y="76.037085" transform="rotate(-0 192.1308 76.037085)">HS13</text>
    </g>
    <g id="line2d_62">
     <path d="M 175.3308 82.424273 
L 181.3308 82.424273 
L 187.3308 82.424273 
" style="fill: none; stroke: #fd9547; stroke-width: 0.75; stroke-linecap: square"/>
    </g>
    <g id="text_16">
     <text style="font: 6px 'Arial', sans-serif; text-anchor: start" x="192.1308" y="84.524273" transform="rotate(-0 192.1308 84.524273)">HS14</text>
    </g>
    <g id="line2d_63">
     <path d="M 175.3308 90.91146 
L 181.3308 90.91146 
L 187.3308 90.91146 
" style="fill: none; stroke: #fa8532; stroke-width: 0.75; stroke-linecap: square"/>
    </g>
    <g id="text_17">
     <text style="font: 6px 'Arial', sans-serif; text-anchor: start" x="192.1308" y="93.01146" transform="rotate(-0 192.1308 93.01146)">HS23</text>
    </g>
    <g id="line2d_64">
     <path d="M 175.3308 99.398648 
L 181.3308 99.398648 
L 187.3308 99.398648 
" style="fill: none; stroke: #f5741f; stroke-width: 0.75; stroke-linecap: square"/>
    </g>
    <g id="text_18">
     <text style="font: 6px 'Arial', sans-serif; text-anchor: start" x="192.1308" y="101.498648" transform="rotate(-0 192.1308 101.498648)">HS24</text>
    </g>
    <g id="line2d_65">
     <path d="M 175.3308 107.885835 
L 181.3308 107.885835 
L 187.3308 107.885835 
" style="fill: none; stroke: #ed6310; stroke-width: 0.75; stroke-linecap: square"/>
    </g>
    <g id="text_19">
     <text style="font: 6px 'Arial', sans-serif; text-anchor: start" x="192.1308" y="109.985835" transform="rotate(-0 192.1308 109.985835)">HS34</text>
    </g>
    <g id="line2d_66">
     <path d="M 175.3308 116.373023 
L 181.3308 116.373023 
L 187.3308 116.373023 
" style="fill: none; stroke: #e15407; stroke-width: 0.75; stroke-linecap: square"/>
    </g>
    <g id="text_20">
     <text style="font: 6px 'Arial', sans-serif; text-anchor: start" x="192.1308" y="118.473023" transform="rotate(-0 192.1308 118.473023)">HS123</text>
    </g>
    <g id="line2d_67">
     <path d="M 175.3308 124.86021 
L 181.3308 124.86021 
L 187.3308 124.86021 
" style="fill: none; stroke: #d34601; stroke-width: 0.75; stroke-linecap: square"/>
    </g>
    <g id="text_21">
     <text style="font: 6px 'Arial', sans-serif; text-anchor: start" x="192.1308" y="126.96021" transform="rotate(-0 192.1308 126.96021)">HS124</text>
    </g>
    <g id="line2d_68">
     <path d="M 175.3308 133.347398 
L 181.3308 133.347398 
L 187.3308 133.347398 
" style="fill: none; stroke: #bb3d02; stroke-width: 0.75; stroke-linecap: square"/>
    </g>
    <g id="text_22">
     <text style="font: 6px 'Arial', sans-serif; text-anchor: start" x="192.1308" y="135.447398" transform="rotate(-0 192.1308 135.447398)">HS134</text>
    </g>
    <g id="line2d_69">
     <path d="M 175.3308 141.834585 
L 181.3308 141.834585 
L 187.3308 141.834585 
" style="fill: none; stroke: #a43503; stroke-width: 0.75; stroke-linecap: square"/>
    </g>
    <g id="text_23">
     <text style="font: 6px 'Arial', sans-serif; text-anchor: start" x="192.1308" y="143.934585" transform="rotate(-0 192.1308 143.934585)">HS234</text>
    </g>
    <g id="line2d_70">
     <path d="M 175.3308 150.321773 
L 181.3308 150.321773 
L 187.3308 150.321773 
" style="fill: none; stroke: #912e04; stroke-width: 0.75; stroke-linecap: square"/>
    </g>
    <g id="text_24">
     <text style="font: 6px 'Arial', sans-serif; text-anchor: start" x="192.1308" y="152.421773" transform="rotate(-0 192.1308 152.421773)">LCR</text>
    </g>
   </g>
  </g>
 </g>
 <defs>
  <clipPath id="pc04af68e91">
   <rect x="23.4" y="19.008" width="145.08" height="121.968"/>
  </clipPath>
 </defs>
</svg>
