<?xml version="1.0" encoding="utf-8" standalone="no"?>
<!DOCTYPE svg PUBLIC "-//W3C//DTD SVG 1.1//EN"
  "http://www.w3.org/Graphics/SVG/1.1/DTD/svg11.dtd">
<svg xmlns:xlink="http://www.w3.org/1999/xlink" width="570.24pt" height="158.4pt" viewBox="0 0 570.24 158.4" xmlns="http://www.w3.org/2000/svg" version="1.1">
 <metadata>
  <rdf:RDF xmlns:dc="http://purl.org/dc/elements/1.1/" xmlns:cc="http://creativecommons.org/ns#" xmlns:rdf="http://www.w3.org/1999/02/22-rdf-syntax-ns#">
   <cc:Work>
    <dc:type rdf:resource="http://purl.org/dc/dcmitype/StillImage"/>
    <dc:date>2025-03-11T16:53:11.716400</dc:date>
    <dc:format>image/svg+xml</dc:format>
    <dc:creator>
     <cc:Agent>
      <dc:title>Matplotlib v3.9.3, https://matplotlib.org/</dc:title>
     </cc:Agent>
    </dc:creator>
   </cc:Work>
  </rdf:RDF>
 </metadata>
 <defs>
  <style type="text/css">*{stroke-linejoin: round; stroke-linecap: butt}</style>
 </defs>
 <g id="figure_1">
  <g id="patch_1">
   <path d="M 0 158.4 
L 570.24 158.4 
L 570.24 0 
L 0 0 
z
" style="fill: #ffffff"/>
  </g>
  <g id="axes_1">
   <g id="patch_2">
    <path d="M 43.04 116.44 
L 116.608138 116.44 
L 116.608138 24.72 
L 43.04 24.72 
z
" style="fill: #ffffff"/>
   </g>
   <g id="matplotlib.axis_1">
    <g id="xtick_1">
     <g id="line2d_1">
      <defs>
       <path id="me2b8d9ad5e" d="M 0 0 
L 0 3.5 
" style="stroke: #000000; stroke-width: 0.8"/>
      </defs>
      <g>
       <use xlink:href="#me2b8d9ad5e" x="52.236017" y="116.44" style="stroke: #000000; stroke-width: 0.8"/>
      </g>
     </g>
     <g id="text_1">
      <text style="font: 8px 'Arial', sans-serif; text-anchor: middle" x="52.236017" y="129.16625" transform="rotate(-0 52.236017 129.16625)">1HS</text>
     </g>
    </g>
    <g id="xtick_2">
     <g id="line2d_2">
      <g>
       <use xlink:href="#me2b8d9ad5e" x="70.628052" y="116.44" style="stroke: #000000; stroke-width: 0.8"/>
      </g>
     </g>
     <g id="text_2">
      <text style="font: 8px 'Arial', sans-serif; text-anchor: middle" x="70.628052" y="129.16625" transform="rotate(-0 70.628052 129.16625)">2HS</text>
     </g>
    </g>
    <g id="xtick_3">
     <g id="line2d_3">
      <g>
       <use xlink:href="#me2b8d9ad5e" x="89.020086" y="116.44" style="stroke: #000000; stroke-width: 0.8"/>
      </g>
     </g>
     <g id="text_3">
      <text style="font: 8px 'Arial', sans-serif; text-anchor: middle" x="89.020086" y="129.16625" transform="rotate(-0 89.020086 129.16625)">3HS</text>
     </g>
    </g>
    <g id="xtick_4">
     <g id="line2d_4">
      <g>
       <use xlink:href="#me2b8d9ad5e" x="107.412121" y="116.44" style="stroke: #000000; stroke-width: 0.8"/>
      </g>
     </g>
     <g id="text_4">
      <text style="font: 8px 'Arial', sans-serif; text-anchor: middle" x="107.412121" y="129.16625" transform="rotate(-0 107.412121 129.16625)">4HS</text>
     </g>
    </g>
   </g>
   <g id="matplotlib.axis_2">
    <g id="ytick_1">
     <g id="line2d_5">
      <defs>
       <path id="mf12f028a12" d="M 0 0 
L -3.5 0 
" style="stroke: #000000; stroke-width: 0.8"/>
      </defs>
      <g>
       <use xlink:href="#mf12f028a12" x="43.04" y="103.761097" style="stroke: #000000; stroke-width: 0.8"/>
      </g>
     </g>
     <g id="text_5">
      <text style="font: 6px 'Arial', sans-serif; text-anchor: end" x="36.04" y="105.908441" transform="rotate(-0 36.04 105.908441)">2.5</text>
     </g>
    </g>
    <g id="ytick_2">
     <g id="line2d_6">
      <g>
       <use xlink:href="#mf12f028a12" x="43.04" y="89.394914" style="stroke: #000000; stroke-width: 0.8"/>
      </g>
     </g>
     <g id="text_6">
      <text style="font: 6px 'Arial', sans-serif; text-anchor: end" x="36.04" y="91.542257" transform="rotate(-0 36.04 91.542257)">5.0</text>
     </g>
    </g>
    <g id="ytick_3">
     <g id="line2d_7">
      <g>
       <use xlink:href="#mf12f028a12" x="43.04" y="75.02873" style="stroke: #000000; stroke-width: 0.8"/>
      </g>
     </g>
     <g id="text_7">
      <text style="font: 6px 'Arial', sans-serif; text-anchor: end" x="36.04" y="77.176073" transform="rotate(-0 36.04 77.176073)">7.5</text>
     </g>
    </g>
    <g id="ytick_4">
     <g id="line2d_8">
      <g>
       <use xlink:href="#mf12f028a12" x="43.04" y="60.662546" style="stroke: #000000; stroke-width: 0.8"/>
      </g>
     </g>
     <g id="text_8">
      <text style="font: 6px 'Arial', sans-serif; text-anchor: end" x="36.04" y="62.809889" transform="rotate(-0 36.04 62.809889)">10.0</text>
     </g>
    </g>
    <g id="ytick_5">
     <g id="line2d_9">
      <g>
       <use xlink:href="#mf12f028a12" x="43.04" y="46.296362" style="stroke: #000000; stroke-width: 0.8"/>
      </g>
     </g>
     <g id="text_9">
      <text style="font: 6px 'Arial', sans-serif; text-anchor: end" x="36.04" y="48.443705" transform="rotate(-0 36.04 48.443705)">12.5</text>
     </g>
    </g>
    <g id="ytick_6">
     <g id="line2d_10">
      <g>
       <use xlink:href="#mf12f028a12" x="43.04" y="31.930178" style="stroke: #000000; stroke-width: 0.8"/>
      </g>
     </g>
     <g id="text_10">
      <text style="font: 6px 'Arial', sans-serif; text-anchor: end" x="36.04" y="34.077521" transform="rotate(-0 36.04 34.077521)">15.0</text>
     </g>
    </g>
    <g id="text_11">
     <text style="font: 8px 'Arial', sans-serif; text-anchor: middle" x="18.679688" y="70.58" transform="rotate(-90 18.679688 70.58)">Fold change</text>
    </g>
   </g>
   <g id="line2d_11">
    <path d="M 43.04 112.380808 
L 116.608138 112.380808 
" clip-path="url(#p52f74121c5)" style="fill: none; stroke-dasharray: 3.7,1.6; stroke-dashoffset: 0; stroke: #808080"/>
   </g>
   <g id="patch_3">
    <path d="M 43.04 116.44 
L 43.04 24.72 
" style="fill: none; stroke: #000000; stroke-width: 0.8; stroke-linejoin: miter; stroke-linecap: square"/>
   </g>
   <g id="patch_4">
    <path d="M 43.04 116.44 
L 116.608138 116.44 
" style="fill: none; stroke: #000000; stroke-width: 0.8; stroke-linejoin: miter; stroke-linecap: square"/>
   </g>
   <g id="PathCollection_1">
    <defs>
     <path id="C0_0_d213f6948f" d="M 0 1.581139 
C 0.419323 1.581139 0.821528 1.41454 1.118034 1.118034 
C 1.41454 0.821528 1.581139 0.419323 1.581139 -0 
C 1.581139 -0.419323 1.41454 -0.821528 1.118034 -1.118034 
C 0.821528 -1.41454 0.419323 -1.581139 0 -1.581139 
C -0.419323 -1.581139 -0.821528 -1.41454 -1.118034 -1.118034 
C -1.41454 -0.821528 -1.581139 -0.419323 -1.581139 0 
C -1.581139 0.419323 -1.41454 0.821528 -1.118034 1.118034 
C -0.821528 1.41454 -0.419323 1.581139 0 1.581139 
z
"/>
    </defs>
    <g clip-path="url(#p52f74121c5)">
     <use xlink:href="#C0_0_d213f6948f" x="53.926327" y="101.607" style="fill: #1f77b4"/>
    </g>
    <g clip-path="url(#p52f74121c5)">
     <use xlink:href="#C0_0_d213f6948f" x="52.319165" y="91.269465" style="fill: #1f77b4"/>
    </g>
    <g clip-path="url(#p52f74121c5)">
     <use xlink:href="#C0_0_d213f6948f" x="52.637526" y="107.072059" style="fill: #1f77b4"/>
    </g>
    <g clip-path="url(#p52f74121c5)">
     <use xlink:href="#C0_0_d213f6948f" x="52.516334" y="100.140378" style="fill: #1f77b4"/>
    </g>
   </g>
   <g id="PathCollection_2">
    <defs>
     <path id="C1_0_3c3c8ecd06" d="M 0 1.581139 
C 0.419323 1.581139 0.821528 1.41454 1.118034 1.118034 
C 1.41454 0.821528 1.581139 0.419323 1.581139 -0 
C 1.581139 -0.419323 1.41454 -0.821528 1.118034 -1.118034 
C 0.821528 -1.41454 0.419323 -1.581139 0 -1.581139 
C -0.419323 -1.581139 -0.821528 -1.41454 -1.118034 -1.118034 
C -1.41454 -0.821528 -1.581139 -0.419323 -1.581139 0 
C -1.581139 0.419323 -1.41454 0.821528 -1.118034 1.118034 
C -0.821528 1.41454 -0.419323 1.581139 0 1.581139 
z
"/>
    </defs>
    <g clip-path="url(#p52f74121c5)">
     <use xlink:href="#C1_0_3c3c8ecd06" x="69.4001" y="76.75676" style="fill: #ff7f0e"/>
    </g>
    <g clip-path="url(#p52f74121c5)">
     <use xlink:href="#C1_0_3c3c8ecd06" x="69.447862" y="83.79169" style="fill: #ff7f0e"/>
    </g>
    <g clip-path="url(#p52f74121c5)">
     <use xlink:href="#C1_0_3c3c8ecd06" x="71.962251" y="92.720345" style="fill: #ff7f0e"/>
    </g>
    <g clip-path="url(#p52f74121c5)">
     <use xlink:href="#C1_0_3c3c8ecd06" x="72.228389" y="59.73227" style="fill: #ff7f0e"/>
    </g>
    <g clip-path="url(#p52f74121c5)">
     <use xlink:href="#C1_0_3c3c8ecd06" x="72.242949" y="69.178989" style="fill: #ff7f0e"/>
    </g>
    <g clip-path="url(#p52f74121c5)">
     <use xlink:href="#C1_0_3c3c8ecd06" x="72.145505" y="79.774432" style="fill: #ff7f0e"/>
    </g>
   </g>
   <g id="PathCollection_3">
    <defs>
     <path id="C2_0_960daa6171" d="M 0 1.581139 
C 0.419323 1.581139 0.821528 1.41454 1.118034 1.118034 
C 1.41454 0.821528 1.581139 0.419323 1.581139 -0 
C 1.581139 -0.419323 1.41454 -0.821528 1.118034 -1.118034 
C 0.821528 -1.41454 0.419323 -1.581139 0 -1.581139 
C -0.419323 -1.581139 -0.821528 -1.41454 -1.118034 -1.118034 
C -1.41454 -0.821528 -1.581139 -0.419323 -1.581139 0 
C -1.581139 0.419323 -1.41454 0.821528 -1.118034 1.118034 
C -0.821528 1.41454 -0.419323 1.581139 0 1.581139 
z
"/>
    </defs>
    <g clip-path="url(#p52f74121c5)">
     <use xlink:href="#C2_0_960daa6171" x="89.064499" y="44.875753" style="fill: #2ca02c"/>
    </g>
    <g clip-path="url(#p52f74121c5)">
     <use xlink:href="#C2_0_960daa6171" x="88.576329" y="55.255561" style="fill: #2ca02c"/>
    </g>
    <g clip-path="url(#p52f74121c5)">
     <use xlink:href="#C2_0_960daa6171" x="89.504528" y="61.119359" style="fill: #2ca02c"/>
    </g>
    <g clip-path="url(#p52f74121c5)">
     <use xlink:href="#C2_0_960daa6171" x="90.086956" y="38.792334" style="fill: #2ca02c"/>
    </g>
   </g>
   <g id="PathCollection_4">
    <defs>
     <path id="mb4c21cac29" d="M 0 1.581139 
C 0.419323 1.581139 0.821528 1.41454 1.118034 1.118034 
C 1.41454 0.821528 1.581139 0.419323 1.581139 0 
C 1.581139 -0.419323 1.41454 -0.821528 1.118034 -1.118034 
C 0.821528 -1.41454 0.419323 -1.581139 0 -1.581139 
C -0.419323 -1.581139 -0.821528 -1.41454 -1.118034 -1.118034 
C -1.41454 -0.821528 -1.581139 -0.419323 -1.581139 0 
C -1.581139 0.419323 -1.41454 0.821528 -1.118034 1.118034 
C -0.821528 1.41454 -0.419323 1.581139 0 1.581139 
z
"/>
    </defs>
    <g clip-path="url(#p52f74121c5)">
     <use xlink:href="#mb4c21cac29" x="107.412121" y="36.063647" style="fill: #d62728"/>
    </g>
   </g>
   <g id="text_12">
    <text style="font: 8px 'Arial', sans-serif; text-anchor: middle" x="79.824069" y="18.72" transform="rotate(-0 79.824069 18.72)">Distance=0kb</text>
   </g>
  </g>
  <g id="axes_2">
   <g id="patch_5">
    <path d="M 131.49 116.44 
L 205.058138 116.44 
L 205.058138 24.72 
L 131.49 24.72 
z
" style="fill: #ffffff"/>
   </g>
   <g id="matplotlib.axis_3">
    <g id="xtick_5">
     <g id="line2d_12">
      <g>
       <use xlink:href="#me2b8d9ad5e" x="140.686017" y="116.44" style="stroke: #000000; stroke-width: 0.8"/>
      </g>
     </g>
     <g id="text_13">
      <text style="font: 8px 'Arial', sans-serif; text-anchor: middle" x="140.686017" y="129.16625" transform="rotate(-0 140.686017 129.16625)">1HS</text>
     </g>
    </g>
    <g id="xtick_6">
     <g id="line2d_13">
      <g>
       <use xlink:href="#me2b8d9ad5e" x="159.078052" y="116.44" style="stroke: #000000; stroke-width: 0.8"/>
      </g>
     </g>
     <g id="text_14">
      <text style="font: 8px 'Arial', sans-serif; text-anchor: middle" x="159.078052" y="129.16625" transform="rotate(-0 159.078052 129.16625)">2HS</text>
     </g>
    </g>
    <g id="xtick_7">
     <g id="line2d_14">
      <g>
       <use xlink:href="#me2b8d9ad5e" x="177.470086" y="116.44" style="stroke: #000000; stroke-width: 0.8"/>
      </g>
     </g>
     <g id="text_15">
      <text style="font: 8px 'Arial', sans-serif; text-anchor: middle" x="177.470086" y="129.16625" transform="rotate(-0 177.470086 129.16625)">3HS</text>
     </g>
    </g>
    <g id="xtick_8">
     <g id="line2d_15">
      <g>
       <use xlink:href="#me2b8d9ad5e" x="195.862121" y="116.44" style="stroke: #000000; stroke-width: 0.8"/>
      </g>
     </g>
     <g id="text_16">
      <text style="font: 8px 'Arial', sans-serif; text-anchor: middle" x="195.862121" y="129.16625" transform="rotate(-0 195.862121 129.16625)">4HS</text>
     </g>
    </g>
   </g>
   <g id="matplotlib.axis_4">
    <g id="ytick_7">
     <g id="line2d_16">
      <g>
       <use xlink:href="#mf12f028a12" x="131.49" y="103.761097" style="stroke: #000000; stroke-width: 0.8"/>
      </g>
     </g>
    </g>
    <g id="ytick_8">
     <g id="line2d_17">
      <g>
       <use xlink:href="#mf12f028a12" x="131.49" y="89.394914" style="stroke: #000000; stroke-width: 0.8"/>
      </g>
     </g>
    </g>
    <g id="ytick_9">
     <g id="line2d_18">
      <g>
       <use xlink:href="#mf12f028a12" x="131.49" y="75.02873" style="stroke: #000000; stroke-width: 0.8"/>
      </g>
     </g>
    </g>
    <g id="ytick_10">
     <g id="line2d_19">
      <g>
       <use xlink:href="#mf12f028a12" x="131.49" y="60.662546" style="stroke: #000000; stroke-width: 0.8"/>
      </g>
     </g>
    </g>
    <g id="ytick_11">
     <g id="line2d_20">
      <g>
       <use xlink:href="#mf12f028a12" x="131.49" y="46.296362" style="stroke: #000000; stroke-width: 0.8"/>
      </g>
     </g>
    </g>
    <g id="ytick_12">
     <g id="line2d_21">
      <g>
       <use xlink:href="#mf12f028a12" x="131.49" y="31.930178" style="stroke: #000000; stroke-width: 0.8"/>
      </g>
     </g>
    </g>
   </g>
   <g id="line2d_22">
    <path d="M 131.49 112.380808 
L 205.058138 112.380808 
" clip-path="url(#pde22dcc29a)" style="fill: none; stroke-dasharray: 3.7,1.6; stroke-dashoffset: 0; stroke: #808080"/>
   </g>
   <g id="patch_6">
    <path d="M 131.49 116.44 
L 131.49 24.72 
" style="fill: none; stroke: #000000; stroke-width: 0.8; stroke-linejoin: miter; stroke-linecap: square"/>
   </g>
   <g id="patch_7">
    <path d="M 131.49 116.44 
L 205.058138 116.44 
" style="fill: none; stroke: #000000; stroke-width: 0.8; stroke-linejoin: miter; stroke-linecap: square"/>
   </g>
   <g id="PathCollection_5">
    <defs>
     <path id="C3_0_5e7a4e9e5a" d="M 0 1.581139 
C 0.419323 1.581139 0.821528 1.41454 1.118034 1.118034 
C 1.41454 0.821528 1.581139 0.419323 1.581139 -0 
C 1.581139 -0.419323 1.41454 -0.821528 1.118034 -1.118034 
C 0.821528 -1.41454 0.419323 -1.581139 0 -1.581139 
C -0.419323 -1.581139 -0.821528 -1.41454 -1.118034 -1.118034 
C -1.41454 -0.821528 -1.581139 -0.419323 -1.581139 0 
C -1.581139 0.419323 -1.41454 0.821528 -1.118034 1.118034 
C -0.821528 1.41454 -0.419323 1.581139 0 1.581139 
z
"/>
    </defs>
    <g clip-path="url(#pde22dcc29a)">
     <use xlink:href="#C3_0_5e7a4e9e5a" x="140.113891" y="105.994139" style="fill: #1f77b4"/>
    </g>
    <g clip-path="url(#pde22dcc29a)">
     <use xlink:href="#C3_0_5e7a4e9e5a" x="139.908031" y="92.660382" style="fill: #1f77b4"/>
    </g>
    <g clip-path="url(#pde22dcc29a)">
     <use xlink:href="#C3_0_5e7a4e9e5a" x="141.524339" y="102.151643" style="fill: #1f77b4"/>
    </g>
    <g clip-path="url(#pde22dcc29a)">
     <use xlink:href="#C3_0_5e7a4e9e5a" x="141.511556" y="104.975793" style="fill: #1f77b4"/>
    </g>
   </g>
   <g id="PathCollection_6">
    <defs>
     <path id="C4_0_4413ca7058" d="M 0 1.581139 
C 0.419323 1.581139 0.821528 1.41454 1.118034 1.118034 
C 1.41454 0.821528 1.581139 0.419323 1.581139 -0 
C 1.581139 -0.419323 1.41454 -0.821528 1.118034 -1.118034 
C 0.821528 -1.41454 0.419323 -1.581139 0 -1.581139 
C -0.419323 -1.581139 -0.821528 -1.41454 -1.118034 -1.118034 
C -1.41454 -0.821528 -1.581139 -0.419323 -1.581139 0 
C -1.581139 0.419323 -1.41454 0.821528 -1.118034 1.118034 
C -0.821528 1.41454 -0.419323 1.581139 0 1.581139 
z
"/>
    </defs>
    <g clip-path="url(#pde22dcc29a)">
     <use xlink:href="#C4_0_4413ca7058" x="157.654588" y="75.201719" style="fill: #ff7f0e"/>
    </g>
    <g clip-path="url(#pde22dcc29a)">
     <use xlink:href="#C4_0_4413ca7058" x="158.843946" y="79.982873" style="fill: #ff7f0e"/>
    </g>
    <g clip-path="url(#pde22dcc29a)">
     <use xlink:href="#C4_0_4413ca7058" x="159.255332" y="92.896066" style="fill: #ff7f0e"/>
    </g>
    <g clip-path="url(#pde22dcc29a)">
     <use xlink:href="#C4_0_4413ca7058" x="157.973589" y="53.530142" style="fill: #ff7f0e"/>
    </g>
    <g clip-path="url(#pde22dcc29a)">
     <use xlink:href="#C4_0_4413ca7058" x="158.2246" y="70.290151" style="fill: #ff7f0e"/>
    </g>
    <g clip-path="url(#pde22dcc29a)">
     <use xlink:href="#C4_0_4413ca7058" x="160.336016" y="77.941708" style="fill: #ff7f0e"/>
    </g>
   </g>
   <g id="PathCollection_7">
    <defs>
     <path id="C5_0_c0ed99d2c6" d="M 0 1.581139 
C 0.419323 1.581139 0.821528 1.41454 1.118034 1.118034 
C 1.41454 0.821528 1.581139 0.419323 1.581139 -0 
C 1.581139 -0.419323 1.41454 -0.821528 1.118034 -1.118034 
C 0.821528 -1.41454 0.419323 -1.581139 0 -1.581139 
C -0.419323 -1.581139 -0.821528 -1.41454 -1.118034 -1.118034 
C -1.41454 -0.821528 -1.581139 -0.419323 -1.581139 0 
C -1.581139 0.419323 -1.41454 0.821528 -1.118034 1.118034 
C -0.821528 1.41454 -0.419323 1.581139 0 1.581139 
z
"/>
    </defs>
    <g clip-path="url(#pde22dcc29a)">
     <use xlink:href="#C5_0_c0ed99d2c6" x="178.22316" y="42.314104" style="fill: #2ca02c"/>
    </g>
    <g clip-path="url(#pde22dcc29a)">
     <use xlink:href="#C5_0_c0ed99d2c6" x="176.178788" y="50.845547" style="fill: #2ca02c"/>
    </g>
    <g clip-path="url(#pde22dcc29a)">
     <use xlink:href="#C5_0_c0ed99d2c6" x="176.298644" y="59.43589" style="fill: #2ca02c"/>
    </g>
    <g clip-path="url(#pde22dcc29a)">
     <use xlink:href="#C5_0_c0ed99d2c6" x="178.225124" y="33.00288" style="fill: #2ca02c"/>
    </g>
   </g>
   <g id="PathCollection_8">
    <g clip-path="url(#pde22dcc29a)">
     <use xlink:href="#mb4c21cac29" x="195.862121" y="28.889091" style="fill: #d62728"/>
    </g>
   </g>
   <g id="text_17">
    <text style="font: 8px 'Arial', sans-serif; text-anchor: middle" x="168.274069" y="18.72" transform="rotate(-0 168.274069 18.72)">Distance=3kb</text>
   </g>
  </g>
  <g id="axes_3">
   <g id="patch_8">
    <path d="M 219.94 116.44 
L 293.508138 116.44 
L 293.508138 24.72 
L 219.94 24.72 
z
" style="fill: #ffffff"/>
   </g>
   <g id="matplotlib.axis_5">
    <g id="xtick_9">
     <g id="line2d_23">
      <g>
       <use xlink:href="#me2b8d9ad5e" x="229.136017" y="116.44" style="stroke: #000000; stroke-width: 0.8"/>
      </g>
     </g>
     <g id="text_18">
      <text style="font: 8px 'Arial', sans-serif; text-anchor: middle" x="229.136017" y="129.16625" transform="rotate(-0 229.136017 129.16625)">1HS</text>
     </g>
    </g>
    <g id="xtick_10">
     <g id="line2d_24">
      <g>
       <use xlink:href="#me2b8d9ad5e" x="247.528052" y="116.44" style="stroke: #000000; stroke-width: 0.8"/>
      </g>
     </g>
     <g id="text_19">
      <text style="font: 8px 'Arial', sans-serif; text-anchor: middle" x="247.528052" y="129.16625" transform="rotate(-0 247.528052 129.16625)">2HS</text>
     </g>
    </g>
    <g id="xtick_11">
     <g id="line2d_25">
      <g>
       <use xlink:href="#me2b8d9ad5e" x="265.920086" y="116.44" style="stroke: #000000; stroke-width: 0.8"/>
      </g>
     </g>
     <g id="text_20">
      <text style="font: 8px 'Arial', sans-serif; text-anchor: middle" x="265.920086" y="129.16625" transform="rotate(-0 265.920086 129.16625)">3HS</text>
     </g>
    </g>
    <g id="xtick_12">
     <g id="line2d_26">
      <g>
       <use xlink:href="#me2b8d9ad5e" x="284.312121" y="116.44" style="stroke: #000000; stroke-width: 0.8"/>
      </g>
     </g>
     <g id="text_21">
      <text style="font: 8px 'Arial', sans-serif; text-anchor: middle" x="284.312121" y="129.16625" transform="rotate(-0 284.312121 129.16625)">4HS</text>
     </g>
    </g>
   </g>
   <g id="matplotlib.axis_6">
    <g id="ytick_13">
     <g id="line2d_27">
      <g>
       <use xlink:href="#mf12f028a12" x="219.94" y="103.761097" style="stroke: #000000; stroke-width: 0.8"/>
      </g>
     </g>
    </g>
    <g id="ytick_14">
     <g id="line2d_28">
      <g>
       <use xlink:href="#mf12f028a12" x="219.94" y="89.394914" style="stroke: #000000; stroke-width: 0.8"/>
      </g>
     </g>
    </g>
    <g id="ytick_15">
     <g id="line2d_29">
      <g>
       <use xlink:href="#mf12f028a12" x="219.94" y="75.02873" style="stroke: #000000; stroke-width: 0.8"/>
      </g>
     </g>
    </g>
    <g id="ytick_16">
     <g id="line2d_30">
      <g>
       <use xlink:href="#mf12f028a12" x="219.94" y="60.662546" style="stroke: #000000; stroke-width: 0.8"/>
      </g>
     </g>
    </g>
    <g id="ytick_17">
     <g id="line2d_31">
      <g>
       <use xlink:href="#mf12f028a12" x="219.94" y="46.296362" style="stroke: #000000; stroke-width: 0.8"/>
      </g>
     </g>
    </g>
    <g id="ytick_18">
     <g id="line2d_32">
      <g>
       <use xlink:href="#mf12f028a12" x="219.94" y="31.930178" style="stroke: #000000; stroke-width: 0.8"/>
      </g>
     </g>
    </g>
   </g>
   <g id="line2d_33">
    <path d="M 219.94 112.380808 
L 293.508138 112.380808 
" clip-path="url(#p18e1afd09d)" style="fill: none; stroke-dasharray: 3.7,1.6; stroke-dashoffset: 0; stroke: #808080"/>
   </g>
   <g id="patch_9">
    <path d="M 219.94 116.44 
L 219.94 24.72 
" style="fill: none; stroke: #000000; stroke-width: 0.8; stroke-linejoin: miter; stroke-linecap: square"/>
   </g>
   <g id="patch_10">
    <path d="M 219.94 116.44 
L 293.508138 116.44 
" style="fill: none; stroke: #000000; stroke-width: 0.8; stroke-linejoin: miter; stroke-linecap: square"/>
   </g>
   <g id="PathCollection_9">
    <defs>
     <path id="C6_0_2752f8dcf0" d="M 0 1.581139 
C 0.419323 1.581139 0.821528 1.41454 1.118034 1.118034 
C 1.41454 0.821528 1.581139 0.419323 1.581139 -0 
C 1.581139 -0.419323 1.41454 -0.821528 1.118034 -1.118034 
C 0.821528 -1.41454 0.419323 -1.581139 0 -1.581139 
C -0.419323 -1.581139 -0.821528 -1.41454 -1.118034 -1.118034 
C -1.41454 -0.821528 -1.581139 -0.419323 -1.581139 0 
C -1.581139 0.419323 -1.41454 0.821528 -1.118034 1.118034 
C -0.821528 1.41454 -0.419323 1.581139 0 1.581139 
z
"/>
    </defs>
    <g clip-path="url(#p18e1afd09d)">
     <use xlink:href="#C6_0_2752f8dcf0" x="228.115166" y="107.724328" style="fill: #1f77b4"/>
    </g>
    <g clip-path="url(#p18e1afd09d)">
     <use xlink:href="#C6_0_2752f8dcf0" x="228.936616" y="98.37312" style="fill: #1f77b4"/>
    </g>
    <g clip-path="url(#p18e1afd09d)">
     <use xlink:href="#C6_0_2752f8dcf0" x="228.438284" y="105.222525" style="fill: #1f77b4"/>
    </g>
    <g clip-path="url(#p18e1afd09d)">
     <use xlink:href="#C6_0_2752f8dcf0" x="229.372568" y="107.29862" style="fill: #1f77b4"/>
    </g>
   </g>
   <g id="PathCollection_10">
    <defs>
     <path id="C7_0_d2eb2cd191" d="M 0 1.581139 
C 0.419323 1.581139 0.821528 1.41454 1.118034 1.118034 
C 1.41454 0.821528 1.581139 0.419323 1.581139 -0 
C 1.581139 -0.419323 1.41454 -0.821528 1.118034 -1.118034 
C 0.821528 -1.41454 0.419323 -1.581139 0 -1.581139 
C -0.419323 -1.581139 -0.821528 -1.41454 -1.118034 -1.118034 
C -1.41454 -0.821528 -1.581139 -0.419323 -1.581139 0 
C -1.581139 0.419323 -1.41454 0.821528 -1.118034 1.118034 
C -0.821528 1.41454 -0.419323 1.581139 0 1.581139 
z
"/>
    </defs>
    <g clip-path="url(#p18e1afd09d)">
     <use xlink:href="#C7_0_d2eb2cd191" x="249.082691" y="84.049554" style="fill: #ff7f0e"/>
    </g>
    <g clip-path="url(#p18e1afd09d)">
     <use xlink:href="#C7_0_d2eb2cd191" x="245.96174" y="88.923417" style="fill: #ff7f0e"/>
    </g>
    <g clip-path="url(#p18e1afd09d)">
     <use xlink:href="#C7_0_d2eb2cd191" x="247.71347" y="98.042577" style="fill: #ff7f0e"/>
    </g>
    <g clip-path="url(#p18e1afd09d)">
     <use xlink:href="#C7_0_d2eb2cd191" x="249.086745" y="71.572555" style="fill: #ff7f0e"/>
    </g>
    <g clip-path="url(#p18e1afd09d)">
     <use xlink:href="#C7_0_d2eb2cd191" x="247.760985" y="80.050216" style="fill: #ff7f0e"/>
    </g>
    <g clip-path="url(#p18e1afd09d)">
     <use xlink:href="#C7_0_d2eb2cd191" x="247.093673" y="87.095856" style="fill: #ff7f0e"/>
    </g>
   </g>
   <g id="PathCollection_11">
    <defs>
     <path id="C8_0_5880aefc92" d="M 0 1.581139 
C 0.419323 1.581139 0.821528 1.41454 1.118034 1.118034 
C 1.41454 0.821528 1.581139 0.419323 1.581139 -0 
C 1.581139 -0.419323 1.41454 -0.821528 1.118034 -1.118034 
C 0.821528 -1.41454 0.419323 -1.581139 0 -1.581139 
C -0.419323 -1.581139 -0.821528 -1.41454 -1.118034 -1.118034 
C -1.41454 -0.821528 -1.581139 -0.419323 -1.581139 0 
C -1.581139 0.419323 -1.41454 0.821528 -1.118034 1.118034 
C -0.821528 1.41454 -0.419323 1.581139 0 1.581139 
z
"/>
    </defs>
    <g clip-path="url(#p18e1afd09d)">
     <use xlink:href="#C8_0_5880aefc92" x="264.926112" y="69.757526" style="fill: #2ca02c"/>
    </g>
    <g clip-path="url(#p18e1afd09d)">
     <use xlink:href="#C8_0_5880aefc92" x="264.304532" y="66.253366" style="fill: #2ca02c"/>
    </g>
    <g clip-path="url(#p18e1afd09d)">
     <use xlink:href="#C8_0_5880aefc92" x="265.856715" y="75.599729" style="fill: #2ca02c"/>
    </g>
    <g clip-path="url(#p18e1afd09d)">
     <use xlink:href="#C8_0_5880aefc92" x="266.448203" y="58.719467" style="fill: #2ca02c"/>
    </g>
   </g>
   <g id="PathCollection_12">
    <g clip-path="url(#p18e1afd09d)">
     <use xlink:href="#mb4c21cac29" x="284.312121" y="57.286139" style="fill: #d62728"/>
    </g>
   </g>
   <g id="text_22">
    <text style="font: 8px 'Arial', sans-serif; text-anchor: middle" x="256.724069" y="18.72" transform="rotate(-0 256.724069 18.72)">Distance=10kb</text>
   </g>
  </g>
  <g id="axes_4">
   <g id="patch_11">
    <path d="M 308.39 116.44 
L 381.958138 116.44 
L 381.958138 24.72 
L 308.39 24.72 
z
" style="fill: #ffffff"/>
   </g>
   <g id="matplotlib.axis_7">
    <g id="xtick_13">
     <g id="line2d_34">
      <g>
       <use xlink:href="#me2b8d9ad5e" x="317.586017" y="116.44" style="stroke: #000000; stroke-width: 0.8"/>
      </g>
     </g>
     <g id="text_23">
      <text style="font: 8px 'Arial', sans-serif; text-anchor: middle" x="317.586017" y="129.16625" transform="rotate(-0 317.586017 129.16625)">1HS</text>
     </g>
    </g>
    <g id="xtick_14">
     <g id="line2d_35">
      <g>
       <use xlink:href="#me2b8d9ad5e" x="335.978052" y="116.44" style="stroke: #000000; stroke-width: 0.8"/>
      </g>
     </g>
     <g id="text_24">
      <text style="font: 8px 'Arial', sans-serif; text-anchor: middle" x="335.978052" y="129.16625" transform="rotate(-0 335.978052 129.16625)">2HS</text>
     </g>
    </g>
    <g id="xtick_15">
     <g id="line2d_36">
      <g>
       <use xlink:href="#me2b8d9ad5e" x="354.370086" y="116.44" style="stroke: #000000; stroke-width: 0.8"/>
      </g>
     </g>
     <g id="text_25">
      <text style="font: 8px 'Arial', sans-serif; text-anchor: middle" x="354.370086" y="129.16625" transform="rotate(-0 354.370086 129.16625)">3HS</text>
     </g>
    </g>
    <g id="xtick_16">
     <g id="line2d_37">
      <g>
       <use xlink:href="#me2b8d9ad5e" x="372.762121" y="116.44" style="stroke: #000000; stroke-width: 0.8"/>
      </g>
     </g>
     <g id="text_26">
      <text style="font: 8px 'Arial', sans-serif; text-anchor: middle" x="372.762121" y="129.16625" transform="rotate(-0 372.762121 129.16625)">4HS</text>
     </g>
    </g>
   </g>
   <g id="matplotlib.axis_8">
    <g id="ytick_19">
     <g id="line2d_38">
      <g>
       <use xlink:href="#mf12f028a12" x="308.39" y="103.761097" style="stroke: #000000; stroke-width: 0.8"/>
      </g>
     </g>
    </g>
    <g id="ytick_20">
     <g id="line2d_39">
      <g>
       <use xlink:href="#mf12f028a12" x="308.39" y="89.394914" style="stroke: #000000; stroke-width: 0.8"/>
      </g>
     </g>
    </g>
    <g id="ytick_21">
     <g id="line2d_40">
      <g>
       <use xlink:href="#mf12f028a12" x="308.39" y="75.02873" style="stroke: #000000; stroke-width: 0.8"/>
      </g>
     </g>
    </g>
    <g id="ytick_22">
     <g id="line2d_41">
      <g>
       <use xlink:href="#mf12f028a12" x="308.39" y="60.662546" style="stroke: #000000; stroke-width: 0.8"/>
      </g>
     </g>
    </g>
    <g id="ytick_23">
     <g id="line2d_42">
      <g>
       <use xlink:href="#mf12f028a12" x="308.39" y="46.296362" style="stroke: #000000; stroke-width: 0.8"/>
      </g>
     </g>
    </g>
    <g id="ytick_24">
     <g id="line2d_43">
      <g>
       <use xlink:href="#mf12f028a12" x="308.39" y="31.930178" style="stroke: #000000; stroke-width: 0.8"/>
      </g>
     </g>
    </g>
   </g>
   <g id="line2d_44">
    <path d="M 308.39 112.380808 
L 381.958138 112.380808 
" clip-path="url(#p0d62c77353)" style="fill: none; stroke-dasharray: 3.7,1.6; stroke-dashoffset: 0; stroke: #808080"/>
   </g>
   <g id="patch_12">
    <path d="M 308.39 116.44 
L 308.39 24.72 
" style="fill: none; stroke: #000000; stroke-width: 0.8; stroke-linejoin: miter; stroke-linecap: square"/>
   </g>
   <g id="patch_13">
    <path d="M 308.39 116.44 
L 381.958138 116.44 
" style="fill: none; stroke: #000000; stroke-width: 0.8; stroke-linejoin: miter; stroke-linecap: square"/>
   </g>
   <g id="PathCollection_13">
    <defs>
     <path id="C9_0_365e98bd90" d="M 0 1.581139 
C 0.419323 1.581139 0.821528 1.41454 1.118034 1.118034 
C 1.41454 0.821528 1.581139 0.419323 1.581139 -0 
C 1.581139 -0.419323 1.41454 -0.821528 1.118034 -1.118034 
C 0.821528 -1.41454 0.419323 -1.581139 0 -1.581139 
C -0.419323 -1.581139 -0.821528 -1.41454 -1.118034 -1.118034 
C -1.41454 -0.821528 -1.581139 -0.419323 -1.581139 0 
C -1.581139 0.419323 -1.41454 0.821528 -1.118034 1.118034 
C -0.821528 1.41454 -0.419323 1.581139 0 1.581139 
z
"/>
    </defs>
    <g clip-path="url(#p0d62c77353)">
     <use xlink:href="#C9_0_365e98bd90" x="317.047684" y="109.33569" style="fill: #1f77b4"/>
    </g>
    <g clip-path="url(#p0d62c77353)">
     <use xlink:href="#C9_0_365e98bd90" x="317.343113" y="96.587338" style="fill: #1f77b4"/>
    </g>
    <g clip-path="url(#p0d62c77353)">
     <use xlink:href="#C9_0_365e98bd90" x="316.846957" y="104.642251" style="fill: #1f77b4"/>
    </g>
    <g clip-path="url(#p0d62c77353)">
     <use xlink:href="#C9_0_365e98bd90" x="318.368066" y="109.053277" style="fill: #1f77b4"/>
    </g>
   </g>
   <g id="PathCollection_14">
    <defs>
     <path id="Ca_0_f9a5394625" d="M 0 1.581139 
C 0.419323 1.581139 0.821528 1.41454 1.118034 1.118034 
C 1.41454 0.821528 1.581139 0.419323 1.581139 -0 
C 1.581139 -0.419323 1.41454 -0.821528 1.118034 -1.118034 
C 0.821528 -1.41454 0.419323 -1.581139 0 -1.581139 
C -0.419323 -1.581139 -0.821528 -1.41454 -1.118034 -1.118034 
C -1.41454 -0.821528 -1.581139 -0.419323 -1.581139 0 
C -1.581139 0.419323 -1.41454 0.821528 -1.118034 1.118034 
C -0.821528 1.41454 -0.419323 1.581139 0 1.581139 
z
"/>
    </defs>
    <g clip-path="url(#p0d62c77353)">
     <use xlink:href="#Ca_0_f9a5394625" x="335.232551" y="79.810948" style="fill: #ff7f0e"/>
    </g>
    <g clip-path="url(#p0d62c77353)">
     <use xlink:href="#Ca_0_f9a5394625" x="334.542587" y="86.974285" style="fill: #ff7f0e"/>
    </g>
    <g clip-path="url(#p0d62c77353)">
     <use xlink:href="#Ca_0_f9a5394625" x="336.46432" y="97.172646" style="fill: #ff7f0e"/>
    </g>
    <g clip-path="url(#p0d62c77353)">
     <use xlink:href="#Ca_0_f9a5394625" x="335.86366" y="73.070279" style="fill: #ff7f0e"/>
    </g>
    <g clip-path="url(#p0d62c77353)">
     <use xlink:href="#Ca_0_f9a5394625" x="335.755166" y="79.010731" style="fill: #ff7f0e"/>
    </g>
    <g clip-path="url(#p0d62c77353)">
     <use xlink:href="#Ca_0_f9a5394625" x="335.234384" y="86.171354" style="fill: #ff7f0e"/>
    </g>
   </g>
   <g id="PathCollection_15">
    <defs>
     <path id="Cb_0_ba2cf02a75" d="M 0 1.581139 
C 0.419323 1.581139 0.821528 1.41454 1.118034 1.118034 
C 1.41454 0.821528 1.581139 0.419323 1.581139 -0 
C 1.581139 -0.419323 1.41454 -0.821528 1.118034 -1.118034 
C 0.821528 -1.41454 0.419323 -1.581139 0 -1.581139 
C -0.419323 -1.581139 -0.821528 -1.41454 -1.118034 -1.118034 
C -1.41454 -0.821528 -1.581139 -0.419323 -1.581139 0 
C -1.581139 0.419323 -1.41454 0.821528 -1.118034 1.118034 
C -0.821528 1.41454 -0.419323 1.581139 0 1.581139 
z
"/>
    </defs>
    <g clip-path="url(#p0d62c77353)">
     <use xlink:href="#Cb_0_ba2cf02a75" x="355.722976" y="69.265739" style="fill: #2ca02c"/>
    </g>
    <g clip-path="url(#p0d62c77353)">
     <use xlink:href="#Cb_0_ba2cf02a75" x="354.13658" y="71.429641" style="fill: #2ca02c"/>
    </g>
    <g clip-path="url(#p0d62c77353)">
     <use xlink:href="#Cb_0_ba2cf02a75" x="354.398563" y="74.942773" style="fill: #2ca02c"/>
    </g>
    <g clip-path="url(#p0d62c77353)">
     <use xlink:href="#Cb_0_ba2cf02a75" x="355.238388" y="67.895144" style="fill: #2ca02c"/>
    </g>
   </g>
   <g id="PathCollection_16">
    <g clip-path="url(#p0d62c77353)">
     <use xlink:href="#mb4c21cac29" x="372.762121" y="66.336044" style="fill: #d62728"/>
    </g>
   </g>
   <g id="text_27">
    <text style="font: 8px 'Arial', sans-serif; text-anchor: middle" x="345.174069" y="18.72" transform="rotate(-0 345.174069 18.72)">Distance=20kb</text>
   </g>
  </g>
  <g id="axes_5">
   <g id="patch_14">
    <path d="M 396.84 116.44 
L 470.408138 116.44 
L 470.408138 24.72 
L 396.84 24.72 
z
" style="fill: #ffffff"/>
   </g>
   <g id="matplotlib.axis_9">
    <g id="xtick_17">
     <g id="line2d_45">
      <g>
       <use xlink:href="#me2b8d9ad5e" x="406.036017" y="116.44" style="stroke: #000000; stroke-width: 0.8"/>
      </g>
     </g>
     <g id="text_28">
      <text style="font: 8px 'Arial', sans-serif; text-anchor: middle" x="406.036017" y="129.16625" transform="rotate(-0 406.036017 129.16625)">1HS</text>
     </g>
    </g>
    <g id="xtick_18">
     <g id="line2d_46">
      <g>
       <use xlink:href="#me2b8d9ad5e" x="424.428052" y="116.44" style="stroke: #000000; stroke-width: 0.8"/>
      </g>
     </g>
     <g id="text_29">
      <text style="font: 8px 'Arial', sans-serif; text-anchor: middle" x="424.428052" y="129.16625" transform="rotate(-0 424.428052 129.16625)">2HS</text>
     </g>
    </g>
    <g id="xtick_19">
     <g id="line2d_47">
      <g>
       <use xlink:href="#me2b8d9ad5e" x="442.820086" y="116.44" style="stroke: #000000; stroke-width: 0.8"/>
      </g>
     </g>
     <g id="text_30">
      <text style="font: 8px 'Arial', sans-serif; text-anchor: middle" x="442.820086" y="129.16625" transform="rotate(-0 442.820086 129.16625)">3HS</text>
     </g>
    </g>
    <g id="xtick_20">
     <g id="line2d_48">
      <g>
       <use xlink:href="#me2b8d9ad5e" x="461.212121" y="116.44" style="stroke: #000000; stroke-width: 0.8"/>
      </g>
     </g>
     <g id="text_31">
      <text style="font: 8px 'Arial', sans-serif; text-anchor: middle" x="461.212121" y="129.16625" transform="rotate(-0 461.212121 129.16625)">4HS</text>
     </g>
    </g>
   </g>
   <g id="matplotlib.axis_10">
    <g id="ytick_25">
     <g id="line2d_49">
      <g>
       <use xlink:href="#mf12f028a12" x="396.84" y="103.761097" style="stroke: #000000; stroke-width: 0.8"/>
      </g>
     </g>
    </g>
    <g id="ytick_26">
     <g id="line2d_50">
      <g>
       <use xlink:href="#mf12f028a12" x="396.84" y="89.394914" style="stroke: #000000; stroke-width: 0.8"/>
      </g>
     </g>
    </g>
    <g id="ytick_27">
     <g id="line2d_51">
      <g>
       <use xlink:href="#mf12f028a12" x="396.84" y="75.02873" style="stroke: #000000; stroke-width: 0.8"/>
      </g>
     </g>
    </g>
    <g id="ytick_28">
     <g id="line2d_52">
      <g>
       <use xlink:href="#mf12f028a12" x="396.84" y="60.662546" style="stroke: #000000; stroke-width: 0.8"/>
      </g>
     </g>
    </g>
    <g id="ytick_29">
     <g id="line2d_53">
      <g>
       <use xlink:href="#mf12f028a12" x="396.84" y="46.296362" style="stroke: #000000; stroke-width: 0.8"/>
      </g>
     </g>
    </g>
    <g id="ytick_30">
     <g id="line2d_54">
      <g>
       <use xlink:href="#mf12f028a12" x="396.84" y="31.930178" style="stroke: #000000; stroke-width: 0.8"/>
      </g>
     </g>
    </g>
   </g>
   <g id="line2d_55">
    <path d="M 396.84 112.380808 
L 470.408138 112.380808 
" clip-path="url(#p9068ac5c7f)" style="fill: none; stroke-dasharray: 3.7,1.6; stroke-dashoffset: 0; stroke: #808080"/>
   </g>
   <g id="patch_15">
    <path d="M 396.84 116.44 
L 396.84 24.72 
" style="fill: none; stroke: #000000; stroke-width: 0.8; stroke-linejoin: miter; stroke-linecap: square"/>
   </g>
   <g id="patch_16">
    <path d="M 396.84 116.44 
L 470.408138 116.44 
" style="fill: none; stroke: #000000; stroke-width: 0.8; stroke-linejoin: miter; stroke-linecap: square"/>
   </g>
   <g id="PathCollection_17">
    <defs>
     <path id="Cc_0_025e1949a2" d="M 0 1.581139 
C 0.419323 1.581139 0.821528 1.41454 1.118034 1.118034 
C 1.41454 0.821528 1.581139 0.419323 1.581139 -0 
C 1.581139 -0.419323 1.41454 -0.821528 1.118034 -1.118034 
C 0.821528 -1.41454 0.419323 -1.581139 0 -1.581139 
C -0.419323 -1.581139 -0.821528 -1.41454 -1.118034 -1.118034 
C -1.41454 -0.821528 -1.581139 -0.419323 -1.581139 0 
C -1.581139 0.419323 -1.41454 0.821528 -1.118034 1.118034 
C -0.821528 1.41454 -0.419323 1.581139 0 1.581139 
z
"/>
    </defs>
    <g clip-path="url(#p9068ac5c7f)">
     <use xlink:href="#Cc_0_025e1949a2" x="405.130978" y="109.329802" style="fill: #1f77b4"/>
    </g>
    <g clip-path="url(#p9068ac5c7f)">
     <use xlink:href="#Cc_0_025e1949a2" x="405.104228" y="94.526107" style="fill: #1f77b4"/>
    </g>
    <g clip-path="url(#p9068ac5c7f)">
     <use xlink:href="#Cc_0_025e1949a2" x="405.925608" y="105.571032" style="fill: #1f77b4"/>
    </g>
    <g clip-path="url(#p9068ac5c7f)">
     <use xlink:href="#Cc_0_025e1949a2" x="405.569937" y="109.71374" style="fill: #1f77b4"/>
    </g>
   </g>
   <g id="PathCollection_18">
    <defs>
     <path id="Cd_0_5e92927c61" d="M 0 1.581139 
C 0.419323 1.581139 0.821528 1.41454 1.118034 1.118034 
C 1.41454 0.821528 1.581139 0.419323 1.581139 -0 
C 1.581139 -0.419323 1.41454 -0.821528 1.118034 -1.118034 
C 0.821528 -1.41454 0.419323 -1.581139 0 -1.581139 
C -0.419323 -1.581139 -0.821528 -1.41454 -1.118034 -1.118034 
C -1.41454 -0.821528 -1.581139 -0.419323 -1.581139 0 
C -1.581139 0.419323 -1.41454 0.821528 -1.118034 1.118034 
C -0.821528 1.41454 -0.419323 1.581139 0 1.581139 
z
"/>
    </defs>
    <g clip-path="url(#p9068ac5c7f)">
     <use xlink:href="#Cd_0_5e92927c61" x="423.365384" y="80.502971" style="fill: #ff7f0e"/>
    </g>
    <g clip-path="url(#p9068ac5c7f)">
     <use xlink:href="#Cd_0_5e92927c61" x="425.181843" y="91.425714" style="fill: #ff7f0e"/>
    </g>
    <g clip-path="url(#p9068ac5c7f)">
     <use xlink:href="#Cd_0_5e92927c61" x="423.269777" y="102.061499" style="fill: #ff7f0e"/>
    </g>
    <g clip-path="url(#p9068ac5c7f)">
     <use xlink:href="#Cd_0_5e92927c61" x="423.283895" y="75.149616" style="fill: #ff7f0e"/>
    </g>
    <g clip-path="url(#p9068ac5c7f)">
     <use xlink:href="#Cd_0_5e92927c61" x="423.916895" y="79.899438" style="fill: #ff7f0e"/>
    </g>
    <g clip-path="url(#p9068ac5c7f)">
     <use xlink:href="#Cd_0_5e92927c61" x="423.522136" y="89.849234" style="fill: #ff7f0e"/>
    </g>
   </g>
   <g id="PathCollection_19">
    <defs>
     <path id="Ce_0_ef0484a4ca" d="M 0 1.581139 
C 0.419323 1.581139 0.821528 1.41454 1.118034 1.118034 
C 1.41454 0.821528 1.581139 0.419323 1.581139 -0 
C 1.581139 -0.419323 1.41454 -0.821528 1.118034 -1.118034 
C 0.821528 -1.41454 0.419323 -1.581139 0 -1.581139 
C -0.419323 -1.581139 -0.821528 -1.41454 -1.118034 -1.118034 
C -1.41454 -0.821528 -1.581139 -0.419323 -1.581139 0 
C -1.581139 0.419323 -1.41454 0.821528 -1.118034 1.118034 
C -0.821528 1.41454 -0.419323 1.581139 0 1.581139 
z
"/>
    </defs>
    <g clip-path="url(#p9068ac5c7f)">
     <use xlink:href="#Ce_0_ef0484a4ca" x="441.455725" y="72.284342" style="fill: #2ca02c"/>
    </g>
    <g clip-path="url(#p9068ac5c7f)">
     <use xlink:href="#Ce_0_ef0484a4ca" x="441.317089" y="72.316647" style="fill: #2ca02c"/>
    </g>
    <g clip-path="url(#p9068ac5c7f)">
     <use xlink:href="#Ce_0_ef0484a4ca" x="441.762212" y="80.344481" style="fill: #2ca02c"/>
    </g>
    <g clip-path="url(#p9068ac5c7f)">
     <use xlink:href="#Ce_0_ef0484a4ca" x="441.744853" y="71.132287" style="fill: #2ca02c"/>
    </g>
   </g>
   <g id="PathCollection_20">
    <g clip-path="url(#p9068ac5c7f)">
     <use xlink:href="#mb4c21cac29" x="461.212121" y="68.73625" style="fill: #d62728"/>
    </g>
   </g>
   <g id="text_32">
    <text style="font: 8px 'Arial', sans-serif; text-anchor: middle" x="433.624069" y="18.72" transform="rotate(-0 433.624069 18.72)">Distance=50kb</text>
   </g>
  </g>
  <g id="axes_6">
   <g id="patch_17">
    <path d="M 485.29 116.44 
L 558.858138 116.44 
L 558.858138 24.72 
L 485.29 24.72 
z
" style="fill: #ffffff"/>
   </g>
   <g id="matplotlib.axis_11">
    <g id="xtick_21">
     <g id="line2d_56">
      <g>
       <use xlink:href="#me2b8d9ad5e" x="494.486017" y="116.44" style="stroke: #000000; stroke-width: 0.8"/>
      </g>
     </g>
     <g id="text_33">
      <text style="font: 8px 'Arial', sans-serif; text-anchor: middle" x="494.486017" y="129.16625" transform="rotate(-0 494.486017 129.16625)">1HS</text>
     </g>
    </g>
    <g id="xtick_22">
     <g id="line2d_57">
      <g>
       <use xlink:href="#me2b8d9ad5e" x="512.878052" y="116.44" style="stroke: #000000; stroke-width: 0.8"/>
      </g>
     </g>
     <g id="text_34">
      <text style="font: 8px 'Arial', sans-serif; text-anchor: middle" x="512.878052" y="129.16625" transform="rotate(-0 512.878052 129.16625)">2HS</text>
     </g>
    </g>
    <g id="xtick_23">
     <g id="line2d_58">
      <g>
       <use xlink:href="#me2b8d9ad5e" x="531.270086" y="116.44" style="stroke: #000000; stroke-width: 0.8"/>
      </g>
     </g>
     <g id="text_35">
      <text style="font: 8px 'Arial', sans-serif; text-anchor: middle" x="531.270086" y="129.16625" transform="rotate(-0 531.270086 129.16625)">3HS</text>
     </g>
    </g>
    <g id="xtick_24">
     <g id="line2d_59">
      <g>
       <use xlink:href="#me2b8d9ad5e" x="549.662121" y="116.44" style="stroke: #000000; stroke-width: 0.8"/>
      </g>
     </g>
     <g id="text_36">
      <text style="font: 8px 'Arial', sans-serif; text-anchor: middle" x="549.662121" y="129.16625" transform="rotate(-0 549.662121 129.16625)">4HS</text>
     </g>
    </g>
   </g>
   <g id="matplotlib.axis_12">
    <g id="ytick_31">
     <g id="line2d_60">
      <g>
       <use xlink:href="#mf12f028a12" x="485.29" y="103.761097" style="stroke: #000000; stroke-width: 0.8"/>
      </g>
     </g>
    </g>
    <g id="ytick_32">
     <g id="line2d_61">
      <g>
       <use xlink:href="#mf12f028a12" x="485.29" y="89.394914" style="stroke: #000000; stroke-width: 0.8"/>
      </g>
     </g>
    </g>
    <g id="ytick_33">
     <g id="line2d_62">
      <g>
       <use xlink:href="#mf12f028a12" x="485.29" y="75.02873" style="stroke: #000000; stroke-width: 0.8"/>
      </g>
     </g>
    </g>
    <g id="ytick_34">
     <g id="line2d_63">
      <g>
       <use xlink:href="#mf12f028a12" x="485.29" y="60.662546" style="stroke: #000000; stroke-width: 0.8"/>
      </g>
     </g>
    </g>
    <g id="ytick_35">
     <g id="line2d_64">
      <g>
       <use xlink:href="#mf12f028a12" x="485.29" y="46.296362" style="stroke: #000000; stroke-width: 0.8"/>
      </g>
     </g>
    </g>
    <g id="ytick_36">
     <g id="line2d_65">
      <g>
       <use xlink:href="#mf12f028a12" x="485.29" y="31.930178" style="stroke: #000000; stroke-width: 0.8"/>
      </g>
     </g>
    </g>
   </g>
   <g id="line2d_66">
    <path d="M 485.29 112.380808 
L 558.858138 112.380808 
" clip-path="url(#p93dbb038f0)" style="fill: none; stroke-dasharray: 3.7,1.6; stroke-dashoffset: 0; stroke: #808080"/>
   </g>
   <g id="patch_18">
    <path d="M 485.29 116.44 
L 485.29 24.72 
" style="fill: none; stroke: #000000; stroke-width: 0.8; stroke-linejoin: miter; stroke-linecap: square"/>
   </g>
   <g id="patch_19">
    <path d="M 485.29 116.44 
L 558.858138 116.44 
" style="fill: none; stroke: #000000; stroke-width: 0.8; stroke-linejoin: miter; stroke-linecap: square"/>
   </g>
   <g id="PathCollection_21">
    <defs>
     <path id="Cf_0_d81c31f76c" d="M 0 1.581139 
C 0.419323 1.581139 0.821528 1.41454 1.118034 1.118034 
C 1.41454 0.821528 1.581139 0.419323 1.581139 -0 
C 1.581139 -0.419323 1.41454 -0.821528 1.118034 -1.118034 
C 0.821528 -1.41454 0.419323 -1.581139 0 -1.581139 
C -0.419323 -1.581139 -0.821528 -1.41454 -1.118034 -1.118034 
C -1.41454 -0.821528 -1.581139 -0.419323 -1.581139 0 
C -1.581139 0.419323 -1.41454 0.821528 -1.118034 1.118034 
C -0.821528 1.41454 -0.419323 1.581139 0 1.581139 
z
"/>
    </defs>
    <g clip-path="url(#p93dbb038f0)">
     <use xlink:href="#Cf_0_d81c31f76c" x="493.253183" y="111.993715" style="fill: #1f77b4"/>
    </g>
    <g clip-path="url(#p93dbb038f0)">
     <use xlink:href="#Cf_0_d81c31f76c" x="494.512807" y="110.702461" style="fill: #1f77b4"/>
    </g>
    <g clip-path="url(#p93dbb038f0)">
     <use xlink:href="#Cf_0_d81c31f76c" x="495.92682" y="112.114399" style="fill: #1f77b4"/>
    </g>
    <g clip-path="url(#p93dbb038f0)">
     <use xlink:href="#Cf_0_d81c31f76c" x="492.836304" y="112.270909" style="fill: #1f77b4"/>
    </g>
   </g>
   <g id="PathCollection_22">
    <defs>
     <path id="C10_0_d0cb7314a2" d="M 0 1.581139 
C 0.419323 1.581139 0.821528 1.41454 1.118034 1.118034 
C 1.41454 0.821528 1.581139 0.419323 1.581139 -0 
C 1.581139 -0.419323 1.41454 -0.821528 1.118034 -1.118034 
C 0.821528 -1.41454 0.419323 -1.581139 0 -1.581139 
C -0.419323 -1.581139 -0.821528 -1.41454 -1.118034 -1.118034 
C -1.41454 -0.821528 -1.581139 -0.419323 -1.581139 0 
C -1.581139 0.419323 -1.41454 0.821528 -1.118034 1.118034 
C -0.821528 1.41454 -0.419323 1.581139 0 1.581139 
z
"/>
    </defs>
    <g clip-path="url(#p93dbb038f0)">
     <use xlink:href="#C10_0_d0cb7314a2" x="511.486665" y="105.276832" style="fill: #ff7f0e"/>
    </g>
    <g clip-path="url(#p93dbb038f0)">
     <use xlink:href="#C10_0_d0cb7314a2" x="512.015941" y="105.188342" style="fill: #ff7f0e"/>
    </g>
    <g clip-path="url(#p93dbb038f0)">
     <use xlink:href="#C10_0_d0cb7314a2" x="511.348327" y="110.03457" style="fill: #ff7f0e"/>
    </g>
    <g clip-path="url(#p93dbb038f0)">
     <use xlink:href="#C10_0_d0cb7314a2" x="512.511237" y="95.784089" style="fill: #ff7f0e"/>
    </g>
    <g clip-path="url(#p93dbb038f0)">
     <use xlink:href="#C10_0_d0cb7314a2" x="513.831021" y="104.705832" style="fill: #ff7f0e"/>
    </g>
    <g clip-path="url(#p93dbb038f0)">
     <use xlink:href="#C10_0_d0cb7314a2" x="513.358833" y="103.569067" style="fill: #ff7f0e"/>
    </g>
   </g>
   <g id="PathCollection_23">
    <defs>
     <path id="C11_0_4929b81ad2" d="M 0 1.581139 
C 0.419323 1.581139 0.821528 1.41454 1.118034 1.118034 
C 1.41454 0.821528 1.581139 0.419323 1.581139 -0 
C 1.581139 -0.419323 1.41454 -0.821528 1.118034 -1.118034 
C 0.821528 -1.41454 0.419323 -1.581139 0 -1.581139 
C -0.419323 -1.581139 -0.821528 -1.41454 -1.118034 -1.118034 
C -1.41454 -0.821528 -1.581139 -0.419323 -1.581139 0 
C -1.581139 0.419323 -1.41454 0.821528 -1.118034 1.118034 
C -0.821528 1.41454 -0.419323 1.581139 0 1.581139 
z
"/>
    </defs>
    <g clip-path="url(#p93dbb038f0)">
     <use xlink:href="#C11_0_4929b81ad2" x="533.012685" y="89.312234" style="fill: #2ca02c"/>
    </g>
    <g clip-path="url(#p93dbb038f0)">
     <use xlink:href="#C11_0_4929b81ad2" x="530.045353" y="96.5153" style="fill: #2ca02c"/>
    </g>
    <g clip-path="url(#p93dbb038f0)">
     <use xlink:href="#C11_0_4929b81ad2" x="531.92304" y="94.140622" style="fill: #2ca02c"/>
    </g>
    <g clip-path="url(#p93dbb038f0)">
     <use xlink:href="#C11_0_4929b81ad2" x="530.155454" y="87.121028" style="fill: #2ca02c"/>
    </g>
   </g>
   <g id="PathCollection_24">
    <g clip-path="url(#p93dbb038f0)">
     <use xlink:href="#mb4c21cac29" x="549.662121" y="83.771961" style="fill: #d62728"/>
    </g>
   </g>
   <g id="text_37">
    <text style="font: 8px 'Arial', sans-serif; text-anchor: middle" x="522.074069" y="18.72" transform="rotate(-0 522.074069 18.72)">Distance=100kb</text>
   </g>
  </g>
 </g>
 <defs>
  <clipPath id="p52f74121c5">
   <rect x="43.04" y="24.72" width="73.568138" height="91.72"/>
  </clipPath>
  <clipPath id="pde22dcc29a">
   <rect x="131.49" y="24.72" width="73.568138" height="91.72"/>
  </clipPath>
  <clipPath id="p18e1afd09d">
   <rect x="219.94" y="24.72" width="73.568138" height="91.72"/>
  </clipPath>
  <clipPath id="p0d62c77353">
   <rect x="308.39" y="24.72" width="73.568138" height="91.72"/>
  </clipPath>
  <clipPath id="p9068ac5c7f">
   <rect x="396.84" y="24.72" width="73.568138" height="91.72"/>
  </clipPath>
  <clipPath id="p93dbb038f0">
   <rect x="485.29" y="24.72" width="73.568138" height="91.72"/>
  </clipPath>
 </defs>
</svg>
