<?xml version="1.0" encoding="utf-8" standalone="no"?>
<!DOCTYPE svg PUBLIC "-//W3C//DTD SVG 1.1//EN"
  "http://www.w3.org/Graphics/SVG/1.1/DTD/svg11.dtd">
<svg xmlns:xlink="http://www.w3.org/1999/xlink" width="171pt" height="180pt" viewBox="0 0 171 180" xmlns="http://www.w3.org/2000/svg" version="1.1">
 <metadata>
  <rdf:RDF xmlns:dc="http://purl.org/dc/elements/1.1/" xmlns:cc="http://creativecommons.org/ns#" xmlns:rdf="http://www.w3.org/1999/02/22-rdf-syntax-ns#">
   <cc:Work>
    <dc:type rdf:resource="http://purl.org/dc/dcmitype/StillImage"/>
    <dc:date>2025-04-15T22:19:46.500335</dc:date>
    <dc:format>image/svg+xml</dc:format>
    <dc:creator>
     <cc:Agent>
      <dc:title>Matplotlib v3.9.3, https://matplotlib.org/</dc:title>
     </cc:Agent>
    </dc:creator>
   </cc:Work>
  </rdf:RDF>
 </metadata>
 <defs>
  <style type="text/css">*{stroke-linejoin: round; stroke-linecap: butt}</style>
 </defs>
 <g id="figure_1">
  <g id="patch_1">
   <path d="M 0 180 
L 171 180 
L 171 0 
L 0 0 
z
" style="fill: #ffffff"/>
  </g>
  <g id="axes_1">
   <g id="patch_2">
    <path d="M 37.56125 137.93875 
L 160.2 137.93875 
L 160.2 10.8 
L 37.56125 10.8 
z
" style="fill: #ffffff"/>
   </g>
   <g id="PathCollection_1">
    <defs>
     <path id="mc9e42328d0" d="M 0 0.866025 
C 0.229673 0.866025 0.449969 0.774776 0.612372 0.612372 
C 0.774776 0.449969 0.866025 0.229673 0.866025 0 
C 0.866025 -0.229673 0.774776 -0.449969 0.612372 -0.612372 
C 0.449969 -0.774776 0.229673 -0.866025 0 -0.866025 
C -0.229673 -0.866025 -0.449969 -0.774776 -0.612372 -0.612372 
C -0.774776 -0.449969 -0.866025 -0.229673 -0.866025 0 
C -0.866025 0.229673 -0.774776 0.449969 -0.612372 0.612372 
C -0.449969 0.774776 -0.229673 0.866025 0 0.866025 
z
" style="stroke: #ff8c00"/>
    </defs>
    <g clip-path="url(#p1828fab784)">
     <use xlink:href="#mc9e42328d0" x="80.414356" y="126.323853" style="fill: #ff8c00; stroke: #ff8c00"/>
     <use xlink:href="#mc9e42328d0" x="48.392546" y="126.363601" style="fill: #ff8c00; stroke: #ff8c00"/>
     <use xlink:href="#mc9e42328d0" x="63.189614" y="127.607214" style="fill: #ff8c00; stroke: #ff8c00"/>
     <use xlink:href="#mc9e42328d0" x="69.560016" y="108.71264" style="fill: #ff8c00; stroke: #ff8c00"/>
     <use xlink:href="#mc9e42328d0" x="81.243257" y="125.370034" style="fill: #ff8c00; stroke: #ff8c00"/>
     <use xlink:href="#mc9e42328d0" x="101.933213" y="125.852617" style="fill: #ff8c00; stroke: #ff8c00"/>
     <use xlink:href="#mc9e42328d0" x="158.326618" y="61.131951" style="fill: #ff8c00; stroke: #ff8c00"/>
     <use xlink:href="#mc9e42328d0" x="100.732867" y="124.193657" style="fill: #ff8c00; stroke: #ff8c00"/>
     <use xlink:href="#mc9e42328d0" x="115.732047" y="89.721694" style="fill: #ff8c00; stroke: #ff8c00"/>
     <use xlink:href="#mc9e42328d0" x="108.945482" y="101.533487" style="fill: #ff8c00; stroke: #ff8c00"/>
     <use xlink:href="#mc9e42328d0" x="101.443971" y="87.200395" style="fill: #ff8c00; stroke: #ff8c00"/>
     <use xlink:href="#mc9e42328d0" x="87.29396" y="108.851581" style="fill: #ff8c00; stroke: #ff8c00"/>
     <use xlink:href="#mc9e42328d0" x="99.437818" y="111.49697" style="fill: #ff8c00; stroke: #ff8c00"/>
     <use xlink:href="#mc9e42328d0" x="103.591541" y="95.735384" style="fill: #ff8c00; stroke: #ff8c00"/>
     <use xlink:href="#mc9e42328d0" x="141.091278" y="62.717782" style="fill: #ff8c00; stroke: #ff8c00"/>
     <use xlink:href="#mc9e42328d0" x="55.922635" y="128.124121" style="fill: #ff8c00; stroke: #ff8c00"/>
     <use xlink:href="#mc9e42328d0" x="57.145652" y="104.948539" style="fill: #ff8c00; stroke: #ff8c00"/>
     <use xlink:href="#mc9e42328d0" x="106.075573" y="110.828286" style="fill: #ff8c00; stroke: #ff8c00"/>
     <use xlink:href="#mc9e42328d0" x="92.266102" y="102.03421" style="fill: #ff8c00; stroke: #ff8c00"/>
     <use xlink:href="#mc9e42328d0" x="62.380072" y="123.882967" style="fill: #ff8c00; stroke: #ff8c00"/>
     <use xlink:href="#mc9e42328d0" x="66.443002" y="126.397142" style="fill: #ff8c00; stroke: #ff8c00"/>
     <use xlink:href="#mc9e42328d0" x="105.661726" y="84.886282" style="fill: #ff8c00; stroke: #ff8c00"/>
     <use xlink:href="#mc9e42328d0" x="95.013539" y="113.672307" style="fill: #ff8c00; stroke: #ff8c00"/>
     <use xlink:href="#mc9e42328d0" x="51.439391" y="122.63795" style="fill: #ff8c00; stroke: #ff8c00"/>
     <use xlink:href="#mc9e42328d0" x="70.030774" y="120.249585" style="fill: #ff8c00; stroke: #ff8c00"/>
     <use xlink:href="#mc9e42328d0" x="132.040071" y="63.229156" style="fill: #ff8c00; stroke: #ff8c00"/>
     <use xlink:href="#mc9e42328d0" x="112.050853" y="81.832565" style="fill: #ff8c00; stroke: #ff8c00"/>
     <use xlink:href="#mc9e42328d0" x="85.825146" y="123.463719" style="fill: #ff8c00; stroke: #ff8c00"/>
     <use xlink:href="#mc9e42328d0" x="90.703467" y="114.416519" style="fill: #ff8c00; stroke: #ff8c00"/>
     <use xlink:href="#mc9e42328d0" x="58.629018" y="127.166759" style="fill: #ff8c00; stroke: #ff8c00"/>
     <use xlink:href="#mc9e42328d0" x="91.800724" y="123.711978" style="fill: #ff8c00; stroke: #ff8c00"/>
     <use xlink:href="#mc9e42328d0" x="109.099073" y="89.178685" style="fill: #ff8c00; stroke: #ff8c00"/>
     <use xlink:href="#mc9e42328d0" x="86.993207" y="113.103313" style="fill: #ff8c00; stroke: #ff8c00"/>
     <use xlink:href="#mc9e42328d0" x="134.500443" y="66.128165" style="fill: #ff8c00; stroke: #ff8c00"/>
     <use xlink:href="#mc9e42328d0" x="120.487567" y="99.701061" style="fill: #ff8c00; stroke: #ff8c00"/>
     <use xlink:href="#mc9e42328d0" x="91.856997" y="81.690586" style="fill: #ff8c00; stroke: #ff8c00"/>
     <use xlink:href="#mc9e42328d0" x="102.028744" y="113.300224" style="fill: #ff8c00; stroke: #ff8c00"/>
     <use xlink:href="#mc9e42328d0" x="73.221601" y="107.565832" style="fill: #ff8c00; stroke: #ff8c00"/>
     <use xlink:href="#mc9e42328d0" x="128.342832" y="59.632734" style="fill: #ff8c00; stroke: #ff8c00"/>
     <use xlink:href="#mc9e42328d0" x="90.187721" y="108.351384" style="fill: #ff8c00; stroke: #ff8c00"/>
     <use xlink:href="#mc9e42328d0" x="109.771351" y="98.63116" style="fill: #ff8c00; stroke: #ff8c00"/>
     <use xlink:href="#mc9e42328d0" x="100.485025" y="127.949921" style="fill: #ff8c00; stroke: #ff8c00"/>
     <use xlink:href="#mc9e42328d0" x="112.448243" y="103.534214" style="fill: #ff8c00; stroke: #ff8c00"/>
     <use xlink:href="#mc9e42328d0" x="59.587373" y="113.055773" style="fill: #ff8c00; stroke: #ff8c00"/>
     <use xlink:href="#mc9e42328d0" x="107.263258" y="82.588324" style="fill: #ff8c00; stroke: #ff8c00"/>
     <use xlink:href="#mc9e42328d0" x="52.520755" y="127.522403" style="fill: #ff8c00; stroke: #ff8c00"/>
     <use xlink:href="#mc9e42328d0" x="89.61685" y="85.964561" style="fill: #ff8c00; stroke: #ff8c00"/>
     <use xlink:href="#mc9e42328d0" x="134.723702" y="71.15934" style="fill: #ff8c00; stroke: #ff8c00"/>
     <use xlink:href="#mc9e42328d0" x="73.641631" y="121.636002" style="fill: #ff8c00; stroke: #ff8c00"/>
     <use xlink:href="#mc9e42328d0" x="56.450395" y="130.296847" style="fill: #ff8c00; stroke: #ff8c00"/>
     <use xlink:href="#mc9e42328d0" x="109.565277" y="74.350632" style="fill: #ff8c00; stroke: #ff8c00"/>
     <use xlink:href="#mc9e42328d0" x="81.766961" y="130.05156" style="fill: #ff8c00; stroke: #ff8c00"/>
     <use xlink:href="#mc9e42328d0" x="122.324854" y="71.640298" style="fill: #ff8c00; stroke: #ff8c00"/>
     <use xlink:href="#mc9e42328d0" x="102.55841" y="95.724275" style="fill: #ff8c00; stroke: #ff8c00"/>
     <use xlink:href="#mc9e42328d0" x="92.704073" y="132.133897" style="fill: #ff8c00; stroke: #ff8c00"/>
     <use xlink:href="#mc9e42328d0" x="134.357961" y="69.792118" style="fill: #ff8c00; stroke: #ff8c00"/>
     <use xlink:href="#mc9e42328d0" x="52.528002" y="127.611344" style="fill: #ff8c00; stroke: #ff8c00"/>
     <use xlink:href="#mc9e42328d0" x="62.327407" y="128.793787" style="fill: #ff8c00; stroke: #ff8c00"/>
     <use xlink:href="#mc9e42328d0" x="99.087892" y="97.010298" style="fill: #ff8c00; stroke: #ff8c00"/>
     <use xlink:href="#mc9e42328d0" x="139.166005" y="57.395235" style="fill: #ff8c00; stroke: #ff8c00"/>
     <use xlink:href="#mc9e42328d0" x="49.425675" y="126.031945" style="fill: #ff8c00; stroke: #ff8c00"/>
     <use xlink:href="#mc9e42328d0" x="142.675973" y="41.751262" style="fill: #ff8c00; stroke: #ff8c00"/>
     <use xlink:href="#mc9e42328d0" x="92.966876" y="110.981541" style="fill: #ff8c00; stroke: #ff8c00"/>
     <use xlink:href="#mc9e42328d0" x="123.677298" y="57.349002" style="fill: #ff8c00; stroke: #ff8c00"/>
     <use xlink:href="#mc9e42328d0" x="48.779425" y="126.001686" style="fill: #ff8c00; stroke: #ff8c00"/>
     <use xlink:href="#mc9e42328d0" x="59.211589" y="119.260515" style="fill: #ff8c00; stroke: #ff8c00"/>
     <use xlink:href="#mc9e42328d0" x="116.114495" y="71.518486" style="fill: #ff8c00; stroke: #ff8c00"/>
     <use xlink:href="#mc9e42328d0" x="94.520532" y="102.607425" style="fill: #ff8c00; stroke: #ff8c00"/>
     <use xlink:href="#mc9e42328d0" x="58.705884" y="121.714105" style="fill: #ff8c00; stroke: #ff8c00"/>
     <use xlink:href="#mc9e42328d0" x="92.377201" y="95.788733" style="fill: #ff8c00; stroke: #ff8c00"/>
     <use xlink:href="#mc9e42328d0" x="55.186896" y="122.226837" style="fill: #ff8c00; stroke: #ff8c00"/>
     <use xlink:href="#mc9e42328d0" x="106.930398" y="99.964375" style="fill: #ff8c00; stroke: #ff8c00"/>
     <use xlink:href="#mc9e42328d0" x="117.214997" y="77.585571" style="fill: #ff8c00; stroke: #ff8c00"/>
     <use xlink:href="#mc9e42328d0" x="140.722464" y="62.647369" style="fill: #ff8c00; stroke: #ff8c00"/>
     <use xlink:href="#mc9e42328d0" x="110.808883" y="73.960456" style="fill: #ff8c00; stroke: #ff8c00"/>
     <use xlink:href="#mc9e42328d0" x="45.838928" y="128.910372" style="fill: #ff8c00; stroke: #ff8c00"/>
     <use xlink:href="#mc9e42328d0" x="115.752717" y="114.161688" style="fill: #ff8c00; stroke: #ff8c00"/>
     <use xlink:href="#mc9e42328d0" x="129.288818" y="46.97145" style="fill: #ff8c00; stroke: #ff8c00"/>
     <use xlink:href="#mc9e42328d0" x="96.935915" y="90.262176" style="fill: #ff8c00; stroke: #ff8c00"/>
     <use xlink:href="#mc9e42328d0" x="130.261093" y="66.237292" style="fill: #ff8c00; stroke: #ff8c00"/>
     <use xlink:href="#mc9e42328d0" x="120.57412" y="83.043697" style="fill: #ff8c00; stroke: #ff8c00"/>
     <use xlink:href="#mc9e42328d0" x="144.020374" y="66.832497" style="fill: #ff8c00; stroke: #ff8c00"/>
     <use xlink:href="#mc9e42328d0" x="58.994484" y="119.668129" style="fill: #ff8c00; stroke: #ff8c00"/>
     <use xlink:href="#mc9e42328d0" x="87.321258" y="99.329258" style="fill: #ff8c00; stroke: #ff8c00"/>
     <use xlink:href="#mc9e42328d0" x="140.906702" y="63.216602" style="fill: #ff8c00; stroke: #ff8c00"/>
     <use xlink:href="#mc9e42328d0" x="110.570849" y="117.009002" style="fill: #ff8c00; stroke: #ff8c00"/>
     <use xlink:href="#mc9e42328d0" x="97.72585" y="106.115661" style="fill: #ff8c00; stroke: #ff8c00"/>
     <use xlink:href="#mc9e42328d0" x="78.739953" y="115.952696" style="fill: #ff8c00; stroke: #ff8c00"/>
     <use xlink:href="#mc9e42328d0" x="60.694426" y="120.537463" style="fill: #ff8c00; stroke: #ff8c00"/>
     <use xlink:href="#mc9e42328d0" x="46.827153" y="128.250499" style="fill: #ff8c00; stroke: #ff8c00"/>
     <use xlink:href="#mc9e42328d0" x="44.052951" y="127.742397" style="fill: #ff8c00; stroke: #ff8c00"/>
     <use xlink:href="#mc9e42328d0" x="65.236348" y="121.37053" style="fill: #ff8c00; stroke: #ff8c00"/>
     <use xlink:href="#mc9e42328d0" x="131.165634" y="69.185594" style="fill: #ff8c00; stroke: #ff8c00"/>
     <use xlink:href="#mc9e42328d0" x="61.857575" y="119.20091" style="fill: #ff8c00; stroke: #ff8c00"/>
     <use xlink:href="#mc9e42328d0" x="54.527285" y="107.393069" style="fill: #ff8c00; stroke: #ff8c00"/>
     <use xlink:href="#mc9e42328d0" x="88.469849" y="98.350967" style="fill: #ff8c00; stroke: #ff8c00"/>
     <use xlink:href="#mc9e42328d0" x="96.455325" y="103.680845" style="fill: #ff8c00; stroke: #ff8c00"/>
     <use xlink:href="#mc9e42328d0" x="109.114971" y="61.635344" style="fill: #ff8c00; stroke: #ff8c00"/>
     <use xlink:href="#mc9e42328d0" x="92.339129" y="98.303051" style="fill: #ff8c00; stroke: #ff8c00"/>
     <use xlink:href="#mc9e42328d0" x="127.351544" y="59.111057" style="fill: #ff8c00; stroke: #ff8c00"/>
     <use xlink:href="#mc9e42328d0" x="75.733621" y="120.265261" style="fill: #ff8c00; stroke: #ff8c00"/>
     <use xlink:href="#mc9e42328d0" x="75.563721" y="116.007257" style="fill: #ff8c00; stroke: #ff8c00"/>
     <use xlink:href="#mc9e42328d0" x="50.46653" y="126.914702" style="fill: #ff8c00; stroke: #ff8c00"/>
     <use xlink:href="#mc9e42328d0" x="95.639998" y="95.863334" style="fill: #ff8c00; stroke: #ff8c00"/>
     <use xlink:href="#mc9e42328d0" x="111.634245" y="88.419967" style="fill: #ff8c00; stroke: #ff8c00"/>
     <use xlink:href="#mc9e42328d0" x="90.60676" y="112.520927" style="fill: #ff8c00; stroke: #ff8c00"/>
     <use xlink:href="#mc9e42328d0" x="94.216953" y="89.032307" style="fill: #ff8c00; stroke: #ff8c00"/>
     <use xlink:href="#mc9e42328d0" x="68.765946" y="116.557349" style="fill: #ff8c00; stroke: #ff8c00"/>
     <use xlink:href="#mc9e42328d0" x="118.910191" y="76.354969" style="fill: #ff8c00; stroke: #ff8c00"/>
     <use xlink:href="#mc9e42328d0" x="53.81579" y="123.643513" style="fill: #ff8c00; stroke: #ff8c00"/>
     <use xlink:href="#mc9e42328d0" x="109.897071" y="81.004304" style="fill: #ff8c00; stroke: #ff8c00"/>
     <use xlink:href="#mc9e42328d0" x="126.938784" y="52.639627" style="fill: #ff8c00; stroke: #ff8c00"/>
     <use xlink:href="#mc9e42328d0" x="123.329989" y="95.237314" style="fill: #ff8c00; stroke: #ff8c00"/>
     <use xlink:href="#mc9e42328d0" x="105.784976" y="91.955586" style="fill: #ff8c00; stroke: #ff8c00"/>
     <use xlink:href="#mc9e42328d0" x="76.404141" y="121.209423" style="fill: #ff8c00; stroke: #ff8c00"/>
     <use xlink:href="#mc9e42328d0" x="46.946098" y="129.079601" style="fill: #ff8c00; stroke: #ff8c00"/>
     <use xlink:href="#mc9e42328d0" x="123.65735" y="102.871112" style="fill: #ff8c00; stroke: #ff8c00"/>
     <use xlink:href="#mc9e42328d0" x="81.174558" y="114.243164" style="fill: #ff8c00; stroke: #ff8c00"/>
     <use xlink:href="#mc9e42328d0" x="75.407379" y="102.96943" style="fill: #ff8c00; stroke: #ff8c00"/>
     <use xlink:href="#mc9e42328d0" x="47.556627" y="121.507371" style="fill: #ff8c00; stroke: #ff8c00"/>
     <use xlink:href="#mc9e42328d0" x="93.423445" y="115.946733" style="fill: #ff8c00; stroke: #ff8c00"/>
     <use xlink:href="#mc9e42328d0" x="88.927155" y="102.585188" style="fill: #ff8c00; stroke: #ff8c00"/>
     <use xlink:href="#mc9e42328d0" x="140.488639" y="56.526512" style="fill: #ff8c00; stroke: #ff8c00"/>
     <use xlink:href="#mc9e42328d0" x="56.754977" y="120.885495" style="fill: #ff8c00; stroke: #ff8c00"/>
     <use xlink:href="#mc9e42328d0" x="74.160216" y="115.039118" style="fill: #ff8c00; stroke: #ff8c00"/>
     <use xlink:href="#mc9e42328d0" x="82.451204" y="118.975182" style="fill: #ff8c00; stroke: #ff8c00"/>
     <use xlink:href="#mc9e42328d0" x="74.635493" y="131.358903" style="fill: #ff8c00; stroke: #ff8c00"/>
     <use xlink:href="#mc9e42328d0" x="157.222339" y="47.910376" style="fill: #ff8c00; stroke: #ff8c00"/>
     <use xlink:href="#mc9e42328d0" x="119.44879" y="71.404741" style="fill: #ff8c00; stroke: #ff8c00"/>
     <use xlink:href="#mc9e42328d0" x="99.388082" y="108.498649" style="fill: #ff8c00; stroke: #ff8c00"/>
     <use xlink:href="#mc9e42328d0" x="104.282021" y="80.115798" style="fill: #ff8c00; stroke: #ff8c00"/>
     <use xlink:href="#mc9e42328d0" x="65.473171" y="115.863112" style="fill: #ff8c00; stroke: #ff8c00"/>
     <use xlink:href="#mc9e42328d0" x="84.537523" y="120.315852" style="fill: #ff8c00; stroke: #ff8c00"/>
     <use xlink:href="#mc9e42328d0" x="106.860679" y="87.882602" style="fill: #ff8c00; stroke: #ff8c00"/>
     <use xlink:href="#mc9e42328d0" x="54.369642" y="123.018281" style="fill: #ff8c00; stroke: #ff8c00"/>
     <use xlink:href="#mc9e42328d0" x="50.640194" y="125.003958" style="fill: #ff8c00; stroke: #ff8c00"/>
     <use xlink:href="#mc9e42328d0" x="96.026818" y="116.466812" style="fill: #ff8c00; stroke: #ff8c00"/>
     <use xlink:href="#mc9e42328d0" x="84.068653" y="112.66335" style="fill: #ff8c00; stroke: #ff8c00"/>
     <use xlink:href="#mc9e42328d0" x="118.898883" y="57.942096" style="fill: #ff8c00; stroke: #ff8c00"/>
     <use xlink:href="#mc9e42328d0" x="84.813263" y="95.887114" style="fill: #ff8c00; stroke: #ff8c00"/>
     <use xlink:href="#mc9e42328d0" x="66.022231" y="70.170202" style="fill: #ff8c00; stroke: #ff8c00"/>
     <use xlink:href="#mc9e42328d0" x="107.73378" y="81.816083" style="fill: #ff8c00; stroke: #ff8c00"/>
     <use xlink:href="#mc9e42328d0" x="66.862179" y="115.352408" style="fill: #ff8c00; stroke: #ff8c00"/>
     <use xlink:href="#mc9e42328d0" x="63.47771" y="101.89702" style="fill: #ff8c00; stroke: #ff8c00"/>
     <use xlink:href="#mc9e42328d0" x="81.512377" y="119.439398" style="fill: #ff8c00; stroke: #ff8c00"/>
     <use xlink:href="#mc9e42328d0" x="97.675301" y="125.436831" style="fill: #ff8c00; stroke: #ff8c00"/>
     <use xlink:href="#mc9e42328d0" x="119.9917" y="87.992202" style="fill: #ff8c00; stroke: #ff8c00"/>
     <use xlink:href="#mc9e42328d0" x="107.401864" y="99.345334" style="fill: #ff8c00; stroke: #ff8c00"/>
     <use xlink:href="#mc9e42328d0" x="52.124024" y="123.536634" style="fill: #ff8c00; stroke: #ff8c00"/>
     <use xlink:href="#mc9e42328d0" x="83.334417" y="90.599238" style="fill: #ff8c00; stroke: #ff8c00"/>
     <use xlink:href="#mc9e42328d0" x="122.14523" y="91.009539" style="fill: #ff8c00; stroke: #ff8c00"/>
     <use xlink:href="#mc9e42328d0" x="92.528034" y="118.974008" style="fill: #ff8c00; stroke: #ff8c00"/>
     <use xlink:href="#mc9e42328d0" x="142.638663" y="68.910303" style="fill: #ff8c00; stroke: #ff8c00"/>
     <use xlink:href="#mc9e42328d0" x="112.242906" y="72.48057" style="fill: #ff8c00; stroke: #ff8c00"/>
     <use xlink:href="#mc9e42328d0" x="63.218136" y="63.263999" style="fill: #ff8c00; stroke: #ff8c00"/>
     <use xlink:href="#mc9e42328d0" x="152.395658" y="45.867223" style="fill: #ff8c00; stroke: #ff8c00"/>
     <use xlink:href="#mc9e42328d0" x="87.649362" y="123.157001" style="fill: #ff8c00; stroke: #ff8c00"/>
     <use xlink:href="#mc9e42328d0" x="93.269848" y="103.652819" style="fill: #ff8c00; stroke: #ff8c00"/>
     <use xlink:href="#mc9e42328d0" x="98.019788" y="117.992108" style="fill: #ff8c00; stroke: #ff8c00"/>
     <use xlink:href="#mc9e42328d0" x="99.787018" y="102.558496" style="fill: #ff8c00; stroke: #ff8c00"/>
     <use xlink:href="#mc9e42328d0" x="70.653892" y="119.503584" style="fill: #ff8c00; stroke: #ff8c00"/>
     <use xlink:href="#mc9e42328d0" x="133.171729" y="47.169167" style="fill: #ff8c00; stroke: #ff8c00"/>
     <use xlink:href="#mc9e42328d0" x="78.30541" y="114.482635" style="fill: #ff8c00; stroke: #ff8c00"/>
     <use xlink:href="#mc9e42328d0" x="79.006676" y="128.376241" style="fill: #ff8c00; stroke: #ff8c00"/>
    </g>
   </g>
   <g id="PolyCollection_1">
    <path d="M 44.052951 130.825046 
L 44.052951 138.340603 
L 45.20723 137.49064 
L 46.36151 136.631478 
L 47.515789 135.779773 
L 48.670069 134.90733 
L 49.824348 134.040907 
L 50.978628 133.199409 
L 52.132907 132.340783 
L 53.287186 131.471937 
L 54.441466 130.60097 
L 55.595745 129.735685 
L 56.750025 128.867942 
L 57.904304 128.015277 
L 59.058584 127.168684 
L 60.212863 126.306146 
L 61.367143 125.434804 
L 62.521422 124.56302 
L 63.675702 123.71742 
L 64.829981 122.859383 
L 65.984261 122.003684 
L 67.13854 121.149623 
L 68.29282 120.340568 
L 69.447099 119.526786 
L 70.601379 118.712385 
L 71.755658 117.876111 
L 72.909937 117.044447 
L 74.064217 116.20686 
L 75.218496 115.350192 
L 76.372776 114.494199 
L 77.527055 113.650768 
L 78.681335 112.823291 
L 79.835614 112.010106 
L 80.989894 111.234051 
L 82.144173 110.413391 
L 83.298453 109.570681 
L 84.452732 108.700279 
L 85.607012 107.855504 
L 86.761291 107.068505 
L 87.915571 106.22817 
L 89.06985 105.432117 
L 90.22413 104.599855 
L 91.378409 103.792505 
L 92.532688 102.993662 
L 93.686968 102.198769 
L 94.841247 101.424617 
L 95.995527 100.639474 
L 97.149806 99.857546 
L 98.304086 99.057733 
L 99.458365 98.301229 
L 100.612645 97.530576 
L 101.766924 96.760469 
L 102.921204 95.96575 
L 104.075483 95.17944 
L 105.229763 94.39026 
L 106.384042 93.597706 
L 107.538322 92.821554 
L 108.692601 92.07493 
L 109.846881 91.332754 
L 111.00116 90.590579 
L 112.155439 89.848403 
L 113.309719 89.105005 
L 114.463998 88.349908 
L 115.618278 87.620341 
L 116.772557 86.872868 
L 117.926837 86.135722 
L 119.081116 85.399535 
L 120.235396 84.676262 
L 121.389675 83.908794 
L 122.543955 83.166485 
L 123.698234 82.423899 
L 124.852514 81.699112 
L 126.006793 80.946927 
L 127.161073 80.196782 
L 128.315352 79.454 
L 129.469632 78.72337 
L 130.623911 77.967036 
L 131.77819 77.217754 
L 132.93247 76.480577 
L 134.086749 75.698971 
L 135.241029 74.980065 
L 136.395308 74.257406 
L 137.549588 73.515456 
L 138.703867 72.772367 
L 139.858147 72.029278 
L 141.012426 71.271684 
L 142.166706 70.503686 
L 143.320985 69.783575 
L 144.475265 69.059592 
L 145.629544 68.331415 
L 146.783824 67.614795 
L 147.938103 66.897476 
L 149.092383 66.156415 
L 150.246662 65.412277 
L 151.400941 64.667701 
L 152.555221 63.923878 
L 153.7095 63.200275 
L 154.86378 62.450828 
L 156.018059 61.701195 
L 157.172339 60.964333 
L 158.326618 60.237245 
L 158.326618 50.233688 
L 158.326618 50.233688 
L 157.172339 51.095309 
L 156.018059 51.95693 
L 154.86378 52.819578 
L 153.7095 53.698022 
L 152.555221 54.563773 
L 151.400941 55.451226 
L 150.246662 56.311811 
L 149.092383 57.16464 
L 147.938103 58.035635 
L 146.783824 58.910433 
L 145.629544 59.763474 
L 144.475265 60.641675 
L 143.320985 61.520103 
L 142.166706 62.398742 
L 141.012426 63.267573 
L 139.858147 64.135314 
L 138.703867 64.990215 
L 137.549588 65.845031 
L 136.395308 66.701083 
L 135.241029 67.573768 
L 134.086749 68.464868 
L 132.93247 69.281496 
L 131.77819 70.134483 
L 130.623911 71.007319 
L 129.469632 71.880156 
L 128.315352 72.741916 
L 127.161073 73.572805 
L 126.006793 74.407137 
L 124.852514 75.300677 
L 123.698234 76.137923 
L 122.543955 76.985254 
L 121.389675 77.848554 
L 120.235396 78.711854 
L 119.081116 79.572172 
L 117.926837 80.410717 
L 116.772557 81.279014 
L 115.618278 82.126012 
L 114.463998 82.972389 
L 113.309719 83.807557 
L 112.155439 84.666512 
L 111.00116 85.514397 
L 109.846881 86.350486 
L 108.692601 87.190006 
L 107.538322 88.029702 
L 106.384042 88.870751 
L 105.229763 89.703217 
L 104.075483 90.530684 
L 102.921204 91.34017 
L 101.766924 92.206875 
L 100.612645 93.045902 
L 99.458365 93.910249 
L 98.304086 94.745303 
L 97.149806 95.547156 
L 95.995527 96.362809 
L 94.841247 97.162681 
L 93.686968 97.999361 
L 92.532688 98.775459 
L 91.378409 99.581742 
L 90.22413 100.350669 
L 89.06985 101.151315 
L 87.915571 101.941928 
L 86.761291 102.735311 
L 85.607012 103.542686 
L 84.452732 104.332601 
L 83.298453 105.139394 
L 82.144173 105.938456 
L 80.989894 106.70116 
L 79.835614 107.482267 
L 78.681335 108.26265 
L 77.527055 109.016949 
L 76.372776 109.806936 
L 75.218496 110.57693 
L 74.064217 111.330775 
L 72.909937 112.110946 
L 71.755658 112.901918 
L 70.601379 113.669796 
L 69.447099 114.379573 
L 68.29282 115.140333 
L 67.13854 115.89968 
L 65.984261 116.672367 
L 64.829981 117.405352 
L 63.675702 118.14455 
L 62.521422 118.896698 
L 61.367143 119.663166 
L 60.212863 120.447127 
L 59.058584 121.206434 
L 57.904304 121.974348 
L 56.750025 122.722721 
L 55.595745 123.471095 
L 54.441466 124.219653 
L 53.287186 124.968503 
L 52.132907 125.703476 
L 50.978628 126.437038 
L 49.824348 127.189183 
L 48.670069 127.913879 
L 47.515789 128.638574 
L 46.36151 129.362897 
L 45.20723 130.087394 
L 44.052951 130.825046 
z
" clip-path="url(#p1828fab784)" style="fill: #ff8c00; fill-opacity: 0.15"/>
   </g>
   <g id="PathCollection_2">
    <defs>
     <path id="m0807f603a7" d="M 0 0.866025 
C 0.229673 0.866025 0.449969 0.774776 0.612372 0.612372 
C 0.774776 0.449969 0.866025 0.229673 0.866025 0 
C 0.866025 -0.229673 0.774776 -0.449969 0.612372 -0.612372 
C 0.449969 -0.774776 0.229673 -0.866025 0 -0.866025 
C -0.229673 -0.866025 -0.449969 -0.774776 -0.612372 -0.612372 
C -0.774776 -0.449969 -0.866025 -0.229673 -0.866025 0 
C -0.866025 0.229673 -0.774776 0.449969 -0.612372 0.612372 
C -0.449969 0.774776 -0.229673 0.866025 0 0.866025 
z
" style="stroke: #4682b4"/>
    </defs>
    <g clip-path="url(#p1828fab784)">
     <use xlink:href="#m0807f603a7" x="95.825264" y="125.041338" style="fill: #4682b4; stroke: #4682b4"/>
     <use xlink:href="#m0807f603a7" x="62.334178" y="126.226945" style="fill: #4682b4; stroke: #4682b4"/>
     <use xlink:href="#m0807f603a7" x="50.110677" y="127.7076" style="fill: #4682b4; stroke: #4682b4"/>
     <use xlink:href="#m0807f603a7" x="79.638665" y="115.086426" style="fill: #4682b4; stroke: #4682b4"/>
     <use xlink:href="#m0807f603a7" x="64.107026" y="124.311053" style="fill: #4682b4; stroke: #4682b4"/>
     <use xlink:href="#m0807f603a7" x="50.886019" y="127.300021" style="fill: #4682b4; stroke: #4682b4"/>
     <use xlink:href="#m0807f603a7" x="99.194324" y="123.080806" style="fill: #4682b4; stroke: #4682b4"/>
     <use xlink:href="#m0807f603a7" x="57.15088" y="126.318658" style="fill: #4682b4; stroke: #4682b4"/>
     <use xlink:href="#m0807f603a7" x="64.92566" y="120.613489" style="fill: #4682b4; stroke: #4682b4"/>
     <use xlink:href="#m0807f603a7" x="50.536389" y="127.704572" style="fill: #4682b4; stroke: #4682b4"/>
     <use xlink:href="#m0807f603a7" x="53.039803" y="125.126007" style="fill: #4682b4; stroke: #4682b4"/>
     <use xlink:href="#m0807f603a7" x="50.321467" y="128.429591" style="fill: #4682b4; stroke: #4682b4"/>
     <use xlink:href="#m0807f603a7" x="53.544044" y="126.94979" style="fill: #4682b4; stroke: #4682b4"/>
     <use xlink:href="#m0807f603a7" x="73.515676" y="88.114915" style="fill: #4682b4; stroke: #4682b4"/>
     <use xlink:href="#m0807f603a7" x="48.825413" y="125.268745" style="fill: #4682b4; stroke: #4682b4"/>
     <use xlink:href="#m0807f603a7" x="54.037732" y="126.937348" style="fill: #4682b4; stroke: #4682b4"/>
     <use xlink:href="#m0807f603a7" x="59.396078" y="127.067575" style="fill: #4682b4; stroke: #4682b4"/>
     <use xlink:href="#m0807f603a7" x="60.442057" y="124.685775" style="fill: #4682b4; stroke: #4682b4"/>
     <use xlink:href="#m0807f603a7" x="95.81911" y="94.357472" style="fill: #4682b4; stroke: #4682b4"/>
     <use xlink:href="#m0807f603a7" x="61.359594" y="129.62629" style="fill: #4682b4; stroke: #4682b4"/>
     <use xlink:href="#m0807f603a7" x="67.005161" y="129.444151" style="fill: #4682b4; stroke: #4682b4"/>
     <use xlink:href="#m0807f603a7" x="79.885239" y="131.412206" style="fill: #4682b4; stroke: #4682b4"/>
     <use xlink:href="#m0807f603a7" x="67.492305" y="126.33599" style="fill: #4682b4; stroke: #4682b4"/>
     <use xlink:href="#m0807f603a7" x="49.712448" y="128.227452" style="fill: #4682b4; stroke: #4682b4"/>
     <use xlink:href="#m0807f603a7" x="51.598342" y="128.315968" style="fill: #4682b4; stroke: #4682b4"/>
     <use xlink:href="#m0807f603a7" x="49.058963" y="128.201251" style="fill: #4682b4; stroke: #4682b4"/>
     <use xlink:href="#m0807f603a7" x="82.770862" y="109.214336" style="fill: #4682b4; stroke: #4682b4"/>
     <use xlink:href="#m0807f603a7" x="57.20048" y="127.393567" style="fill: #4682b4; stroke: #4682b4"/>
     <use xlink:href="#m0807f603a7" x="62.597746" y="127.354216" style="fill: #4682b4; stroke: #4682b4"/>
     <use xlink:href="#m0807f603a7" x="62.956129" y="130.830035" style="fill: #4682b4; stroke: #4682b4"/>
     <use xlink:href="#m0807f603a7" x="69.548585" y="127.897754" style="fill: #4682b4; stroke: #4682b4"/>
     <use xlink:href="#m0807f603a7" x="63.157229" y="126.682098" style="fill: #4682b4; stroke: #4682b4"/>
     <use xlink:href="#m0807f603a7" x="53.621955" y="125.303194" style="fill: #4682b4; stroke: #4682b4"/>
     <use xlink:href="#m0807f603a7" x="112.483764" y="131.365674" style="fill: #4682b4; stroke: #4682b4"/>
     <use xlink:href="#m0807f603a7" x="69.474119" y="126.302012" style="fill: #4682b4; stroke: #4682b4"/>
     <use xlink:href="#m0807f603a7" x="63.153966" y="130.75966" style="fill: #4682b4; stroke: #4682b4"/>
     <use xlink:href="#m0807f603a7" x="48.670814" y="130.788184" style="fill: #4682b4; stroke: #4682b4"/>
     <use xlink:href="#m0807f603a7" x="86.483241" y="128.028245" style="fill: #4682b4; stroke: #4682b4"/>
     <use xlink:href="#m0807f603a7" x="53.090881" y="128.984881" style="fill: #4682b4; stroke: #4682b4"/>
     <use xlink:href="#m0807f603a7" x="73.527676" y="125.000801" style="fill: #4682b4; stroke: #4682b4"/>
     <use xlink:href="#m0807f603a7" x="52.423476" y="123.84365" style="fill: #4682b4; stroke: #4682b4"/>
     <use xlink:href="#m0807f603a7" x="50.473409" y="121.764104" style="fill: #4682b4; stroke: #4682b4"/>
     <use xlink:href="#m0807f603a7" x="94.92992" y="108.653609" style="fill: #4682b4; stroke: #4682b4"/>
     <use xlink:href="#m0807f603a7" x="88.604616" y="129.137899" style="fill: #4682b4; stroke: #4682b4"/>
     <use xlink:href="#m0807f603a7" x="95.946257" y="124.170005" style="fill: #4682b4; stroke: #4682b4"/>
     <use xlink:href="#m0807f603a7" x="69.313871" y="130.763476" style="fill: #4682b4; stroke: #4682b4"/>
     <use xlink:href="#m0807f603a7" x="83.972504" y="115.806849" style="fill: #4682b4; stroke: #4682b4"/>
     <use xlink:href="#m0807f603a7" x="103.052863" y="97.7317" style="fill: #4682b4; stroke: #4682b4"/>
     <use xlink:href="#m0807f603a7" x="46.990845" y="128.65375" style="fill: #4682b4; stroke: #4682b4"/>
     <use xlink:href="#m0807f603a7" x="73.070984" y="122.138886" style="fill: #4682b4; stroke: #4682b4"/>
     <use xlink:href="#m0807f603a7" x="88.165078" y="117.420161" style="fill: #4682b4; stroke: #4682b4"/>
     <use xlink:href="#m0807f603a7" x="72.615489" y="118.950513" style="fill: #4682b4; stroke: #4682b4"/>
     <use xlink:href="#m0807f603a7" x="99.5034" y="89.344071" style="fill: #4682b4; stroke: #4682b4"/>
     <use xlink:href="#m0807f603a7" x="56.051661" y="125.889618" style="fill: #4682b4; stroke: #4682b4"/>
     <use xlink:href="#m0807f603a7" x="84.599451" y="126.027979" style="fill: #4682b4; stroke: #4682b4"/>
     <use xlink:href="#m0807f603a7" x="66.421027" y="129.859312" style="fill: #4682b4; stroke: #4682b4"/>
     <use xlink:href="#m0807f603a7" x="81.554117" y="128.182227" style="fill: #4682b4; stroke: #4682b4"/>
     <use xlink:href="#m0807f603a7" x="55.61777" y="127.501128" style="fill: #4682b4; stroke: #4682b4"/>
     <use xlink:href="#m0807f603a7" x="75.417728" y="132.535554" style="fill: #4682b4; stroke: #4682b4"/>
     <use xlink:href="#m0807f603a7" x="55.706757" y="127.668327" style="fill: #4682b4; stroke: #4682b4"/>
     <use xlink:href="#m0807f603a7" x="96.440262" y="121.50212" style="fill: #4682b4; stroke: #4682b4"/>
     <use xlink:href="#m0807f603a7" x="81.069477" y="128.371591" style="fill: #4682b4; stroke: #4682b4"/>
     <use xlink:href="#m0807f603a7" x="62.171512" y="126.302669" style="fill: #4682b4; stroke: #4682b4"/>
     <use xlink:href="#m0807f603a7" x="59.712929" y="125.967188" style="fill: #4682b4; stroke: #4682b4"/>
     <use xlink:href="#m0807f603a7" x="66.701873" y="123.155455" style="fill: #4682b4; stroke: #4682b4"/>
     <use xlink:href="#m0807f603a7" x="63.048554" y="125.569453" style="fill: #4682b4; stroke: #4682b4"/>
     <use xlink:href="#m0807f603a7" x="62.11993" y="127.381928" style="fill: #4682b4; stroke: #4682b4"/>
     <use xlink:href="#m0807f603a7" x="70.870426" y="125.87364" style="fill: #4682b4; stroke: #4682b4"/>
     <use xlink:href="#m0807f603a7" x="93.538873" y="114.562183" style="fill: #4682b4; stroke: #4682b4"/>
     <use xlink:href="#m0807f603a7" x="43.999774" y="127.717873" style="fill: #4682b4; stroke: #4682b4"/>
     <use xlink:href="#m0807f603a7" x="82.470131" y="125.79519" style="fill: #4682b4; stroke: #4682b4"/>
     <use xlink:href="#m0807f603a7" x="86.060731" y="128.065955" style="fill: #4682b4; stroke: #4682b4"/>
     <use xlink:href="#m0807f603a7" x="73.01234" y="132.362667" style="fill: #4682b4; stroke: #4682b4"/>
     <use xlink:href="#m0807f603a7" x="56.238187" y="123.926786" style="fill: #4682b4; stroke: #4682b4"/>
     <use xlink:href="#m0807f603a7" x="64.519572" y="129.697039" style="fill: #4682b4; stroke: #4682b4"/>
     <use xlink:href="#m0807f603a7" x="76.891492" y="127.488358" style="fill: #4682b4; stroke: #4682b4"/>
     <use xlink:href="#m0807f603a7" x="53.618148" y="127.123923" style="fill: #4682b4; stroke: #4682b4"/>
     <use xlink:href="#m0807f603a7" x="54.685465" y="124.667177" style="fill: #4682b4; stroke: #4682b4"/>
     <use xlink:href="#m0807f603a7" x="55.370715" y="127.659652" style="fill: #4682b4; stroke: #4682b4"/>
     <use xlink:href="#m0807f603a7" x="64.184928" y="129.631393" style="fill: #4682b4; stroke: #4682b4"/>
     <use xlink:href="#m0807f603a7" x="47.759404" y="125.351527" style="fill: #4682b4; stroke: #4682b4"/>
     <use xlink:href="#m0807f603a7" x="53.574224" y="128.01379" style="fill: #4682b4; stroke: #4682b4"/>
     <use xlink:href="#m0807f603a7" x="49.214895" y="125.796754" style="fill: #4682b4; stroke: #4682b4"/>
     <use xlink:href="#m0807f603a7" x="47.72153" y="130.060251" style="fill: #4682b4; stroke: #4682b4"/>
     <use xlink:href="#m0807f603a7" x="90.630364" y="97.637751" style="fill: #4682b4; stroke: #4682b4"/>
     <use xlink:href="#m0807f603a7" x="78.528789" y="118.236254" style="fill: #4682b4; stroke: #4682b4"/>
     <use xlink:href="#m0807f603a7" x="51.482392" y="130.337974" style="fill: #4682b4; stroke: #4682b4"/>
     <use xlink:href="#m0807f603a7" x="63.042118" y="127.563265" style="fill: #4682b4; stroke: #4682b4"/>
     <use xlink:href="#m0807f603a7" x="48.459893" y="125.505645" style="fill: #4682b4; stroke: #4682b4"/>
     <use xlink:href="#m0807f603a7" x="50.341866" y="126.827171" style="fill: #4682b4; stroke: #4682b4"/>
     <use xlink:href="#m0807f603a7" x="46.761097" y="125.271483" style="fill: #4682b4; stroke: #4682b4"/>
     <use xlink:href="#m0807f603a7" x="78.405898" y="122.951451" style="fill: #4682b4; stroke: #4682b4"/>
     <use xlink:href="#m0807f603a7" x="69.510484" y="128.399691" style="fill: #4682b4; stroke: #4682b4"/>
     <use xlink:href="#m0807f603a7" x="45.393243" y="127.612796" style="fill: #4682b4; stroke: #4682b4"/>
     <use xlink:href="#m0807f603a7" x="67.085926" y="128.757006" style="fill: #4682b4; stroke: #4682b4"/>
     <use xlink:href="#m0807f603a7" x="100.789119" y="119.366072" style="fill: #4682b4; stroke: #4682b4"/>
     <use xlink:href="#m0807f603a7" x="47.369478" y="128.822247" style="fill: #4682b4; stroke: #4682b4"/>
     <use xlink:href="#m0807f603a7" x="65.349811" y="128.337901" style="fill: #4682b4; stroke: #4682b4"/>
     <use xlink:href="#m0807f603a7" x="52.069897" y="124.900911" style="fill: #4682b4; stroke: #4682b4"/>
     <use xlink:href="#m0807f603a7" x="80.110488" y="122.248995" style="fill: #4682b4; stroke: #4682b4"/>
    </g>
   </g>
   <g id="PolyCollection_2">
    <path d="M 43.999774 127.92065 
L 43.999774 132.185777 
L 44.691531 131.95566 
L 45.383289 131.694003 
L 46.075046 131.444965 
L 46.766804 131.162042 
L 47.458561 130.925661 
L 48.150319 130.670242 
L 48.842076 130.406314 
L 49.533834 130.160397 
L 50.225591 129.909901 
L 50.917349 129.646534 
L 51.609106 129.398996 
L 52.300864 129.141834 
L 52.992621 128.927296 
L 53.684379 128.706607 
L 54.376136 128.483705 
L 55.067893 128.244614 
L 55.759651 127.986572 
L 56.451408 127.806946 
L 57.143166 127.613166 
L 57.834923 127.403188 
L 58.526681 127.196465 
L 59.218438 127.019083 
L 59.910196 126.869646 
L 60.601953 126.702781 
L 61.293711 126.580782 
L 61.985468 126.476859 
L 62.677226 126.324625 
L 63.368983 126.221795 
L 64.060741 126.114153 
L 64.752498 126.024797 
L 65.444256 125.944648 
L 66.136013 125.821923 
L 66.827771 125.691339 
L 67.519528 125.573506 
L 68.211286 125.466237 
L 68.903043 125.369705 
L 69.594801 125.280533 
L 70.286558 125.190519 
L 70.978316 125.084168 
L 71.670073 124.995024 
L 72.36183 124.911478 
L 73.053588 124.817598 
L 73.745345 124.716985 
L 74.437103 124.619836 
L 75.12886 124.512287 
L 75.820618 124.408053 
L 76.512375 124.331292 
L 77.204133 124.238067 
L 77.89589 124.15692 
L 78.587648 124.076248 
L 79.279405 123.993908 
L 79.971163 123.912748 
L 80.66292 123.831588 
L 81.354678 123.750341 
L 82.046435 123.668864 
L 82.738193 123.587388 
L 83.42995 123.500551 
L 84.121708 123.411756 
L 84.813465 123.322961 
L 85.505223 123.233676 
L 86.19698 123.144493 
L 86.888738 123.055791 
L 87.580495 122.96709 
L 88.272253 122.878723 
L 88.96401 122.797227 
L 89.655767 122.715731 
L 90.347525 122.634235 
L 91.039282 122.552739 
L 91.73104 122.463188 
L 92.422797 122.373524 
L 93.114555 122.28386 
L 93.806312 122.197889 
L 94.49807 122.113522 
L 95.189827 122.028976 
L 95.881585 121.944431 
L 96.573342 121.859885 
L 97.2651 121.773749 
L 97.956857 121.681733 
L 98.648615 121.589717 
L 99.340372 121.4977 
L 100.03213 121.405684 
L 100.723887 121.313635 
L 101.415645 121.221468 
L 102.107402 121.1293 
L 102.79916 121.043351 
L 103.490917 120.971604 
L 104.182675 120.899858 
L 104.874432 120.810372 
L 105.566189 120.720823 
L 106.257947 120.640443 
L 106.949704 120.559916 
L 107.641462 120.479389 
L 108.333219 120.398863 
L 109.024977 120.318336 
L 109.716734 120.237809 
L 110.408492 120.157282 
L 111.100249 120.076755 
L 111.792007 119.996229 
L 112.483764 119.915702 
L 112.483764 105.809775 
L 112.483764 105.809775 
L 111.792007 106.067362 
L 111.100249 106.325087 
L 110.408492 106.582812 
L 109.716734 106.840538 
L 109.024977 107.098263 
L 108.333219 107.355989 
L 107.641462 107.613714 
L 106.949704 107.871439 
L 106.257947 108.135921 
L 105.566189 108.403936 
L 104.874432 108.671951 
L 104.182675 108.939966 
L 103.490917 109.20798 
L 102.79916 109.475995 
L 102.107402 109.74401 
L 101.415645 109.996779 
L 100.723887 110.24869 
L 100.03213 110.500601 
L 99.340372 110.752512 
L 98.648615 111.004422 
L 97.956857 111.256333 
L 97.2651 111.508244 
L 96.573342 111.760155 
L 95.881585 112.012116 
L 95.189827 112.264118 
L 94.49807 112.516119 
L 93.806312 112.775857 
L 93.114555 113.036721 
L 92.422797 113.297704 
L 91.73104 113.558687 
L 91.039282 113.819669 
L 90.347525 114.073873 
L 89.655767 114.325909 
L 88.96401 114.577946 
L 88.272253 114.829982 
L 87.580495 115.089908 
L 86.888738 115.35741 
L 86.19698 115.6285 
L 85.505223 115.908278 
L 84.813465 116.169769 
L 84.121708 116.431004 
L 83.42995 116.695208 
L 82.738193 116.953019 
L 82.046435 117.208009 
L 81.354678 117.471696 
L 80.66292 117.736266 
L 79.971163 117.990964 
L 79.279405 118.257898 
L 78.587648 118.519068 
L 77.89589 118.78059 
L 77.204133 119.051969 
L 76.512375 119.329933 
L 75.820618 119.594369 
L 75.12886 119.844704 
L 74.437103 120.121785 
L 73.745345 120.37418 
L 73.053588 120.618694 
L 72.36183 120.871698 
L 71.670073 121.126089 
L 70.978316 121.366075 
L 70.286558 121.613914 
L 69.594801 121.86187 
L 68.903043 122.109826 
L 68.211286 122.357782 
L 67.519528 122.587087 
L 66.827771 122.815867 
L 66.136013 123.082877 
L 65.444256 123.32022 
L 64.752498 123.559514 
L 64.060741 123.765503 
L 63.368983 124.008101 
L 62.677226 124.250448 
L 61.985468 124.471602 
L 61.293711 124.662538 
L 60.601953 124.904918 
L 59.910196 125.104037 
L 59.218438 125.270841 
L 58.526681 125.441048 
L 57.834923 125.605131 
L 57.143166 125.76929 
L 56.451408 125.908112 
L 55.759651 126.055753 
L 55.067893 126.20761 
L 54.376136 126.367975 
L 53.684379 126.48989 
L 52.992621 126.63034 
L 52.300864 126.754702 
L 51.609106 126.853163 
L 50.917349 126.944803 
L 50.225591 127.090512 
L 49.533834 127.203508 
L 48.842076 127.288121 
L 48.150319 127.372689 
L 47.458561 127.464648 
L 46.766804 127.565583 
L 46.075046 127.648495 
L 45.383289 127.742099 
L 44.691531 127.817899 
L 43.999774 127.92065 
z
" clip-path="url(#p1828fab784)" style="fill: #4682b4; fill-opacity: 0.15"/>
   </g>
   <g id="PolyCollection_3"/>
   <g id="matplotlib.axis_1">
    <g id="xtick_1">
     <g id="line2d_1">
      <defs>
       <path id="m62ace0cfab" d="M 0 0 
L 0 3.5 
" style="stroke: #000000; stroke-width: 0.8"/>
      </defs>
      <g>
       <use xlink:href="#m62ace0cfab" x="65.8625" y="137.93875" style="stroke: #000000; stroke-width: 0.8"/>
      </g>
     </g>
     <g id="text_1">
      <text style="font: 6px 'Arial', sans-serif; text-anchor: middle" x="65.8625" y="149.233438" transform="rotate(-0 65.8625 149.233438)">2</text>
     </g>
    </g>
    <g id="xtick_2">
     <g id="line2d_2">
      <g>
       <use xlink:href="#m62ace0cfab" x="103.5975" y="137.93875" style="stroke: #000000; stroke-width: 0.8"/>
      </g>
     </g>
     <g id="text_2">
      <text style="font: 6px 'Arial', sans-serif; text-anchor: middle" x="103.5975" y="149.233438" transform="rotate(-0 103.5975 149.233438)">4</text>
     </g>
    </g>
    <g id="xtick_3">
     <g id="line2d_3">
      <g>
       <use xlink:href="#m62ace0cfab" x="141.3325" y="137.93875" style="stroke: #000000; stroke-width: 0.8"/>
      </g>
     </g>
     <g id="text_3">
      <text style="font: 6px 'Arial', sans-serif; text-anchor: middle" x="141.3325" y="149.233438" transform="rotate(-0 141.3325 149.233438)">6</text>
     </g>
    </g>
    <g id="text_4">
     <text style="font: 8px 'Arial', sans-serif; text-anchor: middle" x="98.880625" y="160.249687" transform="rotate(-0 98.880625 160.249687)">Enhancer activity (0kb)</text>
    </g>
   </g>
   <g id="matplotlib.axis_2">
    <g id="ytick_1">
     <g id="line2d_4">
      <defs>
       <path id="mf250d42ac4" d="M 0 0 
L -3.5 0 
" style="stroke: #000000; stroke-width: 0.8"/>
      </defs>
      <g>
       <use xlink:href="#mf250d42ac4" x="37.56125" y="108.599038" style="stroke: #000000; stroke-width: 0.8"/>
      </g>
     </g>
     <g id="text_5">
      <text style="font: 6px 'Arial', sans-serif; text-anchor: end" x="30.56125" y="110.746382" transform="rotate(-0 30.56125 110.746382)">2</text>
     </g>
    </g>
    <g id="ytick_2">
     <g id="line2d_5">
      <g>
       <use xlink:href="#mf250d42ac4" x="37.56125" y="69.479423" style="stroke: #000000; stroke-width: 0.8"/>
      </g>
     </g>
     <g id="text_6">
      <text style="font: 6px 'Arial', sans-serif; text-anchor: end" x="30.56125" y="71.626767" transform="rotate(-0 30.56125 71.626767)">4</text>
     </g>
    </g>
    <g id="ytick_3">
     <g id="line2d_6">
      <g>
       <use xlink:href="#mf250d42ac4" x="37.56125" y="30.359808" style="stroke: #000000; stroke-width: 0.8"/>
      </g>
     </g>
     <g id="text_7">
      <text style="font: 6px 'Arial', sans-serif; text-anchor: end" x="30.56125" y="32.507151" transform="rotate(-0 30.56125 32.507151)">6</text>
     </g>
    </g>
    <g id="text_8">
     <text style="font: 8px 'Arial', sans-serif; text-anchor: middle" x="21.540938" y="74.369375" transform="rotate(-90 21.540938 74.369375)">Enhancer activity (10kb)</text>
    </g>
   </g>
   <g id="line2d_7">
    <path d="M 44.052951 134.718638 
L 45.20723 133.914467 
L 46.36151 133.110297 
L 47.515789 132.306126 
L 48.670069 131.501956 
L 49.824348 130.697785 
L 50.978628 129.893615 
L 52.132907 129.089444 
L 53.287186 128.285274 
L 54.441466 127.481103 
L 55.595745 126.676932 
L 56.750025 125.872762 
L 57.904304 125.068591 
L 59.058584 124.264421 
L 60.212863 123.46025 
L 61.367143 122.65608 
L 62.521422 121.851909 
L 63.675702 121.047739 
L 64.829981 120.243568 
L 65.984261 119.439398 
L 67.13854 118.635227 
L 68.29282 117.831057 
L 69.447099 117.026886 
L 70.601379 116.222716 
L 71.755658 115.418545 
L 72.909937 114.614375 
L 74.064217 113.810204 
L 75.218496 113.006033 
L 76.372776 112.201863 
L 77.527055 111.397692 
L 78.681335 110.593522 
L 79.835614 109.789351 
L 80.989894 108.985181 
L 82.144173 108.18101 
L 83.298453 107.37684 
L 84.452732 106.572669 
L 85.607012 105.768499 
L 86.761291 104.964328 
L 87.915571 104.160158 
L 89.06985 103.355987 
L 90.22413 102.551817 
L 91.378409 101.747646 
L 92.532688 100.943476 
L 93.686968 100.139305 
L 94.841247 99.335134 
L 95.995527 98.530964 
L 97.149806 97.726793 
L 98.304086 96.922623 
L 99.458365 96.118452 
L 100.612645 95.314282 
L 101.766924 94.510111 
L 102.921204 93.705941 
L 104.075483 92.90177 
L 105.229763 92.0976 
L 106.384042 91.293429 
L 107.538322 90.489259 
L 108.692601 89.685088 
L 109.846881 88.880918 
L 111.00116 88.076747 
L 112.155439 87.272576 
L 113.309719 86.468406 
L 114.463998 85.664235 
L 115.618278 84.860065 
L 116.772557 84.055894 
L 117.926837 83.251724 
L 119.081116 82.447553 
L 120.235396 81.643383 
L 121.389675 80.839212 
L 122.543955 80.035042 
L 123.698234 79.230871 
L 124.852514 78.426701 
L 126.006793 77.62253 
L 127.161073 76.81836 
L 128.315352 76.014189 
L 129.469632 75.210019 
L 130.623911 74.405848 
L 131.77819 73.601677 
L 132.93247 72.797507 
L 134.086749 71.993336 
L 135.241029 71.189166 
L 136.395308 70.384995 
L 137.549588 69.580825 
L 138.703867 68.776654 
L 139.858147 67.972484 
L 141.012426 67.168313 
L 142.166706 66.364143 
L 143.320985 65.559972 
L 144.475265 64.755802 
L 145.629544 63.951631 
L 146.783824 63.147461 
L 147.938103 62.34329 
L 149.092383 61.53912 
L 150.246662 60.734949 
L 151.400941 59.930778 
L 152.555221 59.126608 
L 153.7095 58.322437 
L 154.86378 57.518267 
L 156.018059 56.714096 
L 157.172339 55.909926 
L 158.326618 55.105755 
" clip-path="url(#p1828fab784)" style="fill: none; stroke: #ff8c00; stroke-width: 2.25; stroke-linecap: square"/>
   </g>
   <g id="line2d_8">
    <path d="M 43.999774 129.870716 
L 44.691531 129.703005 
L 45.383289 129.535294 
L 46.075046 129.367583 
L 46.766804 129.199872 
L 47.458561 129.032161 
L 48.150319 128.86445 
L 48.842076 128.696739 
L 49.533834 128.529028 
L 50.225591 128.361317 
L 50.917349 128.193606 
L 51.609106 128.025895 
L 52.300864 127.858184 
L 52.992621 127.690473 
L 53.684379 127.522762 
L 54.376136 127.355051 
L 55.067893 127.18734 
L 55.759651 127.019629 
L 56.451408 126.851918 
L 57.143166 126.684208 
L 57.834923 126.516497 
L 58.526681 126.348786 
L 59.218438 126.181075 
L 59.910196 126.013364 
L 60.601953 125.845653 
L 61.293711 125.677942 
L 61.985468 125.510231 
L 62.677226 125.34252 
L 63.368983 125.174809 
L 64.060741 125.007098 
L 64.752498 124.839387 
L 65.444256 124.671676 
L 66.136013 124.503965 
L 66.827771 124.336254 
L 67.519528 124.168543 
L 68.211286 124.000832 
L 68.903043 123.833121 
L 69.594801 123.66541 
L 70.286558 123.497699 
L 70.978316 123.329988 
L 71.670073 123.162277 
L 72.36183 122.994566 
L 73.053588 122.826855 
L 73.745345 122.659144 
L 74.437103 122.491433 
L 75.12886 122.323722 
L 75.820618 122.156011 
L 76.512375 121.9883 
L 77.204133 121.820589 
L 77.89589 121.652878 
L 78.587648 121.485167 
L 79.279405 121.317456 
L 79.971163 121.149745 
L 80.66292 120.982034 
L 81.354678 120.814323 
L 82.046435 120.646612 
L 82.738193 120.478901 
L 83.42995 120.31119 
L 84.121708 120.143479 
L 84.813465 119.975768 
L 85.505223 119.808057 
L 86.19698 119.640346 
L 86.888738 119.472635 
L 87.580495 119.304924 
L 88.272253 119.137213 
L 88.96401 118.969503 
L 89.655767 118.801792 
L 90.347525 118.634081 
L 91.039282 118.46637 
L 91.73104 118.298659 
L 92.422797 118.130948 
L 93.114555 117.963237 
L 93.806312 117.795526 
L 94.49807 117.627815 
L 95.189827 117.460104 
L 95.881585 117.292393 
L 96.573342 117.124682 
L 97.2651 116.956971 
L 97.956857 116.78926 
L 98.648615 116.621549 
L 99.340372 116.453838 
L 100.03213 116.286127 
L 100.723887 116.118416 
L 101.415645 115.950705 
L 102.107402 115.782994 
L 102.79916 115.615283 
L 103.490917 115.447572 
L 104.182675 115.279861 
L 104.874432 115.11215 
L 105.566189 114.944439 
L 106.257947 114.776728 
L 106.949704 114.609017 
L 107.641462 114.441306 
L 108.333219 114.273595 
L 109.024977 114.105884 
L 109.716734 113.938173 
L 110.408492 113.770462 
L 111.100249 113.602751 
L 111.792007 113.43504 
L 112.483764 113.267329 
" clip-path="url(#p1828fab784)" style="fill: none; stroke: #4682b4; stroke-width: 2.25; stroke-linecap: square"/>
   </g>
   <g id="line2d_9">
    <path d="M 28.1275 147.718654 
L 160.2 10.8 
" clip-path="url(#p1828fab784)" style="fill: none; stroke-dasharray: 2.775,1.2; stroke-dashoffset: 0; stroke: #808080; stroke-width: 0.75"/>
   </g>
   <g id="patch_3">
    <path d="M 37.56125 137.93875 
L 37.56125 10.8 
" style="fill: none; stroke: #000000; stroke-width: 0.8; stroke-linejoin: miter; stroke-linecap: square"/>
   </g>
   <g id="patch_4">
    <path d="M 160.2 137.93875 
L 160.2 10.8 
" style="fill: none; stroke: #000000; stroke-width: 0.8; stroke-linejoin: miter; stroke-linecap: square"/>
   </g>
   <g id="patch_5">
    <path d="M 37.56125 137.93875 
L 160.2 137.93875 
" style="fill: none; stroke: #000000; stroke-width: 0.8; stroke-linejoin: miter; stroke-linecap: square"/>
   </g>
   <g id="patch_6">
    <path d="M 37.56125 10.8 
L 160.2 10.8 
" style="fill: none; stroke: #000000; stroke-width: 0.8; stroke-linejoin: miter; stroke-linecap: square"/>
   </g>
   <g id="legend_1">
    <g id="patch_7">
     <path d="M 43.16125 39.93 
L 111.60625 39.93 
Q 113.20625 39.93 113.20625 38.33 
L 113.20625 16.4 
Q 113.20625 14.8 111.60625 14.8 
L 43.16125 14.8 
Q 41.56125 14.8 41.56125 16.4 
L 41.56125 38.33 
Q 41.56125 39.93 43.16125 39.93 
z
" style="fill: #ffffff; opacity: 0.8; stroke: #cccccc; stroke-linejoin: miter"/>
    </g>
    <g id="PathCollection_3">
     <g>
      <use xlink:href="#mc9e42328d0" x="52.76125" y="21.62625" style="fill: #ff8c00; stroke: #ff8c00"/>
     </g>
    </g>
    <g id="text_9">
     <text style="font: 8px 'Arial', sans-serif; text-anchor: start" x="67.16125" y="23.72625" transform="rotate(-0 67.16125 23.72625)">GATA1</text>
    </g>
    <g id="PathCollection_4">
     <g>
      <use xlink:href="#m0807f603a7" x="52.76125" y="33.04" style="fill: #4682b4; stroke: #4682b4"/>
     </g>
    </g>
    <g id="text_10">
     <text style="font: 8px 'Arial', sans-serif; text-anchor: start" x="67.16125" y="35.14" transform="rotate(-0 67.16125 35.14)">non_GATA1</text>
    </g>
   </g>
  </g>
 </g>
 <defs>
  <clipPath id="p1828fab784">
   <rect x="37.56125" y="10.8" width="122.63875" height="127.13875"/>
  </clipPath>
 </defs>
</svg>
