<?xml version="1.0" encoding="utf-8" standalone="no"?>
<!DOCTYPE svg PUBLIC "-//W3C//DTD SVG 1.1//EN"
  "http://www.w3.org/Graphics/SVG/1.1/DTD/svg11.dtd">
<svg xmlns:xlink="http://www.w3.org/1999/xlink" width="171pt" height="180pt" viewBox="0 0 171 180" xmlns="http://www.w3.org/2000/svg" version="1.1">
 <metadata>
  <rdf:RDF xmlns:dc="http://purl.org/dc/elements/1.1/" xmlns:cc="http://creativecommons.org/ns#" xmlns:rdf="http://www.w3.org/1999/02/22-rdf-syntax-ns#">
   <cc:Work>
    <dc:type rdf:resource="http://purl.org/dc/dcmitype/StillImage"/>
    <dc:date>2025-04-14T20:10:54.958406</dc:date>
    <dc:format>image/svg+xml</dc:format>
    <dc:creator>
     <cc:Agent>
      <dc:title>Matplotlib v3.9.3, https://matplotlib.org/</dc:title>
     </cc:Agent>
    </dc:creator>
   </cc:Work>
  </rdf:RDF>
 </metadata>
 <defs>
  <style type="text/css">*{stroke-linejoin: round; stroke-linecap: butt}</style>
 </defs>
 <g id="figure_1">
  <g id="patch_1">
   <path d="M 0 180 
L 171 180 
L 171 0 
L 0 0 
z
" style="fill: #ffffff"/>
  </g>
  <g id="axes_1">
   <g id="patch_2">
    <path d="M 37.56125 137.93875 
L 160.2 137.93875 
L 160.2 10.8 
L 37.56125 10.8 
z
" style="fill: #ffffff"/>
   </g>
   <g id="PathCollection_1">
    <defs>
     <path id="m15169e8fcc" d="M 0 0.866025 
C 0.229673 0.866025 0.449969 0.774776 0.612372 0.612372 
C 0.774776 0.449969 0.866025 0.229673 0.866025 0 
C 0.866025 -0.229673 0.774776 -0.449969 0.612372 -0.612372 
C 0.449969 -0.774776 0.229673 -0.866025 0 -0.866025 
C -0.229673 -0.866025 -0.449969 -0.774776 -0.612372 -0.612372 
C -0.774776 -0.449969 -0.866025 -0.229673 -0.866025 0 
C -0.866025 0.229673 -0.774776 0.449969 -0.612372 0.612372 
C -0.449969 0.774776 -0.229673 0.866025 0 0.866025 
z
" style="stroke: #ff8c00"/>
    </defs>
    <g clip-path="url(#p899eb194f8)">
     <use xlink:href="#m15169e8fcc" x="80.414356" y="126.323853" style="fill: #ff8c00; stroke: #ff8c00"/>
     <use xlink:href="#m15169e8fcc" x="48.392546" y="126.363601" style="fill: #ff8c00; stroke: #ff8c00"/>
     <use xlink:href="#m15169e8fcc" x="63.189614" y="127.607214" style="fill: #ff8c00; stroke: #ff8c00"/>
     <use xlink:href="#m15169e8fcc" x="69.560016" y="108.71264" style="fill: #ff8c00; stroke: #ff8c00"/>
     <use xlink:href="#m15169e8fcc" x="81.243257" y="125.370034" style="fill: #ff8c00; stroke: #ff8c00"/>
     <use xlink:href="#m15169e8fcc" x="101.933213" y="125.852617" style="fill: #ff8c00; stroke: #ff8c00"/>
     <use xlink:href="#m15169e8fcc" x="158.326618" y="61.131951" style="fill: #ff8c00; stroke: #ff8c00"/>
     <use xlink:href="#m15169e8fcc" x="100.732867" y="124.193657" style="fill: #ff8c00; stroke: #ff8c00"/>
     <use xlink:href="#m15169e8fcc" x="115.732047" y="89.721694" style="fill: #ff8c00; stroke: #ff8c00"/>
     <use xlink:href="#m15169e8fcc" x="108.945482" y="101.533487" style="fill: #ff8c00; stroke: #ff8c00"/>
     <use xlink:href="#m15169e8fcc" x="101.443971" y="87.200395" style="fill: #ff8c00; stroke: #ff8c00"/>
     <use xlink:href="#m15169e8fcc" x="87.29396" y="108.851581" style="fill: #ff8c00; stroke: #ff8c00"/>
     <use xlink:href="#m15169e8fcc" x="99.437818" y="111.49697" style="fill: #ff8c00; stroke: #ff8c00"/>
     <use xlink:href="#m15169e8fcc" x="103.591541" y="95.735384" style="fill: #ff8c00; stroke: #ff8c00"/>
     <use xlink:href="#m15169e8fcc" x="141.091278" y="62.717782" style="fill: #ff8c00; stroke: #ff8c00"/>
     <use xlink:href="#m15169e8fcc" x="55.922635" y="128.124121" style="fill: #ff8c00; stroke: #ff8c00"/>
     <use xlink:href="#m15169e8fcc" x="57.145652" y="104.948539" style="fill: #ff8c00; stroke: #ff8c00"/>
     <use xlink:href="#m15169e8fcc" x="106.075573" y="110.828286" style="fill: #ff8c00; stroke: #ff8c00"/>
     <use xlink:href="#m15169e8fcc" x="92.266102" y="102.03421" style="fill: #ff8c00; stroke: #ff8c00"/>
     <use xlink:href="#m15169e8fcc" x="62.380072" y="123.882967" style="fill: #ff8c00; stroke: #ff8c00"/>
     <use xlink:href="#m15169e8fcc" x="66.443002" y="126.397142" style="fill: #ff8c00; stroke: #ff8c00"/>
     <use xlink:href="#m15169e8fcc" x="105.661726" y="84.886282" style="fill: #ff8c00; stroke: #ff8c00"/>
     <use xlink:href="#m15169e8fcc" x="95.013539" y="113.672307" style="fill: #ff8c00; stroke: #ff8c00"/>
     <use xlink:href="#m15169e8fcc" x="51.439391" y="122.63795" style="fill: #ff8c00; stroke: #ff8c00"/>
     <use xlink:href="#m15169e8fcc" x="70.030774" y="120.249585" style="fill: #ff8c00; stroke: #ff8c00"/>
     <use xlink:href="#m15169e8fcc" x="132.040071" y="63.229156" style="fill: #ff8c00; stroke: #ff8c00"/>
     <use xlink:href="#m15169e8fcc" x="112.050853" y="81.832565" style="fill: #ff8c00; stroke: #ff8c00"/>
     <use xlink:href="#m15169e8fcc" x="85.825146" y="123.463719" style="fill: #ff8c00; stroke: #ff8c00"/>
     <use xlink:href="#m15169e8fcc" x="90.703467" y="114.416519" style="fill: #ff8c00; stroke: #ff8c00"/>
     <use xlink:href="#m15169e8fcc" x="58.629018" y="127.166759" style="fill: #ff8c00; stroke: #ff8c00"/>
     <use xlink:href="#m15169e8fcc" x="91.800724" y="123.711978" style="fill: #ff8c00; stroke: #ff8c00"/>
     <use xlink:href="#m15169e8fcc" x="109.099073" y="89.178685" style="fill: #ff8c00; stroke: #ff8c00"/>
     <use xlink:href="#m15169e8fcc" x="86.993207" y="113.103313" style="fill: #ff8c00; stroke: #ff8c00"/>
     <use xlink:href="#m15169e8fcc" x="134.500443" y="66.128165" style="fill: #ff8c00; stroke: #ff8c00"/>
     <use xlink:href="#m15169e8fcc" x="120.487567" y="99.701061" style="fill: #ff8c00; stroke: #ff8c00"/>
     <use xlink:href="#m15169e8fcc" x="91.856997" y="81.690586" style="fill: #ff8c00; stroke: #ff8c00"/>
     <use xlink:href="#m15169e8fcc" x="102.028744" y="113.300224" style="fill: #ff8c00; stroke: #ff8c00"/>
     <use xlink:href="#m15169e8fcc" x="73.221601" y="107.565832" style="fill: #ff8c00; stroke: #ff8c00"/>
     <use xlink:href="#m15169e8fcc" x="128.342832" y="59.632734" style="fill: #ff8c00; stroke: #ff8c00"/>
     <use xlink:href="#m15169e8fcc" x="90.187721" y="108.351384" style="fill: #ff8c00; stroke: #ff8c00"/>
     <use xlink:href="#m15169e8fcc" x="109.771351" y="98.63116" style="fill: #ff8c00; stroke: #ff8c00"/>
     <use xlink:href="#m15169e8fcc" x="100.485025" y="127.949921" style="fill: #ff8c00; stroke: #ff8c00"/>
     <use xlink:href="#m15169e8fcc" x="112.448243" y="103.534214" style="fill: #ff8c00; stroke: #ff8c00"/>
     <use xlink:href="#m15169e8fcc" x="59.587373" y="113.055773" style="fill: #ff8c00; stroke: #ff8c00"/>
     <use xlink:href="#m15169e8fcc" x="107.263258" y="82.588324" style="fill: #ff8c00; stroke: #ff8c00"/>
     <use xlink:href="#m15169e8fcc" x="52.520755" y="127.522403" style="fill: #ff8c00; stroke: #ff8c00"/>
     <use xlink:href="#m15169e8fcc" x="89.61685" y="85.964561" style="fill: #ff8c00; stroke: #ff8c00"/>
     <use xlink:href="#m15169e8fcc" x="134.723702" y="71.15934" style="fill: #ff8c00; stroke: #ff8c00"/>
     <use xlink:href="#m15169e8fcc" x="73.641631" y="121.636002" style="fill: #ff8c00; stroke: #ff8c00"/>
     <use xlink:href="#m15169e8fcc" x="56.450395" y="130.296847" style="fill: #ff8c00; stroke: #ff8c00"/>
     <use xlink:href="#m15169e8fcc" x="109.565277" y="74.350632" style="fill: #ff8c00; stroke: #ff8c00"/>
     <use xlink:href="#m15169e8fcc" x="81.766961" y="130.05156" style="fill: #ff8c00; stroke: #ff8c00"/>
     <use xlink:href="#m15169e8fcc" x="122.324854" y="71.640298" style="fill: #ff8c00; stroke: #ff8c00"/>
     <use xlink:href="#m15169e8fcc" x="102.55841" y="95.724275" style="fill: #ff8c00; stroke: #ff8c00"/>
     <use xlink:href="#m15169e8fcc" x="92.704073" y="132.133897" style="fill: #ff8c00; stroke: #ff8c00"/>
     <use xlink:href="#m15169e8fcc" x="134.357961" y="69.792118" style="fill: #ff8c00; stroke: #ff8c00"/>
     <use xlink:href="#m15169e8fcc" x="52.528002" y="127.611344" style="fill: #ff8c00; stroke: #ff8c00"/>
     <use xlink:href="#m15169e8fcc" x="62.327407" y="128.793787" style="fill: #ff8c00; stroke: #ff8c00"/>
     <use xlink:href="#m15169e8fcc" x="99.087892" y="97.010298" style="fill: #ff8c00; stroke: #ff8c00"/>
     <use xlink:href="#m15169e8fcc" x="139.166005" y="57.395235" style="fill: #ff8c00; stroke: #ff8c00"/>
     <use xlink:href="#m15169e8fcc" x="49.425675" y="126.031945" style="fill: #ff8c00; stroke: #ff8c00"/>
     <use xlink:href="#m15169e8fcc" x="142.675973" y="41.751262" style="fill: #ff8c00; stroke: #ff8c00"/>
     <use xlink:href="#m15169e8fcc" x="92.966876" y="110.981541" style="fill: #ff8c00; stroke: #ff8c00"/>
     <use xlink:href="#m15169e8fcc" x="123.677298" y="57.349002" style="fill: #ff8c00; stroke: #ff8c00"/>
     <use xlink:href="#m15169e8fcc" x="48.779425" y="126.001686" style="fill: #ff8c00; stroke: #ff8c00"/>
     <use xlink:href="#m15169e8fcc" x="59.211589" y="119.260515" style="fill: #ff8c00; stroke: #ff8c00"/>
     <use xlink:href="#m15169e8fcc" x="116.114495" y="71.518486" style="fill: #ff8c00; stroke: #ff8c00"/>
     <use xlink:href="#m15169e8fcc" x="94.520532" y="102.607425" style="fill: #ff8c00; stroke: #ff8c00"/>
     <use xlink:href="#m15169e8fcc" x="58.705884" y="121.714105" style="fill: #ff8c00; stroke: #ff8c00"/>
     <use xlink:href="#m15169e8fcc" x="92.377201" y="95.788733" style="fill: #ff8c00; stroke: #ff8c00"/>
     <use xlink:href="#m15169e8fcc" x="55.186896" y="122.226837" style="fill: #ff8c00; stroke: #ff8c00"/>
     <use xlink:href="#m15169e8fcc" x="106.930398" y="99.964375" style="fill: #ff8c00; stroke: #ff8c00"/>
     <use xlink:href="#m15169e8fcc" x="117.214997" y="77.585571" style="fill: #ff8c00; stroke: #ff8c00"/>
     <use xlink:href="#m15169e8fcc" x="140.722464" y="62.647369" style="fill: #ff8c00; stroke: #ff8c00"/>
     <use xlink:href="#m15169e8fcc" x="110.808883" y="73.960456" style="fill: #ff8c00; stroke: #ff8c00"/>
     <use xlink:href="#m15169e8fcc" x="45.838928" y="128.910372" style="fill: #ff8c00; stroke: #ff8c00"/>
     <use xlink:href="#m15169e8fcc" x="115.752717" y="114.161688" style="fill: #ff8c00; stroke: #ff8c00"/>
     <use xlink:href="#m15169e8fcc" x="129.288818" y="46.97145" style="fill: #ff8c00; stroke: #ff8c00"/>
     <use xlink:href="#m15169e8fcc" x="96.935915" y="90.262176" style="fill: #ff8c00; stroke: #ff8c00"/>
     <use xlink:href="#m15169e8fcc" x="130.261093" y="66.237292" style="fill: #ff8c00; stroke: #ff8c00"/>
     <use xlink:href="#m15169e8fcc" x="120.57412" y="83.043697" style="fill: #ff8c00; stroke: #ff8c00"/>
     <use xlink:href="#m15169e8fcc" x="144.020374" y="66.832497" style="fill: #ff8c00; stroke: #ff8c00"/>
     <use xlink:href="#m15169e8fcc" x="58.994484" y="119.668129" style="fill: #ff8c00; stroke: #ff8c00"/>
     <use xlink:href="#m15169e8fcc" x="87.321258" y="99.329258" style="fill: #ff8c00; stroke: #ff8c00"/>
     <use xlink:href="#m15169e8fcc" x="140.906702" y="63.216602" style="fill: #ff8c00; stroke: #ff8c00"/>
     <use xlink:href="#m15169e8fcc" x="110.570849" y="117.009002" style="fill: #ff8c00; stroke: #ff8c00"/>
     <use xlink:href="#m15169e8fcc" x="97.72585" y="106.115661" style="fill: #ff8c00; stroke: #ff8c00"/>
     <use xlink:href="#m15169e8fcc" x="78.739953" y="115.952696" style="fill: #ff8c00; stroke: #ff8c00"/>
     <use xlink:href="#m15169e8fcc" x="60.694426" y="120.537463" style="fill: #ff8c00; stroke: #ff8c00"/>
     <use xlink:href="#m15169e8fcc" x="46.827153" y="128.250499" style="fill: #ff8c00; stroke: #ff8c00"/>
     <use xlink:href="#m15169e8fcc" x="44.052951" y="127.742397" style="fill: #ff8c00; stroke: #ff8c00"/>
     <use xlink:href="#m15169e8fcc" x="65.236348" y="121.37053" style="fill: #ff8c00; stroke: #ff8c00"/>
     <use xlink:href="#m15169e8fcc" x="131.165634" y="69.185594" style="fill: #ff8c00; stroke: #ff8c00"/>
     <use xlink:href="#m15169e8fcc" x="61.857575" y="119.20091" style="fill: #ff8c00; stroke: #ff8c00"/>
     <use xlink:href="#m15169e8fcc" x="54.527285" y="107.393069" style="fill: #ff8c00; stroke: #ff8c00"/>
     <use xlink:href="#m15169e8fcc" x="88.469849" y="98.350967" style="fill: #ff8c00; stroke: #ff8c00"/>
     <use xlink:href="#m15169e8fcc" x="96.455325" y="103.680845" style="fill: #ff8c00; stroke: #ff8c00"/>
     <use xlink:href="#m15169e8fcc" x="109.114971" y="61.635344" style="fill: #ff8c00; stroke: #ff8c00"/>
     <use xlink:href="#m15169e8fcc" x="92.339129" y="98.303051" style="fill: #ff8c00; stroke: #ff8c00"/>
     <use xlink:href="#m15169e8fcc" x="127.351544" y="59.111057" style="fill: #ff8c00; stroke: #ff8c00"/>
     <use xlink:href="#m15169e8fcc" x="75.733621" y="120.265261" style="fill: #ff8c00; stroke: #ff8c00"/>
     <use xlink:href="#m15169e8fcc" x="75.563721" y="116.007257" style="fill: #ff8c00; stroke: #ff8c00"/>
     <use xlink:href="#m15169e8fcc" x="50.46653" y="126.914702" style="fill: #ff8c00; stroke: #ff8c00"/>
     <use xlink:href="#m15169e8fcc" x="95.639998" y="95.863334" style="fill: #ff8c00; stroke: #ff8c00"/>
     <use xlink:href="#m15169e8fcc" x="111.634245" y="88.419967" style="fill: #ff8c00; stroke: #ff8c00"/>
     <use xlink:href="#m15169e8fcc" x="90.60676" y="112.520927" style="fill: #ff8c00; stroke: #ff8c00"/>
     <use xlink:href="#m15169e8fcc" x="94.216953" y="89.032307" style="fill: #ff8c00; stroke: #ff8c00"/>
     <use xlink:href="#m15169e8fcc" x="68.765946" y="116.557349" style="fill: #ff8c00; stroke: #ff8c00"/>
     <use xlink:href="#m15169e8fcc" x="118.910191" y="76.354969" style="fill: #ff8c00; stroke: #ff8c00"/>
     <use xlink:href="#m15169e8fcc" x="53.81579" y="123.643513" style="fill: #ff8c00; stroke: #ff8c00"/>
     <use xlink:href="#m15169e8fcc" x="109.897071" y="81.004304" style="fill: #ff8c00; stroke: #ff8c00"/>
     <use xlink:href="#m15169e8fcc" x="126.938784" y="52.639627" style="fill: #ff8c00; stroke: #ff8c00"/>
     <use xlink:href="#m15169e8fcc" x="123.329989" y="95.237314" style="fill: #ff8c00; stroke: #ff8c00"/>
     <use xlink:href="#m15169e8fcc" x="105.784976" y="91.955586" style="fill: #ff8c00; stroke: #ff8c00"/>
     <use xlink:href="#m15169e8fcc" x="76.404141" y="121.209423" style="fill: #ff8c00; stroke: #ff8c00"/>
     <use xlink:href="#m15169e8fcc" x="46.946098" y="129.079601" style="fill: #ff8c00; stroke: #ff8c00"/>
     <use xlink:href="#m15169e8fcc" x="123.65735" y="102.871112" style="fill: #ff8c00; stroke: #ff8c00"/>
     <use xlink:href="#m15169e8fcc" x="81.174558" y="114.243164" style="fill: #ff8c00; stroke: #ff8c00"/>
     <use xlink:href="#m15169e8fcc" x="75.407379" y="102.96943" style="fill: #ff8c00; stroke: #ff8c00"/>
     <use xlink:href="#m15169e8fcc" x="47.556627" y="121.507371" style="fill: #ff8c00; stroke: #ff8c00"/>
     <use xlink:href="#m15169e8fcc" x="93.423445" y="115.946733" style="fill: #ff8c00; stroke: #ff8c00"/>
     <use xlink:href="#m15169e8fcc" x="88.927155" y="102.585188" style="fill: #ff8c00; stroke: #ff8c00"/>
     <use xlink:href="#m15169e8fcc" x="140.488639" y="56.526512" style="fill: #ff8c00; stroke: #ff8c00"/>
     <use xlink:href="#m15169e8fcc" x="56.754977" y="120.885495" style="fill: #ff8c00; stroke: #ff8c00"/>
     <use xlink:href="#m15169e8fcc" x="74.160216" y="115.039118" style="fill: #ff8c00; stroke: #ff8c00"/>
     <use xlink:href="#m15169e8fcc" x="82.451204" y="118.975182" style="fill: #ff8c00; stroke: #ff8c00"/>
     <use xlink:href="#m15169e8fcc" x="74.635493" y="131.358903" style="fill: #ff8c00; stroke: #ff8c00"/>
     <use xlink:href="#m15169e8fcc" x="157.222339" y="47.910376" style="fill: #ff8c00; stroke: #ff8c00"/>
     <use xlink:href="#m15169e8fcc" x="119.44879" y="71.404741" style="fill: #ff8c00; stroke: #ff8c00"/>
     <use xlink:href="#m15169e8fcc" x="99.388082" y="108.498649" style="fill: #ff8c00; stroke: #ff8c00"/>
     <use xlink:href="#m15169e8fcc" x="104.282021" y="80.115798" style="fill: #ff8c00; stroke: #ff8c00"/>
     <use xlink:href="#m15169e8fcc" x="65.473171" y="115.863112" style="fill: #ff8c00; stroke: #ff8c00"/>
     <use xlink:href="#m15169e8fcc" x="84.537523" y="120.315852" style="fill: #ff8c00; stroke: #ff8c00"/>
     <use xlink:href="#m15169e8fcc" x="106.860679" y="87.882602" style="fill: #ff8c00; stroke: #ff8c00"/>
     <use xlink:href="#m15169e8fcc" x="54.369642" y="123.018281" style="fill: #ff8c00; stroke: #ff8c00"/>
     <use xlink:href="#m15169e8fcc" x="50.640194" y="125.003958" style="fill: #ff8c00; stroke: #ff8c00"/>
     <use xlink:href="#m15169e8fcc" x="96.026818" y="116.466812" style="fill: #ff8c00; stroke: #ff8c00"/>
     <use xlink:href="#m15169e8fcc" x="84.068653" y="112.66335" style="fill: #ff8c00; stroke: #ff8c00"/>
     <use xlink:href="#m15169e8fcc" x="118.898883" y="57.942096" style="fill: #ff8c00; stroke: #ff8c00"/>
     <use xlink:href="#m15169e8fcc" x="84.813263" y="95.887114" style="fill: #ff8c00; stroke: #ff8c00"/>
     <use xlink:href="#m15169e8fcc" x="66.022231" y="70.170202" style="fill: #ff8c00; stroke: #ff8c00"/>
     <use xlink:href="#m15169e8fcc" x="107.73378" y="81.816083" style="fill: #ff8c00; stroke: #ff8c00"/>
     <use xlink:href="#m15169e8fcc" x="66.862179" y="115.352408" style="fill: #ff8c00; stroke: #ff8c00"/>
     <use xlink:href="#m15169e8fcc" x="63.47771" y="101.89702" style="fill: #ff8c00; stroke: #ff8c00"/>
     <use xlink:href="#m15169e8fcc" x="81.512377" y="119.439398" style="fill: #ff8c00; stroke: #ff8c00"/>
     <use xlink:href="#m15169e8fcc" x="97.675301" y="125.436831" style="fill: #ff8c00; stroke: #ff8c00"/>
     <use xlink:href="#m15169e8fcc" x="119.9917" y="87.992202" style="fill: #ff8c00; stroke: #ff8c00"/>
     <use xlink:href="#m15169e8fcc" x="107.401864" y="99.345334" style="fill: #ff8c00; stroke: #ff8c00"/>
     <use xlink:href="#m15169e8fcc" x="52.124024" y="123.536634" style="fill: #ff8c00; stroke: #ff8c00"/>
     <use xlink:href="#m15169e8fcc" x="83.334417" y="90.599238" style="fill: #ff8c00; stroke: #ff8c00"/>
     <use xlink:href="#m15169e8fcc" x="122.14523" y="91.009539" style="fill: #ff8c00; stroke: #ff8c00"/>
     <use xlink:href="#m15169e8fcc" x="92.528034" y="118.974008" style="fill: #ff8c00; stroke: #ff8c00"/>
     <use xlink:href="#m15169e8fcc" x="142.638663" y="68.910303" style="fill: #ff8c00; stroke: #ff8c00"/>
     <use xlink:href="#m15169e8fcc" x="112.242906" y="72.48057" style="fill: #ff8c00; stroke: #ff8c00"/>
     <use xlink:href="#m15169e8fcc" x="63.218136" y="63.263999" style="fill: #ff8c00; stroke: #ff8c00"/>
     <use xlink:href="#m15169e8fcc" x="152.395658" y="45.867223" style="fill: #ff8c00; stroke: #ff8c00"/>
     <use xlink:href="#m15169e8fcc" x="87.649362" y="123.157001" style="fill: #ff8c00; stroke: #ff8c00"/>
     <use xlink:href="#m15169e8fcc" x="93.269848" y="103.652819" style="fill: #ff8c00; stroke: #ff8c00"/>
     <use xlink:href="#m15169e8fcc" x="98.019788" y="117.992108" style="fill: #ff8c00; stroke: #ff8c00"/>
     <use xlink:href="#m15169e8fcc" x="99.787018" y="102.558496" style="fill: #ff8c00; stroke: #ff8c00"/>
     <use xlink:href="#m15169e8fcc" x="70.653892" y="119.503584" style="fill: #ff8c00; stroke: #ff8c00"/>
     <use xlink:href="#m15169e8fcc" x="133.171729" y="47.169167" style="fill: #ff8c00; stroke: #ff8c00"/>
     <use xlink:href="#m15169e8fcc" x="78.30541" y="114.482635" style="fill: #ff8c00; stroke: #ff8c00"/>
     <use xlink:href="#m15169e8fcc" x="79.006676" y="128.376241" style="fill: #ff8c00; stroke: #ff8c00"/>
    </g>
   </g>
   <g id="PolyCollection_1">
    <path d="M 44.052951 130.809767 
L 44.052951 138.750892 
L 45.20723 137.85964 
L 46.36151 136.97742 
L 47.515789 136.094947 
L 48.670069 135.235837 
L 49.824348 134.357768 
L 50.978628 133.49786 
L 52.132907 132.638351 
L 53.287186 131.7636 
L 54.441466 130.86304 
L 55.595745 129.978779 
L 56.750025 129.11035 
L 57.904304 128.167275 
L 59.058584 127.309351 
L 60.212863 126.451426 
L 61.367143 125.619516 
L 62.521422 124.776421 
L 63.675702 123.903244 
L 64.829981 123.030761 
L 65.984261 122.164879 
L 67.13854 121.308024 
L 68.29282 120.449794 
L 69.447099 119.59626 
L 70.601379 118.75247 
L 71.755658 117.931097 
L 72.909937 117.10243 
L 74.064217 116.252769 
L 75.218496 115.391988 
L 76.372776 114.508249 
L 77.527055 113.730012 
L 78.681335 112.94272 
L 79.835614 112.107459 
L 80.989894 111.271223 
L 82.144173 110.452146 
L 83.298453 109.590717 
L 84.452732 108.754802 
L 85.607012 107.940838 
L 86.761291 107.13674 
L 87.915571 106.366923 
L 89.06985 105.571182 
L 90.22413 104.803403 
L 91.378409 103.99457 
L 92.532688 103.196453 
L 93.686968 102.403351 
L 94.841247 101.613113 
L 95.995527 100.791241 
L 97.149806 99.999497 
L 98.304086 99.22308 
L 99.458365 98.457023 
L 100.612645 97.668182 
L 101.766924 96.879419 
L 102.921204 96.097665 
L 104.075483 95.322015 
L 105.229763 94.602334 
L 106.384042 93.841922 
L 107.538322 93.101507 
L 108.692601 92.349069 
L 109.846881 91.62791 
L 111.00116 90.886845 
L 112.155439 90.154874 
L 113.309719 89.436754 
L 114.463998 88.718316 
L 115.618278 87.968702 
L 116.772557 87.282235 
L 117.926837 86.563897 
L 119.081116 85.785351 
L 120.235396 85.034006 
L 121.389675 84.351095 
L 122.543955 83.613816 
L 123.698234 82.865377 
L 124.852514 82.117103 
L 126.006793 81.363752 
L 127.161073 80.6098 
L 128.315352 79.863493 
L 129.469632 79.11225 
L 130.623911 78.384185 
L 131.77819 77.65612 
L 132.93247 76.928054 
L 134.086749 76.199989 
L 135.241029 75.457899 
L 136.395308 74.70413 
L 137.549588 73.982551 
L 138.703867 73.255365 
L 139.858147 72.503669 
L 141.012426 71.751682 
L 142.166706 70.997255 
L 143.320985 70.248479 
L 144.475265 69.497144 
L 145.629544 68.767151 
L 146.783824 68.024061 
L 147.938103 67.280484 
L 149.092383 66.536908 
L 150.246662 65.794334 
L 151.400941 65.065516 
L 152.555221 64.336978 
L 153.7095 63.607015 
L 154.86378 62.85533 
L 156.018059 62.077679 
L 157.172339 61.33459 
L 158.326618 60.593842 
L 158.326618 50.089141 
L 158.326618 50.089141 
L 157.172339 50.966642 
L 156.018059 51.829394 
L 154.86378 52.692666 
L 153.7095 53.555937 
L 152.555221 54.419209 
L 151.400941 55.297307 
L 150.246662 56.202643 
L 149.092383 57.108714 
L 147.938103 58.015292 
L 146.783824 58.881676 
L 145.629544 59.752184 
L 144.475265 60.650019 
L 143.320985 61.502867 
L 142.166706 62.386071 
L 141.012426 63.275247 
L 139.858147 64.169131 
L 138.703867 65.063118 
L 137.549588 65.92265 
L 136.395308 66.766166 
L 135.241029 67.612887 
L 134.086749 68.48039 
L 132.93247 69.375251 
L 131.77819 70.263086 
L 130.623911 71.123805 
L 129.469632 71.968397 
L 128.315352 72.827842 
L 127.161073 73.693035 
L 126.006793 74.5723 
L 124.852514 75.434295 
L 123.698234 76.317771 
L 122.543955 77.175675 
L 121.389675 78.02301 
L 120.235396 78.890376 
L 119.081116 79.742807 
L 117.926837 80.584583 
L 116.772557 81.433864 
L 115.618278 82.26068 
L 114.463998 83.086959 
L 113.309719 83.937454 
L 112.155439 84.778097 
L 111.00116 85.625813 
L 109.846881 86.471054 
L 108.692601 87.354275 
L 107.538322 88.182359 
L 106.384042 89.002493 
L 105.229763 89.842473 
L 104.075483 90.674851 
L 102.921204 91.493329 
L 101.766924 92.317247 
L 100.612645 93.130096 
L 99.458365 93.935423 
L 98.304086 94.764938 
L 97.149806 95.60034 
L 95.995527 96.44454 
L 94.841247 97.270274 
L 93.686968 98.095463 
L 92.532688 98.920381 
L 91.378409 99.707221 
L 90.22413 100.495332 
L 89.06985 101.319553 
L 87.915571 102.101556 
L 86.761291 102.883661 
L 85.607012 103.681577 
L 84.452732 104.447725 
L 83.298453 105.321827 
L 82.144173 106.128179 
L 80.989894 106.960718 
L 79.835614 107.714148 
L 78.681335 108.467578 
L 77.527055 109.221764 
L 76.372776 110.039521 
L 75.218496 110.787185 
L 74.064217 111.514853 
L 72.909937 112.295657 
L 71.755658 113.054887 
L 70.601379 113.831108 
L 69.447099 114.605618 
L 68.29282 115.324626 
L 67.13854 116.067556 
L 65.984261 116.78257 
L 64.829981 117.543422 
L 63.675702 118.246586 
L 62.521422 118.966656 
L 61.367143 119.74975 
L 60.212863 120.468396 
L 59.058584 121.231469 
L 57.904304 121.994677 
L 56.750025 122.75752 
L 55.595745 123.481668 
L 54.441466 124.209249 
L 53.287186 124.938473 
L 52.132907 125.668388 
L 50.978628 126.39813 
L 49.824348 127.126683 
L 48.670069 127.857088 
L 47.515789 128.588087 
L 46.36151 129.356806 
L 45.20723 130.083247 
L 44.052951 130.809767 
z
" clip-path="url(#p899eb194f8)" style="fill: #ff8c00; fill-opacity: 0.15"/>
   </g>
   <g id="PathCollection_2">
    <defs>
     <path id="m2183204ce0" d="M 0 0.866025 
C 0.229673 0.866025 0.449969 0.774776 0.612372 0.612372 
C 0.774776 0.449969 0.866025 0.229673 0.866025 0 
C 0.866025 -0.229673 0.774776 -0.449969 0.612372 -0.612372 
C 0.449969 -0.774776 0.229673 -0.866025 0 -0.866025 
C -0.229673 -0.866025 -0.449969 -0.774776 -0.612372 -0.612372 
C -0.774776 -0.449969 -0.866025 -0.229673 -0.866025 0 
C -0.866025 0.229673 -0.774776 0.449969 -0.612372 0.612372 
C -0.449969 0.774776 -0.229673 0.866025 0 0.866025 
z
" style="stroke: #4682b4"/>
    </defs>
    <g clip-path="url(#p899eb194f8)">
     <use xlink:href="#m2183204ce0" x="95.825264" y="125.041338" style="fill: #4682b4; stroke: #4682b4"/>
     <use xlink:href="#m2183204ce0" x="62.334178" y="126.226945" style="fill: #4682b4; stroke: #4682b4"/>
     <use xlink:href="#m2183204ce0" x="50.110677" y="127.7076" style="fill: #4682b4; stroke: #4682b4"/>
     <use xlink:href="#m2183204ce0" x="79.638665" y="115.086426" style="fill: #4682b4; stroke: #4682b4"/>
     <use xlink:href="#m2183204ce0" x="64.107026" y="124.311053" style="fill: #4682b4; stroke: #4682b4"/>
     <use xlink:href="#m2183204ce0" x="50.886019" y="127.300021" style="fill: #4682b4; stroke: #4682b4"/>
     <use xlink:href="#m2183204ce0" x="99.194324" y="123.080806" style="fill: #4682b4; stroke: #4682b4"/>
     <use xlink:href="#m2183204ce0" x="57.15088" y="126.318658" style="fill: #4682b4; stroke: #4682b4"/>
     <use xlink:href="#m2183204ce0" x="64.92566" y="120.613489" style="fill: #4682b4; stroke: #4682b4"/>
     <use xlink:href="#m2183204ce0" x="50.536389" y="127.704572" style="fill: #4682b4; stroke: #4682b4"/>
     <use xlink:href="#m2183204ce0" x="53.039803" y="125.126007" style="fill: #4682b4; stroke: #4682b4"/>
     <use xlink:href="#m2183204ce0" x="50.321467" y="128.429591" style="fill: #4682b4; stroke: #4682b4"/>
     <use xlink:href="#m2183204ce0" x="53.544044" y="126.94979" style="fill: #4682b4; stroke: #4682b4"/>
     <use xlink:href="#m2183204ce0" x="73.515676" y="88.114915" style="fill: #4682b4; stroke: #4682b4"/>
     <use xlink:href="#m2183204ce0" x="48.825413" y="125.268745" style="fill: #4682b4; stroke: #4682b4"/>
     <use xlink:href="#m2183204ce0" x="54.037732" y="126.937348" style="fill: #4682b4; stroke: #4682b4"/>
     <use xlink:href="#m2183204ce0" x="59.396078" y="127.067575" style="fill: #4682b4; stroke: #4682b4"/>
     <use xlink:href="#m2183204ce0" x="60.442057" y="124.685775" style="fill: #4682b4; stroke: #4682b4"/>
     <use xlink:href="#m2183204ce0" x="95.81911" y="94.357472" style="fill: #4682b4; stroke: #4682b4"/>
     <use xlink:href="#m2183204ce0" x="61.359594" y="129.62629" style="fill: #4682b4; stroke: #4682b4"/>
     <use xlink:href="#m2183204ce0" x="67.005161" y="129.444151" style="fill: #4682b4; stroke: #4682b4"/>
     <use xlink:href="#m2183204ce0" x="79.885239" y="131.412206" style="fill: #4682b4; stroke: #4682b4"/>
     <use xlink:href="#m2183204ce0" x="67.492305" y="126.33599" style="fill: #4682b4; stroke: #4682b4"/>
     <use xlink:href="#m2183204ce0" x="49.712448" y="128.227452" style="fill: #4682b4; stroke: #4682b4"/>
     <use xlink:href="#m2183204ce0" x="51.598342" y="128.315968" style="fill: #4682b4; stroke: #4682b4"/>
     <use xlink:href="#m2183204ce0" x="49.058963" y="128.201251" style="fill: #4682b4; stroke: #4682b4"/>
     <use xlink:href="#m2183204ce0" x="82.770862" y="109.214336" style="fill: #4682b4; stroke: #4682b4"/>
     <use xlink:href="#m2183204ce0" x="57.20048" y="127.393567" style="fill: #4682b4; stroke: #4682b4"/>
     <use xlink:href="#m2183204ce0" x="62.597746" y="127.354216" style="fill: #4682b4; stroke: #4682b4"/>
     <use xlink:href="#m2183204ce0" x="62.956129" y="130.830035" style="fill: #4682b4; stroke: #4682b4"/>
     <use xlink:href="#m2183204ce0" x="69.548585" y="127.897754" style="fill: #4682b4; stroke: #4682b4"/>
     <use xlink:href="#m2183204ce0" x="63.157229" y="126.682098" style="fill: #4682b4; stroke: #4682b4"/>
     <use xlink:href="#m2183204ce0" x="53.621955" y="125.303194" style="fill: #4682b4; stroke: #4682b4"/>
     <use xlink:href="#m2183204ce0" x="112.483764" y="131.365674" style="fill: #4682b4; stroke: #4682b4"/>
     <use xlink:href="#m2183204ce0" x="69.474119" y="126.302012" style="fill: #4682b4; stroke: #4682b4"/>
     <use xlink:href="#m2183204ce0" x="63.153966" y="130.75966" style="fill: #4682b4; stroke: #4682b4"/>
     <use xlink:href="#m2183204ce0" x="48.670814" y="130.788184" style="fill: #4682b4; stroke: #4682b4"/>
     <use xlink:href="#m2183204ce0" x="86.483241" y="128.028245" style="fill: #4682b4; stroke: #4682b4"/>
     <use xlink:href="#m2183204ce0" x="53.090881" y="128.984881" style="fill: #4682b4; stroke: #4682b4"/>
     <use xlink:href="#m2183204ce0" x="73.527676" y="125.000801" style="fill: #4682b4; stroke: #4682b4"/>
     <use xlink:href="#m2183204ce0" x="52.423476" y="123.84365" style="fill: #4682b4; stroke: #4682b4"/>
     <use xlink:href="#m2183204ce0" x="50.473409" y="121.764104" style="fill: #4682b4; stroke: #4682b4"/>
     <use xlink:href="#m2183204ce0" x="94.92992" y="108.653609" style="fill: #4682b4; stroke: #4682b4"/>
     <use xlink:href="#m2183204ce0" x="88.604616" y="129.137899" style="fill: #4682b4; stroke: #4682b4"/>
     <use xlink:href="#m2183204ce0" x="95.946257" y="124.170005" style="fill: #4682b4; stroke: #4682b4"/>
     <use xlink:href="#m2183204ce0" x="69.313871" y="130.763476" style="fill: #4682b4; stroke: #4682b4"/>
     <use xlink:href="#m2183204ce0" x="83.972504" y="115.806849" style="fill: #4682b4; stroke: #4682b4"/>
     <use xlink:href="#m2183204ce0" x="103.052863" y="97.7317" style="fill: #4682b4; stroke: #4682b4"/>
     <use xlink:href="#m2183204ce0" x="46.990845" y="128.65375" style="fill: #4682b4; stroke: #4682b4"/>
     <use xlink:href="#m2183204ce0" x="73.070984" y="122.138886" style="fill: #4682b4; stroke: #4682b4"/>
     <use xlink:href="#m2183204ce0" x="88.165078" y="117.420161" style="fill: #4682b4; stroke: #4682b4"/>
     <use xlink:href="#m2183204ce0" x="72.615489" y="118.950513" style="fill: #4682b4; stroke: #4682b4"/>
     <use xlink:href="#m2183204ce0" x="99.5034" y="89.344071" style="fill: #4682b4; stroke: #4682b4"/>
     <use xlink:href="#m2183204ce0" x="56.051661" y="125.889618" style="fill: #4682b4; stroke: #4682b4"/>
     <use xlink:href="#m2183204ce0" x="84.599451" y="126.027979" style="fill: #4682b4; stroke: #4682b4"/>
     <use xlink:href="#m2183204ce0" x="66.421027" y="129.859312" style="fill: #4682b4; stroke: #4682b4"/>
     <use xlink:href="#m2183204ce0" x="81.554117" y="128.182227" style="fill: #4682b4; stroke: #4682b4"/>
     <use xlink:href="#m2183204ce0" x="55.61777" y="127.501128" style="fill: #4682b4; stroke: #4682b4"/>
     <use xlink:href="#m2183204ce0" x="75.417728" y="132.535554" style="fill: #4682b4; stroke: #4682b4"/>
     <use xlink:href="#m2183204ce0" x="55.706757" y="127.668327" style="fill: #4682b4; stroke: #4682b4"/>
     <use xlink:href="#m2183204ce0" x="96.440262" y="121.50212" style="fill: #4682b4; stroke: #4682b4"/>
     <use xlink:href="#m2183204ce0" x="81.069477" y="128.371591" style="fill: #4682b4; stroke: #4682b4"/>
     <use xlink:href="#m2183204ce0" x="62.171512" y="126.302669" style="fill: #4682b4; stroke: #4682b4"/>
     <use xlink:href="#m2183204ce0" x="59.712929" y="125.967188" style="fill: #4682b4; stroke: #4682b4"/>
     <use xlink:href="#m2183204ce0" x="66.701873" y="123.155455" style="fill: #4682b4; stroke: #4682b4"/>
     <use xlink:href="#m2183204ce0" x="63.048554" y="125.569453" style="fill: #4682b4; stroke: #4682b4"/>
     <use xlink:href="#m2183204ce0" x="62.11993" y="127.381928" style="fill: #4682b4; stroke: #4682b4"/>
     <use xlink:href="#m2183204ce0" x="70.870426" y="125.87364" style="fill: #4682b4; stroke: #4682b4"/>
     <use xlink:href="#m2183204ce0" x="93.538873" y="114.562183" style="fill: #4682b4; stroke: #4682b4"/>
     <use xlink:href="#m2183204ce0" x="43.999774" y="127.717873" style="fill: #4682b4; stroke: #4682b4"/>
     <use xlink:href="#m2183204ce0" x="82.470131" y="125.79519" style="fill: #4682b4; stroke: #4682b4"/>
     <use xlink:href="#m2183204ce0" x="86.060731" y="128.065955" style="fill: #4682b4; stroke: #4682b4"/>
     <use xlink:href="#m2183204ce0" x="73.01234" y="132.362667" style="fill: #4682b4; stroke: #4682b4"/>
     <use xlink:href="#m2183204ce0" x="56.238187" y="123.926786" style="fill: #4682b4; stroke: #4682b4"/>
     <use xlink:href="#m2183204ce0" x="64.519572" y="129.697039" style="fill: #4682b4; stroke: #4682b4"/>
     <use xlink:href="#m2183204ce0" x="76.891492" y="127.488358" style="fill: #4682b4; stroke: #4682b4"/>
     <use xlink:href="#m2183204ce0" x="53.618148" y="127.123923" style="fill: #4682b4; stroke: #4682b4"/>
     <use xlink:href="#m2183204ce0" x="54.685465" y="124.667177" style="fill: #4682b4; stroke: #4682b4"/>
     <use xlink:href="#m2183204ce0" x="55.370715" y="127.659652" style="fill: #4682b4; stroke: #4682b4"/>
     <use xlink:href="#m2183204ce0" x="64.184928" y="129.631393" style="fill: #4682b4; stroke: #4682b4"/>
     <use xlink:href="#m2183204ce0" x="47.759404" y="125.351527" style="fill: #4682b4; stroke: #4682b4"/>
     <use xlink:href="#m2183204ce0" x="53.574224" y="128.01379" style="fill: #4682b4; stroke: #4682b4"/>
     <use xlink:href="#m2183204ce0" x="49.214895" y="125.796754" style="fill: #4682b4; stroke: #4682b4"/>
     <use xlink:href="#m2183204ce0" x="47.72153" y="130.060251" style="fill: #4682b4; stroke: #4682b4"/>
     <use xlink:href="#m2183204ce0" x="90.630364" y="97.637751" style="fill: #4682b4; stroke: #4682b4"/>
     <use xlink:href="#m2183204ce0" x="78.528789" y="118.236254" style="fill: #4682b4; stroke: #4682b4"/>
     <use xlink:href="#m2183204ce0" x="51.482392" y="130.337974" style="fill: #4682b4; stroke: #4682b4"/>
     <use xlink:href="#m2183204ce0" x="63.042118" y="127.563265" style="fill: #4682b4; stroke: #4682b4"/>
     <use xlink:href="#m2183204ce0" x="48.459893" y="125.505645" style="fill: #4682b4; stroke: #4682b4"/>
     <use xlink:href="#m2183204ce0" x="50.341866" y="126.827171" style="fill: #4682b4; stroke: #4682b4"/>
     <use xlink:href="#m2183204ce0" x="46.761097" y="125.271483" style="fill: #4682b4; stroke: #4682b4"/>
     <use xlink:href="#m2183204ce0" x="78.405898" y="122.951451" style="fill: #4682b4; stroke: #4682b4"/>
     <use xlink:href="#m2183204ce0" x="69.510484" y="128.399691" style="fill: #4682b4; stroke: #4682b4"/>
     <use xlink:href="#m2183204ce0" x="45.393243" y="127.612796" style="fill: #4682b4; stroke: #4682b4"/>
     <use xlink:href="#m2183204ce0" x="67.085926" y="128.757006" style="fill: #4682b4; stroke: #4682b4"/>
     <use xlink:href="#m2183204ce0" x="100.789119" y="119.366072" style="fill: #4682b4; stroke: #4682b4"/>
     <use xlink:href="#m2183204ce0" x="47.369478" y="128.822247" style="fill: #4682b4; stroke: #4682b4"/>
     <use xlink:href="#m2183204ce0" x="65.349811" y="128.337901" style="fill: #4682b4; stroke: #4682b4"/>
     <use xlink:href="#m2183204ce0" x="52.069897" y="124.900911" style="fill: #4682b4; stroke: #4682b4"/>
     <use xlink:href="#m2183204ce0" x="80.110488" y="122.248995" style="fill: #4682b4; stroke: #4682b4"/>
    </g>
   </g>
   <g id="PolyCollection_2">
    <path d="M 43.999774 127.850054 
L 43.999774 132.006593 
L 44.691531 131.775941 
L 45.383289 131.502199 
L 46.075046 131.23287 
L 46.766804 131.02078 
L 47.458561 130.783555 
L 48.150319 130.588764 
L 48.842076 130.359192 
L 49.533834 130.102727 
L 50.225591 129.847541 
L 50.917349 129.621862 
L 51.609106 129.395521 
L 52.300864 129.184336 
L 52.992621 128.96607 
L 53.684379 128.760578 
L 54.376136 128.53645 
L 55.067893 128.321684 
L 55.759651 128.107166 
L 56.451408 127.87334 
L 57.143166 127.67418 
L 57.834923 127.489106 
L 58.526681 127.280131 
L 59.218438 127.086405 
L 59.910196 126.92143 
L 60.601953 126.778539 
L 61.293711 126.598523 
L 61.985468 126.469717 
L 62.677226 126.366093 
L 63.368983 126.229366 
L 64.060741 126.116896 
L 64.752498 125.998472 
L 65.444256 125.890769 
L 66.136013 125.787152 
L 66.827771 125.674143 
L 67.519528 125.566496 
L 68.211286 125.478799 
L 68.903043 125.359392 
L 69.594801 125.261394 
L 70.286558 125.191811 
L 70.978316 125.095431 
L 71.670073 125.008327 
L 72.36183 124.918937 
L 73.053588 124.827636 
L 73.745345 124.759071 
L 74.437103 124.661944 
L 75.12886 124.56413 
L 75.820618 124.467343 
L 76.512375 124.383282 
L 77.204133 124.299122 
L 77.89589 124.201459 
L 78.587648 124.099716 
L 79.279405 123.997972 
L 79.971163 123.908885 
L 80.66292 123.819167 
L 81.354678 123.721812 
L 82.046435 123.624821 
L 82.738193 123.538558 
L 83.42995 123.452294 
L 84.121708 123.368144 
L 84.813465 123.285052 
L 85.505223 123.202061 
L 86.19698 123.119224 
L 86.888738 123.036284 
L 87.580495 122.951148 
L 88.272253 122.859523 
L 88.96401 122.767898 
L 89.655767 122.676824 
L 90.347525 122.590702 
L 91.039282 122.50567 
L 91.73104 122.425707 
L 92.422797 122.345743 
L 93.114555 122.26578 
L 93.806312 122.185816 
L 94.49807 122.105853 
L 95.189827 122.025889 
L 95.881585 121.945926 
L 96.573342 121.865962 
L 97.2651 121.785999 
L 97.956857 121.706035 
L 98.648615 121.625953 
L 99.340372 121.539511 
L 100.03213 121.450423 
L 100.723887 121.361335 
L 101.415645 121.272246 
L 102.107402 121.183158 
L 102.79916 121.09407 
L 103.490917 121.004981 
L 104.182675 120.915893 
L 104.874432 120.826804 
L 105.566189 120.737716 
L 106.257947 120.648628 
L 106.949704 120.559539 
L 107.641462 120.470451 
L 108.333219 120.381362 
L 109.024977 120.292274 
L 109.716734 120.203186 
L 110.408492 120.114097 
L 111.100249 120.025009 
L 111.792007 119.93592 
L 112.483764 119.846832 
L 112.483764 106.345359 
L 112.483764 106.345359 
L 111.792007 106.606389 
L 111.100249 106.867525 
L 110.408492 107.128661 
L 109.716734 107.382382 
L 109.024977 107.634909 
L 108.333219 107.887728 
L 107.641462 108.14067 
L 106.949704 108.393611 
L 106.257947 108.646553 
L 105.566189 108.899494 
L 104.874432 109.153286 
L 104.182675 109.415278 
L 103.490917 109.6823 
L 102.79916 109.949321 
L 102.107402 110.216343 
L 101.415645 110.483365 
L 100.723887 110.750387 
L 100.03213 111.013389 
L 99.340372 111.256645 
L 98.648615 111.499901 
L 97.956857 111.743157 
L 97.2651 111.986414 
L 96.573342 112.231642 
L 95.881585 112.487833 
L 95.189827 112.744025 
L 94.49807 113.000217 
L 93.806312 113.256408 
L 93.114555 113.512767 
L 92.422797 113.769207 
L 91.73104 114.02591 
L 91.039282 114.262401 
L 90.347525 114.523017 
L 89.655767 114.795262 
L 88.96401 115.051829 
L 88.272253 115.308614 
L 87.580495 115.553786 
L 86.888738 115.796578 
L 86.19698 116.051126 
L 85.505223 116.297922 
L 84.813465 116.530681 
L 84.121708 116.765546 
L 83.42995 117.007485 
L 82.738193 117.24996 
L 82.046435 117.496353 
L 81.354678 117.749097 
L 80.66292 118.007002 
L 79.971163 118.272288 
L 79.279405 118.526703 
L 78.587648 118.771864 
L 77.89589 119.017024 
L 77.204133 119.266279 
L 76.512375 119.518931 
L 75.820618 119.772641 
L 75.12886 120.032245 
L 74.437103 120.27773 
L 73.745345 120.530337 
L 73.053588 120.774582 
L 72.36183 121.015875 
L 71.670073 121.268954 
L 70.978316 121.491301 
L 70.286558 121.720508 
L 69.594801 121.956578 
L 68.903043 122.199735 
L 68.211286 122.436114 
L 67.519528 122.690776 
L 66.827771 122.917046 
L 66.136013 123.130976 
L 65.444256 123.349206 
L 64.752498 123.601193 
L 64.060741 123.836817 
L 63.368983 124.072325 
L 62.677226 124.292252 
L 61.985468 124.541256 
L 61.293711 124.74106 
L 60.601953 124.93316 
L 59.910196 125.118965 
L 59.218438 125.314223 
L 58.526681 125.459504 
L 57.834923 125.631946 
L 57.143166 125.809221 
L 56.451408 125.977068 
L 55.759651 126.14623 
L 55.067893 126.300487 
L 54.376136 126.424871 
L 53.684379 126.536466 
L 52.992621 126.644281 
L 52.300864 126.753878 
L 51.609106 126.879094 
L 50.917349 126.964458 
L 50.225591 127.077283 
L 49.533834 127.171653 
L 48.842076 127.24819 
L 48.150319 127.340518 
L 47.458561 127.433376 
L 46.766804 127.539555 
L 46.075046 127.620626 
L 45.383289 127.693489 
L 44.691531 127.760986 
L 43.999774 127.850054 
z
" clip-path="url(#p899eb194f8)" style="fill: #4682b4; fill-opacity: 0.15"/>
   </g>
   <g id="PolyCollection_3"/>
   <g id="matplotlib.axis_1">
    <g id="xtick_1">
     <g id="line2d_1">
      <defs>
       <path id="mec4fce2ad2" d="M 0 0 
L 0 3.5 
" style="stroke: #000000; stroke-width: 0.8"/>
      </defs>
      <g>
       <use xlink:href="#mec4fce2ad2" x="65.8625" y="137.93875" style="stroke: #000000; stroke-width: 0.8"/>
      </g>
     </g>
     <g id="text_1">
      <text style="font: 6px 'Arial', sans-serif; text-anchor: middle" x="65.8625" y="149.233438" transform="rotate(-0 65.8625 149.233438)">2</text>
     </g>
    </g>
    <g id="xtick_2">
     <g id="line2d_2">
      <g>
       <use xlink:href="#mec4fce2ad2" x="103.5975" y="137.93875" style="stroke: #000000; stroke-width: 0.8"/>
      </g>
     </g>
     <g id="text_2">
      <text style="font: 6px 'Arial', sans-serif; text-anchor: middle" x="103.5975" y="149.233438" transform="rotate(-0 103.5975 149.233438)">4</text>
     </g>
    </g>
    <g id="xtick_3">
     <g id="line2d_3">
      <g>
       <use xlink:href="#mec4fce2ad2" x="141.3325" y="137.93875" style="stroke: #000000; stroke-width: 0.8"/>
      </g>
     </g>
     <g id="text_3">
      <text style="font: 6px 'Arial', sans-serif; text-anchor: middle" x="141.3325" y="149.233438" transform="rotate(-0 141.3325 149.233438)">6</text>
     </g>
    </g>
    <g id="text_4">
     <text style="font: 8px 'Arial', sans-serif; text-anchor: middle" x="98.880625" y="160.249687" transform="rotate(-0 98.880625 160.249687)">Enhancer activity (0kb)</text>
    </g>
   </g>
   <g id="matplotlib.axis_2">
    <g id="ytick_1">
     <g id="line2d_4">
      <defs>
       <path id="mbdc35f543d" d="M 0 0 
L -3.5 0 
" style="stroke: #000000; stroke-width: 0.8"/>
      </defs>
      <g>
       <use xlink:href="#mbdc35f543d" x="37.56125" y="108.599038" style="stroke: #000000; stroke-width: 0.8"/>
      </g>
     </g>
     <g id="text_5">
      <text style="font: 6px 'Arial', sans-serif; text-anchor: end" x="30.56125" y="110.746382" transform="rotate(-0 30.56125 110.746382)">2</text>
     </g>
    </g>
    <g id="ytick_2">
     <g id="line2d_5">
      <g>
       <use xlink:href="#mbdc35f543d" x="37.56125" y="69.479423" style="stroke: #000000; stroke-width: 0.8"/>
      </g>
     </g>
     <g id="text_6">
      <text style="font: 6px 'Arial', sans-serif; text-anchor: end" x="30.56125" y="71.626767" transform="rotate(-0 30.56125 71.626767)">4</text>
     </g>
    </g>
    <g id="ytick_3">
     <g id="line2d_6">
      <g>
       <use xlink:href="#mbdc35f543d" x="37.56125" y="30.359808" style="stroke: #000000; stroke-width: 0.8"/>
      </g>
     </g>
     <g id="text_7">
      <text style="font: 6px 'Arial', sans-serif; text-anchor: end" x="30.56125" y="32.507151" transform="rotate(-0 30.56125 32.507151)">6</text>
     </g>
    </g>
    <g id="text_8">
     <text style="font: 8px 'Arial', sans-serif; text-anchor: middle" x="21.540938" y="74.369375" transform="rotate(-90 21.540938 74.369375)">Enhancer activity (10kb)</text>
    </g>
   </g>
   <g id="line2d_7">
    <path d="M 44.052951 134.718638 
L 45.20723 133.914467 
L 46.36151 133.110297 
L 47.515789 132.306126 
L 48.670069 131.501956 
L 49.824348 130.697785 
L 50.978628 129.893615 
L 52.132907 129.089444 
L 53.287186 128.285274 
L 54.441466 127.481103 
L 55.595745 126.676932 
L 56.750025 125.872762 
L 57.904304 125.068591 
L 59.058584 124.264421 
L 60.212863 123.46025 
L 61.367143 122.65608 
L 62.521422 121.851909 
L 63.675702 121.047739 
L 64.829981 120.243568 
L 65.984261 119.439398 
L 67.13854 118.635227 
L 68.29282 117.831057 
L 69.447099 117.026886 
L 70.601379 116.222716 
L 71.755658 115.418545 
L 72.909937 114.614375 
L 74.064217 113.810204 
L 75.218496 113.006033 
L 76.372776 112.201863 
L 77.527055 111.397692 
L 78.681335 110.593522 
L 79.835614 109.789351 
L 80.989894 108.985181 
L 82.144173 108.18101 
L 83.298453 107.37684 
L 84.452732 106.572669 
L 85.607012 105.768499 
L 86.761291 104.964328 
L 87.915571 104.160158 
L 89.06985 103.355987 
L 90.22413 102.551817 
L 91.378409 101.747646 
L 92.532688 100.943476 
L 93.686968 100.139305 
L 94.841247 99.335134 
L 95.995527 98.530964 
L 97.149806 97.726793 
L 98.304086 96.922623 
L 99.458365 96.118452 
L 100.612645 95.314282 
L 101.766924 94.510111 
L 102.921204 93.705941 
L 104.075483 92.90177 
L 105.229763 92.0976 
L 106.384042 91.293429 
L 107.538322 90.489259 
L 108.692601 89.685088 
L 109.846881 88.880918 
L 111.00116 88.076747 
L 112.155439 87.272576 
L 113.309719 86.468406 
L 114.463998 85.664235 
L 115.618278 84.860065 
L 116.772557 84.055894 
L 117.926837 83.251724 
L 119.081116 82.447553 
L 120.235396 81.643383 
L 121.389675 80.839212 
L 122.543955 80.035042 
L 123.698234 79.230871 
L 124.852514 78.426701 
L 126.006793 77.62253 
L 127.161073 76.81836 
L 128.315352 76.014189 
L 129.469632 75.210019 
L 130.623911 74.405848 
L 131.77819 73.601677 
L 132.93247 72.797507 
L 134.086749 71.993336 
L 135.241029 71.189166 
L 136.395308 70.384995 
L 137.549588 69.580825 
L 138.703867 68.776654 
L 139.858147 67.972484 
L 141.012426 67.168313 
L 142.166706 66.364143 
L 143.320985 65.559972 
L 144.475265 64.755802 
L 145.629544 63.951631 
L 146.783824 63.147461 
L 147.938103 62.34329 
L 149.092383 61.53912 
L 150.246662 60.734949 
L 151.400941 59.930778 
L 152.555221 59.126608 
L 153.7095 58.322437 
L 154.86378 57.518267 
L 156.018059 56.714096 
L 157.172339 55.909926 
L 158.326618 55.105755 
" clip-path="url(#p899eb194f8)" style="fill: none; stroke: #ff8c00; stroke-width: 2.25; stroke-linecap: square"/>
   </g>
   <g id="line2d_8">
    <path d="M 43.999774 129.870716 
L 44.691531 129.703005 
L 45.383289 129.535294 
L 46.075046 129.367583 
L 46.766804 129.199872 
L 47.458561 129.032161 
L 48.150319 128.86445 
L 48.842076 128.696739 
L 49.533834 128.529028 
L 50.225591 128.361317 
L 50.917349 128.193606 
L 51.609106 128.025895 
L 52.300864 127.858184 
L 52.992621 127.690473 
L 53.684379 127.522762 
L 54.376136 127.355051 
L 55.067893 127.18734 
L 55.759651 127.019629 
L 56.451408 126.851918 
L 57.143166 126.684208 
L 57.834923 126.516497 
L 58.526681 126.348786 
L 59.218438 126.181075 
L 59.910196 126.013364 
L 60.601953 125.845653 
L 61.293711 125.677942 
L 61.985468 125.510231 
L 62.677226 125.34252 
L 63.368983 125.174809 
L 64.060741 125.007098 
L 64.752498 124.839387 
L 65.444256 124.671676 
L 66.136013 124.503965 
L 66.827771 124.336254 
L 67.519528 124.168543 
L 68.211286 124.000832 
L 68.903043 123.833121 
L 69.594801 123.66541 
L 70.286558 123.497699 
L 70.978316 123.329988 
L 71.670073 123.162277 
L 72.36183 122.994566 
L 73.053588 122.826855 
L 73.745345 122.659144 
L 74.437103 122.491433 
L 75.12886 122.323722 
L 75.820618 122.156011 
L 76.512375 121.9883 
L 77.204133 121.820589 
L 77.89589 121.652878 
L 78.587648 121.485167 
L 79.279405 121.317456 
L 79.971163 121.149745 
L 80.66292 120.982034 
L 81.354678 120.814323 
L 82.046435 120.646612 
L 82.738193 120.478901 
L 83.42995 120.31119 
L 84.121708 120.143479 
L 84.813465 119.975768 
L 85.505223 119.808057 
L 86.19698 119.640346 
L 86.888738 119.472635 
L 87.580495 119.304924 
L 88.272253 119.137213 
L 88.96401 118.969503 
L 89.655767 118.801792 
L 90.347525 118.634081 
L 91.039282 118.46637 
L 91.73104 118.298659 
L 92.422797 118.130948 
L 93.114555 117.963237 
L 93.806312 117.795526 
L 94.49807 117.627815 
L 95.189827 117.460104 
L 95.881585 117.292393 
L 96.573342 117.124682 
L 97.2651 116.956971 
L 97.956857 116.78926 
L 98.648615 116.621549 
L 99.340372 116.453838 
L 100.03213 116.286127 
L 100.723887 116.118416 
L 101.415645 115.950705 
L 102.107402 115.782994 
L 102.79916 115.615283 
L 103.490917 115.447572 
L 104.182675 115.279861 
L 104.874432 115.11215 
L 105.566189 114.944439 
L 106.257947 114.776728 
L 106.949704 114.609017 
L 107.641462 114.441306 
L 108.333219 114.273595 
L 109.024977 114.105884 
L 109.716734 113.938173 
L 110.408492 113.770462 
L 111.100249 113.602751 
L 111.792007 113.43504 
L 112.483764 113.267329 
" clip-path="url(#p899eb194f8)" style="fill: none; stroke: #4682b4; stroke-width: 2.25; stroke-linecap: square"/>
   </g>
   <g id="line2d_9">
    <path d="M 28.1275 147.718654 
L 160.2 10.8 
" clip-path="url(#p899eb194f8)" style="fill: none; stroke-dasharray: 2.775,1.2; stroke-dashoffset: 0; stroke: #808080; stroke-width: 0.75"/>
   </g>
   <g id="patch_3">
    <path d="M 37.56125 137.93875 
L 37.56125 10.8 
" style="fill: none; stroke: #000000; stroke-width: 0.8; stroke-linejoin: miter; stroke-linecap: square"/>
   </g>
   <g id="patch_4">
    <path d="M 160.2 137.93875 
L 160.2 10.8 
" style="fill: none; stroke: #000000; stroke-width: 0.8; stroke-linejoin: miter; stroke-linecap: square"/>
   </g>
   <g id="patch_5">
    <path d="M 37.56125 137.93875 
L 160.2 137.93875 
" style="fill: none; stroke: #000000; stroke-width: 0.8; stroke-linejoin: miter; stroke-linecap: square"/>
   </g>
   <g id="patch_6">
    <path d="M 37.56125 10.8 
L 160.2 10.8 
" style="fill: none; stroke: #000000; stroke-width: 0.8; stroke-linejoin: miter; stroke-linecap: square"/>
   </g>
   <g id="legend_1">
    <g id="patch_7">
     <path d="M 43.16125 39.93 
L 111.60625 39.93 
Q 113.20625 39.93 113.20625 38.33 
L 113.20625 16.4 
Q 113.20625 14.8 111.60625 14.8 
L 43.16125 14.8 
Q 41.56125 14.8 41.56125 16.4 
L 41.56125 38.33 
Q 41.56125 39.93 43.16125 39.93 
z
" style="fill: #ffffff; opacity: 0.8; stroke: #cccccc; stroke-linejoin: miter"/>
    </g>
    <g id="PathCollection_3">
     <g>
      <use xlink:href="#m15169e8fcc" x="52.76125" y="21.62625" style="fill: #ff8c00; stroke: #ff8c00"/>
     </g>
    </g>
    <g id="text_9">
     <text style="font: 8px 'Arial', sans-serif; text-anchor: start" x="67.16125" y="23.72625" transform="rotate(-0 67.16125 23.72625)">GATA1</text>
    </g>
    <g id="PathCollection_4">
     <g>
      <use xlink:href="#m2183204ce0" x="52.76125" y="33.04" style="fill: #4682b4; stroke: #4682b4"/>
     </g>
    </g>
    <g id="text_10">
     <text style="font: 8px 'Arial', sans-serif; text-anchor: start" x="67.16125" y="35.14" transform="rotate(-0 67.16125 35.14)">non_GATA1</text>
    </g>
   </g>
  </g>
 </g>
 <defs>
  <clipPath id="p899eb194f8">
   <rect x="37.56125" y="10.8" width="122.63875" height="127.13875"/>
  </clipPath>
 </defs>
</svg>
