<?xml version="1.0" encoding="utf-8" standalone="no"?>
<!DOCTYPE svg PUBLIC "-//W3C//DTD SVG 1.1//EN"
  "http://www.w3.org/Graphics/SVG/1.1/DTD/svg11.dtd">
<svg xmlns:xlink="http://www.w3.org/1999/xlink" width="144pt" height="158.4pt" viewBox="0 0 144 158.4" xmlns="http://www.w3.org/2000/svg" version="1.1">
 <metadata>
  <rdf:RDF xmlns:dc="http://purl.org/dc/elements/1.1/" xmlns:cc="http://creativecommons.org/ns#" xmlns:rdf="http://www.w3.org/1999/02/22-rdf-syntax-ns#">
   <cc:Work>
    <dc:type rdf:resource="http://purl.org/dc/dcmitype/StillImage"/>
    <dc:date>2025-03-11T16:13:12.686644</dc:date>
    <dc:format>image/svg+xml</dc:format>
    <dc:creator>
     <cc:Agent>
      <dc:title>Matplotlib v3.9.3, https://matplotlib.org/</dc:title>
     </cc:Agent>
    </dc:creator>
   </cc:Work>
  </rdf:RDF>
 </metadata>
 <defs>
  <style type="text/css">*{stroke-linejoin: round; stroke-linecap: butt}</style>
 </defs>
 <g id="figure_1">
  <g id="patch_1">
   <path d="M 0 158.4 
L 144 158.4 
L 144 0 
L 0 0 
z
" style="fill: #ffffff"/>
  </g>
  <g id="axes_1">
   <g id="patch_2">
    <path d="M 18 140.976 
L 129.6 140.976 
L 129.6 19.008 
L 18 19.008 
z
" style="fill: #ffffff"/>
   </g>
   <g id="PolyCollection_1">
    <defs>
     <path id="m10bbf20712" d="M 36.751812 -48.578786 
L 36.448188 -48.578786 
L 36.358974 -49.440091 
L 36.229765 -50.301397 
L 36.049322 -51.162702 
L 35.806214 -52.024007 
L 35.490071 -52.885312 
L 35.093044 -53.746617 
L 34.611294 -54.607923 
L 34.046225 -55.469228 
L 33.405201 -56.330533 
L 32.70156 -57.191838 
L 31.953816 -58.053143 
L 31.184129 -58.914448 
L 30.416254 -59.775754 
L 29.673296 -60.637059 
L 28.975646 -61.498364 
L 28.339397 -62.359669 
L 27.775455 -63.220974 
L 27.289342 -64.08228 
L 26.881576 -64.943585 
L 26.548368 -65.80489 
L 26.282393 -66.666195 
L 26.073409 -67.5275 
L 25.908678 -68.388806 
L 25.773234 -69.250111 
L 25.650197 -70.111416 
L 25.521385 -70.972721 
L 25.368442 -71.834026 
L 25.174563 -72.695332 
L 24.92673 -73.556637 
L 24.6181 -74.417942 
L 24.250057 -75.279247 
L 23.833357 -76.140552 
L 23.387908 -77.001857 
L 22.941012 -77.863163 
L 22.524239 -78.724468 
L 22.169457 -79.585773 
L 21.904767 -80.447078 
L 21.751091 -81.308383 
L 21.72 -82.169689 
L 21.813062 -83.030994 
L 22.022651 -83.892299 
L 22.333896 -84.753604 
L 22.727311 -85.614909 
L 23.181662 -86.476215 
L 23.676695 -87.33752 
L 24.195448 -88.198825 
L 24.725978 -89.06013 
L 25.262322 -89.921435 
L 25.804585 -90.782741 
L 26.35807 -91.644046 
L 26.931479 -92.505351 
L 27.534417 -93.366656 
L 28.174593 -94.227961 
L 28.855246 -95.089266 
L 29.573347 -95.950572 
L 30.318963 -96.811877 
L 31.075942 -97.673182 
L 31.823753 -98.534487 
L 32.540102 -99.395792 
L 33.203796 -100.257098 
L 33.797326 -101.118403 
L 34.30879 -101.979708 
L 34.732913 -102.841013 
L 35.071139 -103.702318 
L 35.330875 -104.563624 
L 35.524079 -105.424929 
L 35.665422 -106.286234 
L 35.770296 -107.147539 
L 35.852942 -108.008844 
L 35.924955 -108.870149 
L 35.994362 -109.731455 
L 36.065365 -110.59276 
L 36.138728 -111.454065 
L 36.212621 -112.31537 
L 36.283712 -113.176675 
L 36.348228 -114.037981 
L 36.402793 -114.899286 
L 36.444953 -115.760591 
L 36.473377 -116.621896 
L 36.487846 -117.483201 
L 36.489123 -118.344507 
L 36.478812 -119.205812 
L 36.459245 -120.067117 
L 36.433385 -120.928422 
L 36.404682 -121.789727 
L 36.376839 -122.651033 
L 36.353472 -123.512338 
L 36.337675 -124.373643 
L 36.331609 -125.234948 
L 36.336186 -126.096253 
L 36.35096 -126.957558 
L 36.374262 -127.818864 
L 36.40354 -128.680169 
L 36.435843 -129.541474 
L 36.468309 -130.402779 
L 36.498572 -131.264084 
L 36.524999 -132.12539 
L 36.546755 -132.986695 
L 36.56371 -133.848 
L 36.63629 -133.848 
L 36.63629 -133.848 
L 36.653245 -132.986695 
L 36.675001 -132.12539 
L 36.701428 -131.264084 
L 36.731691 -130.402779 
L 36.764157 -129.541474 
L 36.79646 -128.680169 
L 36.825738 -127.818864 
L 36.84904 -126.957558 
L 36.863814 -126.096253 
L 36.868391 -125.234948 
L 36.862325 -124.373643 
L 36.846528 -123.512338 
L 36.823161 -122.651033 
L 36.795318 -121.789727 
L 36.766615 -120.928422 
L 36.740755 -120.067117 
L 36.721188 -119.205812 
L 36.710877 -118.344507 
L 36.712154 -117.483201 
L 36.726623 -116.621896 
L 36.755047 -115.760591 
L 36.797207 -114.899286 
L 36.851772 -114.037981 
L 36.916288 -113.176675 
L 36.987379 -112.31537 
L 37.061272 -111.454065 
L 37.134635 -110.59276 
L 37.205638 -109.731455 
L 37.275045 -108.870149 
L 37.347058 -108.008844 
L 37.429704 -107.147539 
L 37.534578 -106.286234 
L 37.675921 -105.424929 
L 37.869125 -104.563624 
L 38.128861 -103.702318 
L 38.467087 -102.841013 
L 38.89121 -101.979708 
L 39.402674 -101.118403 
L 39.996204 -100.257098 
L 40.659898 -99.395792 
L 41.376247 -98.534487 
L 42.124058 -97.673182 
L 42.881037 -96.811877 
L 43.626653 -95.950572 
L 44.344754 -95.089266 
L 45.025407 -94.227961 
L 45.665583 -93.366656 
L 46.268521 -92.505351 
L 46.84193 -91.644046 
L 47.395415 -90.782741 
L 47.937678 -89.921435 
L 48.474022 -89.06013 
L 49.004552 -88.198825 
L 49.523305 -87.33752 
L 50.018338 -86.476215 
L 50.472689 -85.614909 
L 50.866104 -84.753604 
L 51.177349 -83.892299 
L 51.386938 -83.030994 
L 51.48 -82.169689 
L 51.448909 -81.308383 
L 51.295233 -80.447078 
L 51.030543 -79.585773 
L 50.675761 -78.724468 
L 50.258988 -77.863163 
L 49.812092 -77.001857 
L 49.366643 -76.140552 
L 48.949943 -75.279247 
L 48.5819 -74.417942 
L 48.27327 -73.556637 
L 48.025437 -72.695332 
L 47.831558 -71.834026 
L 47.678615 -70.972721 
L 47.549803 -70.111416 
L 47.426766 -69.250111 
L 47.291322 -68.388806 
L 47.126591 -67.5275 
L 46.917607 -66.666195 
L 46.651632 -65.80489 
L 46.318424 -64.943585 
L 45.910658 -64.08228 
L 45.424545 -63.220974 
L 44.860603 -62.359669 
L 44.224354 -61.498364 
L 43.526704 -60.637059 
L 42.783746 -59.775754 
L 42.015871 -58.914448 
L 41.246184 -58.053143 
L 40.49844 -57.191838 
L 39.794799 -56.330533 
L 39.153775 -55.469228 
L 38.588706 -54.607923 
L 38.106956 -53.746617 
L 37.709929 -52.885312 
L 37.393786 -52.024007 
L 37.150678 -51.162702 
L 36.970235 -50.301397 
L 36.841026 -49.440091 
L 36.751812 -48.578786 
z
" style="stroke: #3d3d3d; stroke-width: 0.75"/>
    </defs>
    <g clip-path="url(#pf6dbd8e7ab)">
     <use xlink:href="#m10bbf20712" x="0" y="158.4" style="fill: #e1812c; stroke: #3d3d3d; stroke-width: 0.75"/>
    </g>
   </g>
   <g id="PolyCollection_2">
    <defs>
     <path id="mf5a532739c" d="M 73.9414 -50.016856 
L 73.6586 -50.016856 
L 73.600623 -50.662207 
L 73.524528 -51.307558 
L 73.426897 -51.95291 
L 73.304413 -52.598261 
L 73.154102 -53.243612 
L 72.97358 -53.888963 
L 72.761284 -54.534314 
L 72.516644 -55.179665 
L 72.24017 -55.825017 
L 71.933439 -56.470368 
L 71.59897 -57.115719 
L 71.240017 -57.76107 
L 70.860295 -58.406421 
L 70.463687 -59.051772 
L 70.053975 -59.697124 
L 69.634624 -60.342475 
L 69.20865 -60.987826 
L 68.77855 -61.633177 
L 68.346312 -62.278528 
L 67.913445 -62.92388 
L 67.481038 -63.569231 
L 67.049817 -64.214582 
L 66.620212 -64.859933 
L 66.192442 -65.505284 
L 65.766646 -66.150635 
L 65.343076 -66.795987 
L 64.922327 -67.441338 
L 64.505596 -68.086689 
L 64.094892 -68.73204 
L 63.69314 -69.377391 
L 63.304121 -70.022742 
L 62.932194 -70.668094 
L 62.581839 -71.313445 
L 62.25705 -71.958796 
L 61.960697 -72.604147 
L 61.693968 -73.249498 
L 61.456008 -73.894849 
L 61.243842 -74.540201 
L 61.052625 -75.185552 
L 60.87618 -75.830903 
L 60.707759 -76.476254 
L 60.540913 -77.121605 
L 60.370341 -77.766957 
L 60.192601 -78.412308 
L 60.006628 -79.057659 
L 59.814011 -79.70301 
L 59.619041 -80.348361 
L 59.428584 -80.993712 
L 59.251801 -81.639064 
L 59.099761 -82.284415 
L 58.984943 -82.929766 
L 58.920605 -83.575117 
L 58.92 -84.220468 
L 58.995424 -84.865819 
L 59.157138 -85.511171 
L 59.41225 -86.156522 
L 59.763703 -86.801873 
L 60.209558 -87.447224 
L 60.742715 -88.092575 
L 61.351216 -88.737926 
L 62.01912 -89.383278 
L 62.727888 -90.028629 
L 63.458069 -90.67398 
L 64.191043 -91.319331 
L 64.91055 -91.964682 
L 65.603786 -92.610034 
L 66.261913 -93.255385 
L 66.879984 -93.900736 
L 67.456363 -94.546087 
L 67.991816 -95.191438 
L 68.488494 -95.836789 
L 68.949016 -96.482141 
L 69.375797 -97.127492 
L 69.770704 -97.772843 
L 70.135037 -98.418194 
L 70.469739 -99.063545 
L 70.775733 -99.708896 
L 71.054264 -100.354248 
L 71.307121 -100.999599 
L 71.536716 -101.64495 
L 71.745976 -102.290301 
L 71.938105 -102.935652 
L 72.116271 -103.581003 
L 72.283289 -104.226355 
L 72.441358 -104.871706 
L 72.591913 -105.517057 
L 72.735585 -106.162408 
L 72.87229 -106.807759 
L 73.001389 -107.45311 
L 73.121915 -108.098462 
L 73.232799 -108.743813 
L 73.333084 -109.389164 
L 73.422084 -110.034515 
L 73.499487 -110.679866 
L 73.56539 -111.325218 
L 73.620286 -111.970569 
L 73.664999 -112.61592 
L 73.700596 -113.261271 
L 73.728287 -113.906622 
L 73.871713 -113.906622 
L 73.871713 -113.906622 
L 73.899404 -113.261271 
L 73.935001 -112.61592 
L 73.979714 -111.970569 
L 74.03461 -111.325218 
L 74.100513 -110.679866 
L 74.177916 -110.034515 
L 74.266916 -109.389164 
L 74.367201 -108.743813 
L 74.478085 -108.098462 
L 74.598611 -107.45311 
L 74.72771 -106.807759 
L 74.864415 -106.162408 
L 75.008087 -105.517057 
L 75.158642 -104.871706 
L 75.316711 -104.226355 
L 75.483729 -103.581003 
L 75.661895 -102.935652 
L 75.854024 -102.290301 
L 76.063284 -101.64495 
L 76.292879 -100.999599 
L 76.545736 -100.354248 
L 76.824267 -99.708896 
L 77.130261 -99.063545 
L 77.464963 -98.418194 
L 77.829296 -97.772843 
L 78.224203 -97.127492 
L 78.650984 -96.482141 
L 79.111506 -95.836789 
L 79.608184 -95.191438 
L 80.143637 -94.546087 
L 80.720016 -93.900736 
L 81.338087 -93.255385 
L 81.996214 -92.610034 
L 82.68945 -91.964682 
L 83.408957 -91.319331 
L 84.141931 -90.67398 
L 84.872112 -90.028629 
L 85.58088 -89.383278 
L 86.248784 -88.737926 
L 86.857285 -88.092575 
L 87.390442 -87.447224 
L 87.836297 -86.801873 
L 88.18775 -86.156522 
L 88.442862 -85.511171 
L 88.604576 -84.865819 
L 88.68 -84.220468 
L 88.679395 -83.575117 
L 88.615057 -82.929766 
L 88.500239 -82.284415 
L 88.348199 -81.639064 
L 88.171416 -80.993712 
L 87.980959 -80.348361 
L 87.785989 -79.70301 
L 87.593372 -79.057659 
L 87.407399 -78.412308 
L 87.229659 -77.766957 
L 87.059087 -77.121605 
L 86.892241 -76.476254 
L 86.72382 -75.830903 
L 86.547375 -75.185552 
L 86.356158 -74.540201 
L 86.143992 -73.894849 
L 85.906032 -73.249498 
L 85.639303 -72.604147 
L 85.34295 -71.958796 
L 85.018161 -71.313445 
L 84.667806 -70.668094 
L 84.295879 -70.022742 
L 83.90686 -69.377391 
L 83.505108 -68.73204 
L 83.094404 -68.086689 
L 82.677673 -67.441338 
L 82.256924 -66.795987 
L 81.833354 -66.150635 
L 81.407558 -65.505284 
L 80.979788 -64.859933 
L 80.550183 -64.214582 
L 80.118962 -63.569231 
L 79.686555 -62.92388 
L 79.253688 -62.278528 
L 78.82145 -61.633177 
L 78.39135 -60.987826 
L 77.965376 -60.342475 
L 77.546025 -59.697124 
L 77.136313 -59.051772 
L 76.739705 -58.406421 
L 76.359983 -57.76107 
L 76.00103 -57.115719 
L 75.666561 -56.470368 
L 75.35983 -55.825017 
L 75.083356 -55.179665 
L 74.838716 -54.534314 
L 74.62642 -53.888963 
L 74.445898 -53.243612 
L 74.295587 -52.598261 
L 74.173103 -51.95291 
L 74.075472 -51.307558 
L 73.999377 -50.662207 
L 73.9414 -50.016856 
z
" style="stroke: #3d3d3d; stroke-width: 0.75"/>
    </defs>
    <g clip-path="url(#pf6dbd8e7ab)">
     <use xlink:href="#mf5a532739c" x="0" y="158.4" style="fill: #3274a1; stroke: #3d3d3d; stroke-width: 0.75"/>
    </g>
   </g>
   <g id="PolyCollection_3">
    <defs>
     <path id="m213636ad08" d="M 111.068163 -22.968 
L 110.931837 -22.968 
L 110.873039 -23.833895 
L 110.773945 -24.69979 
L 110.61458 -25.565684 
L 110.369757 -26.431579 
L 110.010274 -27.297474 
L 109.50573 -28.163369 
L 108.829133 -29.029264 
L 107.962978 -29.895159 
L 106.905742 -30.761053 
L 105.677077 -31.626948 
L 104.319713 -32.492843 
L 102.896539 -33.358738 
L 101.482594 -34.224633 
L 100.153446 -35.090528 
L 98.973017 -35.956422 
L 97.98461 -36.822317 
L 97.208124 -37.688212 
L 96.644353 -38.554107 
L 96.284404 -39.420002 
L 96.12 -40.285896 
L 96.149917 -41.151791 
L 96.379549 -42.017686 
L 96.814038 -42.883581 
L 97.448648 -43.749476 
L 98.261501 -44.615371 
L 99.212421 -45.481265 
L 100.248452 -46.34716 
L 101.313359 -47.213055 
L 102.356965 -48.07895 
L 103.341063 -48.944845 
L 104.240934 -49.81074 
L 105.043734 -50.676634 
L 105.745848 -51.542529 
L 106.350784 -52.408424 
L 106.867929 -53.274319 
L 107.311532 -54.140214 
L 107.699123 -55.006108 
L 108.049014 -55.872003 
L 108.377187 -56.737898 
L 108.69432 -57.603793 
L 109.003805 -58.469688 
L 109.301423 -59.335583 
L 109.576907 -60.201477 
L 109.817088 -61.067372 
L 110.009793 -61.933267 
L 110.147416 -62.799162 
L 110.229183 -63.665057 
L 110.261576 -64.530952 
L 110.256959 -65.396846 
L 110.230934 -66.262741 
L 110.19922 -67.128636 
L 110.174866 -67.994531 
L 110.166418 -68.860426 
L 110.177358 -69.72632 
L 110.206717 -70.592215 
L 110.250473 -71.45811 
L 110.303175 -72.324005 
L 110.359361 -73.1899 
L 110.414524 -74.055795 
L 110.465624 -74.921689 
L 110.511256 -75.787584 
L 110.551562 -76.653479 
L 110.587945 -77.519374 
L 110.622576 -78.385269 
L 110.65776 -79.251164 
L 110.69525 -80.117058 
L 110.735706 -80.982953 
L 110.778458 -81.848848 
L 110.821684 -82.714743 
L 110.862936 -83.580638 
L 110.899824 -84.446532 
L 110.93062 -85.312427 
L 110.954585 -86.178322 
L 110.971953 -87.044217 
L 110.983665 -87.910112 
L 110.990985 -88.776007 
L 110.995152 -89.641901 
L 110.99714 -90.507796 
L 110.997525 -91.373691 
L 110.996438 -92.239586 
L 110.993576 -93.105481 
L 110.988248 -93.971376 
L 110.979505 -94.83727 
L 110.966386 -95.703165 
L 110.948293 -96.56906 
L 110.925445 -97.434955 
L 110.899247 -98.30085 
L 110.872389 -99.166745 
L 110.848517 -100.032639 
L 110.831468 -100.898534 
L 110.82427 -101.764429 
L 110.828267 -102.630324 
L 110.842708 -103.496219 
L 110.864978 -104.362113 
L 110.891371 -105.228008 
L 110.918091 -106.093903 
L 110.942116 -106.959798 
L 110.961661 -107.825693 
L 110.976201 -108.691588 
L 111.023799 -108.691588 
L 111.023799 -108.691588 
L 111.038339 -107.825693 
L 111.057884 -106.959798 
L 111.081909 -106.093903 
L 111.108629 -105.228008 
L 111.135022 -104.362113 
L 111.157292 -103.496219 
L 111.171733 -102.630324 
L 111.17573 -101.764429 
L 111.168532 -100.898534 
L 111.151483 -100.032639 
L 111.127611 -99.166745 
L 111.100753 -98.30085 
L 111.074555 -97.434955 
L 111.051707 -96.56906 
L 111.033614 -95.703165 
L 111.020495 -94.83727 
L 111.011752 -93.971376 
L 111.006424 -93.105481 
L 111.003562 -92.239586 
L 111.002475 -91.373691 
L 111.00286 -90.507796 
L 111.004848 -89.641901 
L 111.009015 -88.776007 
L 111.016335 -87.910112 
L 111.028047 -87.044217 
L 111.045415 -86.178322 
L 111.06938 -85.312427 
L 111.100176 -84.446532 
L 111.137064 -83.580638 
L 111.178316 -82.714743 
L 111.221542 -81.848848 
L 111.264294 -80.982953 
L 111.30475 -80.117058 
L 111.34224 -79.251164 
L 111.377424 -78.385269 
L 111.412055 -77.519374 
L 111.448438 -76.653479 
L 111.488744 -75.787584 
L 111.534376 -74.921689 
L 111.585476 -74.055795 
L 111.640639 -73.1899 
L 111.696825 -72.324005 
L 111.749527 -71.45811 
L 111.793283 -70.592215 
L 111.822642 -69.72632 
L 111.833582 -68.860426 
L 111.825134 -67.994531 
L 111.80078 -67.128636 
L 111.769066 -66.262741 
L 111.743041 -65.396846 
L 111.738424 -64.530952 
L 111.770817 -63.665057 
L 111.852584 -62.799162 
L 111.990207 -61.933267 
L 112.182912 -61.067372 
L 112.423093 -60.201477 
L 112.698577 -59.335583 
L 112.996195 -58.469688 
L 113.30568 -57.603793 
L 113.622813 -56.737898 
L 113.950986 -55.872003 
L 114.300877 -55.006108 
L 114.688468 -54.140214 
L 115.132071 -53.274319 
L 115.649216 -52.408424 
L 116.254152 -51.542529 
L 116.956266 -50.676634 
L 117.759066 -49.81074 
L 118.658937 -48.944845 
L 119.643035 -48.07895 
L 120.686641 -47.213055 
L 121.751548 -46.34716 
L 122.787579 -45.481265 
L 123.738499 -44.615371 
L 124.551352 -43.749476 
L 125.185962 -42.883581 
L 125.620451 -42.017686 
L 125.850083 -41.151791 
L 125.88 -40.285896 
L 125.715596 -39.420002 
L 125.355647 -38.554107 
L 124.791876 -37.688212 
L 124.01539 -36.822317 
L 123.026983 -35.956422 
L 121.846554 -35.090528 
L 120.517406 -34.224633 
L 119.103461 -33.358738 
L 117.680287 -32.492843 
L 116.322923 -31.626948 
L 115.094258 -30.761053 
L 114.037022 -29.895159 
L 113.170867 -29.029264 
L 112.49427 -28.163369 
L 111.989726 -27.297474 
L 111.630243 -26.431579 
L 111.38542 -25.565684 
L 111.226055 -24.69979 
L 111.126961 -23.833895 
L 111.068163 -22.968 
z
" style="stroke: #3d3d3d; stroke-width: 0.75"/>
    </defs>
    <g clip-path="url(#pf6dbd8e7ab)">
     <use xlink:href="#m213636ad08" x="0" y="158.4" style="fill: #3a923a; stroke: #3d3d3d; stroke-width: 0.75"/>
    </g>
   </g>
   <g id="matplotlib.axis_1">
    <g id="xtick_1">
     <g id="line2d_1">
      <defs>
       <path id="mf6cefff4af" d="M 0 0 
L 0 3.5 
" style="stroke: #000000; stroke-width: 0.8"/>
      </defs>
      <g>
       <use xlink:href="#mf6cefff4af" x="36.6" y="140.976" style="stroke: #000000; stroke-width: 0.8"/>
      </g>
     </g>
     <g id="text_1">
      <text style="font: 8px 'Arial', sans-serif; text-anchor: middle" x="36.6" y="153.70225" transform="rotate(-0 36.6 153.70225)">GATA1</text>
     </g>
    </g>
    <g id="xtick_2">
     <g id="line2d_2">
      <g>
       <use xlink:href="#mf6cefff4af" x="73.8" y="140.976" style="stroke: #000000; stroke-width: 0.8"/>
      </g>
     </g>
     <g id="text_2">
      <text style="font: 8px 'Arial', sans-serif; text-anchor: middle" x="73.8" y="153.79975" transform="rotate(-0 73.8 153.79975)">non_GATA1</text>
     </g>
    </g>
    <g id="xtick_3">
     <g id="line2d_3">
      <g>
       <use xlink:href="#mf6cefff4af" x="111" y="140.976" style="stroke: #000000; stroke-width: 0.8"/>
      </g>
     </g>
     <g id="text_3">
      <text style="font: 8px 'Arial', sans-serif; text-anchor: middle" x="111" y="153.70225" transform="rotate(-0 111 153.70225)">negative</text>
     </g>
    </g>
   </g>
   <g id="matplotlib.axis_2">
    <g id="ytick_1">
     <g id="line2d_4">
      <defs>
       <path id="mf36f0b3c6d" d="M 0 0 
L -3.5 0 
" style="stroke: #000000; stroke-width: 0.8"/>
      </defs>
      <g>
       <use xlink:href="#mf36f0b3c6d" x="18" y="128.22971" style="stroke: #000000; stroke-width: 0.8"/>
      </g>
     </g>
     <g id="text_4">
      <text style="font: 8px 'Arial', sans-serif; text-anchor: end" x="11" y="131.092835" transform="rotate(-0 11 131.092835)">−1</text>
     </g>
    </g>
    <g id="ytick_2">
     <g id="line2d_5">
      <g>
       <use xlink:href="#mf36f0b3c6d" x="18" y="105.963395" style="stroke: #000000; stroke-width: 0.8"/>
      </g>
     </g>
     <g id="text_5">
      <text style="font: 8px 'Arial', sans-serif; text-anchor: end" x="11" y="108.82652" transform="rotate(-0 11 108.82652)">0</text>
     </g>
    </g>
    <g id="ytick_3">
     <g id="line2d_6">
      <g>
       <use xlink:href="#mf36f0b3c6d" x="18" y="83.69708" style="stroke: #000000; stroke-width: 0.8"/>
      </g>
     </g>
     <g id="text_6">
      <text style="font: 8px 'Arial', sans-serif; text-anchor: end" x="11" y="86.560205" transform="rotate(-0 11 86.560205)">1</text>
     </g>
    </g>
    <g id="ytick_4">
     <g id="line2d_7">
      <g>
       <use xlink:href="#mf36f0b3c6d" x="18" y="61.430764" style="stroke: #000000; stroke-width: 0.8"/>
      </g>
     </g>
     <g id="text_7">
      <text style="font: 8px 'Arial', sans-serif; text-anchor: end" x="11" y="64.293889" transform="rotate(-0 11 64.293889)">2</text>
     </g>
    </g>
    <g id="ytick_5">
     <g id="line2d_8">
      <g>
       <use xlink:href="#mf36f0b3c6d" x="18" y="39.164449" style="stroke: #000000; stroke-width: 0.8"/>
      </g>
     </g>
     <g id="text_8">
      <text style="font: 8px 'Arial', sans-serif; text-anchor: end" x="11" y="42.027574" transform="rotate(-0 11 42.027574)">3</text>
     </g>
    </g>
   </g>
   <g id="line2d_9">
    <path d="M 36.6 101.287469 
L 36.6 49.362422 
" clip-path="url(#pf6dbd8e7ab)" style="fill: none; stroke: #3d3d3d; stroke-width: 1.125; stroke-linecap: square"/>
   </g>
   <g id="line2d_10">
    <path d="M 36.6 88.662468 
L 36.6 70.79375 
" clip-path="url(#pf6dbd8e7ab)" style="fill: none; stroke: #3d3d3d; stroke-width: 3.375; stroke-linecap: square"/>
   </g>
   <g id="line2d_11">
    <path d="M 36.6 78.687159 
" clip-path="url(#pf6dbd8e7ab)" style="fill: none; stroke: #3d3d3d; stroke-width: 1.5; stroke-linecap: square"/>
    <defs>
     <path id="ma77b0bf9df" d="M 1.40625 0 
L -1.40625 -0 
" style="stroke: #ffffff; stroke-width: 0.675"/>
    </defs>
    <g clip-path="url(#pf6dbd8e7ab)">
     <use xlink:href="#ma77b0bf9df" x="36.6" y="78.687159" style="fill: #ffffff; stroke: #ffffff; stroke-width: 0.675"/>
    </g>
   </g>
   <g id="line2d_12">
    <path d="M 73.8 100.062821 
L 73.8 52.8137 
" clip-path="url(#pf6dbd8e7ab)" style="fill: none; stroke: #3d3d3d; stroke-width: 1.125; stroke-linecap: square"/>
   </g>
   <g id="line2d_13">
    <path d="M 73.8 86.241006 
L 73.8 71.328142 
" clip-path="url(#pf6dbd8e7ab)" style="fill: none; stroke: #3d3d3d; stroke-width: 3.375; stroke-linecap: square"/>
   </g>
   <g id="line2d_14">
    <path d="M 73.8 77.785373 
" clip-path="url(#pf6dbd8e7ab)" style="fill: none; stroke: #3d3d3d; stroke-width: 1.5; stroke-linecap: square"/>
    <g clip-path="url(#pf6dbd8e7ab)">
     <use xlink:href="#ma77b0bf9df" x="73.8" y="77.785373" style="fill: #ffffff; stroke: #ffffff; stroke-width: 0.675"/>
    </g>
   </g>
   <g id="line2d_15">
    <path d="M 111 128.630504 
L 111 98.68231 
" clip-path="url(#pf6dbd8e7ab)" style="fill: none; stroke: #3d3d3d; stroke-width: 1.125; stroke-linecap: square"/>
   </g>
   <g id="line2d_16">
    <path d="M 111 120.725962 
L 111 111.663571 
" clip-path="url(#pf6dbd8e7ab)" style="fill: none; stroke: #3d3d3d; stroke-width: 3.375; stroke-linecap: square"/>
   </g>
   <g id="line2d_17">
    <path d="M 111 116.428563 
" clip-path="url(#pf6dbd8e7ab)" style="fill: none; stroke: #3d3d3d; stroke-width: 1.5; stroke-linecap: square"/>
    <g clip-path="url(#pf6dbd8e7ab)">
     <use xlink:href="#ma77b0bf9df" x="111" y="116.428563" style="fill: #ffffff; stroke: #ffffff; stroke-width: 0.675"/>
    </g>
   </g>
   <g id="patch_3">
    <path d="M 18 140.976 
L 18 19.008 
" style="fill: none; stroke: #000000; stroke-width: 0.8; stroke-linejoin: miter; stroke-linecap: square"/>
   </g>
   <g id="patch_4">
    <path d="M 129.6 140.976 
L 129.6 19.008 
" style="fill: none; stroke: #000000; stroke-width: 0.8; stroke-linejoin: miter; stroke-linecap: square"/>
   </g>
   <g id="patch_5">
    <path d="M 18 140.976 
L 129.6 140.976 
" style="fill: none; stroke: #000000; stroke-width: 0.8; stroke-linejoin: miter; stroke-linecap: square"/>
   </g>
   <g id="patch_6">
    <path d="M 18 19.008 
L 129.6 19.008 
" style="fill: none; stroke: #000000; stroke-width: 0.8; stroke-linejoin: miter; stroke-linecap: square"/>
   </g>
   <g id="text_9">
    <text style="font: 8px 'Arial', sans-serif; text-anchor: middle" x="73.8" y="13.008" transform="rotate(-0 73.8 13.008)">MPRA activity (Agarwal et al.)</text>
   </g>
  </g>
 </g>
 <defs>
  <clipPath id="pf6dbd8e7ab">
   <rect x="18" y="19.008" width="111.6" height="121.968"/>
  </clipPath>
 </defs>
</svg>
