<?xml version="1.0" encoding="utf-8" standalone="no"?>
<!DOCTYPE svg PUBLIC "-//W3C//DTD SVG 1.1//EN"
  "http://www.w3.org/Graphics/SVG/1.1/DTD/svg11.dtd">
<svg xmlns:xlink="http://www.w3.org/1999/xlink" width="108pt" height="158.4pt" viewBox="0 0 108 158.4" xmlns="http://www.w3.org/2000/svg" version="1.1">
 <metadata>
  <rdf:RDF xmlns:dc="http://purl.org/dc/elements/1.1/" xmlns:cc="http://creativecommons.org/ns#" xmlns:rdf="http://www.w3.org/1999/02/22-rdf-syntax-ns#">
   <cc:Work>
    <dc:type rdf:resource="http://purl.org/dc/dcmitype/StillImage"/>
    <dc:date>2025-03-11T16:12:56.593969</dc:date>
    <dc:format>image/svg+xml</dc:format>
    <dc:creator>
     <cc:Agent>
      <dc:title>Matplotlib v3.9.3, https://matplotlib.org/</dc:title>
     </cc:Agent>
    </dc:creator>
   </cc:Work>
  </rdf:RDF>
 </metadata>
 <defs>
  <style type="text/css">*{stroke-linejoin: round; stroke-linecap: butt}</style>
 </defs>
 <g id="figure_1">
  <g id="patch_1">
   <path d="M 0 158.4 
L 108 158.4 
L 108 0 
L 0 0 
z
" style="fill: #ffffff"/>
  </g>
  <g id="axes_1">
   <g id="patch_2">
    <path d="M 13.5 140.976 
L 97.2 140.976 
L 97.2 19.008 
L 13.5 19.008 
z
" style="fill: #ffffff"/>
   </g>
   <g id="PolyCollection_1">
    <defs>
     <path id="m526e446769" d="M 34.587131 -26.32756 
L 34.262869 -26.32756 
L 34.186165 -27.140509 
L 34.081931 -27.953459 
L 33.94416 -28.766408 
L 33.766934 -29.579357 
L 33.544893 -30.392306 
L 33.273709 -31.205255 
L 32.950507 -32.018205 
L 32.574154 -32.831154 
L 32.145357 -33.644103 
L 31.666546 -34.457052 
L 31.141558 -35.270001 
L 30.57517 -36.082951 
L 29.972566 -36.8959 
L 29.338823 -37.708849 
L 28.678518 -38.521798 
L 27.995515 -39.334747 
L 27.292956 -40.147697 
L 26.573461 -40.960646 
L 25.839496 -41.773595 
L 25.093836 -42.586544 
L 24.34006 -43.399493 
L 23.583007 -44.212443 
L 22.829119 -45.025392 
L 22.086636 -45.838341 
L 21.365584 -46.65129 
L 20.677528 -47.464239 
L 20.035075 -48.277189 
L 19.451109 -49.090138 
L 18.937835 -49.903087 
L 18.505696 -50.716036 
L 18.162334 -51.528985 
L 17.911773 -52.341935 
L 17.753989 -53.154884 
L 17.685 -53.967833 
L 17.697466 -54.780782 
L 17.781711 -55.593731 
L 17.926932 -56.406681 
L 18.122343 -57.21963 
L 18.358001 -58.032579 
L 18.62521 -58.845528 
L 18.91649 -59.658477 
L 19.225286 -60.471427 
L 19.545657 -61.284376 
L 19.872166 -62.097325 
L 20.200134 -62.910274 
L 20.526218 -63.723223 
L 20.84918 -64.536173 
L 21.170552 -65.349122 
L 21.494933 -66.162071 
L 21.829725 -66.97502 
L 22.184246 -67.787969 
L 22.568349 -68.600919 
L 22.990797 -69.413868 
L 23.457702 -70.226817 
L 23.971318 -71.039766 
L 24.529391 -71.852715 
L 25.125133 -72.665664 
L 25.747777 -73.478614 
L 26.383573 -74.291563 
L 27.017044 -75.104512 
L 27.632317 -75.917461 
L 28.214391 -76.73041 
L 28.750219 -77.54336 
L 29.229567 -78.356309 
L 29.645606 -79.169258 
L 29.995257 -79.982207 
L 30.279272 -80.795156 
L 30.502078 -81.608106 
L 30.671388 -82.421055 
L 30.797585 -83.234004 
L 30.892907 -84.046953 
L 30.970471 -84.859902 
L 31.043215 -85.672852 
L 31.12284 -86.485801 
L 31.218865 -87.29875 
L 31.337919 -88.111699 
L 31.48335 -88.924648 
L 31.655197 -89.737598 
L 31.850528 -90.550547 
L 32.064081 -91.363496 
L 32.289107 -92.176445 
L 32.518278 -92.989394 
L 32.744535 -93.802344 
L 32.961769 -94.615293 
L 33.165259 -95.428242 
L 33.351848 -96.241191 
L 33.519884 -97.05414 
L 33.668983 -97.86709 
L 33.799695 -98.680039 
L 33.913155 -99.492988 
L 34.010775 -100.305937 
L 34.094034 -101.118886 
L 34.164347 -101.931836 
L 34.223029 -102.744785 
L 34.271302 -103.557734 
L 34.310336 -104.370683 
L 34.341277 -105.183632 
L 34.365257 -105.996582 
L 34.383391 -106.809531 
L 34.466609 -106.809531 
L 34.466609 -106.809531 
L 34.484743 -105.996582 
L 34.508723 -105.183632 
L 34.539664 -104.370683 
L 34.578698 -103.557734 
L 34.626971 -102.744785 
L 34.685653 -101.931836 
L 34.755966 -101.118886 
L 34.839225 -100.305937 
L 34.936845 -99.492988 
L 35.050305 -98.680039 
L 35.181017 -97.86709 
L 35.330116 -97.05414 
L 35.498152 -96.241191 
L 35.684741 -95.428242 
L 35.888231 -94.615293 
L 36.105465 -93.802344 
L 36.331722 -92.989394 
L 36.560893 -92.176445 
L 36.785919 -91.363496 
L 36.999472 -90.550547 
L 37.194803 -89.737598 
L 37.36665 -88.924648 
L 37.512081 -88.111699 
L 37.631135 -87.29875 
L 37.72716 -86.485801 
L 37.806785 -85.672852 
L 37.879529 -84.859902 
L 37.957093 -84.046953 
L 38.052415 -83.234004 
L 38.178612 -82.421055 
L 38.347922 -81.608106 
L 38.570728 -80.795156 
L 38.854743 -79.982207 
L 39.204394 -79.169258 
L 39.620433 -78.356309 
L 40.099781 -77.54336 
L 40.635609 -76.73041 
L 41.217683 -75.917461 
L 41.832956 -75.104512 
L 42.466427 -74.291563 
L 43.102223 -73.478614 
L 43.724867 -72.665664 
L 44.320609 -71.852715 
L 44.878682 -71.039766 
L 45.392298 -70.226817 
L 45.859203 -69.413868 
L 46.281651 -68.600919 
L 46.665754 -67.787969 
L 47.020275 -66.97502 
L 47.355067 -66.162071 
L 47.679448 -65.349122 
L 48.00082 -64.536173 
L 48.323782 -63.723223 
L 48.649866 -62.910274 
L 48.977834 -62.097325 
L 49.304343 -61.284376 
L 49.624714 -60.471427 
L 49.93351 -59.658477 
L 50.22479 -58.845528 
L 50.491999 -58.032579 
L 50.727657 -57.21963 
L 50.923068 -56.406681 
L 51.068289 -55.593731 
L 51.152534 -54.780782 
L 51.165 -53.967833 
L 51.096011 -53.154884 
L 50.938227 -52.341935 
L 50.687666 -51.528985 
L 50.344304 -50.716036 
L 49.912165 -49.903087 
L 49.398891 -49.090138 
L 48.814925 -48.277189 
L 48.172472 -47.464239 
L 47.484416 -46.65129 
L 46.763364 -45.838341 
L 46.020881 -45.025392 
L 45.266993 -44.212443 
L 44.50994 -43.399493 
L 43.756164 -42.586544 
L 43.010504 -41.773595 
L 42.276539 -40.960646 
L 41.557044 -40.147697 
L 40.854485 -39.334747 
L 40.171482 -38.521798 
L 39.511177 -37.708849 
L 38.877434 -36.8959 
L 38.27483 -36.082951 
L 37.708442 -35.270001 
L 37.183454 -34.457052 
L 36.704643 -33.644103 
L 36.275846 -32.831154 
L 35.899493 -32.018205 
L 35.576291 -31.205255 
L 35.305107 -30.392306 
L 35.083066 -29.579357 
L 34.90584 -28.766408 
L 34.768069 -27.953459 
L 34.663835 -27.140509 
L 34.587131 -26.32756 
z
" style="stroke: #3f3f3f; stroke-width: 0.75"/>
    </defs>
    <g clip-path="url(#pd804636d28)">
     <use xlink:href="#m526e446769" x="0" y="158.4" style="fill: #e1812c; stroke: #3f3f3f; stroke-width: 0.75"/>
    </g>
   </g>
   <g id="PolyCollection_2">
    <defs>
     <path id="mcb699a9012" d="M 76.384753 -22.968 
L 76.165247 -22.968 
L 76.114936 -24.088 
L 76.046916 -25.208 
L 75.957274 -26.328 
L 75.842049 -27.448 
L 75.697491 -28.568 
L 75.520321 -29.688 
L 75.307965 -30.808 
L 75.058721 -31.928 
L 74.771816 -33.048 
L 74.447351 -34.168 
L 74.086136 -35.288 
L 73.689449 -36.408 
L 73.258763 -37.528 
L 72.795491 -38.648 
L 72.300794 -39.768 
L 71.775471 -40.888 
L 71.219952 -42.008 
L 70.634371 -43.128 
L 70.018712 -44.248 
L 69.373028 -45.368 
L 68.697697 -46.488 
L 67.993744 -47.608 
L 67.263194 -48.728 
L 66.50946 -49.848 
L 65.737718 -50.968 
L 64.955233 -52.088 
L 64.171573 -53.208 
L 63.398679 -54.328 
L 62.650745 -55.448 
L 61.943892 -56.568 
L 61.295641 -57.688 
L 60.724163 -58.808 
L 60.24734 -59.928 
L 59.881647 -61.048 
L 59.640903 -62.168 
L 59.535 -63.288 
L 59.568731 -64.408 
L 59.740892 -65.528 
L 60.043827 -66.648 
L 60.463547 -67.768 
L 60.980467 -68.888 
L 61.570721 -70.008 
L 62.207885 -71.128 
L 62.864885 -72.248 
L 63.515853 -73.368 
L 64.137682 -74.488 
L 64.711174 -75.608 
L 65.221712 -76.728 
L 65.659524 -77.848 
L 66.019657 -78.968 
L 66.301782 -80.088 
L 66.509961 -81.208 
L 66.652383 -82.328 
L 66.741071 -83.448 
L 66.791436 -84.568 
L 66.821591 -85.688 
L 66.851321 -86.808 
L 66.900701 -87.928 
L 66.988445 -89.048 
L 67.130168 -90.168 
L 67.336823 -91.288 
L 67.613572 -92.408 
L 67.959328 -93.528 
L 68.367084 -94.648 
L 68.824994 -95.768 
L 69.318046 -96.888 
L 69.830025 -98.008 
L 70.345432 -99.128 
L 70.851038 -100.248 
L 71.336844 -101.368 
L 71.796369 -102.488 
L 72.226323 -103.608 
L 72.625846 -104.728 
L 72.99556 -105.848 
L 73.336677 -106.968 
L 73.650353 -108.088 
L 73.93737 -109.208 
L 74.198146 -110.328 
L 74.432978 -111.448 
L 74.642382 -112.568 
L 74.827405 -113.688 
L 74.989801 -114.808 
L 75.132029 -115.928 
L 75.257071 -117.048 
L 75.368141 -118.168 
L 75.468331 -119.288 
L 75.560297 -120.408 
L 75.646034 -121.528 
L 75.72677 -122.648 
L 75.802996 -123.768 
L 75.874595 -124.888 
L 75.941049 -126.008 
L 76.001666 -127.128 
L 76.055786 -128.248 
L 76.102951 -129.368 
L 76.142993 -130.488 
L 76.176069 -131.608 
L 76.20263 -132.728 
L 76.223356 -133.848 
L 76.326644 -133.848 
L 76.326644 -133.848 
L 76.34737 -132.728 
L 76.373931 -131.608 
L 76.407007 -130.488 
L 76.447049 -129.368 
L 76.494214 -128.248 
L 76.548334 -127.128 
L 76.608951 -126.008 
L 76.675405 -124.888 
L 76.747004 -123.768 
L 76.82323 -122.648 
L 76.903966 -121.528 
L 76.989703 -120.408 
L 77.081669 -119.288 
L 77.181859 -118.168 
L 77.292929 -117.048 
L 77.417971 -115.928 
L 77.560199 -114.808 
L 77.722595 -113.688 
L 77.907618 -112.568 
L 78.117022 -111.448 
L 78.351854 -110.328 
L 78.61263 -109.208 
L 78.899647 -108.088 
L 79.213323 -106.968 
L 79.55444 -105.848 
L 79.924154 -104.728 
L 80.323677 -103.608 
L 80.753631 -102.488 
L 81.213156 -101.368 
L 81.698962 -100.248 
L 82.204568 -99.128 
L 82.719975 -98.008 
L 83.231954 -96.888 
L 83.725006 -95.768 
L 84.182916 -94.648 
L 84.590672 -93.528 
L 84.936428 -92.408 
L 85.213177 -91.288 
L 85.419832 -90.168 
L 85.561555 -89.048 
L 85.649299 -87.928 
L 85.698679 -86.808 
L 85.728409 -85.688 
L 85.758564 -84.568 
L 85.808929 -83.448 
L 85.897617 -82.328 
L 86.040039 -81.208 
L 86.248218 -80.088 
L 86.530343 -78.968 
L 86.890476 -77.848 
L 87.328288 -76.728 
L 87.838826 -75.608 
L 88.412318 -74.488 
L 89.034147 -73.368 
L 89.685115 -72.248 
L 90.342115 -71.128 
L 90.979279 -70.008 
L 91.569533 -68.888 
L 92.086453 -67.768 
L 92.506173 -66.648 
L 92.809108 -65.528 
L 92.981269 -64.408 
L 93.015 -63.288 
L 92.909097 -62.168 
L 92.668353 -61.048 
L 92.30266 -59.928 
L 91.825837 -58.808 
L 91.254359 -57.688 
L 90.606108 -56.568 
L 89.899255 -55.448 
L 89.151321 -54.328 
L 88.378427 -53.208 
L 87.594767 -52.088 
L 86.812282 -50.968 
L 86.04054 -49.848 
L 85.286806 -48.728 
L 84.556256 -47.608 
L 83.852303 -46.488 
L 83.176972 -45.368 
L 82.531288 -44.248 
L 81.915629 -43.128 
L 81.330048 -42.008 
L 80.774529 -40.888 
L 80.249206 -39.768 
L 79.754509 -38.648 
L 79.291237 -37.528 
L 78.860551 -36.408 
L 78.463864 -35.288 
L 78.102649 -34.168 
L 77.778184 -33.048 
L 77.491279 -31.928 
L 77.242035 -30.808 
L 77.029679 -29.688 
L 76.852509 -28.568 
L 76.707951 -27.448 
L 76.592726 -26.328 
L 76.503084 -25.208 
L 76.435064 -24.088 
L 76.384753 -22.968 
z
" style="stroke: #3f3f3f; stroke-width: 0.75"/>
    </defs>
    <g clip-path="url(#pd804636d28)">
     <use xlink:href="#mcb699a9012" x="0" y="158.4" style="fill: #3274a1; stroke: #3f3f3f; stroke-width: 0.75"/>
    </g>
   </g>
   <g id="matplotlib.axis_1">
    <g id="xtick_1">
     <g id="line2d_1">
      <defs>
       <path id="m204f90a1c9" d="M 0 0 
L 0 3.5 
" style="stroke: #000000; stroke-width: 0.8"/>
      </defs>
      <g>
       <use xlink:href="#m204f90a1c9" x="34.425" y="140.976" style="stroke: #000000; stroke-width: 0.8"/>
      </g>
     </g>
     <g id="text_1">
      <text style="font: 8px 'Arial', sans-serif; text-anchor: middle" x="34.425" y="153.70225" transform="rotate(-0 34.425 153.70225)">GATA1</text>
     </g>
    </g>
    <g id="xtick_2">
     <g id="line2d_2">
      <g>
       <use xlink:href="#m204f90a1c9" x="76.275" y="140.976" style="stroke: #000000; stroke-width: 0.8"/>
      </g>
     </g>
     <g id="text_2">
      <text style="font: 8px 'Arial', sans-serif; text-anchor: middle" x="76.275" y="153.79975" transform="rotate(-0 76.275 153.79975)">non_GATA1</text>
     </g>
    </g>
   </g>
   <g id="matplotlib.axis_2">
    <g id="ytick_1">
     <g id="line2d_3">
      <defs>
       <path id="m5b1e1881f2" d="M 0 0 
L -3.5 0 
" style="stroke: #000000; stroke-width: 0.8"/>
      </defs>
      <g>
       <use xlink:href="#m5b1e1881f2" x="13.5" y="114.670144" style="stroke: #000000; stroke-width: 0.8"/>
      </g>
     </g>
     <g id="text_3">
      <text style="font: 8px 'Arial', sans-serif; text-anchor: end" x="6.5" y="117.533269" transform="rotate(-0 6.5 117.533269)">0.4</text>
     </g>
    </g>
    <g id="ytick_2">
     <g id="line2d_4">
      <g>
       <use xlink:href="#m5b1e1881f2" x="13.5" y="76.631123" style="stroke: #000000; stroke-width: 0.8"/>
      </g>
     </g>
     <g id="text_4">
      <text style="font: 8px 'Arial', sans-serif; text-anchor: end" x="6.5" y="79.494248" transform="rotate(-0 6.5 79.494248)">0.6</text>
     </g>
    </g>
    <g id="ytick_3">
     <g id="line2d_5">
      <g>
       <use xlink:href="#m5b1e1881f2" x="13.5" y="38.592101" style="stroke: #000000; stroke-width: 0.8"/>
      </g>
     </g>
     <g id="text_5">
      <text style="font: 8px 'Arial', sans-serif; text-anchor: end" x="6.5" y="41.455226" transform="rotate(-0 6.5 41.455226)">0.8</text>
     </g>
    </g>
   </g>
   <g id="line2d_6">
    <path d="M 34.425 122.766803 
L 34.425 66.242956 
" clip-path="url(#pd804636d28)" style="fill: none; stroke: #3f3f3f; stroke-width: 1.125; stroke-linecap: square"/>
   </g>
   <g id="line2d_7">
    <path d="M 34.425 108.253924 
L 34.425 89.921865 
" clip-path="url(#pd804636d28)" style="fill: none; stroke: #3f3f3f; stroke-width: 3.375; stroke-linecap: square"/>
   </g>
   <g id="line2d_8">
    <path d="M 34.425 99.85173 
" clip-path="url(#pd804636d28)" style="fill: none; stroke: #3f3f3f; stroke-width: 1.5; stroke-linecap: square"/>
    <defs>
     <path id="mdd89059e4e" d="M 1.40625 0 
L -1.40625 -0 
" style="stroke: #ffffff; stroke-width: 0.675"/>
    </defs>
    <g clip-path="url(#pd804636d28)">
     <use xlink:href="#mdd89059e4e" x="34.425" y="99.85173" style="fill: #ffffff; stroke: #ffffff; stroke-width: 0.675"/>
    </g>
   </g>
   <g id="line2d_9">
    <path d="M 76.275 122.002968 
L 76.275 37.981032 
" clip-path="url(#pd804636d28)" style="fill: none; stroke: #3f3f3f; stroke-width: 1.125; stroke-linecap: square"/>
   </g>
   <g id="line2d_10">
    <path d="M 76.275 100.233648 
L 76.275 73.499396 
" clip-path="url(#pd804636d28)" style="fill: none; stroke: #3f3f3f; stroke-width: 3.375; stroke-linecap: square"/>
   </g>
   <g id="line2d_11">
    <path d="M 76.275 91.449537 
" clip-path="url(#pd804636d28)" style="fill: none; stroke: #3f3f3f; stroke-width: 1.5; stroke-linecap: square"/>
    <g clip-path="url(#pd804636d28)">
     <use xlink:href="#mdd89059e4e" x="76.275" y="91.449537" style="fill: #ffffff; stroke: #ffffff; stroke-width: 0.675"/>
    </g>
   </g>
   <g id="patch_3">
    <path d="M 13.5 140.976 
L 13.5 19.008 
" style="fill: none; stroke: #000000; stroke-width: 0.8; stroke-linejoin: miter; stroke-linecap: square"/>
   </g>
   <g id="patch_4">
    <path d="M 97.2 140.976 
L 97.2 19.008 
" style="fill: none; stroke: #000000; stroke-width: 0.8; stroke-linejoin: miter; stroke-linecap: square"/>
   </g>
   <g id="patch_5">
    <path d="M 13.5 140.976 
L 97.2 140.976 
" style="fill: none; stroke: #000000; stroke-width: 0.8; stroke-linejoin: miter; stroke-linecap: square"/>
   </g>
   <g id="patch_6">
    <path d="M 13.5 19.008 
L 97.2 19.008 
" style="fill: none; stroke: #000000; stroke-width: 0.8; stroke-linejoin: miter; stroke-linecap: square"/>
   </g>
   <g id="text_6">
    <text style="font: 8px 'Arial', sans-serif; text-anchor: middle" x="55.35" y="13.008" transform="rotate(-0 55.35 13.008)">GC content</text>
   </g>
  </g>
 </g>
 <defs>
  <clipPath id="pd804636d28">
   <rect x="13.5" y="19.008" width="83.7" height="121.968"/>
  </clipPath>
 </defs>
</svg>
