<?xml version="1.0" encoding="utf-8" standalone="no"?>
<!DOCTYPE svg PUBLIC "-//W3C//DTD SVG 1.1//EN"
  "http://www.w3.org/Graphics/SVG/1.1/DTD/svg11.dtd">
<svg xmlns:xlink="http://www.w3.org/1999/xlink" width="172.8pt" height="158.4pt" viewBox="0 0 172.8 158.4" xmlns="http://www.w3.org/2000/svg" version="1.1">
 <metadata>
  <rdf:RDF xmlns:dc="http://purl.org/dc/elements/1.1/" xmlns:cc="http://creativecommons.org/ns#" xmlns:rdf="http://www.w3.org/1999/02/22-rdf-syntax-ns#">
   <cc:Work>
    <dc:type rdf:resource="http://purl.org/dc/dcmitype/StillImage"/>
    <dc:date>2025-04-14T20:11:00.995028</dc:date>
    <dc:format>image/svg+xml</dc:format>
    <dc:creator>
     <cc:Agent>
      <dc:title>Matplotlib v3.9.3, https://matplotlib.org/</dc:title>
     </cc:Agent>
    </dc:creator>
   </cc:Work>
  </rdf:RDF>
 </metadata>
 <defs>
  <style type="text/css">*{stroke-linejoin: round; stroke-linecap: butt}</style>
 </defs>
 <g id="figure_1">
  <g id="patch_1">
   <path d="M 0 158.4 
L 172.8 158.4 
L 172.8 0 
L 0 0 
z
" style="fill: #ffffff"/>
  </g>
  <g id="axes_1">
   <g id="patch_2">
    <path d="M 21.6 140.976 
L 155.52 140.976 
L 155.52 19.008 
L 21.6 19.008 
z
" style="fill: #ffffff"/>
   </g>
   <g id="patch_3">
    <path d="M 24.948 140.976 
L 38.34 140.976 
L 38.34 70.859554 
L 24.948 70.859554 
z
" clip-path="url(#pb561908556)" style="fill: #d5a8d5"/>
   </g>
   <g id="patch_4">
    <path d="M 58.428 140.976 
L 71.82 140.976 
L 71.82 30.065443 
L 58.428 30.065443 
z
" clip-path="url(#pb561908556)" style="fill: #d5a8d5"/>
   </g>
   <g id="patch_5">
    <path d="M 91.908 140.976 
L 105.3 140.976 
L 105.3 112.92781 
L 91.908 112.92781 
z
" clip-path="url(#pb561908556)" style="fill: #d5a8d5"/>
   </g>
   <g id="patch_6">
    <path d="M 125.388 140.976 
L 138.78 140.976 
L 138.78 101.972386 
L 125.388 101.972386 
z
" clip-path="url(#pb561908556)" style="fill: #d5a8d5"/>
   </g>
   <g id="patch_7">
    <path d="M 38.34 140.976 
L 51.732 140.976 
L 51.732 119.515792 
L 38.34 119.515792 
z
" clip-path="url(#pb561908556)" style="fill: #701070"/>
   </g>
   <g id="patch_8">
    <path d="M 71.82 140.976 
L 85.212 140.976 
L 85.212 56.987632 
L 71.82 56.987632 
z
" clip-path="url(#pb561908556)" style="fill: #701070"/>
   </g>
   <g id="patch_9">
    <path d="M 105.3 140.976 
L 118.692 140.976 
L 118.692 111.928582 
L 105.3 111.928582 
z
" clip-path="url(#pb561908556)" style="fill: #701070"/>
   </g>
   <g id="patch_10">
    <path d="M 138.78 140.976 
L 152.172 140.976 
L 152.172 118.783521 
L 138.78 118.783521 
z
" clip-path="url(#pb561908556)" style="fill: #701070"/>
   </g>
   <g id="patch_11">
    <path d="M 38.34 140.976 
L 38.34 140.976 
L 38.34 140.976 
L 38.34 140.976 
z
" clip-path="url(#pb561908556)" style="fill: #d5a8d5"/>
   </g>
   <g id="patch_12">
    <path d="M 38.34 140.976 
L 38.34 140.976 
L 38.34 140.976 
L 38.34 140.976 
z
" clip-path="url(#pb561908556)" style="fill: #701070"/>
   </g>
   <g id="matplotlib.axis_1">
    <g id="xtick_1">
     <g id="line2d_1">
      <defs>
       <path id="mbc9ba0a41b" d="M 0 0 
L 0 3.5 
" style="stroke: #000000; stroke-width: 0.8"/>
      </defs>
      <g>
       <use xlink:href="#mbc9ba0a41b" x="38.34" y="140.976" style="stroke: #000000; stroke-width: 0.8"/>
      </g>
     </g>
     <g id="text_1">
      <text style="font: 8px 'Arial', sans-serif; text-anchor: middle" x="38.34" y="153.70225" transform="rotate(-0 38.34 153.70225)">HS1</text>
     </g>
    </g>
    <g id="xtick_2">
     <g id="line2d_2">
      <g>
       <use xlink:href="#mbc9ba0a41b" x="71.82" y="140.976" style="stroke: #000000; stroke-width: 0.8"/>
      </g>
     </g>
     <g id="text_2">
      <text style="font: 8px 'Arial', sans-serif; text-anchor: middle" x="71.82" y="153.70225" transform="rotate(-0 71.82 153.70225)">HS2</text>
     </g>
    </g>
    <g id="xtick_3">
     <g id="line2d_3">
      <g>
       <use xlink:href="#mbc9ba0a41b" x="105.3" y="140.976" style="stroke: #000000; stroke-width: 0.8"/>
      </g>
     </g>
     <g id="text_3">
      <text style="font: 8px 'Arial', sans-serif; text-anchor: middle" x="105.3" y="153.70225" transform="rotate(-0 105.3 153.70225)">HS3</text>
     </g>
    </g>
    <g id="xtick_4">
     <g id="line2d_4">
      <g>
       <use xlink:href="#mbc9ba0a41b" x="138.78" y="140.976" style="stroke: #000000; stroke-width: 0.8"/>
      </g>
     </g>
     <g id="text_4">
      <text style="font: 8px 'Arial', sans-serif; text-anchor: middle" x="138.78" y="153.70225" transform="rotate(-0 138.78 153.70225)">HS4</text>
     </g>
    </g>
   </g>
   <g id="matplotlib.axis_2">
    <g id="ytick_1">
     <g id="line2d_5">
      <defs>
       <path id="ma182c39701" d="M 0 0 
L -3.5 0 
" style="stroke: #000000; stroke-width: 0.8"/>
      </defs>
      <g>
       <use xlink:href="#ma182c39701" x="21.6" y="140.976" style="stroke: #000000; stroke-width: 0.8"/>
      </g>
     </g>
     <g id="text_5">
      <text style="font: 8px 'Arial', sans-serif; text-anchor: end" x="14.6" y="143.839125" transform="rotate(-0 14.6 143.839125)">0</text>
     </g>
    </g>
    <g id="ytick_2">
     <g id="line2d_6">
      <g>
       <use xlink:href="#ma182c39701" x="21.6" y="120.193515" style="stroke: #000000; stroke-width: 0.8"/>
      </g>
     </g>
     <g id="text_6">
      <text style="font: 8px 'Arial', sans-serif; text-anchor: end" x="14.6" y="123.05664" transform="rotate(-0 14.6 123.05664)">1</text>
     </g>
    </g>
    <g id="ytick_3">
     <g id="line2d_7">
      <g>
       <use xlink:href="#ma182c39701" x="21.6" y="99.411029" style="stroke: #000000; stroke-width: 0.8"/>
      </g>
     </g>
     <g id="text_7">
      <text style="font: 8px 'Arial', sans-serif; text-anchor: end" x="14.6" y="102.274154" transform="rotate(-0 14.6 102.274154)">2</text>
     </g>
    </g>
    <g id="ytick_4">
     <g id="line2d_8">
      <g>
       <use xlink:href="#ma182c39701" x="21.6" y="78.628544" style="stroke: #000000; stroke-width: 0.8"/>
      </g>
     </g>
     <g id="text_8">
      <text style="font: 8px 'Arial', sans-serif; text-anchor: end" x="14.6" y="81.491669" transform="rotate(-0 14.6 81.491669)">3</text>
     </g>
    </g>
    <g id="ytick_5">
     <g id="line2d_9">
      <g>
       <use xlink:href="#ma182c39701" x="21.6" y="57.846058" style="stroke: #000000; stroke-width: 0.8"/>
      </g>
     </g>
     <g id="text_9">
      <text style="font: 8px 'Arial', sans-serif; text-anchor: end" x="14.6" y="60.709183" transform="rotate(-0 14.6 60.709183)">4</text>
     </g>
    </g>
    <g id="ytick_6">
     <g id="line2d_10">
      <g>
       <use xlink:href="#ma182c39701" x="21.6" y="37.063573" style="stroke: #000000; stroke-width: 0.8"/>
      </g>
     </g>
     <g id="text_10">
      <text style="font: 8px 'Arial', sans-serif; text-anchor: end" x="14.6" y="39.926698" transform="rotate(-0 14.6 39.926698)">5</text>
     </g>
    </g>
    <g id="text_11">
     <text style="font: 8px 'Arial', sans-serif; text-anchor: middle" x="4.4675" y="79.992" transform="rotate(-90 4.4675 79.992)">Enhancer activity</text>
    </g>
   </g>
   <g id="line2d_11">
    <path d="M 31.644 76.849495 
L 31.644 64.869613 
" clip-path="url(#pb561908556)" style="fill: none; stroke: #424242; stroke-width: 2.25; stroke-linecap: square"/>
   </g>
   <g id="line2d_12">
    <path d="M 65.124 35.314887 
L 65.124 24.816 
" clip-path="url(#pb561908556)" style="fill: none; stroke: #424242; stroke-width: 2.25; stroke-linecap: square"/>
   </g>
   <g id="line2d_13">
    <path d="M 98.604 113.579296 
L 98.604 112.276324 
" clip-path="url(#pb561908556)" style="fill: none; stroke: #424242; stroke-width: 2.25; stroke-linecap: square"/>
   </g>
   <g id="line2d_14">
    <path d="M 132.084 106.490187 
L 132.084 97.454585 
" clip-path="url(#pb561908556)" style="fill: none; stroke: #424242; stroke-width: 2.25; stroke-linecap: square"/>
   </g>
   <g id="line2d_15">
    <path d="M 45.036 120.00911 
L 45.036 119.022474 
" clip-path="url(#pb561908556)" style="fill: none; stroke: #424242; stroke-width: 2.25; stroke-linecap: square"/>
   </g>
   <g id="line2d_16">
    <path d="M 78.516 60.31558 
L 78.516 53.659684 
" clip-path="url(#pb561908556)" style="fill: none; stroke: #424242; stroke-width: 2.25; stroke-linecap: square"/>
   </g>
   <g id="line2d_17">
    <path d="M 111.996 119.653691 
L 111.996 104.203473 
" clip-path="url(#pb561908556)" style="fill: none; stroke: #424242; stroke-width: 2.25; stroke-linecap: square"/>
   </g>
   <g id="line2d_18">
    <path d="M 145.476 121.121224 
L 145.476 116.445819 
" clip-path="url(#pb561908556)" style="fill: none; stroke: #424242; stroke-width: 2.25; stroke-linecap: square"/>
   </g>
   <g id="line2d_19">
    <path d="M 21.6 120.193515 
L 155.52 120.193515 
" clip-path="url(#pb561908556)" style="fill: none; stroke-dasharray: 5.55,2.4; stroke-dashoffset: 0; stroke: #808080; stroke-width: 1.5"/>
   </g>
   <g id="patch_13">
    <path d="M 21.6 140.976 
L 21.6 19.008 
" style="fill: none; stroke: #000000; stroke-width: 0.8; stroke-linejoin: miter; stroke-linecap: square"/>
   </g>
   <g id="patch_14">
    <path d="M 155.52 140.976 
L 155.52 19.008 
" style="fill: none; stroke: #000000; stroke-width: 0.8; stroke-linejoin: miter; stroke-linecap: square"/>
   </g>
   <g id="patch_15">
    <path d="M 21.6 140.976 
L 155.52 140.976 
" style="fill: none; stroke: #000000; stroke-width: 0.8; stroke-linejoin: miter; stroke-linecap: square"/>
   </g>
   <g id="patch_16">
    <path d="M 21.6 19.008 
L 155.52 19.008 
" style="fill: none; stroke: #000000; stroke-width: 0.8; stroke-linejoin: miter; stroke-linecap: square"/>
   </g>
   <g id="legend_1">
    <g id="patch_17">
     <path d="M 90.202812 61.185813 
L 149.92 61.185813 
Q 151.52 61.185813 151.52 59.585813 
L 151.52 24.608 
Q 151.52 23.008 149.92 23.008 
L 90.202812 23.008 
Q 88.602812 23.008 88.602812 24.608 
L 88.602812 59.585813 
Q 88.602812 61.185813 90.202812 61.185813 
z
" style="fill: #ffffff; opacity: 0.8; stroke: #cccccc; stroke-linejoin: miter"/>
    </g>
    <g id="text_12">
     <text style="font: 10px 'Arial', sans-serif; text-anchor: start" x="91.802812" y="33.365813" transform="rotate(-0 91.802812 33.365813)">E-P distance</text>
    </g>
    <g id="patch_18">
     <path d="M 100.188281 45.079563 
L 116.188281 45.079563 
L 116.188281 39.479563 
L 100.188281 39.479563 
z
" style="fill: #d5a8d5"/>
    </g>
    <g id="text_13">
     <text style="font: 8px 'Arial', sans-serif; text-anchor: start" x="122.588281" y="45.079563" transform="rotate(-0 122.588281 45.079563)">0kb</text>
    </g>
    <g id="patch_19">
     <path d="M 100.188281 56.395813 
L 116.188281 56.395813 
L 116.188281 50.795813 
L 100.188281 50.795813 
z
" style="fill: #701070"/>
    </g>
    <g id="text_14">
     <text style="font: 8px 'Arial', sans-serif; text-anchor: start" x="122.588281" y="56.395813" transform="rotate(-0 122.588281 56.395813)">10kb</text>
    </g>
   </g>
  </g>
 </g>
 <defs>
  <clipPath id="pb561908556">
   <rect x="21.6" y="19.008" width="133.92" height="121.968"/>
  </clipPath>
 </defs>
</svg>
